<svg xmlns="http://www.w3.org/2000/svg" width="203" height="198" viewBox="0 0 203 198">
    <defs>
        <filter id="61dsufkp9a" width="141.9%" height="143.3%" x="-21%" y="-21.7%" filterUnits="objectBoundingBox">
            <feOffset dy="10" in="SourceAlpha" result="shadowOffsetOuter1"/>
            <feGaussianBlur in="shadowOffsetOuter1" result="shadowBlurOuter1" stdDeviation="5"/>
            <feColorMatrix in="shadowBlurOuter1" result="shadowMatrixOuter1" values="0 0 0 0 0 0 0 0 0 0 0 0 0 0 0 0 0 0 0.2 0"/>
            <feMerge>
                <feMergeNode in="shadowMatrixOuter1"/>
                <feMergeNode in="SourceGraphic"/>
            </feMerge>
        </filter>
    </defs>
    <g fill="none" fill-rule="evenodd">
        <g>
            <g filter="url(#61dsufkp9a)" transform="translate(-86 -220) translate(95 220)">
                <g fill-rule="nonzero" opacity=".5">
                    <path fill="#EBEBEB" d="M19.002 118.987l-5.93.086H6.796v-5.41h6.19l6.016.087h.13v.086c0 .866-.044 1.731-.044 2.597l-.086 2.554zm0 0v-2.597c-.044-.823-.044-1.645-.087-2.51l.13.13-6.017.086H7.012l.216-.217v5.108l-.173-.217h5.887l6.06.217zM12.293 125.35l-5.93.13H.13v-5.411h12.292v.13c0 .865-.043 1.731-.043 2.554l-.086 2.597zm0 0v-2.554c0-.823-.044-1.688-.044-2.51l.087.13-5.973.086H.303l.216-.217v5.065l-.216-.174H3.29l2.986.087 6.017.087zM96.61 55.75l-5.974.13h-6.233v-5.411h6.233l6.016.086h.13v.13c0 .823 0 1.688-.043 2.554l-.13 2.51zm0 0l-.087-2.554c0-.866-.044-1.688-.044-2.51l.13.086-6.016.086h-6.017l.217-.216v5.064l-.217-.216h5.973l6.06.26zM89.77 62.155l-5.93.087h-6.232v-5.41h6.233l5.973.086h.13v.087c0 .865-.044 1.731-.044 2.597l-.13 2.553zm0 0v-2.597c0-.822-.043-1.644-.043-2.51l.087.13-5.973.086h-6.06l.216-.216v5.107l-.216-.216h5.973l6.016.216zM184.951 125.35l-5.973.13h-6.233v-5.411h12.336v.13c-.043.865-.043 1.731-.087 2.554l-.043 2.597zm0 0l-.086-2.554c0-.823-.044-1.688-.044-2.51l.13.13-6.016.086h-5.973l.216-.217v5.065l-.173-.174h2.943l2.987.087 6.016.087zM178.242 5.367l-5.93.13h-6.276V.087h6.233l5.973.086h.13v.13c0 .822-.043 1.688-.043 2.554l-.087 2.51zm0 0V2.813c-.043-.865-.043-1.688-.086-2.51l.13.087-5.974.086h-6.06l.217-.216v5.107l-.173-.216h5.93l6.016.216zM184.951 11.773l-5.973.087h-6.233V6.45h6.19l6.016.086h.13v.086c-.043.866-.043 1.732-.087 2.597l-.043 2.554zm0 0l-.086-2.597c0-.822-.044-1.645-.044-2.51l.13.13-6.016.086h-5.973l.216-.216v5.107l-.173-.216h5.93l6.016.216zM12.293 5.367l-5.93.13H.13V.087h6.19l5.973.086h.13v.13c0 .822-.044 1.688-.044 2.554l-.086 2.51zm0 0V2.813c0-.865-.044-1.688-.044-2.51l.087.087-5.973.086H.303L.519.26v5.107l-.216-.216h5.973l6.017.216zM82.975 55.75l-5.93.13h-6.276v-5.411h6.233l5.973.086h.13v.13c0 .823-.044 1.688-.044 2.554l-.086 2.51zm0 0v-2.554c-.043-.866-.043-1.688-.087-2.51l.13.086-5.973.086h-6.06l.217-.216v5.064l-.173-.216h5.93l6.016.26z"/>
                    <path fill="#DBDBDB" d="M13.496 52.494H34.142V73.158H13.496z" transform="rotate(90 23.819 62.826)"/>
                    <path fill="#FFF" d="M16.701 55.7H30.941000000000003V69.953H16.701z" transform="rotate(90 23.821 62.826)"/>
                    <path fill="#EBEBEB" d="M30.948 55.706L16.708 55.706 16.708 69.946z"/>
                    <path fill="#C7C7C7" d="M11.427 52.486H13.460999999999999V73.15H11.427z" transform="rotate(180 12.444 62.818)"/>
                    <path fill="#DBDBDB" d="M39.077 52.451H59.723V73.11500000000001H39.077z" transform="rotate(90 49.4 62.783)"/>
                    <path fill="#FFF" d="M42.282 55.7H56.522V69.953H42.282z" transform="rotate(90 49.402 62.826)"/>
                    <path fill="#EBEBEB" d="M52.33 55.706L42.288 55.706 42.288 65.748z"/>
                    <path fill="#C7C7C7" d="M37.008 52.486H39.042V73.15H37.008z" transform="rotate(180 38.025 62.818)"/>
                    <path fill="#DBDBDB" d="M23.107 68.512H50.116V114.75200000000001H23.107z" transform="rotate(90 36.612 91.632)"/>
                    <path fill="#FFF" d="M26.44 71.888H46.783V111.376H26.44z" transform="rotate(90 36.612 91.632)"/>
                    <path fill="#EBEBEB" d="M42.764 81.46L16.881 81.46 16.881 94.748z"/>
                    <path fill="#C7C7C7" d="M11.427 78.131H13.460999999999999V105.136H11.427z" transform="rotate(180 12.444 91.634)"/>
                    <path fill="#DBDBDB" d="M13.498 1.465H59.724999999999994V47.705000000000005H13.498z" transform="rotate(90 36.612 24.585)"/>
                    <path fill="#FFF" d="M16.837 4.804H56.312V44.292H16.837z"/>
                    <path fill="#EBEBEB" d="M16.837 33.242c6.017-5.973 23.027-22.897 28.481-28.438h-28.48v28.438z"/>
                    <path fill="#C7C7C7" d="M11.427 1.459H13.460999999999999V47.699000000000005H11.427z" transform="rotate(180 12.444 24.579)"/>
                </g>
                <g fill="#EBEBEB" fill-rule="nonzero" opacity=".1" transform="translate(4.761 159.717)">
                    <ellipse cx="87.866" cy="9.869" rx="87.563" ry="9.479"/>
                </g>
                <g transform="translate(96.09 1.299)">
                    <path fill="#263238" fill-rule="nonzero" d="M75.92.13H7.185c-1.867.011-3.653.767-4.96 2.1C.914 3.561.192 5.36.214 7.227V148.68c-.023 3.88 3.09 7.051 6.97 7.099H75.92c3.862-.071 6.95-3.235 6.926-7.099V7.23c.022-1.86-.695-3.653-1.993-4.984C79.553.913 77.779.153 75.92.13zm2.597 144.178c0 3.722-2.814 6.709-6.233 6.709H10.82c-3.463 0-6.233-2.987-6.233-6.71V12.597c0-7.618 2.77-7.965 6.233-7.965h12.292c.736 0 1.299.823 1.299 1.818v.433c0 2.38 1.299 2.38 2.9 2.38h28.48c1.602 0 2.857 0 2.857-2.38V6.45c0-.995.606-1.818 1.299-1.818h12.336c3.42 0 6.233.996 6.233 7.965v131.712z"/>
                    <path fill="#FFF" fill-rule="nonzero" d="M45.448 6.32h-7.791c-.134 0-.262-.056-.353-.155-.09-.099-.136-.231-.123-.365 0-.263.213-.476.476-.476h7.79c.264 0 .477.213.477.476.012.134-.033.266-.123.365-.09.099-.219.155-.353.154z"/>
                    <path fill="#FFF" fill-rule="nonzero" d="M78.517 12.596v131.712c0 3.722-2.77 6.709-6.233 6.709H10.82c-3.463 0-6.233-2.987-6.233-6.71V12.597c0-7.618 2.77-7.965 6.233-7.965h12.292c.736 0 1.299.823 1.299 1.818v.433c0 2.38 1.299 2.38 2.9 2.38h28.48c1.602 0 2.857 0 2.857-2.38V6.45c0-.995.606-1.818 1.342-1.818h12.293c3.462 0 6.233.996 6.233 7.965z"/>
                    <g fill-rule="nonzero" opacity=".2">
                        <path fill="#FFC727" d="M73.496 132.924c-.168 1.335-.502 2.644-.996 3.896-1.111 1.05-2.582 1.639-4.112 1.645H6.838c-3.419 0-6.232-2.987-6.232-6.71V96.264c2.454-2.53 5.44-4.482 8.743-5.714 7.402-2.77 15.41-1.644 19.78 2.251 6.493 5.67 16.319 21.123 21.902 21.426l1.299.086c4.025.346 11.513 1.429 16.448 5.54 3.333 2.77 5.497 6.926 4.718 13.072z" opacity=".4" transform="translate(3.896 12.552)"/>
                        <path fill="#263238" d="M68.388 138.68H6.838c-3.548 0-6.448-3.115-6.448-6.924V98.47h.043c1.186-1.487 2.458-2.903 3.809-4.241 1.496-1.489 3.185-2.77 5.02-3.81 9.307-5.323 20.257-3.332 25.019 1.559 2.207 2.25 4.674 5.757 7.315 9.436 3.765 5.28 7.66 10.734 10.864 12.768.55.397 1.189.65 1.861.736 4.112.563 9.955 1.818 14.587 4.805 2.813 1.818 4.76 4.025 5.93 6.579v5.497c0 1.972-.796 3.86-2.208 5.237-1.158 1.06-2.672 1.646-4.242 1.645zM.822 98.645v33.112c0 3.592 2.727 6.492 6.017 6.492h61.55c1.471.002 2.885-.573 3.938-1.601 1.345-1.27 2.098-3.043 2.078-4.891v-5.368c-1.082-2.467-3.03-4.588-5.757-6.319-4.545-2.987-10.345-4.199-14.37-4.761-.745-.116-1.455-.397-2.078-.823-3.246-2.034-7.142-7.531-10.95-12.855-2.64-3.679-5.108-7.185-7.272-9.392-4.675-4.805-15.366-6.71-24.499-1.515-1.805 1.029-3.465 2.295-4.934 3.765-1.333 1.3-2.577 2.688-3.723 4.156z" transform="translate(3.896 12.552)"/>
                        <path fill="#FFC727" d="M24.628 4.891c1.862 3.03.866 6.666-1.082 7.791-1.947 1.125-5.41 3.29-5.93 4.675-.519 1.385-3.722 4.804-7.747 2.813C5.843 18.18 6.276 11.254 8.05 6.97 10.43 1.385 19.478-3.463 24.628 4.89z" opacity=".4" transform="translate(3.896 12.552)"/>
                        <path fill="#263238" d="M11.86 21.425c-1.024-.003-2.027-.287-2.9-.822-4.112-2.424-2.944-9.522-.866-13.548 1.731-3.376 5.843-5.93 9.522-5.973 2.251 0 5.368.909 7.618 5.15.83 1.606.985 3.475.433 5.195-.347 1.178-1.16 2.163-2.25 2.727-2.598 1.255-5.54 2.943-6.06 4.025-.52 1.082-1.861 2.38-3.81 2.987-.546.17-1.115.258-1.687.26zm5.756-19.91c-3.549.043-7.444 2.51-9.132 5.757-2.078 4.025-2.987 10.777.692 12.941 1.262.809 2.822 1 4.242.52 1.47-.456 2.73-1.423 3.55-2.727.648-1.472 4.587-3.463 6.275-4.242.983-.525 1.704-1.434 1.991-2.51.525-1.589.385-3.322-.39-4.805-2.12-4.068-5.107-4.934-7.228-4.934z" transform="translate(3.896 12.552)"/>
                        <path fill="#DBDBDB" d="M52.85 25.84c-8.095 1.515-11.73 7.965-9.133 11.47 2.597 3.507 11.643 3.377 13.288 8.398 1.644 5.02 7.92 12.465 14.413 7.401S70.206 22.594 52.85 25.84z" transform="translate(3.896 12.552)"/>
                        <path fill="#263238" d="M64.32 56.918c-.942-.01-1.87-.216-2.727-.606-3.593-1.558-6.276-6.146-7.012-9.825-.606-2.814-3.723-4.372-6.71-5.887-2.986-1.515-4.544-2.294-5.496-3.982-.953-1.688-.78-3.203.13-4.934 1.341-2.468 4.76-5.28 10.431-5.67 11.946-.78 16.361 10.344 17.443 13.807 2.164 6.882 1.256 13.894-2.077 15.885-1.198.748-2.571 1.166-3.982 1.212zM52.98 26.446c-5.498.39-8.83 3.073-10.086 5.454-.866 1.602-.909 3.203-.173 4.502.736 1.298 3.073 2.683 5.367 3.809 3.073 1.558 6.276 3.16 6.882 6.19.606 3.029 3.333 8.007 6.796 9.522 2.034.908 4.155.692 6.32-.606 3.159-1.905 3.981-8.657 1.86-15.41-1.038-3.332-5.367-14.24-16.967-13.46z" transform="translate(3.896 12.552)"/>
                    </g>
                    <g fill="#C7C7C7" fill-rule="nonzero">
                        <path d="M2.813.65l-.13.13H2.64C2.327.474 1.908.304 1.472.302 1.038.302.627.492.346.823L.26.735.173.606l.13-.13L.649.26l.476-.173h.606l.39.086.303.13.26.216.13.087v.043z" transform="translate(18.18 6.925)"/>
                        <path d="M.736 1.212l-.217-.173c.252-.254.595-.397.953-.397.357 0 .7.143.952.397l-.173.173c-.206-.206-.489-.316-.78-.303-.278-.017-.55.094-.735.303z" transform="translate(18.18 6.925)"/>
                        <path d="M2.078 1.385l-.217.216c-.09-.122-.238-.187-.39-.173-.148 0-.29.063-.389.173L.91 1.385c.33-.303.838-.303 1.169 0z" transform="translate(18.18 6.925)"/>
                        <path d="M1.645 1.775c0 .07-.042.133-.107.16-.065.026-.14.012-.189-.038-.05-.05-.064-.124-.037-.189.026-.064.09-.107.16-.107.095 0 .173.078.173.174z" transform="translate(18.18 6.925)"/>
                    </g>
                    <path fill="#C7C7C7" fill-rule="nonzero" d="M9.393 7.92c0-.125.05-.246.139-.336.09-.089.21-.14.337-.14.133-.011.266.033.365.124.099.09.155.219.154.353 0 .287-.232.52-.52.52-.133 0-.262-.056-.352-.155-.09-.099-.136-.231-.123-.365zM10.95 7.92c0-.262.214-.475.477-.475s.476.213.476.476c0 .17-.09.327-.238.412-.147.085-.329.085-.476 0-.147-.085-.238-.242-.238-.412zM12.466 7.92c0-.133.055-.261.154-.352.099-.09.232-.135.365-.123.263 0 .476.213.476.476.012.134-.032.266-.123.365-.09.099-.219.155-.353.154-.138 0-.27-.054-.367-.152-.098-.097-.152-.23-.152-.367zM14.024 7.92c0-.262.213-.475.476-.475.134-.012.266.032.365.123.099.09.155.219.154.353 0 .287-.232.52-.519.52-.134 0-.262-.056-.353-.155-.09-.099-.135-.231-.123-.365zM15.582 7.92c0-.262.213-.475.476-.475s.476.213.476.476-.213.476-.476.476-.476-.213-.476-.476zM72.933 8.96h-3.896V7.228h3.896V8.96zm-3.809-.087h3.68V7.315h-3.68v1.558z"/>
                    <path fill="#C7C7C7" fill-rule="nonzero" d="M69.297 7.488H71.851V8.709H69.297zM72.976 7.575H73.976V8.575H72.976z"/>
                    <path fill="#FFC727" fill-rule="nonzero" d="M49.993 51.897c-5.184 3.214-11.74 3.214-16.924 0-6.125-3.783-8.994-11.172-7.027-18.097 1.966-6.925 8.29-11.703 15.489-11.703 7.198 0 13.522 4.778 15.489 11.703 1.966 6.925-.903 14.314-7.027 18.097z"/>
                    <circle cx="41.544" cy="36.428" r="4.891" fill="#FFF" fill-rule="nonzero" transform="rotate(-4.7 41.544 36.428)"/>
                    <path fill="#FFF" fill-rule="nonzero" d="M49.993 49.863v2.034c-5.184 3.214-11.74 3.214-16.924 0v-2.034c.317-4.44 4.011-7.878 8.462-7.878 4.45 0 8.144 3.439 8.462 7.878z"/>
                    <g fill-rule="nonzero">
                        <path fill="#FFC727" d="M.853 1.169H.555v.554c0 .071-.058.128-.128.128-.086 0-.171-.042-.171-.128V.23c0-.094.076-.17.17-.17h.427c.307 0 .555.248.555.554 0 .306-.248.555-.555.555zM.555.87h.298c.171 0 .299-.085.299-.256C1.131.466 1.002.357.853.358H.555V.87zM2.517 1.425h-.64l-.128.341-.128.085H1.58c-.086-.042-.128-.128-.086-.17L2.048.145l.128-.086c.085 0 .128.043.128.086L2.9 1.68c-.011.064-.041.123-.085.17h-.043c-.085 0-.128-.042-.128-.085l-.128-.341zm-.128-.256L2.176.614l-.213.555h.426zM3.157 1.425c-.012-.047.017-.095.064-.107.047-.012.095.017.107.064.122.13.29.206.47.213l.34-.085c.086-.085.129-.128.129-.213h-.043l-.085-.086-.342-.128-.341-.085C3.365.95 3.29.876 3.243.785 3.2.699 3.157.657 3.157.57c.003-.155.083-.299.214-.384.125-.086.274-.13.426-.128.203.01.398.084.555.214.05.016.086.061.09.114.003.053-.027.102-.075.124-.048.022-.105.012-.143-.025-.122-.099-.27-.159-.427-.17L3.541.4c-.07.03-.119.095-.128.17 0 .043 0 .043.043.086h.043l.34.128.342.085c.128.085.214.128.256.213.04.066.069.139.086.214.003.168-.077.328-.214.426-.154.093-.332.138-.512.128-.236-.012-.46-.102-.64-.256-.043-.048-.043-.122 0-.17zM4.821 1.425c-.007-.03.002-.063.024-.085.023-.022.055-.03.086-.021.03.008.053.033.06.063.139.132.322.209.513.213l.298-.085c.086-.085.128-.128.128-.213 0-.024-.019-.043-.042-.043 0-.043 0-.085-.043-.085l-.384-.128-.298-.086c-.111-.033-.204-.11-.256-.213-.035-.065-.05-.14-.043-.213.004-.146.065-.284.17-.384.141-.088.304-.132.47-.128.203.009.398.084.554.213.043.043.086.128.043.17-.043.043-.128.086-.213.043-.11-.091-.243-.15-.384-.17l-.299.085c-.06.034-.094.102-.085.17v.086h.085l.299.128.384.085.256.214c.03.066.045.14.042.213.004.169-.076.328-.213.427-.14.087-.304.131-.47.128-.238.003-.468-.09-.64-.256-.024-.009-.044-.029-.052-.054-.008-.025-.004-.052.01-.074zM8.874.273l-.64 1.493h-.17c-.024 0-.043-.02-.043-.043h-.043L7.68.955l-.342.768h-.213c0-.023-.019-.042-.043-.042L6.442.187c-.042-.042 0-.128.086-.17.085-.043.128 0 .17.085l.512 1.152.3-.768.17-.085.128.085.298.768.512-1.152c.043-.085.128-.128.171-.085.043.042.128.213.085.256zM10.666.273c.17.186.262.43.256.682.009.24-.084.473-.256.64-.157.161-.372.253-.597.256-.495 0-.896-.4-.896-.896C9.168.703 9.26.46 9.43.273c.346-.33.891-.33 1.237 0zm-.042.682c.009-.173-.053-.342-.171-.469-.094-.114-.236-.177-.384-.17-.161-.014-.32.049-.427.17-.118.127-.18.296-.17.47 0 .33.267.597.597.597.148.006.29-.057.384-.171.121-.107.184-.265.17-.427zM12.629 1.638c0 .085-.043.17-.085.17h-.171c-.047 0-.085-.038-.085-.085-.038-.094-.053-.197-.043-.298 0-.043-.043-.086-.043-.128 0-.043-.042-.043-.085-.086h-.427v.512c0 .086-.085.128-.17.128-.071 0-.128-.057-.128-.128V.23c0-.085.042-.17.128-.17h.469c.147 0 .288.058.392.162.104.104.163.245.163.392.003.169-.077.328-.214.427.043.042.086.042.086.085.074.08.106.191.085.299 0 .042 0 .128.043.128l.085.085zM12.245.614c0-.141-.115-.256-.256-.256h-.299V.87h.299c.072.017.147-.005.199-.057.052-.052.074-.127.057-.199zM13.013 1.723V.23c0-.094.076-.17.17-.17h.3c.485.021.874.41.895.895 0 .495-.4.896-.896.896h-.298c-.086 0-.171-.042-.171-.128zm.299-.128h.17c.337-.022.598-.302.598-.64 0-.33-.268-.597-.598-.597h-.17v1.237z" transform="translate(19.078 62.683)"/>
                        <path fill="#263238" d="M.512 5.947l-.213.17H.256c-.043 0-.043 0-.043-.042h.043l.256-.128-.256-.128c-.024 0-.043-.019-.043-.042H.3l.213.17v-.384c0-.023.02-.042.043-.042.023 0 .042.019.042.042v.299l.214-.17h.085l-.299.127.299.128c0 .043 0 .043-.043.043H.811l-.214-.17v.298H.512v-.17zM1.621 5.947l-.213.17h-.043c-.042 0-.042 0-.042-.042l.298-.128-.298-.128h.085l.213.17v-.426c0-.023.02-.042.043-.042.024 0 .043.019.043.042v.299l.213-.17h.085c0 .042 0 .042-.042.042l-.256.128.256.128h.042c0 .043 0 .043-.042.043H1.92l-.213-.171v.299H1.62v-.214zM2.73 5.947l-.213.17h-.042c-.043 0-.086 0-.086-.042h.043l.256-.128-.256-.128h.085l.214.17v-.426h.128v.299l.256-.17H3.2c0 .042 0 .042-.043.042l-.256.128.256.128H3.2c0 .011-.005.022-.013.03s-.018.013-.03.013h-.042l-.256-.171v.299H2.73v-.214zM3.84 5.947l-.256.17H3.54c-.023 0-.042-.018-.042-.042h.042l.256-.128-.256-.128c-.023 0-.042-.019-.042-.042h.085l.256.17v-.384h.128v.299l.256-.17h.085c0 .023-.019.042-.042.042l-.256.128.256.128h.042c0 .011-.004.022-.012.03s-.02.013-.03.013h-.043l-.256-.171v.299H3.84v-.214zM4.95 5.947l-.257.17h-.042c-.043 0-.043 0-.043-.042h.043l.256-.128-.256-.128c-.024 0-.043-.019-.043-.042h.085l.256.17v-.384h.043c.043 0 .085.043.043.043v.299l.213-.171h.128c0 .023-.02.043-.043.043l-.256.128.256.128h.043c0 .042-.043.042-.085.042h-.043l-.213-.17v.298c.042.043 0 .043-.043.043h-.043v-.299zM6.016 5.947l-.214.17H5.76c-.043 0-.043 0-.043-.042h.043l.256-.128-.256-.128c-.024 0-.043-.019-.043-.042h.085l.214.17v-.384c0-.023.019-.042.042-.042.024 0 .043.019.043.042v.299l.213-.17H6.4l-.299.127.299.128c0 .043 0 .043-.043.043h-.043l-.213-.17v.298h-.085v-.17zM7.125 5.947l-.213.17h-.043c-.043 0-.043 0-.043-.042l.3-.128-.3-.128h.086l.213.17v-.426c0-.023.02-.042.043-.042.023 0 .042.019.042.042v.299l.214-.17h.085c0 .042 0 .042-.043.042l-.256.128.256.128h.043c0 .043 0 .043-.043.043h-.042l-.214-.171v.299h-.085v-.214zM8.234 5.947l-.256.17c-.042 0-.085 0-.085-.042h.043l.256-.128-.256-.128h.042l.256.17v-.426h.128v.299l.256-.17h.086c0 .042 0 .042-.043.042l-.256.128.256.128h.043c0 .011-.005.022-.013.03s-.019.013-.03.013h-.043l-.256-.171v.299h-.128v-.214zM9.344 5.947l-.256.17h-.043c-.024 0-.043-.018-.043-.042h.043l.256-.128-.256-.128c-.024 0-.043-.019-.043-.042h.086l.256.17v-.384h.128v.299l.256-.17h.085c0 .023-.02.042-.043.042l-.256.128.256.128h.043c0 .011-.004.022-.012.03s-.02.013-.03.013h-.043l-.256-.171v.299h-.128v-.214zM10.453 5.947l-.256.17h-.043c-.042 0-.042 0-.042-.042h.042l.256-.128-.256-.128c-.023 0-.042-.019-.042-.042h.085l.256.17v-.384h.043c.042 0 .085.043.042.043v.299l.214-.171h.128c0 .023-.02.043-.043.043l-.256.128.256.128h.043c0 .042-.043.042-.086.042h-.042l-.214-.17v.298c.043.043 0 .043-.042.043h-.086l.043-.299zM11.52 5.947l-.214.17h-.042c-.043 0-.043 0-.043-.042h.043l.256-.128-.256-.128c-.024 0-.043-.019-.043-.042h.085l.214.17v-.384c0-.023.019-.042.042-.042.024 0 .043.019.043.042v.299l.213-.17h.086l-.299.127.299.128c0 .043 0 .043-.043.043h-.043l-.213-.17v.298h-.085v-.17z" transform="translate(19.078 62.683)"/>
                        <path fill="#DBDBDB" d="M0 8.763L5.93 8.678 11.818 8.635 23.637 8.592 35.455 8.635 41.343 8.678 47.273 8.763 41.343 8.848 35.455 8.891 23.637 8.934 11.818 8.891 5.93 8.848z" transform="translate(19.078 62.683)"/>
                        <path fill="#263238" d="M12.202 4.07H13.202V7.901H12.202z" transform="translate(19.078 62.683)"/>
                    </g>
                    <g fill-rule="nonzero">
                        <path fill="#FFC727" d="M.853 1.169H.555v.554c0 .071-.058.128-.128.128-.086 0-.171-.042-.171-.128V.23c0-.094.076-.17.17-.17h.427c.307 0 .555.248.555.554 0 .306-.248.555-.555.555zM.555.87h.298c.171 0 .299-.085.299-.256C1.131.466 1.002.357.853.358H.555V.87zM2.517 1.425h-.64l-.128.341-.128.085H1.58c-.086-.042-.128-.128-.086-.17L2.048.145l.128-.086c.085 0 .128.043.128.086L2.9 1.68c-.011.064-.041.123-.085.17h-.043c-.085 0-.128-.042-.128-.085l-.128-.341zm-.128-.256L2.176.614l-.213.555h.426zM3.157 1.425c-.012-.047.017-.095.064-.107.047-.012.095.017.107.064.122.13.29.206.47.213l.34-.085c.086-.085.129-.128.129-.213h-.043l-.085-.086-.342-.128-.341-.085C3.365.95 3.29.876 3.243.785 3.2.699 3.157.657 3.157.57c.003-.155.083-.299.214-.384.125-.086.274-.13.426-.128.203.01.398.084.555.214.05.016.086.061.09.114.003.053-.027.102-.075.124-.048.022-.105.012-.143-.025-.122-.099-.27-.159-.427-.17L3.541.4c-.07.03-.119.095-.128.17 0 .043 0 .043.043.086h.043l.34.128.342.085c.128.085.214.128.256.213.04.066.069.139.086.214.003.168-.077.328-.214.426-.154.093-.332.138-.512.128-.236-.012-.46-.102-.64-.256-.043-.048-.043-.122 0-.17zM4.821 1.425c-.007-.03.002-.063.024-.085.023-.022.055-.03.086-.021.03.008.053.033.06.063.139.132.322.209.513.213l.298-.085c.086-.085.128-.128.128-.213 0-.024-.019-.043-.042-.043 0-.043 0-.085-.043-.085l-.384-.128-.298-.086c-.111-.033-.204-.11-.256-.213-.035-.065-.05-.14-.043-.213.004-.146.065-.284.17-.384.141-.088.304-.132.47-.128.203.009.398.084.554.213.043.043.086.128.043.17-.043.043-.128.086-.213.043-.11-.091-.243-.15-.384-.17l-.299.085c-.06.034-.094.102-.085.17v.086h.085l.299.128.384.085.256.214c.03.066.045.14.042.213.004.169-.076.328-.213.427-.14.087-.304.131-.47.128-.238.003-.468-.09-.64-.256-.024-.009-.044-.029-.052-.054-.008-.025-.004-.052.01-.074zM8.874.273l-.64 1.493h-.17c-.024 0-.043-.02-.043-.043h-.043L7.68.955l-.342.768h-.213c0-.023-.019-.042-.043-.042L6.442.187c-.042-.042 0-.128.086-.17.085-.043.128 0 .17.085l.512 1.152.3-.768.17-.085.128.085.298.768.512-1.152c.043-.085.128-.128.171-.085.043.042.128.213.085.256zM10.666.273c.17.186.262.43.256.682.009.24-.084.473-.256.64-.157.161-.372.253-.597.256-.495 0-.896-.4-.896-.896C9.168.703 9.26.46 9.43.273c.346-.33.891-.33 1.237 0zm-.042.682c.009-.173-.053-.342-.171-.469-.094-.114-.236-.177-.384-.17-.161-.014-.32.049-.427.17-.118.127-.18.296-.17.47 0 .33.267.597.597.597.148.006.29-.057.384-.171.121-.107.184-.265.17-.427zM12.629 1.638c0 .085-.043.17-.085.17h-.171c-.047 0-.085-.038-.085-.085-.038-.094-.053-.197-.043-.298 0-.043-.043-.086-.043-.128 0-.043-.042-.043-.085-.086h-.427v.512c0 .086-.085.128-.17.128-.071 0-.128-.057-.128-.128V.23c0-.085.042-.17.128-.17h.469c.147 0 .288.058.392.162.104.104.163.245.163.392.003.169-.077.328-.214.427.043.042.086.042.086.085.074.08.106.191.085.299 0 .042 0 .128.043.128l.085.085zM12.245.614c0-.141-.115-.256-.256-.256h-.299V.87h.299c.072.017.147-.005.199-.057.052-.052.074-.127.057-.199zM13.013 1.723V.23c0-.094.076-.17.17-.17h.3c.485.021.874.41.895.895 0 .495-.4.896-.896.896h-.298c-.086 0-.171-.042-.171-.128zm.299-.128h.17c.337-.022.598-.302.598-.64 0-.33-.268-.597-.598-.597h-.17v1.237z" transform="translate(19.078 78.611)"/>
                        <path fill="#263238" d="M.512 5.947l-.213.17H.256c-.043 0-.043 0-.043-.042h.043l.256-.128-.256-.128c-.024 0-.043-.019-.043-.042H.3l.213.17v-.384c0-.023.02-.042.043-.042.023 0 .042.019.042.042v.299l.214-.17h.085l-.299.127.299.128c0 .043 0 .043-.043.043H.811l-.214-.17v.298H.512v-.17zM1.621 5.947l-.213.17h-.043c-.042 0-.042 0-.042-.042l.298-.128-.298-.128h.085l.213.17v-.426c0-.023.02-.042.043-.042.024 0 .043.019.043.042v.299l.213-.17h.085c0 .042 0 .042-.042.042l-.256.128.256.128h.042c0 .043 0 .043-.042.043H1.92l-.213-.171v.299H1.62v-.214zM2.73 5.947l-.213.17h-.042c-.043 0-.086 0-.086-.042h.043l.256-.128-.256-.128h.085l.214.17v-.426h.128v.299l.256-.17H3.2c0 .042 0 .042-.043.042l-.256.128.256.128H3.2c0 .011-.005.022-.013.03s-.018.013-.03.013h-.042l-.256-.171v.299H2.73v-.214zM3.84 5.947l-.256.17H3.54c-.023 0-.042-.018-.042-.042h.042l.256-.128-.256-.128c-.023 0-.042-.019-.042-.042h.085l.256.17v-.384h.128v.299l.256-.17h.085c0 .023-.019.042-.042.042l-.256.128.256.128h.042c0 .011-.004.022-.012.03s-.02.013-.03.013h-.043l-.256-.171v.299H3.84v-.214zM4.95 5.947l-.257.17h-.042c-.043 0-.043 0-.043-.042h.043l.256-.128-.256-.128c-.024 0-.043-.019-.043-.042h.085l.256.17v-.384h.043c.043 0 .085.043.043.043v.299l.213-.171h.128c0 .023-.02.043-.043.043l-.256.128.256.128h.043c0 .042-.043.042-.085.042h-.043l-.213-.17v.298c.042.043 0 .043-.043.043h-.043v-.299zM6.016 5.947l-.214.17H5.76c-.043 0-.043 0-.043-.042h.043l.256-.128-.256-.128c-.024 0-.043-.019-.043-.042h.085l.214.17v-.384c0-.023.019-.042.042-.042.024 0 .043.019.043.042v.299l.213-.17H6.4l-.299.127.299.128c0 .043 0 .043-.043.043h-.043l-.213-.17v.298h-.085v-.17zM7.125 5.947l-.213.17h-.043c-.043 0-.043 0-.043-.042l.3-.128-.3-.128h.086l.213.17v-.426c0-.023.02-.042.043-.042.023 0 .042.019.042.042v.299l.214-.17h.085c0 .042 0 .042-.043.042l-.256.128.256.128h.043c0 .043 0 .043-.043.043h-.042l-.214-.171v.299h-.085v-.214zM8.234 5.947l-.256.17c-.042 0-.085 0-.085-.042h.043l.256-.128-.256-.128h.042l.256.17v-.426h.128v.299l.256-.17h.086c0 .042 0 .042-.043.042l-.256.128.256.128h.043c0 .011-.005.022-.013.03s-.019.013-.03.013h-.043l-.256-.171v.299h-.128v-.214zM9.344 5.947l-.256.17h-.043c-.024 0-.043-.018-.043-.042h.043l.256-.128-.256-.128c-.024 0-.043-.019-.043-.042h.086l.256.17v-.384h.128v.299l.256-.17h.085c0 .023-.02.042-.043.042l-.256.128.256.128h.043c0 .011-.004.022-.012.03s-.02.013-.03.013h-.043l-.256-.171v.299h-.128v-.214zM10.453 5.947l-.256.17h-.043c-.042 0-.042 0-.042-.042h.042l.256-.128-.256-.128c-.023 0-.042-.019-.042-.042h.085l.256.17v-.384h.043c.042 0 .085.043.042.043v.299l.214-.171h.128c0 .023-.02.043-.043.043l-.256.128.256.128h.043c0 .042-.043.042-.086.042h-.042l-.214-.17v.298c.043.043 0 .043-.042.043h-.086l.043-.299zM11.52 5.947l-.214.17h-.042c-.043 0-.043 0-.043-.042h.043l.256-.128-.256-.128c-.024 0-.043-.019-.043-.042h.085l.214.17v-.384c0-.023.019-.042.042-.042.024 0 .043.019.043.042v.299l.213-.17h.086l-.299.127.299.128c0 .043 0 .043-.043.043h-.043l-.213-.17v.298h-.085v-.17z" transform="translate(19.078 78.611)"/>
                        <path fill="#DBDBDB" d="M0 8.763L5.93 8.678 11.818 8.635 23.637 8.592 35.455 8.635 41.343 8.678 47.273 8.763 41.343 8.848 35.455 8.891 23.637 8.934 11.818 8.891 5.93 8.848z" transform="translate(19.078 78.611)"/>
                        <path fill="#263238" d="M12.202 4.07H13.202V7.901H12.202z" transform="translate(19.078 78.611)"/>
                    </g>
                    <path fill="#FFC727" fill-rule="nonzero" d="M23.893 101.544H58.665V111.499H23.893z"/>
                    <text fill="#212121" font-family="Poppins-Medium, Poppins" font-size="2.987" font-weight="400">
                        <tspan x="37.252" y="107.53">NEXT</tspan>
                    </text>
                </g>
                <g fill="#263238" fill-rule="nonzero">
                    <path d="M0.303 0.39L23.373 0.26 46.487 0.216 92.627 0.173 138.768 0.216 161.881 0.26 184.951 0.39 161.881 0.476 138.768 0.519 92.627 0.606 46.487 0.519 23.373 0.476z" transform="translate(0 156.687)"/>
                </g>
                <g fill-rule="nonzero">
                    <path fill="#263238" d="M6.796 14.11c6.19 6.06 7.228 15.496 5.93 23.72-.038.052-.102.079-.165.07-.064-.01-.117-.053-.139-.113 0-1.905.044-3.723.044-5.584-.049-.079-.078-.168-.087-.26-1.645-1.168-3.116-2.51-4.069-4.328-.952-1.818-1.428-4.328-2.207-6.45-.087-.216.13-.172.26-.043 3.809 2.77 4.977 5.757 6.06 9.783-.002-2.095-.22-4.184-.65-6.233-.822-3.81-2.424-7.575-5.15-10.388-.024-.05-.014-.11.025-.148.039-.04.098-.05.148-.026z" transform="translate(157.12 117.732)"/>
                    <path fill="#FFC727" d="M5.627 14.803c-1.082.043-1.731 1.775-2.554 2.25-.179.15-.413.218-.644.185-.232-.033-.438-.163-.568-.357-.822-1.169.303-2.597 1.385-3.376-.779.302-1.385.865-2.207 1.038-.213.066-.444.037-.634-.079-.19-.116-.322-.307-.362-.527-.346-1.558 1.602-2.294 2.944-2.294-.65-.476-2.51-1.688-1.515-2.294.995-.606 3.203 1.126 3.938 1.732.736.606 2.294 2.12 2.338 3.462.043 1.342-1.299.606-2.121.26z" transform="translate(157.12 117.732)"/>
                    <path fill="#000" d="M5.627 14.803c-1.082.043-1.731 1.775-2.554 2.25-.179.15-.413.218-.644.185-.232-.033-.438-.163-.568-.357-.822-1.169.303-2.597 1.385-3.376-.779.302-1.385.865-2.207 1.038-.213.066-.444.037-.634-.079-.19-.116-.322-.307-.362-.527-.346-1.558 1.602-2.294 2.944-2.294-.65-.476-2.51-1.688-1.515-2.294.995-.606 3.203 1.126 3.938 1.732.736.606 2.294 2.12 2.338 3.462.043 1.342-1.299.606-2.121.26z" opacity=".1" transform="translate(157.12 117.732)"/>
                    <path fill="#FFC727" d="M5.93 15.063c-1.342-.606-3.982.303-4.199-.217-.216-.52 1.645-1.774 2.77-1.904-1.038-.303-3.03-.736-2.986-1.732.043-.995 3.073-.173 4.588.953 1.515 1.125 1.904 2.9 1.558 3.16-.346.26-1.515-.13-1.731-.26z" transform="translate(157.12 117.732)"/>
                    <path fill="#263238" d="M20.906 13.505c-6.406 5.843-7.834 15.192-6.839 23.46.043.216.346.172.346 0 .087-1.905.087-3.766.174-5.584.043-.087.043-.173.086-.26 1.688-1.125 3.203-2.38 4.199-4.155.995-1.775 1.601-4.285 2.467-6.406.086-.173-.13-.13-.26-.044-3.895 2.64-5.194 5.584-6.45 9.566.112-2.1.417-4.187.91-6.233.952-3.765 2.727-7.444 5.54-10.171.087-.087-.043-.26-.173-.173z" transform="translate(157.12 117.732)"/>
                    <path fill="#FFC727" d="M22.075 14.284c1.038.043 1.644 1.774 2.467 2.294.166.152.39.226.614.201.224-.025.426-.146.555-.331.865-1.126-.174-2.554-1.212-3.42.735.347 1.341.91 2.164 1.126.207.066.431.043.62-.064.19-.107.325-.288.375-.499.433-1.558-1.515-2.337-2.856-2.424.692-.433 2.597-1.601 1.644-2.25-.952-.65-3.246 1.038-4.025 1.6-.78.564-2.38 2.035-2.467 3.377-.087 1.342 1.255.65 2.12.39z" transform="translate(157.12 117.732)"/>
                    <path fill="#000" d="M22.075 14.284c1.038.043 1.644 1.774 2.467 2.294.166.152.39.226.614.201.224-.025.426-.146.555-.331.865-1.126-.174-2.554-1.212-3.42.735.347 1.341.91 2.164 1.126.207.066.431.043.62-.064.19-.107.325-.288.375-.499.433-1.558-1.515-2.337-2.856-2.424.692-.433 2.597-1.601 1.644-2.25-.952-.65-3.246 1.038-4.025 1.6-.78.564-2.38 2.035-2.467 3.377-.087 1.342 1.255.65 2.12.39z" opacity=".1" transform="translate(157.12 117.732)"/>
                    <path fill="#FFC727" d="M21.728 14.5c1.385-.563 3.983.433 4.242-.087.26-.519-1.601-1.817-2.727-1.99 1.082-.26 3.073-.607 3.073-1.645 0-1.04-3.073-.26-4.63.822-1.56 1.082-1.992 2.813-1.689 3.073.303.26 1.515-.086 1.731-.173z" transform="translate(157.12 117.732)"/>
                    <path fill="#263238" d="M14.327 28.914c-.422 3.12-1.088 6.203-1.991 9.219-.024.12-.14.197-.26.173-.12-.024-.197-.14-.173-.26.433-2.813 1.169-5.627 1.602-8.483.455-2.876.63-5.79.519-8.7-.303-4.761-1.602-9.869-4.718-13.635-.043-.086.087-.216.173-.13 6.233 7.315 5.237 16.275 5.237 17.054.866-3.03 1.818-6.492 5.151-9.565.13-.13.26-.044.217.173-.563 5.583-2.121 8.527-5.41 11.513-.07.886-.186 1.767-.347 2.64z" transform="translate(157.12 117.732)"/>
                    <path fill="#FFC727" d="M9.263 8.094c-1.126-.52-2.684.909-3.81.996-.254.064-.523.015-.739-.134-.215-.15-.356-.385-.386-.646C4.068 6.71 5.93 5.8 7.445 5.54c-.952-.086-1.861.173-2.814-.086-.26-.027-.493-.17-.636-.388-.142-.218-.18-.49-.1-.738.433-1.774 2.814-1.515 4.242-.865-.476-.823-1.774-3.03-.433-3.16 1.342-.13 2.727 2.813 3.203 3.766.477.952 1.299 3.376.693 4.804-.606 1.429-1.645-.043-2.337-.779z" transform="translate(157.12 117.732)"/>
                    <path fill="#000" d="M9.263 8.094c-1.126-.52-2.684.909-3.81.996-.254.064-.523.015-.739-.134-.215-.15-.356-.385-.386-.646C4.068 6.71 5.93 5.8 7.445 5.54c-.952-.086-1.861.173-2.814-.086-.26-.027-.493-.17-.636-.388-.142-.218-.18-.49-.1-.738.433-1.774 2.814-1.515 4.242-.865-.476-.823-1.774-3.03-.433-3.16 1.342-.13 2.727 2.813 3.203 3.766.477.952 1.299 3.376.693 4.804-.606 1.429-1.645-.043-2.337-.779z" opacity=".1" transform="translate(157.12 117.732)"/>
                    <path fill="#FFC727" d="M9.436 8.527C8.354 7.185 5.15 6.796 5.194 6.147c.043-1.343 2.597-1.04 3.852-.607-.952-.822-2.77-2.294-2.207-3.29.563-.995 3.246 1.343 4.242 3.334.995 1.99.519 3.938.043 4.068-.476.13-1.515-.909-1.688-1.125zM18.482 30.602L21.21 51.68H4.415C4.76 49.82 7.92 30.6 7.92 30.6h10.561z" transform="translate(157.12 117.732)"/>
                </g>
                <g fill-rule="nonzero">
                    <path fill="#263238" d="M74.145 56.875c.001.223-.168.41-.39.433h-1.904c-1.212-4.545-2.64-8.181-2.294-6.796.495 2.2.656 4.461.476 6.709l-3.722-.216c-.606-7.791-1.905-13.678-1.948-11.903-.303 7.098-.952 9.306-1.688 11.686-8.917-.52-20.603-1.342-29.044-2.12-.519-4.33-.909-9.004-1.082-8.657-1.385 2.25-2.077 5.67-2.38 8.353-2.684-.26-4.848-.52-6.147-.736 0 0-.216-3.635-.173-4.804.05-3.035.682-6.033 1.862-8.83 1.211-2.857 3.03-5.324 4.76-7.834v-.13h.044c1.13-1.651 2.073-3.422 2.813-5.28.518-1.347.909-2.738 1.17-4.156.908-5.194 4.37-9.392 9.392-10.258 9.22-6.017 19.131-3.117 21.209 3.895.233.753.42 1.52.562 2.294.606 3.16 1.04 7.142 1.515 10.259.181 1.224.427 2.437.736 3.635 1.818 5.67 6.839 9.35 6.233 24.456z" transform="translate(1.299 51.94)"/>
                    <path fill="#263238" d="M41.639 13.505c-3.376 1.341-5.627 3.592-6.536 7.358-.52 2.164-.909 4.328-1.948 6.32-1.039 1.99-2.727 3.722-4.328 5.323-2.597 2.597-4.458 5.237-5.194 8.916-.736 3.68-1.082 8.268-.173 11.947h.043c-.65-3.68-.173-8.657.866-12.38 1.039-3.722 3.765-6.405 6.492-9.305 2.168-2.239 3.693-5.02 4.415-8.051.433-1.861.606-3.852 1.558-5.54.953-1.688 3.074-3.16 5.021-4.199.26-.13.044-.476-.216-.39zM72.76 38.825c-1.991-3.203-4.069-5.973-5.021-9.782s-1.169-7.098-2.034-10.56h-.087c1.255 6.145.996 12.162 4.285 17.572 1.818 2.944 3.636 5.67 4.675 9.09 1.025 3.554 1.363 7.27.995 10.95 0 .048.04.087.087.087.048 0 .086-.039.086-.086 1.202-5.928.137-12.09-2.986-17.27z" transform="translate(1.299 51.94)"/>
                    <path fill="#37474F" d="M96.61 29.996L84.575 52.633c-.433.65-.216 1.298.476 1.472l12.466 3.073c.788.126 1.579-.21 2.034-.866l12.033-22.637c.433-.65.217-1.299-.476-1.472L98.644 29.13c-.789-.126-1.58.21-2.035.866z" transform="translate(1.299 51.94)"/>
                    <path fill="#455A64" d="M98.08 30.342L86.049 52.979c-.433.65-.216 1.342.476 1.515l12.466 3.03c.791.132 1.59-.184 2.077-.822l11.99-22.681c.433-.65.216-1.299-.476-1.472l-12.466-3.073c-.788-.126-1.579.21-2.034.866z" transform="translate(1.299 51.94)"/>
                    <path fill="#263238" d="M101.24 32.29c-.155.585-.756.934-1.341.779-.586-.156-.935-.756-.78-1.342.072-.284.254-.526.507-.673.253-.147.554-.185.835-.106.284.07.527.253.673.506.147.253.185.554.107.836z" transform="translate(1.299 51.94)"/>
                    <path fill="#AD6359" d="M45.708 61.246c5.194 16.275 18.741 38.35 25.407 39.302 3.203.433 8.787 1.948 13.418-1.169 10.172-6.752 20.3-20.343 23.417-28.22 1.211-2.944-14.198-13.116-16.795-10.865-5.973 5.238-13.59 16.058-14.5 15.885-3.376-.692-15.322-13.59-23.632-22.68-10.086-11.038-9.393 1.298-7.315 7.747zM111.672 56.875c0-6.536-.996-8.224 1.948-13.764 1.947-3.636.476-6.45-3.073-4.026-5.8 3.939-7.575 12.423-7.359 15.496l8.484 2.294z" transform="translate(1.299 51.94)"/>
                    <path fill="#AD6359" d="M105.915 74.967s4.935-7.92 5.627-14.89c.476-4.847.39-15.495-11.297-24.065-2.77-2.034-8.18-2.987-4.848 1.991 2.338 3.55 4.891 5.064 5.887 7.358 0 0-6.969-.39-8.917 2.467-1.688 2.5-3.192 5.118-4.501 7.835.44.36.903.693 1.385.995 0 0-1.731 2.727-.606 7.532l17.27 10.777z" transform="translate(1.299 51.94)"/>
                    <path fill="#AD6359" d="M111.282 55.36c-1.471-2.078-4.674-6.406-8.527-9.046-3.852-2.64-13.33-7.489-15.452-4.286-1.601 2.338 1.732 4.372 1.732 4.372s-4.156-1.082-5.108 1.342c-.952 2.424 1.775 3.592 1.775 3.592s-2.597-.216-3.03 2.078c-.433 2.294 5.02 2.77 6.925 6.017.433.692 21.685-4.07 21.685-4.07z" transform="translate(1.299 51.94)"/>
                    <path fill="#263238" d="M100.375 51.334c-1.688-1.73-6.58-4.63-11.254-4.977-.13-.043-.173.043-.086.086 3.97 1.165 7.78 2.823 11.34 4.935 0 0 .043 0 0-.044zM97.302 55.576c-1.645-1.342-6.796-4.112-11.557-4.328-.13 0-.173.086-.087.13 4.019.958 7.912 2.382 11.6 4.242.024 0 .044-.02.044-.044z" transform="translate(1.299 51.94)"/>
                    <path fill="#FFC727" d="M52.98 82.066l13.244-16.578s-10.518-11.6-17.27-16.404c-3.766-2.727-5.887.173-5.367 4.328 1.86 14.543 9.392 28.654 9.392 28.654z" transform="translate(1.299 51.94)"/>
                    <path fill="#FFC727" d="M52.98 82.066l13.244-16.578s-10.518-11.6-17.27-16.404c-3.766-2.727-5.887.173-5.367 4.328 1.86 14.543 9.392 28.654 9.392 28.654z" transform="translate(1.299 51.94)"/>
                    <path fill="#FFF" d="M62.026 61.766c-.477-.018-.916.255-1.11.69-.195.435-.106.945.224 1.288.331.344.837.452 1.279.274.442-.178.732-.607.732-1.084 0-.628-.497-1.145-1.125-1.168zm0 2.12c-.526 0-.953-.426-.953-.952 0-.525.427-.952.953-.952.525 0 .952.427.952.952 0 .526-.427.953-.952.953zm-10.692 1.472c-.48-.017-.922.261-1.113.701-.192.44-.095.954.245 1.294.34.34.852.437 1.293.245.44-.192.718-.634.7-1.114-.021-.612-.512-1.103-1.125-1.126zm0 2.121c-.26 0-.509-.106-.689-.294-.18-.188-.275-.441-.263-.701 0-.526.427-.952.952-.952.526 0 .953.426.953.952.012.26-.084.513-.263.701-.18.188-.43.295-.69.294zm.823-11.427c-.473 0-.899.285-1.08.722-.18.437-.08.94.253 1.273.335.335.837.435 1.274.254.437-.181.722-.607.722-1.08 0-.645-.524-1.169-1.17-1.169zm0 2.165c-.26 0-.51-.106-.69-.294-.18-.189-.274-.442-.262-.702 0-.526.426-.952.952-.952s.952.426.952.952c.012.26-.083.513-.263.702-.18.188-.429.294-.69.294zm-8.614-6.97v.217c.4.119.667.493.65.91.002.41-.26.777-.65.908v.13c.525-.115.896-.584.885-1.121-.01-.538-.399-.992-.928-1.086l.043.043zm15.929 22.725c-.046-.612-.556-1.084-1.169-1.082-.645 0-1.169.523-1.169 1.168 0 .646.524 1.17 1.17 1.17h.172l.217-.26-.39.086c-.385 0-.732-.232-.88-.588-.147-.356-.066-.765.207-1.038.272-.272.682-.353 1.038-.206.355.147.587.495.587.88v.173l.217-.303z" transform="translate(1.299 51.94)"/>
                    <path fill="#000" d="M64.71 67.393L52.98 82.066s-7.532-14.11-9.393-28.654c-.39-2.857.52-5.107 2.337-5.367l18.785 19.348z" opacity=".1" transform="translate(1.299 51.94)"/>
                    <path fill="#263238" d="M63.15 63.973c-2.25 2.38-8.136 9.047-11.426 13.851 0 .043.087.13.087.087 3.332-3.593 9.479-11.21 11.513-13.808 0-.043-.13-.173-.173-.13z" transform="translate(1.299 51.94)"/>
                    <path fill="#FFC727" d="M4.848 105.396l57.091-.173-3.16-19.608s4.502-5.454 3.636-11.427c-.866-5.973-12.682-22.983-13.634-23.936-3.982-3.722-8.18-4.371-12.25-3.03-18.655 11.73-31.683 58.174-31.683 58.174z" transform="translate(1.299 51.94)"/>
                    <path fill="#FFF" d="M60.727 97.778c-.177.225-.45.353-.736.346-.526 0-.952-.426-.952-.952-.012-.26.083-.514.263-.702.18-.188.429-.294.69-.294.18.003.358.047.519.13v-.216c-.149-.07-.313-.1-.477-.087-.462-.09-.934.107-1.196.5-.261.392-.261.903 0 1.295.262.393.734.59 1.196.5.291.012.574-.098.78-.304l-.087-.216zM49.214 91.76c-.646 0-1.17.524-1.17 1.17 0 .645.524 1.168 1.17 1.168.645 0 1.168-.523 1.168-1.169 0-.645-.523-1.169-1.168-1.169zm0 2.121c-.526 0-.953-.426-.953-.952s.427-.952.953-.952c.525 0 .952.426.952.952s-.427.952-.952.952zm9.09-20.992c-.474 0-.9.284-1.08.721-.181.437-.081.94.253 1.274.334.334.837.434 1.273.253.437-.18.722-.607.722-1.08 0-.645-.523-1.168-1.169-1.168zm0 2.12c-.386 0-.733-.231-.88-.587-.148-.356-.067-.766.206-1.038.272-.272.682-.354 1.038-.206.355.147.587.494.587.88 0 .525-.426.952-.952.952zM16.49 102.28c-.463-.091-.935.106-1.196.498-.262.393-.262.904 0 1.296.261.393.733.59 1.196.5.549-.108.945-.589.945-1.148 0-.559-.396-1.04-.945-1.147zm0 2.12c-.41.018-.789-.218-.954-.594-.165-.376-.082-.814.208-1.104.29-.29.728-.373 1.104-.208.376.165.612.544.594.954 0 .526-.426.952-.952.952zm11.817-5.973c-.477-.018-.916.256-1.11.69-.195.436-.106.945.224 1.289.331.343.837.451 1.279.273.442-.178.732-.607.732-1.083 0-.63-.497-1.146-1.125-1.169zm0 2.121c-.26.012-.514-.083-.702-.263-.188-.18-.294-.429-.294-.69 0-.26.106-.508.294-.688.188-.18.442-.275.702-.263.525 0 .952.426.952.952s-.427.952-.952.952zm-8.96-31.467h-.173c-.04.067-.07.14-.087.216h.26c.526 0 .952.427.952.952.01.475-.33.884-.799.96-.468.076-.921-.204-1.062-.657l-.13.26c.22.366.612.594 1.039.606.463.09.935-.106 1.196-.499.262-.392.262-.904 0-1.296-.261-.393-.733-.59-1.196-.499v-.043zm3.29 8.873c-.477-.018-.916.256-1.11.69-.195.436-.106.945.224 1.288.33.344.837.452 1.279.274.442-.178.731-.607.732-1.083 0-.63-.497-1.146-1.126-1.17zm0 2.12c-.527 0-.953-.426-.953-.951 0-.526.426-.953.952-.953s.953.427.953.953c0 .525-.427.952-.953.952zm9.522-26.272c-.646 0-1.169.523-1.169 1.168 0 .646.523 1.169 1.169 1.169.645 0 1.168-.523 1.168-1.169 0-.645-.523-1.168-1.168-1.168zm0 2.12c-.526 0-.952-.426-.952-.952s.426-.952.952-.952c.34 0 .654.182.824.476.17.295.17.658 0 .952-.17.295-.484.477-.824.477zm1.168 18.007c-.645 0-1.168.523-1.168 1.168 0 .646.523 1.169 1.168 1.169.646 0 1.17-.523 1.17-1.169 0-.645-.524-1.168-1.17-1.168zm0 2.164c-.26 0-.509-.106-.689-.294-.18-.188-.275-.442-.263-.702 0-.526.427-.952.952-.952.397-.084.806.08 1.032.417.227.337.227.777 0 1.113-.226.337-.635.502-1.032.418zm9.912-24.888c-.645 0-1.168.523-1.168 1.168 0 .646.523 1.169 1.168 1.169.646 0 1.17-.523 1.17-1.169 0-.645-.524-1.168-1.17-1.168zm0 2.12c-.526 0-.952-.426-.952-.952s.426-.952.952-.952.953.426.953.952-.427.953-.953.953zm8.917 2.727c-.473 0-.899.285-1.08.722-.18.437-.08.94.253 1.273.335.335.837.435 1.274.254.437-.181.722-.607.722-1.08 0-.645-.524-1.169-1.17-1.169zm0 2.165c-.26 0-.51-.106-.69-.294-.18-.189-.274-.442-.262-.702 0-.526.426-.952.952-.952s.952.426.952.952c.012.26-.083.513-.263.702-.18.188-.429.294-.69.294zM48.26 101.11c-.645 0-1.168.523-1.168 1.168-.09.463.106.935.499 1.197.392.261.903.261 1.296 0 .392-.262.589-.734.499-1.197 0-.629-.497-1.145-1.126-1.168zm0 2.12c-.41.018-.788-.218-.953-.594-.166-.375-.083-.814.207-1.104.29-.29.729-.373 1.104-.207.376.165.612.543.595.953 0 .526-.427.953-.953.953zm-10.647-9.695c-.646 0-1.17.523-1.17 1.169 0 .645.524 1.168 1.17 1.168.645 0 1.168-.523 1.168-1.168 0-.646-.523-1.169-1.168-1.169zm0 2.121c-.526 0-.953-.426-.953-.952-.012-.26.084-.514.263-.702.18-.188.43-.294.69-.294.26 0 .509.106.689.294.18.188.275.442.263.702 0 .526-.427.952-.952.952zm12.552-16.102c-.646 0-1.169.524-1.169 1.17 0 .645.523 1.168 1.169 1.168.645 0 1.168-.523 1.168-1.169 0-.645-.523-1.169-1.168-1.169zm0 2.121c-.526 0-.952-.426-.952-.952s.426-.952.952-.952.952.426.952.952-.426.952-.952.952zm1.168-16.318c-.48-.017-.922.261-1.113.701-.192.44-.095.954.245 1.294.34.34.852.437 1.293.245.44-.192.718-.634.7-1.114-.021-.612-.512-1.103-1.125-1.126zm0 2.121c-.26 0-.509-.106-.689-.294-.18-.188-.275-.441-.263-.701 0-.526.427-.952.952-.952.526 0 .953.426.953.952.012.26-.084.513-.263.701-.18.188-.43.295-.69.294zm8.008 16.751c-.629.023-1.126.54-1.125 1.169-.018.47.258.901.692 1.082v-.26c-.282-.181-.46-.487-.476-.822 0-.526.426-.953.952-.953h.26l.086-.173-.39-.043zm-15.15-12.422c-.645 0-1.168.523-1.168 1.168 0 .646.523 1.169 1.169 1.169.645 0 1.168-.523 1.168-1.169 0-.645-.523-1.168-1.168-1.168zm0 2.12c-.525 0-.952-.426-.952-.952s.427-.952.953-.952c.26-.012.513.083.701.263.188.18.294.43.294.69 0 .26-.106.509-.294.688-.188.18-.441.275-.701.264zM14.414 84.23c-.645 0-1.168.523-1.168 1.169 0 .645.523 1.168 1.168 1.168.646 0 1.17-.523 1.17-1.168 0-.646-.524-1.169-1.17-1.169zm0 2.121c-.525 0-.952-.426-.952-.952s.427-.953.952-.953c.526 0 .953.427.953.953s-.427.952-.953.952zm23.2 17.833c-.298 0-.584.118-.795.33-.211.21-.33.497-.33.795h.173c.043-.5.451-.889.953-.909.248-.012.49.079.67.25.18.172.282.41.282.66h.216c-.023-.63-.54-1.127-1.168-1.126zm-8.96-18.136c-.628.023-1.125.54-1.125 1.169.108.548.588.944 1.147.944.56 0 1.04-.396 1.147-.944 0-.646-.523-1.169-1.168-1.169zm0 2.12c-.525 0-.951-.425-.951-.951s.426-.953.952-.953.952.427.952.953c0 .252-.1.494-.279.673-.178.179-.42.279-.673.279zm.607-23.416c-.418 0-.804.223-1.012.585-.21.361-.21.807 0 1.168.208.362.594.585 1.012.585.645 0 1.168-.524 1.168-1.169s-.523-1.169-1.168-1.169zm0 2.121c-.526 0-.952-.426-.952-.952s.426-.952.952-.952.952.426.952.952c0 .253-.1.495-.279.673-.178.179-.42.28-.673.28zM8.657 94.272H8.44c-.043.043-.043.13-.086.216h.303c.34 0 .654.182.824.476.17.295.17.658 0 .953-.17.294-.484.476-.824.476-.329 0-.637-.162-.823-.433-.01.073-.024.145-.043.216.204.273.525.433.866.433.645 0 1.168-.523 1.168-1.168 0-.646-.523-1.17-1.168-1.17zm12.639-1.905c-.63 0-1.146.497-1.17 1.126 0 .653.517 1.188 1.17 1.212.652-.024 1.169-.56 1.168-1.212-.023-.629-.54-1.126-1.168-1.126zm0 2.121c-.397.084-.806-.08-1.032-.417-.227-.336-.227-.777 0-1.113.226-.336.635-.502 1.032-.417.525 0 .952.426.952.952.012.26-.083.513-.263.701-.18.188-.43.295-.69.294zm18.438-11.21c-.645 0-1.168.523-1.168 1.168 0 .646.523 1.17 1.168 1.17.646 0 1.17-.524 1.17-1.17 0-.645-.524-1.168-1.17-1.168zm0 2.12c-.525 0-.952-.426-.952-.952 0-.525.427-.952.952-.952.34 0 .655.182.825.476.17.295.17.658 0 .953-.17.294-.484.476-.825.476zm-2.986-38.262c-.163.224-.416.367-.693.39l-.303.173h.217c.46-.015.876-.281 1.082-.693l-.303.13zm3.592 12.898c-.472 0-.898.285-1.08.722-.18.437-.08.94.254 1.274.334.334.837.434 1.274.253.436-.181.721-.607.721-1.08 0-.31-.123-.607-.342-.826-.22-.22-.517-.343-.827-.343zm0 2.121c-.385 0-.732-.232-.88-.587-.147-.356-.065-.766.207-1.038.272-.273.682-.354 1.038-.207.356.148.588.495.588.88 0 .253-.1.495-.28.673-.178.18-.42.28-.673.28z" transform="translate(1.299 51.94)"/>
                    <path fill="#263238" d="M54.97 58.173c1.082 1.861 2.294 3.636 3.463 5.454-.476-1.298-.909-2.597-1.428-3.852 0 0 0-.044.043 0 .8 1.52 1.452 3.115 1.948 4.761.863 1.366 1.643 2.782 2.337 4.242.825 1.759 1.338 3.648 1.515 5.583.134 1.952-.131 3.911-.78 5.757-.798 2.11-1.768 4.151-2.9 6.103-.129.26-.519 0-.389-.26 1.602-3.462 3.42-7.055 3.247-10.994-.174-3.938-1.948-7.444-3.723-10.777-1.035-2.044-2.191-4.024-3.463-5.93-.043-.087.087-.13.13-.087zM49.733 84.1c-2.335.214-4.65.604-6.925 1.169-1.13.266-2.243.598-3.333.995l-1.688.477c-.572.202-1.17.318-1.775.346-.043 0-.043.086 0 .086.577.03 1.156.015 1.731-.043.556-.059 1.105-.16 1.645-.303l3.42-.909c2.294-.606 4.63-1.169 6.968-1.601.087-.044.087-.217-.043-.217zM55.49 86.178c-1.913-.195-3.835-.281-5.757-.26-.996 0-1.948.087-2.9.173l-1.385.13c-.52.087-.996.217-1.515.26-.52.043-.043.086 0 .086h2.9l2.9-.086 5.757-.087c.06 0 .108-.048.108-.108s-.049-.108-.108-.108z" transform="translate(1.299 51.94)"/>
                    <path fill="#AD6359" d="M29.693 52.373C15.149 67.61-2.9 99.423.649 105.743c3.982 7.054 24.802-14.501 24.153-15.54-.65-1.039 6.838-20.17 12.076-34.194 5.237-14.024-3.593-7.401-7.185-3.636z" transform="translate(1.299 51.94)"/>
                    <path fill="#FFC727" d="M11.903 70.639l20.863 3.722s5.194-14.76 6.233-22.983c.562-4.588-2.121-4.805-5.54-2.338C21.554 57.61 11.902 70.64 11.902 70.64z" transform="translate(1.299 51.94)"/>
                    <path fill="#FFF" d="M19.348 69.08c-.477.001-.905.29-1.083.733-.178.442-.07.948.273 1.278.343.33.853.42 1.288.225.435-.194.708-.634.69-1.11-.023-.628-.54-1.126-1.168-1.125zm0 2.122c-.26 0-.51-.106-.69-.294-.18-.188-.274-.442-.262-.702 0-.526.426-.952.952-.952s.952.426.952.952c.012.26-.083.514-.263.702-.18.188-.429.294-.69.294zm12.812-17.4c-.646 0-1.169.523-1.169 1.168 0 .646.523 1.169 1.169 1.169.645 0 1.168-.523 1.168-1.169 0-.645-.523-1.168-1.168-1.168zm0 2.12c-.526 0-.952-.426-.952-.952s.426-.952.952-.952c.34 0 .654.182.824.476.17.295.17.658 0 .952-.17.295-.484.477-.824.477zm-9.09 2.424c-.18.003-.358.047-.52.13l-.519.563c-.088.143-.133.308-.13.476 0 .646.524 1.169 1.17 1.169.645 0 1.168-.523 1.168-1.169 0-.645-.523-1.169-1.169-1.169zm0 2.121c-.526 0-.952-.426-.952-.952s.426-.952.952-.952.952.426.952.952c0 .253-.1.495-.278.673-.179.179-.421.28-.674.28zm9.436 13.851h.26c.034-.1.063-.2.086-.303-.136.074-.255.177-.346.303zm-3.246-9.566c-.418 0-.804.223-1.012.585-.21.361-.21.807 0 1.168.208.362.594.585 1.012.585.645 0 1.168-.524 1.168-1.169s-.523-1.169-1.168-1.169zm0 2.121c-.526 0-.952-.426-.952-.952s.426-.952.952-.952.952.426.952.952c0 .253-.1.495-.279.673-.178.179-.42.28-.673.28zm6.579-19.131h.13c.246-.005.487-.08.692-.217-.283.032-.56.105-.822.217z" transform="translate(1.299 51.94)"/>
                    <path fill="#263238" d="M32.636 70.942c-3.16-.822-11.817-2.857-17.617-3.463-.043 0-.043.13-.043.13 4.761 1.212 14.37 2.987 17.617 3.55.043 0 .086-.174.043-.217z" transform="translate(1.299 51.94)"/>
                    <path fill="#263238" d="M30.212 73.929l2.554.303-.173.086c.663-2.25 1.356-4.501 2.077-6.752.736-2.25 1.515-4.458 2.424-6.623-.563 2.294-1.212 4.545-1.904 6.796-.693 2.25-1.472 4.458-2.294 6.709v.13h-.13l-2.554-.65z" transform="translate(1.299 51.94)"/>
                    <path fill="#263238" d="M35.709 65.445c.178-.473.41-.923.693-1.342l.952-1.169c-.048.258-.135.506-.26.736-.098.225-.214.442-.346.65-.3.416-.648.794-1.039 1.125z" transform="translate(1.299 51.94)"/>
                    <path fill="#AD6359" d="M1.125 106.391c3.94 4.285 13.072 3.94 36.056 5.28 3.16.174 10.518-21.9 7.098-22.29-4.242-.476-20.906-1.342-22.118-1.255-10.345.735-23.72 15.365-21.036 18.265z" transform="translate(1.299 51.94)"/>
                    <path fill="#AD6359" d="M39.691 88.991s9.652.13 14.717 1.775c6.795 2.207 11.73 6.882 13.677 8.96 4.112 4.371 10.951 17.79 7.445 20.43-3.506 2.64-9.48-11.644-9.48-11.644s8.787 13.245 4.416 15.41c-4.372 2.163-10.735-14.544-10.735-14.544s8.7 13.85 3.853 15.366c-3.636 1.168-10.302-13.635-10.302-13.635s7.445 11.903 3.723 13.288c-3.723 1.385-11.124-11.816-11.124-11.816-9.999 1.861-15.54-1.342-19.218-4.112-.866-.65 13.028-19.478 13.028-19.478z" transform="translate(1.299 51.94)"/>
                    <path fill="#263238" d="M63.28 103.708c1.083 1.515 2.208 3.073 3.16 4.674.965 1.598 1.847 3.245 2.64 4.935 1.076 2.195 1.903 4.503 2.468 6.882-1.299-4.155-4.631-9.955-5.54-11.557-.91-1.601-1.818-3.29-2.77-4.891-.044-.043.043-.043.043-.043zM57.394 107.04c1.342 1.992 2.684 3.94 3.896 6.017 1.212 2.078 2.207 4.069 3.246 6.19.087.173 0 .173-.087 0-1.168-2.078-2.38-3.896-3.549-5.974-1.169-2.077-2.294-4.198-3.55-6.19 0-.042.044-.086.044-.042zM51.854 108.988c2.164 2.944 3.766 6.32 5.237 9.61.087.172-.043.172-.13 0-1.688-3.247-2.986-5.8-5.194-9.523-.043-.043.044-.13.087-.087zM13.634 91.761c1.385-1.125 5.368-3.852 9.61-3.722.043 0 .043.043 0 .087-3.463.39-8.138 2.726-9.566 3.722-.044 0-.087-.043-.044-.087z" transform="translate(1.299 51.94)"/>
                    <path fill="#AD6359" d="M39.388 46.92c.087.995 3.766 8.007 8.224 8.483 1.428.13 2.64-7.748 2.64-7.748l.217-.562 3.073-7.878-8.657-7.618-1.255-1.039s-.693 2.208-1.515 4.978l-.13.39c-.043.173-.13.302-.173.476-.141.41-.257.83-.346 1.255-.127.308-.228.627-.303.952l-.26.996c-.663 2.402-1.169 4.846-1.515 7.315z" transform="translate(1.299 51.94)"/>
                    <path fill="#263238" d="M42.115 35.536c.924 4.904 3.987 9.141 8.354 11.557l3.073-7.878-8.657-7.618-1.255-1.039s-.693 2.208-1.515 4.978z" transform="translate(1.299 51.94)"/>
                    <path fill="#AD6359" d="M67.263 29.866c-1.948 14.673-10.95 15.192-14.154 14.76-3.203-.433-12.639-2.078-12.206-16.881.433-14.803 7.878-18.612 14.543-18.05 6.666.563 13.808 5.454 11.817 20.17z" transform="translate(1.299 51.94)"/>
                    <path fill="#263238" d="M65.185 28.264c-.327-.103-.646-.234-.952-.39-.343-.109-.645-.32-.866-.605-.118-.22-.063-.492.13-.65.391-.254.891-.27 1.299-.043.445.166.815.49 1.038.91.09.196.06.427-.08.593-.138.166-.36.238-.569.185zM55.23 25.754h.996c.373.02.745-.054 1.082-.217.168-.171.219-.426.13-.649-.286-.376-.74-.587-1.212-.563-.484-.01-.956.143-1.342.433-.18.15-.25.396-.172.618.077.222.283.372.518.378zM56.788 28.957l-.086.086c-.174.996-.476 2.121-1.429 2.294h-.043c1.125.087 1.601-1.385 1.558-2.38z" transform="translate(1.299 51.94)"/>
                    <path fill="#263238" d="M56.096 27.788c-1.602-.433-2.294 2.77-.823 3.16 1.472.39 2.121-2.814.823-3.16z" transform="translate(1.299 51.94)"/>
                    <path fill="#263238" d="M55.446 27.788c-.346.13-.692.39-1.038.346-.347-.043-.606-.432-.78-.822h-.086c-.13.606-.043 1.299.606 1.515.65.216 1.125-.216 1.428-.822.303-.606 0-.26-.13-.217zM62.675 29.909c0-.043.086.043.043.087-.26.995-.39 2.164.433 2.683.043 0 .043.043 0 .043-1.082-.39-.866-1.947-.476-2.813z" transform="translate(1.299 51.94)"/>
                    <path fill="#263238" d="M63.8 29.087c1.602.216.996 3.42-.476 3.203-1.472-.217-.866-3.42.476-3.203z" transform="translate(1.299 51.94)"/>
                    <path fill="#263238" d="M64.406 29.39c.217.26.433.606.736.692.303.087.65-.216.952-.52.303-.302.043 0 .043.044 0 .043-.432 1.212-1.038 1.212-.606 0-.866-.563-.866-1.212 0-.65.087-.303.173-.216zM55.23 37.484c.173.303.303.649.65.779.366.1.751.116 1.125.043.043 0 .043.043.043.087-.393.312-.927.379-1.385.173-.393-.21-.616-.64-.563-1.082h.13zM60.078 34.757s-.087 1.515-.217 2.25h-.476c-1.266-.015-2.41-.756-2.943-1.904-.043-.086.043-.13.13-.086.753.79 1.739 1.32 2.813 1.514.087-.173.13-2.597.217-2.597.532.167 1.04.4 1.515.693.303-3.16.086-6.363.476-9.48 0-.047.038-.086.086-.086.048 0 .087.039.087.087.433 3.29.173 6.925-.043 10.215-.044.39-1.386-.433-1.645-.606zM44.928 12.033c-.519 1.169-7.185 1.99-10.128-2.554-2.943-4.545.952-9.912 6.276-7.315 3.333 1.645 4.935 7.402 3.852 9.869z" transform="translate(1.299 51.94)"/>
                    <path fill="#263238" d="M34.714 3.376c1.12-1.26 2.656-2.074 4.328-2.294 1.57-.282 3.17.295 4.198 1.515 1.082 1.212 1.602 2.813 1.905 4.458.144.814.202 1.641.173 2.467.026.854-.106 1.705-.39 2.51.466-.748.762-1.59.866-2.466.138-.873.167-1.76.087-2.64-.173-1.732-.693-3.55-1.905-4.935-.625-.72-1.433-1.257-2.337-1.558-.882-.287-1.828-.317-2.727-.087-1.761.38-3.284 1.478-4.198 3.03zM41.639 28.394c2.597 1.039 4.978-4.934 4.978-4.934s11.99 1.168 15.452-7.921c0 0 .39 6.492 5.67 10.777 0 0 2.337-10.344-5.237-14.5 0 0-9.09-6.406-16.881.087-7.791 6.493-5.713 15.755-3.982 16.491z" transform="translate(1.299 51.94)"/>
                    <path fill="#263238" d="M62.285 14.846c-.243 1.488-.804 2.905-1.645 4.156-.837 1.248-1.91 2.322-3.16 3.16-.302.216-.692.389-.995.562l-.52.26-.519.216c-.338.149-.685.279-1.038.39l-1.126.26-.52.13H52.2l-1.125.129-2.208-.087c.736-.086 1.472-.13 2.164-.26l1.083-.172.562-.13.52-.13.995-.346c.342-.104.675-.234.996-.39l.52-.216.475-.26c.318-.162.622-.35.91-.563 1.207-.767 2.263-1.75 3.116-2.9.925-1.144 1.63-2.45 2.077-3.852v.043z" transform="translate(1.299 51.94)"/>
                    <path fill="#FFC727" d="M40.903 18.569l-1.212 1.039 2.943 4.977 2.64-2.337-4.37-3.68zm2.034 4.544l-2.164-3.203.26-.26 2.813 2.641-.909.822zM42.072 16.361l-.736 1.385 4.631 3.506 1.558-3.16-5.453-1.73zm3.592 3.42l-3.203-2.165.13-.303 3.636 1.386-.563 1.082z" transform="translate(1.299 51.94)"/>
                    <path fill="#AD6359" d="M43.11 29.173s-2.164-5.237-4.458-4.545c-2.294.693-1.385 7.748.823 9.177.554.402 1.247.564 1.923.45.676-.114 1.277-.495 1.67-1.056l.043-4.026z" transform="translate(1.299 51.94)"/>
                    <path fill="#263238" d="M38.955 26.62c-.043 0-.043.043-.043.086 1.558 1.039 2.078 2.813 2.38 4.588-.389-.736-.995-1.255-1.947-.822-.087 0-.043.086 0 .086.66-.059 1.285.306 1.558.91.224.482.384.99.476 1.514.043.173.346.13.346-.043.52-2.208-.519-5.584-2.77-6.32z" transform="translate(1.299 51.94)"/>
                </g>
                <g fill-rule="nonzero">
                    <path fill="#C7C7C7" d="M27.139 11.99v12.119h-3.42v-12.12c0-4.587-3.462-8.353-7.79-8.353-4.329 0-7.792 3.766-7.792 8.354v12.119h-3.42v-12.12C4.718 5.41 9.74.044 15.929.044c6.19 0 11.21 5.367 11.21 11.947z" transform="translate(82.672 9.09)"/>
                    <path fill="#A6A6A6" d="M4.718 15.149L8.137 15.279 8.137 24.109 4.718 24.109zM27.139 16.058L27.139 24.109 23.719 24.109 23.719 15.928z" transform="translate(82.672 9.09)"/>
                    <path fill="#FFC727" d="M0.303 17.184H31.511V45.505H0.303z" transform="translate(82.672 9.09)"/>
                    <path fill="#000" d="M15.928 17.184H31.553V45.505H15.928z" opacity=".1" transform="translate(82.672 9.09)"/>
                    <path fill="#263238" d="M17.27 32.42l1.299 6.19h-5.54l1.298-6.19c-.806-.525-1.294-1.42-1.299-2.381 0-1.53 1.24-2.77 2.77-2.77s2.77 1.24 2.77 2.77c-.004.961-.492 1.856-1.298 2.38z" transform="translate(82.672 9.09)"/>
                </g>
            </g>
        </g>
    </g>
</svg>
