<svg xmlns="http://www.w3.org/2000/svg" width="204" height="199" viewBox="0 0 204 199">
    <defs>
        <filter id="0g9evxnuia" width="141.9%" height="143.1%" x="-21%" y="-21.5%" filterUnits="objectBoundingBox">
            <feOffset dy="10" in="SourceAlpha" result="shadowOffsetOuter1"/>
            <feGaussianBlur in="shadowOffsetOuter1" result="shadowBlurOuter1" stdDeviation="5"/>
            <feColorMatrix in="shadowBlurOuter1" result="shadowMatrixOuter1" values="0 0 0 0 0 0 0 0 0 0 0 0 0 0 0 0 0 0 0.2 0"/>
            <feMerge>
                <feMergeNode in="shadowMatrixOuter1"/>
                <feMergeNode in="SourceGraphic"/>
            </feMerge>
        </filter>
    </defs>
    <g fill="none" fill-rule="evenodd">
        <g>
            <g filter="url(#0g9evxnuia)" transform="translate(-86 -399) translate(95 399)">
                <g fill-rule="nonzero" opacity=".5">
                    <path fill="#EBEBEB" d="M19.087 119.522l-5.957.087H6.826v-5.435h6.217l6.044.087h.13v.087c0 .87-.043 1.739-.043 2.609l-.087 2.565zm0 0v-2.609c-.044-.826-.044-1.652-.087-2.522l.13.13-6.043.088H7.043l.218-.218v5.13l-.174-.217H13l6.087.218zM12.348 125.913l-5.957.13H.131v-5.434h12.347v.13c0 .87-.043 1.74-.043 2.565l-.087 2.609zm0 0v-2.565c0-.826-.044-1.696-.044-2.522l.087.13-6 .087H.304l.218-.217v5.087l-.218-.174h3l3 .087 6.044.087zM97.043 56l-6 .13h-6.26v-5.434h6.26l6.044.087h.13v.13c0 .826 0 1.696-.043 2.565L97.044 56zm0 0l-.086-2.565c0-.87-.044-1.696-.044-2.522l.13.087-6.043.087h-6.043l.217-.217v5.087l-.217-.218h6l6.086.261zM90.174 62.435l-5.957.087h-6.26v-5.435h6.26l6 .087h.13v.087c0 .87-.043 1.739-.043 2.609l-.13 2.565zm0 0v-2.609c0-.826-.044-1.652-.044-2.522l.087.13-6 .088H78.13l.218-.218v5.13l-.218-.217h6l6.044.218zM185.783 125.913l-6 .13h-6.261v-5.434h12.391v.13c-.043.87-.043 1.74-.087 2.565l-.043 2.609zm0 0l-.087-2.565c0-.826-.044-1.696-.044-2.522l.13.13-6.043.087h-6l.218-.217v5.087l-.174-.174h2.956l3 .087 6.044.087zM179.043 5.391l-5.956.13h-6.304V.088h6.26l6 .087h.13v.13c0 .826-.043 1.696-.043 2.566l-.087 2.521zm0 0V2.826C179 1.956 179 1.13 178.957.304l.13.087-6 .087H167l.217-.217v5.13l-.174-.217H173l6.043.217zM185.783 11.826l-6 .087h-6.261V6.478h6.217l6.044.087h.13v.087c-.043.87-.043 1.74-.087 2.609l-.043 2.565zm0 0l-.087-2.609c0-.826-.044-1.652-.044-2.521l.13.13-6.043.087h-6l.218-.217v5.13l-.174-.217h5.956l6.044.217zM12.348 5.391l-5.957.13H.131V.088h6.217l6 .087h.13v.13c0 .826-.043 1.696-.043 2.566l-.087 2.521zm0 0V2.826c0-.87-.044-1.696-.044-2.522l.087.087-6 .087H.304L.522.261v5.13l-.218-.217h6l6.044.217zM83.348 56l-5.957.13h-6.304v-5.434h6.26l6 .087h.131v.13c0 .826-.043 1.696-.043 2.565L83.348 56zm0 0v-2.565c-.044-.87-.044-1.696-.087-2.522l.13.087-6 .087h-6.087l.218-.217v5.087l-.174-.218h5.956l6.044.261z"/>
                    <path fill="#DBDBDB" d="M13.557 52.73H34.296V73.487H13.557z" transform="rotate(90 23.926 63.109)"/>
                    <path fill="#FFF" d="M16.776 55.95H31.08V70.267H16.776z" transform="rotate(90 23.928 63.109)"/>
                    <path fill="#EBEBEB" d="M31.087 55.957L16.783 55.957 16.783 70.261z"/>
                    <path fill="#C7C7C7" d="M11.478 52.722H13.521V73.479H11.478z" transform="rotate(180 12.5 63.1)"/>
                    <path fill="#DBDBDB" d="M39.252 52.687H59.991V73.444H39.252z" transform="rotate(90 49.622 63.065)"/>
                    <path fill="#FFF" d="M42.472 55.95H56.776V70.267H42.472z" transform="rotate(90 49.624 63.109)"/>
                    <path fill="#EBEBEB" d="M52.565 55.957L42.478 55.957 42.478 66.043z"/>
                    <path fill="#C7C7C7" d="M37.174 52.722H39.217V73.479H37.174z" transform="rotate(180 38.196 63.1)"/>
                    <path fill="#DBDBDB" d="M23.211 68.82H50.340999999999994V115.268H23.211z" transform="rotate(90 36.776 92.043)"/>
                    <path fill="#FFF" d="M26.559 72.211H46.994V111.876H26.559z" transform="rotate(90 36.776 92.043)"/>
                    <path fill="#EBEBEB" d="M42.957 81.826L16.957 81.826 16.957 95.174z"/>
                    <path fill="#C7C7C7" d="M11.478 78.483H13.521V105.60900000000001H11.478z" transform="rotate(180 12.5 92.046)"/>
                    <path fill="#DBDBDB" d="M13.559 1.472H59.994V47.92H13.559z" transform="rotate(90 36.776 24.696)"/>
                    <path fill="#FFF" d="M16.913 4.826H56.565V44.491H16.913z"/>
                    <path fill="#EBEBEB" d="M16.913 33.391c6.044-6 23.13-23 28.609-28.565H16.913v28.565z"/>
                    <path fill="#C7C7C7" d="M11.478 1.465H13.521V47.913000000000004H11.478z" transform="rotate(180 12.5 24.69)"/>
                </g>
                <g fill="#EBEBEB" fill-rule="nonzero" opacity=".1" transform="translate(4.783 160.435)">
                    <ellipse cx="88.261" cy="9.913" rx="87.957" ry="9.522"/>
                </g>
                <g fill-rule="nonzero">
                    <path fill="#263238" d="M76.26.13H7.218C5.342.142 3.548.901 2.234 2.24.92 3.577.194 5.384.217 7.26v142.088c-.024 3.897 3.103 7.083 7 7.13h69.044c3.88-.071 6.98-3.25 6.957-7.13V7.26c.023-1.868-.697-3.669-2.002-5.006C79.911.918 78.13.153 76.261.13zm2.61 144.827c0 3.739-2.827 6.739-6.261 6.739h-61.74c-3.478 0-6.26-3-6.26-6.74V12.653c0-7.652 2.782-8 6.26-8h12.348c.74 0 1.305.826 1.305 1.826v.435c0 2.391 1.304 2.391 2.913 2.391h28.608c1.61 0 2.87 0 2.87-2.391v-.435c0-1 .609-1.826 1.304-1.826H72.61c3.434 0 6.26 1 6.26 8v132.305z" transform="translate(96.522 1.304)"/>
                    <path fill="#FFF" d="M45.652 6.348h-7.826c-.135 0-.263-.056-.354-.155-.091-.1-.136-.233-.124-.367 0-.264.214-.478.478-.478h7.826c.264 0 .478.214.478.478.013.134-.032.267-.123.367-.091.1-.22.155-.355.155z" transform="translate(96.522 1.304)"/>
                    <path fill="#FFF" d="M78.87 12.652v132.305c0 3.739-2.783 6.739-6.261 6.739h-61.74c-3.478 0-6.26-3-6.26-6.74V12.653c0-7.652 2.782-8 6.26-8h12.348c.74 0 1.305.826 1.305 1.826v.435c0 2.391 1.304 2.391 2.913 2.391h28.608c1.61 0 2.87 0 2.87-2.391v-.435c0-1 .609-1.826 1.348-1.826h12.348c3.478 0 6.26 1 6.26 8z" transform="translate(96.522 1.304)"/>
                    <g opacity=".2">
                        <path fill="#FFC727" d="M73.826 133.522c-.168 1.34-.504 2.655-1 3.913-1.117 1.056-2.594 1.646-4.13 1.652H6.87c-3.435 0-6.261-3-6.261-6.74V96.697c2.464-2.542 5.465-4.503 8.782-5.74 7.435-2.782 15.479-1.652 19.87 2.261 6.522 5.696 16.391 21.218 22 21.522l1.304.087c4.044.348 11.565 1.435 16.522 5.565 3.348 2.783 5.522 6.957 4.74 13.13z" opacity=".4" transform="translate(96.522 1.304) translate(3.913 12.609)"/>
                        <path fill="#263238" d="M68.696 139.304H6.87c-3.566 0-6.479-3.13-6.479-6.956V98.913h.044c1.191-1.494 2.469-2.916 3.826-4.26 1.503-1.496 3.199-2.782 5.043-3.827 9.348-5.348 20.348-3.348 25.13 1.565 2.218 2.261 4.696 5.783 7.349 9.479 3.782 5.304 7.695 10.782 10.913 12.826.552.398 1.194.652 1.87.739 4.13.565 10 1.826 14.651 4.826 2.826 1.826 4.783 4.043 5.957 6.609v5.521c0 1.981-.8 3.878-2.217 5.261-1.164 1.064-2.684 1.654-4.261 1.652zM.826 99.087v33.26c0 3.61 2.74 6.523 6.044 6.523h61.826c1.478.001 2.898-.576 3.956-1.61 1.351-1.274 2.108-3.055 2.088-4.912v-5.391c-1.088-2.479-3.044-4.61-5.783-6.348-4.566-3-10.392-4.218-14.435-4.783-.749-.116-1.462-.399-2.087-.826-3.261-2.043-7.174-7.565-11-12.913-2.652-3.696-5.13-7.217-7.305-9.435-4.695-4.826-15.434-6.739-24.608-1.522-1.814 1.034-3.48 2.307-4.957 3.783-1.339 1.306-2.588 2.7-3.739 4.174z" transform="translate(96.522 1.304) translate(3.913 12.609)"/>
                        <path fill="#FFC727" d="M24.74 4.913c1.869 3.044.869 6.696-1.088 7.826-1.956 1.13-5.435 3.304-5.956 4.696-.522 1.391-3.74 4.826-7.783 2.826C5.87 18.26 6.304 11.304 8.087 7c2.391-5.609 11.478-10.478 16.652-2.087z" opacity=".4" transform="translate(96.522 1.304) translate(3.913 12.609)"/>
                        <path fill="#263238" d="M11.913 21.522c-1.028-.003-2.036-.29-2.913-.826-4.13-2.435-2.957-9.566-.87-13.609 1.74-3.391 5.87-5.957 9.566-6 2.26 0 5.391.913 7.652 5.174.832 1.612.989 3.49.435 5.217-.349 1.183-1.166 2.173-2.261 2.74-2.609 1.26-5.565 2.956-6.087 4.043-.522 1.087-1.87 2.391-3.826 3-.55.171-1.12.26-1.696.26zm5.783-20c-3.566.043-7.479 2.521-9.174 5.782-2.087 4.044-3 10.826.695 13 1.268.812 2.835 1.004 4.261.522 1.478-.458 2.742-1.43 3.565-2.739.653-1.478 4.61-3.478 6.305-4.26.987-.529 1.71-1.442 2-2.523.527-1.595.386-3.336-.391-4.826-2.13-4.087-5.13-4.956-7.261-4.956z" transform="translate(96.522 1.304) translate(3.913 12.609)"/>
                        <path fill="#DBDBDB" d="M53.087 25.957c-8.13 1.521-11.783 8-9.174 11.521C46.522 41 55.609 40.87 57.261 45.913c1.652 5.044 7.956 12.522 14.478 7.435 6.522-5.087-1.217-30.652-18.652-27.391z" transform="translate(96.522 1.304) translate(3.913 12.609)"/>
                        <path fill="#263238" d="M64.609 57.174c-.946-.01-1.879-.217-2.74-.609-3.608-1.565-6.304-6.174-7.043-9.87-.609-2.825-3.739-4.39-6.739-5.912-3-1.522-4.565-2.305-5.522-4-.956-1.696-.782-3.218.13-4.957 1.348-2.478 4.783-5.304 10.479-5.696 12-.782 16.435 10.392 17.522 13.87 2.174 6.913 1.26 13.957-2.087 15.957-1.203.75-2.583 1.17-4 1.217zM53.217 26.565c-5.521.392-8.87 3.087-10.13 5.478-.87 1.61-.913 3.218-.174 4.522.74 1.305 3.087 2.696 5.391 3.826 3.087 1.566 6.305 3.174 6.913 6.218.61 3.043 3.348 8.043 6.826 9.565 2.044.913 4.174.696 6.348-.609 3.174-1.913 4-8.695 1.87-15.478-1.044-3.348-5.391-14.304-17.044-13.522z" transform="translate(96.522 1.304) translate(3.913 12.609)"/>
                    </g>
                    <g fill="#C7C7C7">
                        <path d="M2.826.652l-.13.13h-.044C2.337.478 1.917.307 1.478.305c-.435 0-.849.19-1.13.522L.26.74.174.61l.13-.13L.652.26 1.13.087h.61l.39.087.305.13.26.218.131.087v.043z" transform="translate(96.522 1.304) translate(18.26 6.957)"/>
                        <path d="M.74 1.217l-.218-.174c.253-.254.597-.398.956-.398.36 0 .704.144.957.398l-.174.174C2.054 1.011 1.77.9 1.478.913c-.28-.017-.552.095-.739.304z" transform="translate(96.522 1.304) translate(18.26 6.957)"/>
                        <path d="M2.087 1.391l-.217.218c-.091-.123-.24-.189-.392-.174-.15 0-.292.062-.391.174L.913 1.39c.332-.304.842-.304 1.174 0zM1.652 1.783c0 .07-.042.133-.107.16-.065.027-.14.012-.19-.037-.05-.05-.064-.125-.037-.19.027-.065.09-.107.16-.107.096 0 .174.078.174.174z" transform="translate(96.522 1.304) translate(18.26 6.957)"/>
                    </g>
                    <path fill="#C7C7C7" d="M9.435 7.957c0-.127.05-.249.14-.339.09-.09.211-.14.338-.14.134-.012.267.033.367.124.099.091.155.22.155.355 0 .288-.234.521-.522.521-.135 0-.263-.055-.354-.155-.092-.1-.136-.232-.124-.366zM11 7.957c0-.265.214-.479.478-.479s.479.214.479.479c0 .17-.092.328-.24.414-.148.085-.33.085-.478 0-.148-.086-.239-.244-.239-.414zM12.522 7.957c0-.135.055-.264.155-.355.1-.091.232-.136.366-.124.265 0 .479.214.479.479.012.134-.033.267-.124.366-.091.1-.22.156-.355.155-.138 0-.27-.055-.368-.153-.098-.097-.153-.23-.153-.368zM14.087 7.957c0-.265.214-.479.478-.479.134-.012.268.033.367.124.1.091.156.22.155.355 0 .288-.234.521-.522.521-.135 0-.263-.055-.354-.155-.091-.1-.136-.232-.124-.366zM15.652 7.957c0-.265.214-.479.478-.479.265 0 .479.214.479.479 0 .264-.214.478-.479.478-.264 0-.478-.214-.478-.478zM73.26 9h-3.912V7.26h3.913V9zm-3.825-.087h3.695V7.348h-3.695v1.565z" transform="translate(96.522 1.304)"/>
                    <path fill="#C7C7C7" d="M69.609 7.522H72.17399999999999V8.748000000000001H69.609zM73.304 7.609H74.304V8.609H73.304z" transform="translate(96.522 1.304)"/>
                </g>
                <g transform="translate(112 32)">
                    <path fill="#263238" fill-rule="nonzero" d="M2.374 39.56L8.347 39.521 14.281 39.521 26.229 39.481 38.136 39.521 44.11 39.521 50.084 39.56 44.11 39.64 38.136 39.64 26.229 39.679 14.281 39.64 8.347 39.64zM6.765 42.211L11.631 42.171 16.497 42.171 26.229 42.132 35.96 42.171 40.787 42.171 45.653 42.211 40.787 42.251 35.96 42.29 26.229 42.33 16.497 42.29 11.631 42.251z"/>
                    <path fill="#EBEBEB" fill-rule="nonzero" d="M0 60.965L6.567 60.925 13.095 60.925 26.229 60.886 39.323 60.925 45.89 60.925 52.457 60.965 45.89 61.044 39.323 61.044 26.229 61.084 13.095 61.044 6.567 61.044z"/>
                    <text fill="#FFC727" font-family="Helvetica" font-size="2.571" letter-spacing=".3">
                        <tspan x="2.977" y="56.571">MOBILE NUMBER</tspan>
                    </text>
                    <text fill="#263238" font-family="Helvetica" font-size="2.571" letter-spacing=".3">
                        <tspan x="3.926" y="60.571">+91 9876543210</tspan>
                    </text>
                    <path fill="#FFC727" fill-rule="nonzero" d="M5.714 74.571H46.778V84.571H5.714z"/>
                    <text fill="#212121" font-family="Poppins-Medium, Poppins" font-size="3" font-weight="400">
                        <tspan x="20.924" y="80.571">SUBMIT</tspan>
                    </text>
                    <circle cx="36.949" cy="9.178" r="9.178" fill="#455A64" fill-rule="nonzero"/>
                    <circle cx="12.58" cy="22.391" r="6.251" fill="#EBEBEB" fill-rule="nonzero"/>
                    <path fill="#C7C7C7" fill-rule="nonzero" d="M31.371 7.477v6.567h-1.859V7.477c0-2.492-1.899-4.55-4.233-4.55-2.334 0-4.233 2.058-4.233 4.55v6.567h-1.86V7.477c0-3.56 2.73-6.488 6.093-6.488s6.092 2.927 6.092 6.488z"/>
                    <path fill="#A6A6A6" fill-rule="nonzero" d="M19.187 9.178L21.046 9.257 21.046 14.044 19.187 14.044zM31.371 9.692L31.371 14.044 29.512 14.044 29.512 9.613z"/>
                    <path fill="#FFC727" fill-rule="nonzero" d="M16.813 10.325H33.745V25.698H16.813z"/>
                    <path fill="#000" fill-rule="nonzero" d="M25.279 10.325H33.745V25.698H25.279z" opacity=".1"/>
                    <path fill="#263238" fill-rule="nonzero" d="M25.991 18.554l.712 3.362h-3.006l.712-3.362c-.445-.266-.716-.748-.712-1.266 0-.83.673-1.503 1.503-1.503.83 0 1.503.673 1.503 1.503.004.518-.267 1-.712 1.266z"/>
                    <path fill="#DBDBDB" fill-rule="nonzero" d="M21.64 96.092c0 .547-.443.99-.99.99-.546 0-.988-.443-.988-.99 0-.546.442-.989.989-.989.546 0 .989.443.989.99z"/>
                    <path fill="#C7C7C7" fill-rule="nonzero" d="M27.732 96.092c0 .83-.673 1.504-1.503 1.504-.83 0-1.504-.673-1.504-1.504 0-.83.673-1.503 1.504-1.503.398 0 .78.158 1.063.44.281.282.44.665.44 1.063z"/>
                    <path fill="#DBDBDB" fill-rule="nonzero" d="M32.796 96.092c0 .547-.443.99-.99.99-.546 0-.988-.443-.988-.99 0-.546.442-.989.989-.989.546 0 .989.443.989.99z"/>
                    <path fill="#263238" fill-rule="nonzero" d="M10.998 34.774v-2.097c0-.11.088-.198.198-.198h1.186c.11 0 .198.089.198.198 0 .11-.088.198-.198.198h-.989v.672h.831c.11 0 .198.089.198.198 0 .11-.089.198-.198.198h-.83v.83c0 .11-.09.198-.198.198-.11 0-.198-.088-.198-.197zM13.015 34.734c-.322-.36-.322-.905 0-1.266.17-.168.395-.267.633-.277.228.007.442.107.594.277.322.36.322.906 0 1.266-.156.16-.371.245-.594.237-.233.006-.46-.08-.633-.237zm.159-.633c-.011.13.032.259.118.356.094.098.222.154.356.158.122-.01.236-.066.317-.158.097-.093.154-.221.158-.356-.011-.145-.066-.283-.158-.396-.085-.08-.2-.123-.317-.118-.13-.011-.258.032-.356.118-.08.117-.121.255-.118.396zM16.101 33.389c0 .08-.079.198-.158.198h-.238l-.158.198-.158.277v.672c0 .11-.089.198-.198.198-.093-.02-.16-.102-.158-.198V33.35c-.002-.095.065-.178.158-.197.11 0 .198.088.198.197l.08-.079c.137-.1.303-.155.474-.158.062.007.118.044.15.098.03.055.034.121.008.179zM18.158 34.101v.673c0 .458-.372.83-.83.83-.137.018-.276-.01-.396-.079-.08-.05-.113-.15-.08-.237.018-.055.058-.1.112-.123.053-.023.114-.022.166.004l.197.08c.224-.024.412-.18.475-.396-.144.088-.306.142-.475.158-.238-.01-.464-.108-.632-.277-.323-.36-.323-.905 0-1.266.168-.168.394-.267.632-.277.17.011.333.066.475.158.04-.065.115-.101.19-.093.077.009.142.06.166.133v.712zm-.356 0c-.004-.135-.06-.263-.158-.356-.075-.1-.192-.158-.317-.158-.124 0-.241.058-.316.158-.102.09-.16.22-.16.356 0 .136.058.266.16.356.075.1.192.158.316.158.125 0 .242-.058.317-.158.097-.093.154-.221.158-.356zM19.108 34.734c-.175-.164-.273-.393-.273-.633s.098-.468.273-.633c.151-.17.366-.27.593-.277.229.002.445.103.594.277.174.165.272.394.272.633 0 .24-.098.469-.272.633-.153.164-.37.25-.594.237-.222.008-.438-.078-.593-.237zm.118-.633c-.013.138.047.273.159.356.074.1.192.158.316.158.125 0 .242-.058.317-.158.111-.083.171-.218.158-.356.007-.148-.051-.293-.158-.396-.18-.16-.453-.16-.633 0-.108.103-.166.248-.159.396zM21.877 33.389c0 .11-.089.198-.198.198H21.6v.989c.11 0 .198.088.198.198 0 .109-.089.197-.198.197-.218 0-.396-.177-.396-.395v-.99h-.118c-.11 0-.198-.088-.198-.197 0-.11.088-.198.198-.198h.118v-.514c0-.11.089-.198.198-.198.11 0 .198.089.198.198v.514h.08c.108 0 .197.089.197.198zM24.448 34.022h-.435v.752c0 .109-.088.197-.198.197-.109 0-.197-.088-.197-.197v-2.097c0-.11.088-.198.197-.198h.633c.318-.072.647.057.83.326.183.269.183.622 0 .891s-.512.398-.83.326zm-.435-.396h.435c.163.054.343-.004.444-.143.1-.138.1-.327 0-.465-.101-.14-.28-.197-.444-.143h-.435v.751zM27.178 34.101v.673c0 .109-.089.197-.198.197-.095.002-.178-.064-.198-.158-.13.116-.301.173-.474.158-.223.008-.438-.078-.594-.237-.15-.176-.235-.4-.237-.633-.005-.234.08-.46.237-.633.27-.312.736-.364 1.068-.119.037-.081.11-.14.198-.158.11 0 .198.089.198.198v.712zm-.396 0c.012-.133-.034-.264-.124-.361-.09-.098-.217-.154-.35-.153-.126-.007-.247.053-.317.158-.097.093-.154.221-.158.356.011.133.067.259.158.356.081.092.195.148.317.158.13-.018.254-.073.356-.158.08-.101.121-.227.118-.356zM27.771 34.457c.077-.075.2-.075.277 0 .108.1.249.156.396.158l.237-.079.08-.118h-.08l-.277-.08-.316-.118c-.08-.04-.198-.08-.237-.198-.05-.07-.077-.152-.08-.237.012-.152.102-.288.238-.356.115-.114.274-.172.435-.159.188.009.369.078.514.198.076.07.107.177.08.277-.066.087-.19.105-.278.04l-.316-.12h-.237v.08h.04l.237.08h.04l.316.118c.095.044.177.112.237.198.063.062.092.15.079.237 0 .176-.089.34-.237.435-.13.081-.282.122-.435.119-.233.001-.459-.083-.633-.237-.08-.05-.113-.15-.08-.238zM29.473 34.457c.076-.075.2-.075.276 0 .116.086.253.14.396.158l.237-.079c.08-.04.08-.079.08-.118h-.08l-.277-.08-.316-.118c-.098-.04-.18-.11-.237-.198-.036-.074-.05-.156-.04-.237.003-.145.077-.278.198-.356.118-.11.275-.167.435-.159.19.003.372.073.514.198.049.025.085.07.1.122.015.052.007.108-.02.155-.066.087-.19.105-.277.04-.09-.074-.201-.116-.317-.12h-.198l-.079.08h.04l.277.08.316.118c.107.042.202.11.277.198.044.072.071.153.08.237-.013.173-.1.332-.238.435-.143.087-.308.128-.475.119-.232-.006-.455-.09-.633-.237-.055-.067-.07-.157-.04-.238zM33.547 33.468l-.554 1.385h-.316c0-.022-.018-.04-.04-.04l-.277-.593-.237.593c-.022 0-.04.018-.04.04h-.316l-.554-1.385c-.079-.079 0-.198.08-.237.046-.027.102-.03.15-.005.048.024.08.07.087.123l.435.95.237-.594c.028-.064.088-.11.158-.118.085-.007.165.04.198.118l.238.594.435-.95c.006-.053.038-.1.086-.123.048-.024.105-.022.151.005.08.04.158.158.08.237zM34.418 34.734c-.323-.36-.323-.905 0-1.266.151-.17.366-.27.593-.277.229.002.445.103.593.277.175.165.273.394.273.633 0 .24-.098.469-.273.633-.152.164-.37.25-.593.237-.222.008-.438-.078-.593-.237zm.158-.633c-.011.126.029.251.11.348.082.096.199.156.325.166.133-.01.259-.067.356-.158.087-.097.13-.226.119-.356.003-.141-.039-.28-.119-.396-.101-.08-.227-.121-.356-.118-.117-.005-.231.038-.316.118-.08.117-.122.255-.12.396zM37.503 33.389c0 .11-.088.198-.198.198h-.197l-.159.198-.158.277v.672c0 .11-.088.198-.198.198-.109 0-.197-.089-.197-.198V33.35c0-.109.088-.197.197-.197.11 0 .198.088.198.197l.08-.079c.126-.093.277-.147.434-.158.07-.006.138.025.178.082.04.057.048.131.02.195zM39.481 34.774c0 .109-.088.197-.197.197-.088 0-.159-.07-.159-.158-.147.111-.33.167-.514.158-.227 0-.445-.092-.602-.257-.157-.164-.24-.386-.229-.613-.01-.23.071-.456.227-.627.156-.17.373-.273.604-.283.182.01.358.064.514.158v-.672c-.002-.096.065-.179.159-.198.109 0 .197.089.197.198v2.097zm-.87-1.187c-.126-.007-.247.053-.316.158-.098.093-.155.221-.159.356.019.131.074.254.159.356.085.08.199.124.316.119.13.01.259-.032.356-.119.085-.102.14-.225.158-.356-.004-.135-.06-.263-.158-.356-.083-.112-.218-.172-.356-.158zM40.905 33.943v.237c0 .11-.088.198-.197.198-.094-.02-.16-.102-.159-.198v-.356c-.001-.095.065-.179.159-.198.194.013.37-.118.412-.309.042-.19-.061-.383-.243-.454-.181-.07-.388.001-.486.17-.05.08-.15.112-.237.08-.08-.08-.119-.16-.08-.238.175-.275.507-.406.822-.325.316.08.543.356.563.68.009.34-.223.638-.554.713zm0 .791v.08c-.019.093-.102.16-.197.157-.042 0-.083-.016-.112-.046-.03-.03-.047-.07-.047-.112v-.079c0-.087.071-.158.159-.158.095-.002.178.064.197.158z"/>
                </g>
                <g fill="#263238" fill-rule="nonzero">
                    <path d="M0.304 0.391L23.478 0.261 46.696 0.217 93.043 0.174 139.391 0.217 162.609 0.261 185.783 0.391 162.609 0.478 139.391 0.522 93.043 0.609 46.696 0.522 23.478 0.478z" transform="translate(0 157.391)"/>
                </g>
                <g fill-rule="nonzero">
                    <path fill="#263238" d="M6.826 14.174C13.043 20.26 14.087 29.739 12.783 38c-.038.052-.102.079-.166.07-.063-.01-.117-.053-.139-.113 0-1.914.044-3.74.044-5.61-.049-.078-.079-.168-.087-.26-1.652-1.174-3.13-2.522-4.087-4.348-.957-1.826-1.435-4.348-2.218-6.478-.087-.218.13-.174.261-.044 3.826 2.783 5 5.783 6.087 9.826-.001-2.103-.22-4.201-.652-6.26-.826-3.826-2.435-7.61-5.174-10.435-.024-.05-.013-.11.026-.149.039-.039.098-.049.148-.025z" transform="translate(157.826 118.26)"/>
                    <path fill="#FFC727" d="M5.652 14.87c-1.087.043-1.739 1.782-2.565 2.26-.18.151-.415.218-.648.185-.232-.033-.439-.163-.57-.358-.826-1.174.305-2.61 1.392-3.392-.783.305-1.391.87-2.218 1.044-.213.065-.445.036-.636-.08C.216 14.413.083 14.22.043 14c-.347-1.565 1.61-2.304 2.957-2.304C2.348 11.217.478 10 1.478 9.39c1-.608 3.218 1.13 3.957 1.74.739.608 2.304 2.13 2.348 3.478.043 1.348-1.305.608-2.13.26z" transform="translate(157.826 118.26)"/>
                    <path fill="#000" d="M5.652 14.87c-1.087.043-1.739 1.782-2.565 2.26-.18.151-.415.218-.648.185-.232-.033-.439-.163-.57-.358-.826-1.174.305-2.61 1.392-3.392-.783.305-1.391.87-2.218 1.044-.213.065-.445.036-.636-.08C.216 14.413.083 14.22.043 14c-.347-1.565 1.61-2.304 2.957-2.304C2.348 11.217.478 10 1.478 9.39c1-.608 3.218 1.13 3.957 1.74.739.608 2.304 2.13 2.348 3.478.043 1.348-1.305.608-2.13.26z" opacity=".1" transform="translate(157.826 118.26)"/>
                    <path fill="#FFC727" d="M5.957 15.13c-1.348-.608-4 .305-4.218-.217-.217-.522 1.652-1.783 2.783-1.913-1.044-.304-3.044-.74-3-1.74.043-1 3.087-.173 4.608.957 1.522 1.13 1.913 2.913 1.566 3.174-.348.261-1.522-.13-1.74-.26z" transform="translate(157.826 118.26)"/>
                    <path fill="#263238" d="M21 13.565c-6.435 5.87-7.87 15.261-6.87 23.565.044.218.348.174.348 0 .087-1.913.087-3.782.174-5.608.044-.087.044-.174.087-.261 1.696-1.13 3.218-2.391 4.218-4.174 1-1.783 1.608-4.304 2.478-6.435.087-.174-.13-.13-.261-.043-3.913 2.652-5.217 5.608-6.478 9.608.112-2.11.417-4.206.913-6.26.956-3.783 2.739-7.479 5.565-10.218.087-.087-.044-.26-.174-.174z" transform="translate(157.826 118.26)"/>
                    <path fill="#FFC727" d="M22.174 14.348c1.043.043 1.652 1.782 2.478 2.304.167.154.392.227.617.202.225-.025.428-.146.557-.332.87-1.13-.174-2.565-1.217-3.435.739.348 1.348.913 2.174 1.13.207.067.433.044.623-.064.19-.107.326-.289.377-.5.434-1.566-1.522-2.349-2.87-2.436.696-.434 2.609-1.608 1.652-2.26-.956-.653-3.26 1.043-4.043 1.608-.783.565-2.392 2.044-2.479 3.392-.086 1.347 1.261.652 2.13.39z" transform="translate(157.826 118.26)"/>
                    <path fill="#000" d="M22.174 14.348c1.043.043 1.652 1.782 2.478 2.304.167.154.392.227.617.202.225-.025.428-.146.557-.332.87-1.13-.174-2.565-1.217-3.435.739.348 1.348.913 2.174 1.13.207.067.433.044.623-.064.19-.107.326-.289.377-.5.434-1.566-1.522-2.349-2.87-2.436.696-.434 2.609-1.608 1.652-2.26-.956-.653-3.26 1.043-4.043 1.608-.783.565-2.392 2.044-2.479 3.392-.086 1.347 1.261.652 2.13.39z" opacity=".1" transform="translate(157.826 118.26)"/>
                    <path fill="#FFC727" d="M21.826 14.565c1.391-.565 4 .435 4.261-.087.26-.521-1.609-1.826-2.74-2 1.088-.26 3.088-.608 3.088-1.652 0-1.043-3.087-.26-4.652.826-1.566 1.087-2 2.826-1.696 3.087.304.261 1.522-.087 1.74-.174z" transform="translate(157.826 118.26)"/>
                    <path fill="#263238" d="M14.391 29.043c-.423 3.135-1.092 6.231-2 9.261-.024.12-.14.198-.26.174-.12-.024-.198-.14-.174-.26.434-2.827 1.173-5.653 1.608-8.522.458-2.89.633-5.816.522-8.74-.304-4.782-1.609-9.913-4.74-13.695-.043-.087.088-.218.175-.13 6.26 7.347 5.26 16.347 5.26 17.13.87-3.044 1.827-6.522 5.175-9.609.13-.13.26-.043.217.174-.565 5.609-2.13 8.565-5.435 11.565-.07.89-.186 1.775-.348 2.652z" transform="translate(157.826 118.26)"/>
                    <path fill="#FFC727" d="M9.304 8.13c-1.13-.521-2.695.913-3.826 1-.255.065-.526.016-.743-.134-.216-.15-.358-.386-.387-.648-.261-1.609 1.609-2.522 3.13-2.783-.956-.087-1.87.174-2.826-.087-.26-.027-.495-.17-.639-.389-.143-.22-.18-.492-.1-.741.435-1.783 2.826-1.522 4.26-.87C7.697 2.652 6.392.435 7.74.304c1.348-.13 2.74 2.826 3.218 3.783.478.956 1.304 3.391.695 4.826-.609 1.435-1.652-.043-2.348-.783z" transform="translate(157.826 118.26)"/>
                    <path fill="#000" d="M9.304 8.13c-1.13-.521-2.695.913-3.826 1-.255.065-.526.016-.743-.134-.216-.15-.358-.386-.387-.648-.261-1.609 1.609-2.522 3.13-2.783-.956-.087-1.87.174-2.826-.087-.26-.027-.495-.17-.639-.389-.143-.22-.18-.492-.1-.741.435-1.783 2.826-1.522 4.26-.87C7.697 2.652 6.392.435 7.74.304c1.348-.13 2.74 2.826 3.218 3.783.478.956 1.304 3.391.695 4.826-.609 1.435-1.652-.043-2.348-.783z" opacity=".1" transform="translate(157.826 118.26)"/>
                    <path fill="#FFC727" d="M9.478 8.565c-1.087-1.348-4.304-1.739-4.26-2.391.043-1.348 2.608-1.044 3.869-.609C8.13 4.74 6.304 3.261 6.87 2.261c.565-1 3.26 1.348 4.26 3.348 1 2 .522 3.956.044 4.087-.478.13-1.522-.913-1.696-1.13zM18.565 30.74l2.74 21.173H4.434c.348-1.87 3.522-21.174 3.522-21.174h10.608z" transform="translate(157.826 118.26)"/>
                </g>
                <g fill-rule="nonzero">
                    <path fill="#263238" d="M74.478 57.13c.001.225-.168.413-.391.435h-1.913C70.957 53 69.522 49.348 69.87 50.74c.497 2.21.658 4.482.478 6.74l-3.74-.218c-.608-7.826-1.912-13.74-1.956-11.957-.304 7.13-.956 9.348-1.695 11.74-8.957-.522-20.696-1.348-29.174-2.131-.522-4.348-.913-9.043-1.087-8.696-1.392 2.261-2.087 5.696-2.392 8.392-2.695-.261-4.87-.522-6.174-.74 0 0-.217-3.652-.173-4.826.05-3.048.684-6.06 1.87-8.87 1.216-2.869 3.043-5.347 4.782-7.869v-.13h.043c1.135-1.659 2.083-3.438 2.826-5.304.52-1.352.913-2.75 1.174-4.174.913-5.218 4.391-9.435 9.435-10.305 9.26-6.043 19.217-3.13 21.304 3.913.234.757.423 1.526.566 2.305.608 3.174 1.043 7.174 1.521 10.304.182 1.23.429 2.449.74 3.652 1.825 5.696 6.869 9.392 6.26 24.565z" transform="translate(1.304 52.174)"/>
                    <path fill="#263238" d="M41.826 13.565c-3.391 1.348-5.652 3.609-6.565 7.392-.522 2.173-.913 4.347-1.957 6.347-1.043 2-2.739 3.74-4.347 5.348-2.61 2.609-4.479 5.261-5.218 8.957-.739 3.695-1.087 8.304-.174 12h.044c-.652-3.696-.174-8.696.87-12.435 1.043-3.74 3.782-6.435 6.521-9.348 2.177-2.249 3.71-5.042 4.435-8.087.435-1.87.608-3.87 1.565-5.565.957-1.696 3.087-3.174 5.043-4.217.261-.13.044-.479-.217-.392zM73.087 39c-2-3.217-4.087-6-5.044-9.826-.956-3.826-1.173-7.13-2.043-10.609h-.087c1.26 6.174 1 12.218 4.304 17.652 1.826 2.957 3.653 5.696 4.696 9.13 1.03 3.57 1.37 7.304 1 11 0 .049.039.088.087.088.048 0 .087-.04.087-.087 1.207-5.954.137-12.145-3-17.348z" transform="translate(1.304 52.174)"/>
                    <path fill="#37474F" d="M97.043 30.13L84.957 52.87c-.435.652-.218 1.304.478 1.478l12.522 3.087c.791.126 1.585-.211 2.043-.87l12.087-22.739c.435-.652.217-1.304-.478-1.478L99.087 29.26c-.792-.127-1.586.211-2.044.87z" transform="translate(1.304 52.174)"/>
                    <path fill="#455A64" d="M98.522 30.478l-12.087 22.74c-.435.652-.218 1.347.478 1.521l12.522 3.044c.795.132 1.598-.186 2.087-.826l12.043-22.783c.435-.652.218-1.304-.478-1.478l-12.522-3.087c-.791-.127-1.586.211-2.043.87z" transform="translate(1.304 52.174)"/>
                    <path fill="#263238" d="M101.696 32.435c-.156.588-.76.938-1.348.782-.588-.156-.939-.76-.783-1.347.072-.285.255-.529.509-.676.254-.148.556-.186.839-.107.285.071.529.255.676.509.147.253.186.556.107.839z" transform="translate(1.304 52.174)"/>
                    <path fill="#AD6359" d="M45.913 61.522C51.13 77.87 64.739 100.043 71.435 101c3.217.435 8.826 1.957 13.478-1.174 10.217-6.783 20.391-20.435 23.522-28.348 1.217-2.956-14.261-13.174-16.87-10.913-6 5.261-13.652 16.13-14.565 15.957-3.391-.696-15.391-13.652-23.74-22.783-10.13-11.087-9.434 1.304-7.347 7.783zM112.174 57.13c0-6.565-1-8.26 1.956-13.826 1.957-3.652.479-6.478-3.087-4.043-5.826 3.956-7.608 12.478-7.39 15.565l8.52 2.304z" transform="translate(1.304 52.174)"/>
                    <path fill="#AD6359" d="M106.391 75.304s4.957-7.956 5.652-14.956c.479-4.87.392-15.565-11.347-24.174-2.783-2.044-8.218-3-4.87 2 2.348 3.565 4.913 5.087 5.913 7.391 0 0-7-.391-8.956 2.478-1.696 2.51-3.207 5.141-4.522 7.87.442.362.907.696 1.391 1 0 0-1.739 2.74-.609 7.565l17.348 10.826z" transform="translate(1.304 52.174)"/>
                    <path fill="#AD6359" d="M111.783 55.609c-1.479-2.087-4.696-6.435-8.566-9.087-3.87-2.652-13.39-7.522-15.521-4.305-1.609 2.348 1.739 4.392 1.739 4.392s-4.174-1.087-5.13 1.348c-.957 2.434 1.782 3.608 1.782 3.608s-2.609-.217-3.044 2.087c-.434 2.305 5.044 2.783 6.957 6.044.435.695 21.783-4.087 21.783-4.087z" transform="translate(1.304 52.174)"/>
                    <path fill="#263238" d="M100.826 51.565c-1.696-1.739-6.609-4.652-11.304-5-.13-.043-.174.044-.087.087 3.989 1.17 7.816 2.835 11.391 4.957 0 0 .044 0 0-.044zM97.74 55.826c-1.653-1.348-6.827-4.13-11.61-4.348-.13 0-.173.087-.087.13 4.037.963 7.947 2.393 11.653 4.262.024 0 .043-.02.043-.044z" transform="translate(1.304 52.174)"/>
                    <path fill="#FFC727" d="M53.217 82.435l13.305-16.652S55.957 54.13 49.174 49.304c-3.783-2.739-5.913.174-5.391 4.348 1.87 14.609 9.434 28.783 9.434 28.783z" transform="translate(1.304 52.174)"/>
                    <path fill="#FFC727" d="M53.217 82.435l13.305-16.652S55.957 54.13 49.174 49.304c-3.783-2.739-5.913.174-5.391 4.348 1.87 14.609 9.434 28.783 9.434 28.783z" transform="translate(1.304 52.174)"/>
                    <path fill="#FFF" d="M62.304 62.043c-.478-.017-.92.257-1.115.694-.195.437-.106.95.226 1.294.332.345.84.453 1.284.274.445-.178.735-.609.736-1.088 0-.631-.5-1.15-1.13-1.174zm0 2.13c-.528 0-.956-.427-.956-.956 0-.528.428-.956.956-.956.529 0 .957.428.957.956 0 .529-.428.957-.957.957zm-10.739 1.48c-.482-.018-.926.261-1.119.703-.192.443-.095.958.246 1.3.342.34.857.438 1.3.246.442-.193.721-.637.704-1.12-.023-.614-.516-1.107-1.13-1.13zm0 2.13c-.261 0-.511-.107-.692-.296-.18-.189-.276-.443-.264-.704 0-.529.428-.957.956-.957s.957.428.957.957c.012.26-.084.515-.265.704-.18.19-.43.296-.692.296zm.826-11.479c-.474 0-.903.286-1.084.725-.182.439-.082.944.254 1.28.336.335.84.436 1.28.254.438-.182.724-.61.724-1.085 0-.648-.525-1.174-1.174-1.174zm0 2.174c-.261 0-.511-.106-.692-.295-.18-.189-.276-.444-.264-.705 0-.528.428-.956.956-.956.529 0 .957.428.957.956.012.261-.084.516-.264.705-.181.189-.431.296-.693.295zm-8.652-7v.218c.4.119.67.495.652.913.003.413-.26.781-.652.913v.13c.527-.115.9-.587.89-1.126-.011-.54-.402-.997-.933-1.091l.043.043zm16 22.826c-.045-.614-.558-1.088-1.174-1.087-.648 0-1.174.526-1.174 1.174 0 .649.526 1.174 1.174 1.174h.174l.218-.26-.392.086c-.387 0-.735-.233-.883-.59-.149-.358-.067-.769.207-1.043.273-.273.685-.355 1.042-.207.358.148.59.497.59.884v.174l.218-.305z" transform="translate(1.304 52.174)"/>
                    <path fill="#000" d="M65 67.696L53.217 82.435s-7.565-14.174-9.434-28.783c-.392-2.87.521-5.13 2.347-5.391L65 67.696z" opacity=".1" transform="translate(1.304 52.174)"/>
                    <path fill="#263238" d="M63.435 64.26c-2.261 2.392-8.174 9.088-11.478 13.914 0 .043.086.13.086.087C55.391 74.652 61.565 67 63.61 64.39c0-.043-.13-.174-.174-.13z" transform="translate(1.304 52.174)"/>
                    <path fill="#FFC727" d="M4.87 105.87l57.347-.174L59.043 86s4.522-5.478 3.653-11.478c-.87-6-12.74-23.087-13.696-24.044-4-3.739-8.217-4.391-12.304-3.043C17.956 59.217 4.87 105.87 4.87 105.87z" transform="translate(1.304 52.174)"/>
                    <path fill="#FFF" d="M61 98.217c-.178.226-.452.355-.74.348-.527 0-.956-.428-.956-.956-.012-.261.084-.516.265-.705.18-.189.43-.296.692-.295.182.002.36.047.522.13v-.217c-.15-.07-.314-.1-.479-.087-.465-.091-.939.107-1.201.5-.263.395-.263.909 0 1.303.262.394.736.592 1.201.501.292.013.576-.098.783-.304L61 98.217zm-11.565-6.043c-.649 0-1.174.525-1.174 1.174 0 .648.525 1.174 1.174 1.174.648 0 1.174-.526 1.174-1.174 0-.649-.526-1.174-1.174-1.174zm0 2.13c-.528 0-.957-.428-.957-.956s.429-.957.957-.957.956.429.956.957-.428.956-.956.956zm9.13-21.087c-.475 0-.903.286-1.084.725-.182.439-.082.944.254 1.28.336.335.84.436 1.28.254.438-.182.724-.61.724-1.085 0-.648-.525-1.174-1.174-1.174zm0 2.13c-.387 0-.735-.232-.883-.59-.149-.357-.067-.768.207-1.042.273-.274.685-.355 1.042-.207.358.148.59.496.59.883 0 .529-.428.957-.956.957zm-42 27.392c-.465-.09-.939.107-1.202.501-.262.395-.262.908 0 1.302.263.395.737.592 1.202.501.551-.107.95-.59.95-1.152 0-.561-.399-1.044-.95-1.152zm0 2.13c-.412.018-.792-.219-.958-.596-.166-.378-.083-.818.209-1.11.291-.291.732-.374 1.109-.208s.614.546.597.958c0 .528-.429.957-.957.957zm11.87-6c-.479-.017-.92.257-1.115.694-.196.437-.106.95.226 1.294.332.345.84.453 1.284.275.444-.18.735-.61.735-1.089 0-.631-.499-1.15-1.13-1.173zm0 2.131c-.261.012-.516-.084-.705-.264-.189-.181-.295-.431-.295-.693 0-.26.106-.511.295-.692.189-.18.444-.276.705-.264.528 0 .956.428.956.956 0 .529-.428.957-.956.957zm-9-31.609h-.174c-.04.068-.07.141-.087.218h.26c.53 0 .957.428.957.956.01.477-.332.888-.802.964-.47.077-.926-.204-1.067-.66l-.13.261c.221.368.614.597 1.043.61.465.09.939-.108 1.202-.502.262-.394.262-.908 0-1.302-.263-.394-.737-.592-1.202-.501v-.044zm3.304 8.913c-.478-.017-.92.257-1.115.694-.195.437-.106.949.226 1.294.332.345.84.453 1.284.274.444-.179.735-.609.736-1.088 0-.631-.5-1.15-1.13-1.174zm0 2.13c-.528 0-.956-.427-.956-.956 0-.528.428-.956.956-.956s.957.428.957.956c0 .529-.429.957-.957.957zm9.565-26.39c-.648 0-1.174.525-1.174 1.173 0 .649.526 1.174 1.174 1.174.649 0 1.174-.525 1.174-1.174 0-.648-.525-1.174-1.174-1.174zm0 2.13c-.528 0-.956-.428-.956-.957 0-.528.428-.956.956-.956.342 0 .658.182.829.478.17.296.17.66 0 .957-.171.296-.487.478-.829.478zm1.174 18.087c-.648 0-1.174.525-1.174 1.174 0 .648.526 1.174 1.174 1.174.649 0 1.174-.526 1.174-1.174 0-.649-.525-1.174-1.174-1.174zm0 2.174c-.261 0-.511-.107-.692-.296-.18-.188-.276-.443-.264-.704 0-.528.428-.957.956-.957.399-.084.809.082 1.037.42.228.337.228.78 0 1.118-.228.337-.638.503-1.037.419zm9.957-25c-.649 0-1.174.525-1.174 1.174 0 .648.525 1.174 1.174 1.174.648 0 1.174-.526 1.174-1.174 0-.649-.526-1.174-1.174-1.174zm0 2.13c-.528 0-.957-.428-.957-.956 0-.529.429-.957.957-.957s.956.428.956.957c0 .528-.428.956-.956.956zm8.956 2.74c-.474 0-.903.285-1.084.724-.182.439-.082.944.254 1.28.336.335.84.436 1.28.254.438-.182.724-.61.724-1.085 0-.648-.525-1.174-1.174-1.174zm0 2.173c-.261 0-.511-.106-.692-.295-.18-.189-.276-.444-.264-.705 0-.528.428-.956.956-.956.529 0 .957.428.957.956.012.261-.084.516-.264.705-.181.189-.431.296-.693.295zm-3.913 43.087c-.648 0-1.174.526-1.174 1.174-.09.465.107.94.502 1.202.394.263.907.263 1.302 0 .394-.263.591-.737.5-1.202.001-.632-.498-1.15-1.13-1.174zm0 2.13c-.412.018-.792-.219-.958-.596-.166-.378-.083-.818.209-1.11.291-.291.732-.374 1.109-.208s.614.546.597.958c0 .528-.428.957-.957.957zm-10.695-9.738c-.649 0-1.174.525-1.174 1.173 0 .649.525 1.174 1.174 1.174.648 0 1.174-.525 1.174-1.174 0-.648-.526-1.173-1.174-1.173zm0 2.13c-.529 0-.957-.428-.957-.957-.012-.26.084-.515.264-.704.181-.19.431-.296.693-.296.261 0 .511.107.692.296.18.189.276.443.264.704 0 .529-.428.957-.956.957zM50.39 79.913c-.648 0-1.174.526-1.174 1.174 0 .648.526 1.174 1.174 1.174.649 0 1.174-.526 1.174-1.174 0-.648-.525-1.174-1.174-1.174zm0 2.13c-.528 0-.956-.428-.956-.956s.428-.957.956-.957c.529 0 .957.429.957.957s-.428.956-.957.956zm1.174-16.39c-.482-.018-.926.261-1.119.703-.192.443-.095.958.246 1.3.342.34.857.438 1.3.246.442-.193.721-.637.704-1.12-.023-.614-.516-1.107-1.13-1.13zm0 2.13c-.261 0-.511-.107-.692-.296-.18-.189-.276-.443-.264-.704 0-.529.428-.957.956-.957s.957.428.957.957c.012.26-.084.515-.265.704-.18.19-.43.296-.692.296zm8.044 16.826c-.632.023-1.131.542-1.13 1.174-.019.472.259.905.695 1.087v-.261c-.283-.182-.462-.49-.478-.826 0-.529.428-.957.956-.957h.261l.087-.174-.391-.043zM44.39 72.13c-.648 0-1.174.526-1.174 1.174 0 .649.526 1.174 1.174 1.174.649 0 1.174-.525 1.174-1.174 0-.648-.525-1.174-1.174-1.174zm0 2.13c-.528 0-.956-.427-.956-.956 0-.528.428-.956.956-.956.261-.012.516.083.705.264.189.18.296.43.295.692 0 .262-.106.512-.295.693-.189.18-.444.276-.705.264zM14.478 84.61c-.648 0-1.174.525-1.174 1.174 0 .648.526 1.174 1.174 1.174.649 0 1.174-.526 1.174-1.174 0-.649-.525-1.174-1.174-1.174zm0 2.13c-.528 0-.956-.428-.956-.956 0-.529.428-.957.956-.957.529 0 .957.428.957.957 0 .528-.428.956-.957.956zm23.305 17.913c-.3 0-.588.12-.8.331-.212.212-.33.5-.33.8h.173c.043-.502.453-.893.957-.913.25-.012.493.079.674.251.18.173.282.412.282.662h.218c-.024-.632-.543-1.131-1.174-1.13zm-9-18.217c-.632.023-1.131.542-1.13 1.174.107.55.59.949 1.151.949.562 0 1.045-.398 1.153-.95 0-.648-.526-1.173-1.174-1.173zm0 2.13c-.529 0-.957-.428-.957-.956 0-.529.428-.957.957-.957.528 0 .956.428.956.957 0 .253-.1.497-.28.676-.18.18-.423.28-.676.28zm.608-23.522c-.42 0-.807.224-1.016.587-.21.364-.21.811 0 1.174.21.364.597.587 1.016.587.649 0 1.174-.525 1.174-1.174 0-.648-.525-1.174-1.174-1.174zm0 2.13c-.528 0-.956-.427-.956-.956 0-.528.428-.956.956-.956.529 0 .957.428.957.956 0 .254-.1.497-.28.677-.18.18-.423.28-.677.28zM8.696 94.697h-.218c-.043.043-.043.13-.087.217h.305c.341 0 .657.182.828.478.17.296.17.66 0 .957-.17.296-.487.478-.828.478-.33 0-.64-.162-.826-.435-.01.074-.025.146-.044.218.205.273.528.434.87.434.648 0 1.174-.525 1.174-1.173 0-.649-.526-1.174-1.174-1.174zm12.695-1.913c-.631 0-1.15.499-1.174 1.13 0 .656.519 1.194 1.174 1.217.656-.023 1.175-.561 1.174-1.217-.023-.631-.542-1.13-1.174-1.13zm0 2.13c-.398.085-.808-.081-1.036-.42-.228-.337-.228-.78 0-1.117.228-.338.638-.504 1.036-.42.529 0 .957.429.957.957.012.261-.084.516-.264.705-.181.189-.431.295-.693.295zm18.522-11.26c-.648 0-1.174.525-1.174 1.173S39.265 86 39.913 86c.648 0 1.174-.526 1.174-1.174 0-.648-.526-1.174-1.174-1.174zm0 2.13c-.528 0-.956-.429-.956-.957s.428-.956.956-.956c.342 0 .658.182.828.478.171.296.171.66 0 .956-.17.296-.486.479-.828.479zm-3-38.435c-.164.225-.418.368-.696.391l-.304.174h.217c.463-.015.88-.282 1.087-.696l-.304.13zm3.609 12.956c-.475 0-.903.286-1.085.725-.182.439-.081.944.255 1.28.335.335.84.436 1.279.254.439-.182.725-.61.725-1.085 0-.311-.124-.61-.344-.83-.22-.22-.519-.344-.83-.344zm0 2.13c-.387 0-.736-.232-.884-.59-.148-.357-.066-.769.207-1.042.274-.274.685-.356 1.043-.207.357.148.59.496.59.883 0 .254-.1.497-.28.677-.18.179-.423.28-.676.28z" transform="translate(1.304 52.174)"/>
                    <path fill="#263238" d="M55.217 58.435c1.087 1.87 2.305 3.652 3.479 5.478-.479-1.304-.913-2.609-1.435-3.87 0 0 0-.043.043 0 .804 1.528 1.46 3.13 1.957 4.783.867 1.372 1.65 2.795 2.348 4.261.828 1.767 1.343 3.665 1.521 5.609.135 1.96-.132 3.928-.782 5.782-.802 2.12-1.777 4.17-2.913 6.13-.13.262-.522 0-.392-.26 1.61-3.478 3.435-7.087 3.261-11.044-.174-3.956-1.956-7.478-3.739-10.826-1.04-2.053-2.2-4.042-3.478-5.956-.044-.087.087-.13.13-.087zM49.957 84.478c-2.346.215-4.671.607-6.957 1.174-1.135.267-2.253.601-3.348 1l-1.695.478c-.574.204-1.175.32-1.783.348-.044 0-.044.087 0 .087.58.03 1.161.015 1.739-.043.558-.06 1.11-.161 1.652-.305L43 86.304c2.304-.608 4.652-1.174 7-1.608.087-.044.087-.218-.043-.218zM55.74 86.565c-1.922-.195-3.853-.282-5.783-.26-1 0-1.957.086-2.914.173l-1.39.13c-.523.088-1 .218-1.523.262-.521.043-.043.087 0 .087H47.043l2.914-.087 5.782-.087c.06 0 .109-.05.109-.11s-.049-.108-.109-.108z" transform="translate(1.304 52.174)"/>
                    <path fill="#AD6359" d="M29.826 52.609C15.217 67.913-2.913 99.869.652 106.217c4 7.087 24.913-14.565 24.261-15.608-.652-1.044 6.87-20.261 12.13-34.348 5.261-14.087-3.608-7.435-7.217-3.652z" transform="translate(1.304 52.174)"/>
                    <path fill="#FFC727" d="M11.957 70.957l20.956 3.739s5.217-14.826 6.26-23.087c.566-4.609-2.13-4.826-5.564-2.348-11.957 8.609-21.652 21.696-21.652 21.696z" transform="translate(1.304 52.174)"/>
                    <path fill="#FFF" d="M19.435 69.391c-.479 0-.91.292-1.088.736-.18.444-.07.952.274 1.284.345.332.857.421 1.294.226.437-.196.711-.637.694-1.115-.024-.632-.542-1.131-1.174-1.13zm0 2.13c-.262.001-.512-.106-.692-.295-.181-.189-.277-.443-.265-.704 0-.529.429-.957.957-.957s.956.428.956.957c.012.26-.083.515-.264.704-.18.19-.43.296-.692.296zm12.87-17.478c-.649 0-1.175.526-1.175 1.174 0 .649.526 1.174 1.174 1.174.649 0 1.174-.525 1.174-1.174 0-.648-.525-1.174-1.174-1.174zm0 2.13c-.529 0-.957-.427-.957-.956 0-.528.428-.956.956-.956.342 0 .658.182.829.478.17.296.17.66 0 .957-.171.296-.487.478-.829.478zm-9.131 2.436c-.182.002-.36.047-.522.13l-.522.565c-.089.144-.134.31-.13.479 0 .648.526 1.174 1.174 1.174.648 0 1.174-.526 1.174-1.174 0-.649-.526-1.174-1.174-1.174zm0 2.13c-.528 0-.957-.428-.957-.956 0-.529.429-.957.957-.957s.956.428.956.957c0 .253-.1.497-.28.676-.18.18-.422.28-.676.28zm9.478 13.913h.261c.035-.1.064-.201.087-.304-.137.074-.256.178-.348.304zm-3.26-9.609c-.42 0-.808.224-1.017.587-.21.364-.21.811 0 1.174.21.364.597.587 1.016.587.649 0 1.174-.525 1.174-1.174 0-.648-.525-1.174-1.174-1.174zm0 2.13c-.529 0-.957-.427-.957-.956 0-.528.428-.956.956-.956.529 0 .957.428.957.956 0 .254-.1.497-.28.677-.18.18-.423.28-.677.28zM36 47.958h.13c.248-.005.49-.08.696-.218-.284.032-.563.105-.826.218z" transform="translate(1.304 52.174)"/>
                    <path fill="#263238" d="M32.783 71.26c-3.174-.825-11.87-2.869-17.696-3.477-.044 0-.044.13-.044.13 4.783 1.217 14.435 3 17.696 3.565.044 0 .087-.174.044-.217z" transform="translate(1.304 52.174)"/>
                    <path fill="#263238" d="M30.348 74.26l2.565.305-.174.087c.667-2.26 1.362-4.522 2.087-6.782.74-2.261 1.522-4.479 2.435-6.653-.565 2.305-1.218 4.566-1.913 6.826-.696 2.261-1.478 4.479-2.305 6.74v.13h-.13l-2.565-.652z" transform="translate(1.304 52.174)"/>
                    <path fill="#263238" d="M35.87 65.74c.179-.476.412-.928.695-1.349l.957-1.174c-.048.259-.136.508-.261.74-.099.226-.215.444-.348.652-.3.418-.65.797-1.043 1.13z" transform="translate(1.304 52.174)"/>
                    <path fill="#AD6359" d="M1.13 106.87c3.957 4.304 13.13 3.956 36.218 5.304 3.174.174 10.565-22 7.13-22.391-4.26-.479-21-1.348-22.217-1.261-10.391.739-23.826 15.435-21.13 18.348z" transform="translate(1.304 52.174)"/>
                    <path fill="#AD6359" d="M39.87 89.391s9.695.13 14.782 1.783c6.826 2.217 11.783 6.913 13.74 9 4.13 4.391 11 17.87 7.478 20.522C72.348 123.348 66.348 109 66.348 109s8.826 13.304 4.435 15.478C66.39 126.652 60 109.87 60 109.87s8.74 13.913 3.87 15.434c-3.653 1.174-10.348-13.695-10.348-13.695S61 123.565 57.26 124.957c-3.74 1.39-11.174-11.87-11.174-11.87-10.044 1.87-15.609-1.348-19.304-4.13-.87-.653 13.087-19.566 13.087-19.566z" transform="translate(1.304 52.174)"/>
                    <path fill="#263238" d="M63.565 104.174c1.087 1.522 2.218 3.087 3.174 4.696.97 1.605 1.855 3.26 2.652 4.956 1.08 2.205 1.911 4.524 2.479 6.913-1.305-4.174-4.653-10-5.566-11.609-.913-1.608-1.826-3.304-2.782-4.913-.044-.043.043-.043.043-.043zM57.652 107.522c1.348 2 2.696 3.956 3.913 6.043 1.218 2.087 2.218 4.087 3.261 6.218.087.174 0 .174-.087 0-1.174-2.087-2.391-3.913-3.565-6s-2.304-4.218-3.565-6.218c0-.043.043-.087.043-.043zM52.087 109.478c2.174 2.957 3.783 6.348 5.26 9.652.088.174-.043.174-.13 0-1.695-3.26-3-5.826-5.217-9.565-.043-.043.043-.13.087-.087zM13.696 92.174c1.391-1.13 5.391-3.87 9.652-3.74.043 0 .043.044 0 .088-3.478.391-8.174 2.739-9.609 3.739-.043 0-.087-.044-.043-.087z" transform="translate(1.304 52.174)"/>
                    <path fill="#AD6359" d="M39.565 47.13c.087 1 3.783 8.044 8.261 8.522 1.435.13 2.652-7.782 2.652-7.782l.218-.566 3.087-7.913-8.696-7.652-1.26-1.043s-.697 2.217-1.523 5l-.13.391c-.044.174-.13.304-.174.478-.142.413-.258.834-.348 1.261-.127.31-.229.63-.304.957l-.261 1c-.666 2.413-1.174 4.868-1.522 7.347z" transform="translate(1.304 52.174)"/>
                    <path fill="#263238" d="M42.304 35.696c.928 4.926 4.005 9.182 8.392 11.608l3.087-7.913-8.696-7.652-1.26-1.043s-.697 2.217-1.523 5z" transform="translate(1.304 52.174)"/>
                    <path fill="#AD6359" d="M67.565 30c-1.956 14.74-11 15.26-14.217 14.826-3.218-.435-12.696-2.087-12.261-16.956C41.522 13 49 9.174 55.696 9.74c6.695.564 13.87 5.477 11.87 20.26z" transform="translate(1.304 52.174)"/>
                    <path fill="#263238" d="M65.478 28.391c-.329-.104-.649-.235-.956-.391-.345-.11-.649-.322-.87-.609-.118-.22-.064-.494.13-.652.393-.256.896-.272 1.305-.043.448.166.819.491 1.043.913.09.197.06.43-.08.596-.139.167-.361.24-.572.186zM55.478 25.87h1c.375.02.75-.055 1.087-.218.17-.172.22-.428.13-.652-.287-.378-.742-.59-1.217-.565-.485-.01-.96.143-1.348.435-.181.15-.25.398-.172.62.077.223.285.374.52.38zM57.043 29.087l-.086.087c-.174 1-.479 2.13-1.435 2.304h-.044c1.13.087 1.609-1.391 1.565-2.391z" transform="translate(1.304 52.174)"/>
                    <path fill="#263238" d="M56.348 27.913c-1.609-.435-2.305 2.783-.826 3.174 1.478.391 2.13-2.826.826-3.174z" transform="translate(1.304 52.174)"/>
                    <path fill="#263238" d="M55.696 27.913c-.348.13-.696.391-1.044.348-.348-.044-.609-.435-.782-.826h-.087c-.13.608-.044 1.304.608 1.522.652.217 1.13-.218 1.435-.827.304-.608 0-.26-.13-.217zM62.957 30.043c0-.043.086.044.043.087-.26 1-.391 2.174.435 2.696.043 0 .043.044 0 .044-1.087-.392-.87-1.957-.478-2.827z" transform="translate(1.304 52.174)"/>
                    <path fill="#263238" d="M64.087 29.217c1.609.218 1 3.435-.478 3.218-1.479-.218-.87-3.435.478-3.218z" transform="translate(1.304 52.174)"/>
                    <path fill="#263238" d="M64.696 29.522c.217.26.434.608.739.695.304.087.652-.217.956-.521.305-.305.044 0 .044.043 0 .044-.435 1.218-1.044 1.218-.608 0-.87-.566-.87-1.218s.088-.304.175-.217zM55.478 37.652c.174.305.305.652.652.783.369.101.756.116 1.13.043.044 0 .044.044.044.087-.394.314-.931.38-1.391.174-.394-.211-.618-.643-.565-1.087h.13zM60.348 34.913s-.087 1.522-.218 2.26h-.478c-1.271-.015-2.421-.759-2.956-1.912-.044-.087.043-.13.13-.087.757.794 1.747 1.327 2.826 1.522.087-.174.13-2.609.218-2.609.534.167 1.045.4 1.521.696.305-3.174.087-6.392.479-9.522 0-.048.038-.087.087-.087.048 0 .086.039.086.087.435 3.304.174 6.956-.043 10.26-.043.392-1.391-.434-1.652-.608zM45.13 12.087c-.521 1.174-7.217 2-10.173-2.565C32 4.957 35.913-.435 41.26 2.174c3.348 1.652 4.956 7.435 3.87 9.913z" transform="translate(1.304 52.174)"/>
                    <path fill="#263238" d="M34.87 3.391c1.125-1.266 2.668-2.084 4.347-2.304 1.577-.284 3.185.297 4.218 1.522 1.087 1.217 1.608 2.826 1.913 4.478.144.818.203 1.648.174 2.478.026.858-.107 1.713-.392 2.522.468-.752.765-1.598.87-2.478.138-.877.167-1.768.087-2.652-.174-1.74-.696-3.566-1.913-4.957-.628-.723-1.44-1.263-2.348-1.565C40.94.147 39.99.116 39.087.348c-1.77.38-3.298 1.484-4.217 3.043zM41.826 28.522c2.609 1.043 5-4.957 5-4.957S58.87 24.74 62.348 15.61c0 0 .391 6.521 5.695 10.826 0 0 2.348-10.392-5.26-14.565 0 0-9.13-6.435-16.957.087-7.826 6.521-5.739 15.826-4 16.565z" transform="translate(1.304 52.174)"/>
                    <path fill="#263238" d="M62.565 14.913c-.244 1.494-.807 2.918-1.652 4.174-.841 1.254-1.92 2.332-3.174 3.174-.304.217-.696.391-1 .565l-.522.261-.521.217c-.34.15-.69.28-1.044.392l-1.13.26-.522.131h-.565l-1.13.13-2.218-.087c.74-.087 1.478-.13 2.174-.26l1.087-.174.565-.13.522-.131 1-.348c.343-.104.677-.235 1-.391l.522-.218.478-.26c.32-.163.625-.352.913-.566 1.213-.771 2.274-1.758 3.13-2.913.93-1.15 1.638-2.461 2.087-3.87v.044z" transform="translate(1.304 52.174)"/>
                    <path fill="#FFC727" d="M41.087 18.652l-1.217 1.044 2.956 5 2.652-2.348-4.391-3.696zm2.043 4.565L40.957 20l.26-.26 2.826 2.651-.913.826zM42.26 16.435l-.738 1.391 4.652 3.522 1.565-3.174-5.478-1.74zm3.61 3.435l-3.218-2.174.13-.305 3.653 1.392-.565 1.087z" transform="translate(1.304 52.174)"/>
                    <path fill="#AD6359" d="M43.304 29.304s-2.174-5.26-4.478-4.565c-2.304.696-1.391 7.783.826 9.218.557.403 1.254.566 1.932.452.679-.115 1.283-.497 1.677-1.061l.043-4.044z" transform="translate(1.304 52.174)"/>
                    <path fill="#263238" d="M39.13 26.74c-.043 0-.043.043-.043.086 1.565 1.044 2.087 2.826 2.391 4.609-.391-.74-1-1.261-1.956-.826-.087 0-.044.087 0 .087.663-.06 1.29.307 1.565.913.225.484.385.996.478 1.521.044.174.348.13.348-.043.522-2.217-.522-5.609-2.783-6.348z" transform="translate(1.304 52.174)"/>
                </g>
                <g fill-rule="nonzero">
                    <path fill="#FFF" d="M8.426 24.29c.093.99-.42 1.937-1.3 2.4-.88.462-1.952.348-2.715-.29-.762-.637-1.065-1.671-.766-2.62.3-.947 1.14-1.62 2.13-1.705 1.343-.115 2.526.874 2.651 2.215z" transform="translate(64 26)"/>
                    <path fill="#263238" d="M8.426 24.29c.083.658-.119 1.32-.553 1.82-.403.528-1.002.87-1.662.95-.682.075-1.365-.124-1.899-.555-.53-.435-.87-1.059-.95-1.74-.039-.703.187-1.395.634-1.939.462-.498 1.1-.796 1.78-.83 1.363-.091 2.545.932 2.65 2.294zm0 0c-.06-.636-.373-1.22-.87-1.622-.507-.387-1.147-.558-1.78-.475-.597.078-1.139.392-1.503.87-.38.468-.564 1.063-.515 1.662.039.602.325 1.16.791 1.543.45.415 1.05.63 1.662.594.637-.04 1.232-.336 1.649-.82.417-.484.62-1.115.566-1.752z" transform="translate(64 26)"/>
                    <path fill="#FFF" d="M3.125 28.8c.045.36-.062.721-.295.998-.232.278-.57.447-.931.466-.743.065-1.398-.484-1.464-1.227-.065-.742.484-1.398 1.227-1.463.359-.045.72.062.998.295.278.232.446.57.465.931z" transform="translate(64 26)"/>
                    <path fill="#263238" d="M3.125 28.8c.073.768-.464 1.46-1.226 1.582-.39.045-.784-.053-1.108-.277-.316-.254-.515-.625-.554-1.028-.035-.421.109-.837.396-1.147.277-.274.64-.442 1.029-.475.764-.003 1.401.583 1.463 1.345zm0 0c-.017-.358-.19-.69-.474-.91-.277-.192-.615-.276-.95-.237-.7.054-1.222.665-1.167 1.365.055.699.666 1.221 1.365 1.167.343-.011.668-.153.91-.396.238-.272.352-.63.316-.989z" transform="translate(64 26)"/>
                    <path fill="#FFF" d="M26.664 12.976c.465 3.898-2.314 7.438-6.211 7.912-1.225.152-2.468-.025-3.6-.514-1.138 1.48-2.9 2.348-4.767 2.348-1.868 0-3.63-.868-4.767-2.348l-.792.158c-1.275.156-2.56-.203-3.57-.998-1.01-.794-1.661-1.959-1.81-3.235-.156-1.186.14-2.386.831-3.363C1.167 11.91.66 10.676.514 9.376.28 7.5.804 5.61 1.971 4.126 3.137 2.64 4.849 1.68 6.725 1.463c1.695-.223 3.413.185 4.827 1.147.991-1.205 2.407-1.984 3.956-2.176 2.743-.34 5.362 1.248 6.33 3.838.237-.108.491-.175.751-.198 2.14-.256 4.084 1.264 4.352 3.402.154 1.137-.209 2.284-.99 3.125.402.732.645 1.541.713 2.374z" transform="translate(64 26)"/>
                    <path fill="#263238" d="M26.664 12.976c.168 1.237-.01 2.497-.515 3.64-.225.568-.531 1.101-.91 1.582-.377.503-.83.943-1.344 1.305-.992.762-2.164 1.253-3.403 1.424-1.246.16-2.514-.003-3.679-.474h.08c-1.138 1.521-2.927 2.416-4.827 2.413-.934.007-1.857-.21-2.69-.633-.85-.406-1.594-1.001-2.176-1.74h.158c-.483.165-.994.232-1.503.197-1.579.01-3.066-.741-3.996-2.017-.276-.44-.514-.904-.712-1.385-.136-.504-.216-1.021-.237-1.543.003-1.045.32-2.065.91-2.927v.237c-2.204-2.837-2.036-6.85.395-9.495 1.2-1.276 2.81-2.089 4.55-2.294 1.72-.166 3.444.283 4.866 1.266h-.158c.685-.828 1.57-1.468 2.571-1.86 1-.36 2.073-.468 3.125-.316 1.065.184 2.062.649 2.888 1.345.823.665 1.452 1.54 1.82 2.532h-.08c.835-.278 1.738-.278 2.572 0 .815.296 1.51.852 1.978 1.582.48.724.703 1.588.633 2.453-.073.871-.435 1.693-1.028 2.334.396.735.638 1.542.712 2.374zm0 0c-.079-.83-.32-1.637-.712-2.374.595-.636.946-1.463.989-2.334.07-.853-.154-1.704-.633-2.413-.459-.73-1.159-1.276-1.978-1.543-.808-.277-1.685-.277-2.493 0h-.04c-.382-.973-1.009-1.831-1.819-2.492-.814-.646-1.782-1.069-2.809-1.227C16.143.44 15.095.548 14.123.91c-.955.394-1.798 1.02-2.453 1.82l-.079.118-.118-.079c-2.099-1.38-4.775-1.53-7.015-.393C2.22 3.512.76 5.76.633 8.268c-.055 1.66.477 3.284 1.503 4.59l.08.118-.08.119c-.556.787-.86 1.725-.87 2.69.001.484.082.965.237 1.424.139.454.353.882.633 1.266.575.795 1.374 1.4 2.295 1.74.458.159.94.24 1.424.238.48.006.958-.047 1.424-.158h.08l.078.079c.543.72 1.248 1.303 2.058 1.7.789.427 1.674.645 2.57.634.905.005 1.799-.198 2.612-.594.83-.382 1.551-.967 2.097-1.7h.079c1.148.483 2.402.66 3.64.513 1.232-.142 2.405-.606 3.402-1.345.483-.384.92-.822 1.305-1.305.368-.495.686-1.025.95-1.582.518-1.167.697-2.456.514-3.72z" transform="translate(64 26)"/>
                    <path fill="#FFC727" d="M17.446 12.778l-.198 1.068c-.036.22-.165.416-.354.536-.188.12-.419.156-.635.097-.22-.037-.415-.165-.536-.354-.12-.188-.156-.419-.097-.635l.356-1.701c.099-.448.542-.731.99-.633 1.032.2 2.04-.444 2.294-1.464.104-.504-.002-1.03-.293-1.455-.29-.425-.742-.714-1.25-.8-.65-.147-1.329.064-1.78.554-.145.17-.353.275-.577.29-.223.015-.443-.061-.61-.21-.323-.324-.34-.843-.04-1.187 1.078-1.203 2.83-1.529 4.268-.796 1.439.733 2.204 2.342 1.864 3.92-.363 1.596-1.766 2.738-3.402 2.77zm-.751 3.64v.277c-.029.316-.235.588-.531.702-.297.113-.632.048-.864-.169-.232-.216-.32-.546-.227-.85v-.316c.116-.436.545-.71.989-.633.22.036.415.165.536.353.12.189.156.42.097.636zM8.822 10.563l-.158-1.068c-.047-.468.286-.888.751-.95.217-.034.437.024.61.159.172.135.281.335.3.553l.238 1.78c.03.45-.273.853-.712.95-1.058.124-1.817 1.078-1.702 2.136.144 1.037 1.1 1.763 2.137 1.622.67-.056 1.251-.484 1.503-1.108.087-.206.253-.369.462-.45.209-.083.441-.077.646.015.204.079.366.238.448.44.083.202.078.43-.013.628-.632 1.476-2.175 2.347-3.765 2.125-1.59-.222-2.835-1.481-3.04-3.074-.209-1.636.744-3.197 2.295-3.758zm-.475-3.68v-.316c-.022-.22.045-.44.186-.612.142-.17.345-.278.566-.298.216-.034.437.024.61.159.172.135.28.335.3.553v.317c.033.216-.024.437-.159.61-.135.172-.335.28-.553.3-.221.033-.446-.023-.625-.157-.178-.134-.295-.334-.325-.555z" transform="translate(64 26)"/>
                </g>
            </g>
        </g>
    </g>
</svg>
