<svg width="1272" height="1272" xmlns="http://www.w3.org/2000/svg" xmlns:xlink="http://www.w3.org/1999/xlink" overflow="hidden"><defs><clipPath id="clip0"><rect x="1714" y="522" width="1272" height="1272"/></clipPath><clipPath id="clip1"><rect x="1822" y="574" width="1055" height="1054"/></clipPath><clipPath id="clip2"><rect x="1822" y="574" width="1055" height="1054"/></clipPath><clipPath id="clip3"><rect x="1822" y="574" width="1055" height="1054"/></clipPath></defs><g clip-path="url(#clip0)" transform="translate(-1714 -522)"><path d="M2350 522C1998.75 522 1714 806.747 1714 1158 1714 1509.25 1998.75 1794 2350 1794 2701.25 1794 2986 1509.25 2986 1158 2986 806.747 2701.25 522 2350 522Z" fill="#FCE0A2" fill-rule="evenodd"/><g clip-path="url(#clip1)"><g clip-path="url(#clip2)"><g clip-path="url(#clip3)"><path d="M2459.79 989.013 2679.37 989.013 2679.37 1234.95 2459.79 1234.95 2459.79 989.013Z" fill="#BF360C"/><path d="M2789.17 1386.46 2789.17 1584.08 2350 1584.08 2350 1386.46C2350 1234.95 2501.51 1208.6 2501.51 1208.6L2639.85 1208.6C2637.65 1208.6 2789.17 1234.95 2789.17 1386.46Z" fill="#3F51B5"/><path d="M2569.58 1283.25C2516.88 1283.25 2503.71 1210.79 2503.71 1210.79L2503.71 1125.15 2635.46 1125.15 2635.46 1210.79C2635.46 1210.79 2622.28 1283.25 2569.58 1283.25Z" fill="#FF9800"/><path d="M2701.33 953.879C2701.33 841.892 2437.83 881.417 2437.83 953.879 2437.83 969.25 2437.83 1041.71 2437.83 1057.08 2437.83 1129.55 2497.12 1188.83 2569.58 1188.83 2642.05 1188.83 2701.33 1129.55 2701.33 1057.08 2701.33 1041.71 2701.33 969.25 2701.33 953.879Z" fill="#FFB74D"/><path d="M2569.58 815.542C2486.14 815.542 2371.96 874.829 2371.96 1188.83L2459.79 1221.77 2459.79 1035.12 2613.5 947.292 2679.37 1013.17 2679.37 1221.77 2767.21 1166.88C2767.21 1050.5 2762.82 837.5 2622.28 837.5L2609.11 815.542 2569.58 815.542Z" fill="#FF5722"/><path d="M2569.58 1298.62C2510.3 1298.62 2503.71 1210.79 2503.71 1210.79 2503.71 1210.79 2523.47 1276.67 2569.58 1276.67 2615.7 1276.67 2635.46 1210.79 2635.46 1210.79 2635.46 1210.79 2628.87 1298.62 2569.58 1298.62Z" fill="#FFB74D"/><path d="M2624.48 1057.08C2617.21 1057.08 2611.3 1062.99 2611.3 1070.26 2611.3 1077.53 2617.21 1083.43 2624.48 1083.43 2631.75 1083.43 2637.65 1077.53 2637.65 1070.26 2637.65 1062.99 2631.75 1057.08 2624.48 1057.08ZM2514.69 1054.89C2507.42 1054.89 2501.51 1060.79 2501.51 1068.06 2501.51 1075.33 2507.42 1081.24 2514.69 1081.24 2521.96 1081.24 2527.86 1075.33 2527.86 1068.06 2527.86 1060.79 2521.96 1054.89 2514.69 1054.89Z" fill="#784719"/><path d="M2130.42 1289.84C2060.15 1289.84 2064.54 1210.79 2064.54 1210.79L2064.54 1131.74 2196.29 1131.74 2196.29 1210.79C2196.29 1210.79 2200.68 1289.84 2130.42 1289.84Z" fill="#FF9800"/><path d="M2251.19 1013.17C2233.01 1013.17 2218.25 1027.92 2218.25 1046.1 2218.25 1064.29 2233.01 1079.04 2251.19 1079.04 2269.37 1079.04 2284.12 1064.29 2284.12 1046.1 2284.12 1027.92 2269.37 1013.17 2251.19 1013.17ZM2009.65 1013.17C1991.46 1013.17 1976.71 1027.92 1976.71 1046.1 1976.71 1064.29 1991.46 1079.04 2009.65 1079.04 2027.83 1079.04 2042.58 1064.29 2042.58 1046.1 2042.58 1027.92 2027.83 1013.17 2009.65 1013.17Z" fill="#FFA726"/><path d="M2262.17 953.879C2262.17 841.892 1998.67 881.417 1998.67 953.879 1998.67 969.25 1998.67 1041.71 1998.67 1057.08 1998.67 1129.55 2057.95 1188.83 2130.42 1188.83 2202.88 1188.83 2262.17 1129.55 2262.17 1057.08 2262.17 1041.71 2262.17 969.25 2262.17 953.879Z" fill="#FFB74D"/><path d="M2130.42 815.542C2036 815.542 1976.71 890.2 1976.71 984.621 1976.71 997.796 1976.71 1035.12 1976.71 1035.12L2007.45 1046.1 2007.45 969.25 2191.9 907.767 2253.38 969.25 2253.38 1046.1 2284.12 1035.12C2284.12 1035.12 2284.12 997.796 2284.12 984.621 2284.12 923.138 2268.75 861.654 2191.9 846.283L2176.53 815.542 2130.42 815.542Z" fill="#424242"/><path d="M2185.31 1032.93C2178.04 1032.93 2172.14 1038.84 2172.14 1046.1 2172.14 1053.37 2178.04 1059.28 2185.31 1059.28 2192.58 1059.28 2198.49 1053.37 2198.49 1046.1 2198.49 1038.84 2192.58 1032.93 2185.31 1032.93ZM2075.52 1032.93C2068.25 1032.93 2062.35 1038.84 2062.35 1046.1 2062.35 1053.37 2068.25 1059.28 2075.52 1059.28L2075.52 1059.28C2082.79 1059.28 2088.7 1053.37 2088.7 1046.1 2088.7 1038.84 2082.79 1032.93 2075.52 1032.93Z" fill="#784719"/><path d="M2196.29 1208.6C2196.29 1208.6 2187.51 1254.71 2130.42 1254.71 2073.32 1254.71 2064.54 1208.6 2064.54 1208.6 2064.54 1208.6 1910.83 1234.95 1910.83 1386.46L1910.83 1584.08 2350 1584.08 2350 1386.46C2350 1234.95 2196.29 1208.6 2196.29 1208.6Z" fill="#009688"/><path d="M2350 1562.12C2301.69 1562.12 2306.08 1518.21 2306.08 1518.21L2306.08 1456.73 2393.92 1456.73 2393.92 1518.21C2393.92 1518.21 2398.31 1562.12 2350 1562.12Z" fill="#FF9800"/><path d="M2437.83 1366.7C2425.71 1366.67 2415.85 1376.49 2415.85 1388.63 2415.83 1400.75 2425.65 1410.61 2437.79 1410.61 2437.81 1410.61 2437.83 1410.61 2437.85 1410.61 2449.98 1410.63 2459.84 1400.82 2459.84 1388.68 2459.86 1376.56 2450.04 1366.7 2437.9 1366.7 2437.88 1366.7 2437.85 1366.7 2437.83 1366.7ZM2262.17 1366.7C2250.05 1366.67 2240.19 1376.49 2240.19 1388.63 2240.16 1400.75 2249.98 1410.61 2262.12 1410.61 2262.14 1410.61 2262.17 1410.61 2262.19 1410.61 2274.31 1410.63 2284.17 1400.82 2284.17 1388.68 2284.19 1376.56 2274.38 1366.7 2262.23 1366.7 2262.21 1366.7 2262.19 1366.7 2262.17 1366.7Z" fill="#FFA726"/><path d="M2437.83 1342.54C2437.83 1267.88 2262.17 1294.23 2262.17 1342.54 2262.17 1353.52 2262.17 1399.63 2262.17 1410.61 2262.17 1458.92 2301.69 1498.45 2350 1498.45 2398.31 1498.45 2437.83 1458.92 2437.83 1410.61 2437.83 1399.63 2437.83 1351.33 2437.83 1342.54Z" fill="#FFB74D"/><path d="M2350 1232.75C2284.12 1232.75 2240.21 1288.37 2240.21 1355.12 2240.21 1364.02 2240.21 1390.72 2240.21 1390.72L2262.17 1399.61 2262.17 1343.99 2393.92 1299.48 2437.83 1343.99 2437.83 1399.63 2459.79 1390.74C2459.79 1390.74 2459.79 1364.04 2459.79 1355.15 2459.79 1310.64 2448.81 1266.15 2393.92 1255.02L2382.94 1232.75 2350 1232.75Z" fill="#FF5722"/><path d="M2382.94 1386.46C2376.88 1386.46 2371.96 1391.38 2371.96 1397.44 2371.96 1403.5 2376.88 1408.42 2382.94 1408.42 2389 1408.42 2393.92 1403.5 2393.92 1397.44 2393.92 1391.38 2389 1386.46 2382.94 1386.46ZM2317.06 1386.46C2311 1386.46 2306.08 1391.38 2306.08 1397.44 2306.08 1403.5 2311 1408.42 2317.06 1408.42 2323.12 1408.42 2328.04 1403.5 2328.04 1397.44 2328.04 1391.38 2323.12 1386.46 2317.06 1386.46Z" fill="#784719"/><path d="M2393.92 1502.84C2393.92 1502.84 2387.33 1540.17 2350 1540.17 2312.67 1540.17 2306.08 1502.84 2306.08 1502.84 2298.31 1502.77 2246.01 1503.21 2214.78 1543.61 2203.52 1558.19 2198.6 1573.3 2196.29 1584.08 2298.77 1584.08 2401.23 1584.08 2503.71 1584.08 2501.4 1573.3 2496.48 1558.19 2485.22 1543.61 2453.99 1503.21 2401.69 1502.77 2393.92 1502.84Z" fill="#00BCD4"/><path d="M2803.31 836.073 2350 663.37 1896.69 836.073 1881.06 795.011 2350 616.38 2818.94 795.011Z" fill="#E53935"/></g></g></g></g></svg>