<svg xmlns="http://www.w3.org/2000/svg" width="292" height="280" viewBox="0 0 292 280">
    <defs>
        <filter id="mcw1g5tf6a" width="128.2%" height="130%" x="-14.1%" y="-15%" filterUnits="objectBoundingBox">
            <feOffset dy="10" in="SourceAlpha" result="shadowOffsetOuter1"/>
            <feGaussianBlur in="shadowOffsetOuter1" result="shadowBlurOuter1" stdDeviation="5"/>
            <feColorMatrix in="shadowBlurOuter1" result="shadowMatrixOuter1" values="0 0 0 0 0 0 0 0 0 0 0 0 0 0 0 0 0 0 0.2 0"/>
            <feMerge>
                <feMergeNode in="shadowMatrixOuter1"/>
                <feMergeNode in="SourceGraphic"/>
            </feMerge>
        </filter>
    </defs>
    <g fill="none" fill-rule="evenodd">
        <g fill-rule="nonzero">
            <g filter="url(#mcw1g5tf6a)" transform="translate(-42 -220) translate(49 220)">
                <g opacity=".5">
                    <path fill="#EBEBEB" d="M10.145 169.302H27.948999999999998V176.82H10.145zM103.127 110.651H120.931V118.169H103.127zM.202 178.775H18.006V186.293H.202zM249.385 178.775H267.18899999999996V186.293H249.385zM239.442.202H257.246V7.72H239.442zM249.385 9.674H267.18899999999996V17.192H249.385zM10.145.202H27.948999999999998V7.72H10.145zM137.995 57.173H267.122V62.716H137.995z" transform="translate(2.687)"/>
                    <path fill="#EBEBEB" d="M156.806 84.517L151.767 84.517 149.752 62.682 156.806 62.682zM248.377 84.517L253.416 84.517 255.432 62.682 248.377 62.682z" transform="translate(2.687)"/>
                    <path fill="#DBDBDB" d="M149.752 62.682L156.806 62.682 156.806 70.207 150.424 70.207zM255.432 62.682L254.76 70.207 248.377 70.207 248.377 62.682z" transform="translate(2.687)"/>
                    <path fill="#EBEBEB" d="M184.755 23.85c-5.711 7.793-11.69 16.796-13.168 26.538 0 .134.268.201.268.067.669-2.654 1.522-5.258 2.553-7.794 3.763-1.074 7.458-1.88 9.473-5.643 2.016-3.762 1.747-8.868 1.344-13.034 0-.268-.336-.268-.47-.134z" transform="translate(2.687)"/>
                    <path fill="#A6A6A6" d="M174.475 42.594c2.553-5.777 5.845-11.622 10.078-16.325h.067c-2.64 3.38-4.957 7.002-6.92 10.816 1.881-1.88 3.964-3.628 5.778-5.71h.067c-1.814 2.15-3.762 4.501-6.046 6.046l-1.881 3.494.47-.269-.538.269-.873 1.612c-.134.269-.269.134-.202.067zM176.357 40.579c1.528-.907 3.008-1.894 4.434-2.956h.067c-1.365 1.145-2.852 2.136-4.434 2.956-.067.134-.135 0-.067 0z" transform="translate(2.687)"/>
                    <path fill="#EBEBEB" d="M170.982 50.32c0 .068.201.068.201-.067.068-3.157 0-6.382.068-9.607.806-1.68 2.553-2.553 3.83-3.897.873-.99 1.639-2.071 2.283-3.224 1.445-2.733 2.336-5.724 2.62-8.801.336-3.427-.94-14.78-2.418-14.378-1.478.403-3.158 5.845-3.762 7.66-1.053 3.056-1.818 6.205-2.285 9.405-1.209 7.524-1.075 15.318-.537 22.91z" transform="translate(2.687)"/>
                    <path fill="#A6A6A6" d="M170.982 36.48c.305-4.078.957-8.124 1.948-12.092.94-4.233 2.016-8.264 4.166-12.026.067-.067.134 0 .134.067-1.456 2.935-2.582 6.022-3.36 9.204l.471-.672c.067-.067.202 0 .134.135-.2.329-.425.643-.671.94h-.068c-.739 3.023-1.276 6.114-1.746 9.204.067 0 .067-.067.134-.134h.067l-.201.336c-.27 1.545-.47 3.09-.672 4.636 2.881-2.28 5.126-5.266 6.517-8.667-1.166 3.633-3.475 6.791-6.584 9.002-.068.404-.068.807-.135 1.277-.067.47-.201.067-.201-.067 0-.135.067-.74.067-1.075 0-.336-.067-.067 0-.067z" transform="translate(2.687)"/>
                    <path fill="#A6A6A6" d="M172.258 30.568c2.213-3.08 4.125-6.364 5.711-9.808h.067c-1.265 3.607-3.177 6.954-5.643 9.876-.055.007-.108-.02-.135-.068zM175.147 20.02c.874-1.612 1.814-3.09 2.62-4.702 0-.067.068 0 .068.067-.677 1.656-1.533 3.233-2.553 4.703-.068.067-.202 0-.135-.067z" transform="translate(2.687)"/>
                    <path fill="#EBEBEB" d="M169.437 42.057c-.04 2.124-.287 4.24-.74 6.315 0 .269.068.47.068.74.641-2.303 1.024-4.669 1.142-7.055 0-.067.067-.135 0-.202.082-3.194-.143-6.389-.672-9.54-1.008-5.912-3.225-11.555-7.323-15.99-.06-.05-.14-.072-.217-.059-.077.013-.145.06-.186.127-1.68 4.232-1.075 9.271.336 13.504.747 2.277 1.834 4.43 3.225 6.382 1.41 1.948 3.225 3.628 4.367 5.778z" transform="translate(2.687)"/>
                    <path fill="#A6A6A6" d="M162.45 18.274c3.896 6.315 6.584 13.84 6.92 21.297.018.074-.027.15-.101.168-.074.019-.15-.027-.168-.1-.067-.673-.202-1.344-.269-2.016-1.705-1.491-3.197-3.21-4.434-5.106 0-.067 0-.067.067-.067 1.344 1.647 2.78 3.217 4.3 4.702-.336-1.68-.605-3.292-1.008-4.904l-.336-.336c-.067-.067.067-.201.135-.134.067.067.067.067.067.134-.54-2.211-1.212-4.387-2.016-6.517-1.1-1.075-2.05-2.296-2.821-3.628h.067c.56.838 1.166 1.646 1.814 2.419l.806.873c-.884-2.304-1.963-4.53-3.225-6.65-.067-.135.134-.202.202-.135z" transform="translate(2.687)"/>
                    <path fill="#A6A6A6" d="M163.189 26.067c1.276 1.747 2.687 3.36 3.896 5.106h-.067c-1.522-1.519-2.833-3.236-3.897-5.106.021-.012.047-.012.068 0zM167.22 31.576h.067c.067.067 0 .135-.067.067-.068-.067 0-.134 0-.067z" transform="translate(2.687)"/>
                    <path fill="#EBEBEB" d="M155.731 28.822c.423 3.547 1.844 6.902 4.098 9.674.935 1.088 2.077 1.978 3.36 2.62 1.41.672 2.956 1.478 4.434 2.083.687 1.807 1.204 3.673 1.545 5.576.075-.146.12-.306.134-.47-.94-8.196-6.248-15.25-13.1-19.752-.075-.13-.24-.175-.37-.1-.13.073-.175.239-.1.369z" transform="translate(2.687)"/>
                    <path fill="#A6A6A6" d="M158.083 31.307c-.067-.067 0-.134.067-.134 3.752 2.791 6.735 6.49 8.667 10.75.012.023.01.052-.005.074-.015.023-.04.036-.067.034-.027-.002-.05-.017-.063-.041l-1.008-1.613c-1.564-.455-2.994-1.285-4.165-2.418-.067-.068 0-.068.067-.068.593.545 1.246 1.018 1.949 1.411l1.948.74c-.559-.905-1.164-1.78-1.814-2.62-1.657-.66-3.216-1.542-4.636-2.621-.067-.067 0-.134 0-.067 1.413.84 2.871 1.602 4.367 2.284-.955-1.25-1.987-2.44-3.09-3.56l-1.545-.874c-.068 0 0-.067.067-.067.428.147.834.35 1.209.604l-1.948-1.814zM158.217 34.13l.269.2s0 .068-.067 0l-.27-.134s0-.134.068-.067z" transform="translate(2.687)"/>
                    <path fill="#DBDBDB" d="M177.7 57.173L163.659 57.173 164.331 47.969 164.599 44.946 176.625 44.946 176.894 47.969z" transform="translate(2.687)"/>
                    <path fill="#C7C7C7" d="M176.894 47.969L164.331 47.969 164.599 44.946 176.625 44.946z" transform="translate(2.687)"/>
                    <path fill="#DBDBDB" d="M163.659 42.46H177.566V45.537H163.659z" transform="translate(2.687)"/>
                    <path fill="#C7C7C7" d="M190.929 36.205H224.31900000000002V44.616H190.929z" transform="translate(2.687) rotate(90 207.624 40.41)"/>
                    <path fill="#DBDBDB" d="M205.776 19.611H209.471V28.022H205.776z" transform="translate(2.687) rotate(90 207.624 23.817)"/>
                    <path fill="#DBDBDB" d="M206.885 26.833H208.22899999999998V35.244H206.885z" transform="translate(2.687) rotate(90 207.557 31.039)"/>
                    <path fill="#DBDBDB" d="M205.776 46.753H209.471V55.164H205.776z" transform="translate(2.687) rotate(90 207.624 50.959)"/>
                    <path fill="#DBDBDB" d="M195.252 34.683H234.21800000000002V40.562H195.252z" transform="translate(2.687) rotate(90 214.735 37.623)"/>
                    <path fill="#EBEBEB" d="M207.211 27.562H222.193V31.089000000000002H207.211z" transform="translate(2.687) rotate(90 214.702 29.326)"/>
                    <path fill="#C7C7C7" d="M223.957 38.47H262.923V44.349H223.957z" transform="translate(2.687) rotate(44.7 243.44 41.41)"/>
                    <path fill="#DBDBDB" d="M238.028 41.622H253.01V45.149H238.028z" transform="translate(2.687) rotate(44.7 245.519 43.386)"/>
                    <path fill="#A6A6A6" d="M207.849 37.337H237.41V47.31400000000001H207.849z" transform="translate(2.687) rotate(90 222.63 42.326)"/>
                    <path fill="#C7C7C7" d="M221.252 47.65H224.007V57.626999999999995H221.252z" transform="translate(2.687) rotate(90 222.63 52.638)"/>
                    <path fill="#C7C7C7" d="M222.092 43.921H223.167V53.897999999999996H222.092z" transform="translate(2.687) rotate(90 222.63 48.91)"/>
                    <path fill="#A6A6A6" d="M180.967 39.655H208.781V46.548H180.967z" transform="translate(2.687) rotate(113.2 194.874 43.101)"/>
                    <path fill="#C7C7C7" d="M189.797 48.527H192.417V55.42H189.797z" transform="translate(2.687) rotate(113.2 191.107 51.974)"/>
                    <path fill="#C7C7C7" d="M196.281 33.357H198.901V40.25H196.281z" transform="translate(2.687) rotate(113.2 197.591 36.803)"/>
                    <path fill="#C7C7C7" d="M195.692 36.608H196.70000000000002V43.501H195.692z" transform="translate(2.687) rotate(113.2 196.196 40.054)"/>
                    <path fill="#EBEBEB" d="M218.279 133.829L179.447 143.974 166.346 94.057 195.235 86.532 205.245 83.912 207.731 93.452z" transform="translate(2.687)"/>
                    <path fill="#DBDBDB" d="M171.817 96.307H204.591V97.633H171.817z" transform="translate(2.687) rotate(165.548 188.204 96.97)"/>
                    <path fill="#DBDBDB" d="M172.737 100.8H205.45499999999998V102.124H172.737z" transform="translate(2.687) rotate(165.3 189.096 101.462)"/>
                    <path fill="#DBDBDB" d="M173.607 103.934H206.325V105.258H173.607z" transform="translate(2.687) rotate(165.3 189.967 104.596)"/>
                    <path fill="#DBDBDB" d="M174.43 107.218H207.14800000000002V108.542H174.43z" transform="translate(2.687) rotate(165.3 190.79 107.88)"/>
                    <path fill="#DBDBDB" d="M175.318 110.417H208.036V111.741H175.318z" transform="translate(2.687) rotate(165.3 191.677 111.078)"/>
                    <path fill="#DBDBDB" d="M176.14 113.7H208.858V115.024H176.14z" transform="translate(2.687) rotate(165.3 192.5 114.362)"/>
                    <path fill="#DBDBDB" d="M177.028 116.899H209.74599999999998V118.223H177.028z" transform="translate(2.687) rotate(165.3 193.387 117.56)"/>
                    <path fill="#DBDBDB" d="M177.851 120.182H210.56900000000002V121.506H177.851z" transform="translate(2.687) rotate(165.3 194.21 120.844)"/>
                    <path fill="#DBDBDB" d="M178.673 123.398H211.39100000000002V124.722H178.673z" transform="translate(2.687) rotate(165.3 195.033 124.06)"/>
                    <path fill="#DBDBDB" d="M179.509 125.268H212.283V126.594H179.509z" transform="translate(2.687) rotate(165.548 195.896 125.93)"/>
                    <path fill="#DBDBDB" d="M180.334 128.512H213.108V129.838H180.334z" transform="translate(2.687) rotate(165.548 196.721 129.175)"/>
                    <path fill="#DBDBDB" d="M181.254 133.082H213.97199999999998V134.406H181.254z" transform="translate(2.687) rotate(165.3 197.613 133.743)"/>
                    <path fill="#EBEBEB" d="M228.625 148.207L188.517 150.491 185.628 98.961 215.39 97.282 226.274 106.553z" transform="translate(2.687)"/>
                    <path fill="#DBDBDB" d="M215.39 97.282L226.274 106.553 215.928 107.09z" transform="translate(2.687)"/>
                    <path fill="#DBDBDB" d="M189.954 106.779H212.32600000000002V108.103H189.954z" transform="translate(2.687) rotate(176.8 201.14 107.44)"/>
                    <path fill="#DBDBDB" d="M190.237 110.084H212.60899999999998V111.408H190.237z" transform="translate(2.687) rotate(176.8 201.423 110.745)"/>
                    <path fill="#DBDBDB" d="M190.39 113.459H212.762V114.783H190.39z" transform="translate(2.687) rotate(176.8 201.576 114.121)"/>
                    <path fill="#DBDBDB" d="M190.562 116.451H223.28000000000003V117.77499999999999H190.562z" transform="translate(2.687) rotate(176.8 206.92 117.113)"/>
                    <path fill="#DBDBDB" d="M190.781 119.827H223.49900000000002V121.151H190.781z" transform="translate(2.687) rotate(176.8 207.14 120.489)"/>
                    <path fill="#DBDBDB" d="M190.997 123.132H223.71500000000003V124.456H190.997z" transform="translate(2.687) rotate(176.8 207.356 123.793)"/>
                    <path fill="#DBDBDB" d="M191.146 126.44H223.86399999999998V127.764H191.146z" transform="translate(2.687) rotate(176.8 207.505 127.102)"/>
                    <path fill="#DBDBDB" d="M191.362 129.816H224.07999999999998V131.14000000000001H191.362z" transform="translate(2.687) rotate(176.8 207.72 130.478)"/>
                    <path fill="#DBDBDB" d="M191.514 133.191H224.23200000000003V134.51500000000001H191.514z" transform="translate(2.687) rotate(176.8 207.873 133.853)"/>
                    <path fill="#DBDBDB" d="M191.73 136.496H224.44799999999998V137.82000000000002H191.73z" transform="translate(2.687) rotate(176.8 208.09 137.158)"/>
                    <path fill="#DBDBDB" d="M191.946 139.805H224.664V141.12900000000002H191.946z" transform="translate(2.687) rotate(176.8 208.305 140.466)"/>
                    <path fill="#DBDBDB" d="M192.098 143.18H224.81600000000003V144.50400000000002H192.098z" transform="translate(2.687) rotate(176.8 208.457 143.842)"/>
                </g>
                <g fill="#263238">
                    <path d="M0.336 0.537L34.398 0.336 68.393 0.269 136.382 0.202 204.372 0.269 238.367 0.336 272.429 0.537 238.367 0.672 204.372 0.739 136.382 0.873 68.393 0.739 34.398 0.672z" transform="translate(0 241.86)"/>
                </g>
                <g>
                    <path fill="#263238" d="M65.638 15.452C61.473 6.114 52.47.067 43.871 2.352 25.328 7.322 27.814 35.271 14.51 53.41-1.544 75.245-1.746 93.654 12.296 96.34c15.653 2.956 30.3-13.84 28.62-49.044-1.075-21.969 3.56-29.762 9.54-31.442 4.367-1.276 9.271 4.031 9.271 4.031l5.912-4.434z" transform="translate(10.75 74.574)"/>
                    <path fill="#263238" d="M40.646 35.204c-.067 3.494.202 6.987.403 10.48.202 3.494.47 6.92.538 10.414.156 3.471.111 6.948-.135 10.414-.17 3.452-.71 6.875-1.612 10.212-.82 3.318-2.281 6.445-4.3 9.204-2.121 2.743-4.715 5.087-7.659 6.92-2.963 1.88-6.32 3.052-9.809 3.426-1.742.213-3.504.19-5.24-.067-.887-.138-1.763-.34-2.62-.605-.854-.207-1.67-.547-2.419-1.008 1.493 1.022 3.189 1.71 4.972 2.016 1.763.392 3.57.55 5.375.47 1.846-.084 3.674-.4 5.441-.94 1.732-.56 3.399-1.303 4.972-2.218 1.568-.92 3.052-1.976 4.434-3.157l1.075-.94.94-.941c.675-.63 1.283-1.328 1.815-2.083 2.154-2.896 3.728-6.181 4.635-9.674 1.814-6.987 1.881-14.109 1.411-21.096-.202-3.494-.605-6.987-1.008-10.413-.403-3.427-.94-6.92-1.209-10.414zM61.54 10.078c-1.45-1.954-3.144-3.715-5.039-5.24-1.919-1.427-4.116-2.434-6.45-2.957-2.338-.437-4.744-.368-7.054.202-1.126.29-2.227.672-3.292 1.142-1.06.487-2.072 1.072-3.023 1.747-1.873 1.413-3.487 3.14-4.77 5.106-1.23 2.024-2.265 4.161-3.09 6.382-1.747 4.501-2.956 9.204-4.367 13.907-1.319 4.737-3.003 9.364-5.039 13.84-2.214 4.406-4.775 8.63-7.659 12.63-2.754 3.964-5.643 7.928-7.793 12.228-1.187 2.111-2.091 4.37-2.688 6.718L.941 77.53c-.1.6-.168 1.206-.202 1.814l-.134.94v2.688c-.807-4.838.336-9.876 2.418-14.31 2.083-4.435 4.837-8.533 7.458-12.631 2.62-4.098 5.24-8.196 7.188-12.563 1.973-4.418 3.612-8.976 4.905-13.639 1.41-4.635 2.62-9.405 4.434-14.04.953-2.31 2.1-4.535 3.426-6.652 1.434-2.094 3.231-3.915 5.308-5.375 1.046-.713 2.174-1.3 3.359-1.746 1.175-.482 2.389-.864 3.628-1.143 2.463-.526 5.014-.48 7.457.135 2.398.648 4.623 1.818 6.517 3.426 1.878 1.636 3.508 3.537 4.837 5.644z" transform="translate(10.75 74.574)"/>
                    <path fill="#FFC727" d="M69.199 17.199c0-1.814-1.344-4.031-2.486-4.3-1.142-.269-9.54 3.56-10.212 5.71-.672 2.15 3.158 4.032 3.158 4.032l9.54-5.442z" transform="translate(10.75 74.574)"/>
                    <path fill="#F7A9A0" d="M60.868 86.935c4.905 29.09 12.16 52.336 19.887 58.383 6.18 4.837 15.116 8.6 24.454 11.488 9.966 2.946 20.109 5.258 30.367 6.92l7.66 1.142c4.635.672 14.712-29.359 11.756-33.39-.739-.873-3.695-1.814-7.995-2.687-14.31-3.024-44.273-5.375-45.819-7.122-1.545-1.747-16.057-22.976-27.68-39.302-8.128-11.488-15.317-11.623-12.63 4.568z" transform="translate(10.75 74.574)"/>
                    <path fill="#F7A9A0" d="M134.165 161.039c.538.336 8.465 4.568 13.37 6.248 3.695 1.21 14.377 4.501 16.191.604 1.21-2.687-4.837-5.374-9.07-7.323-2.284-1.074-4.971-3.56-4.232-5.038.739-1.478 7.054.336 10.816 2.754 7.256 4.636 16.796 12.9 21.566 9.339 1.747-1.344-.134-4.031-2.956-6.719 4.636 3.158 9.607 5.845 11.623 4.367 2.015-1.478 1.276-1.948.739-3.359 1.41.538 2.754.538 3.695-.403.94-.94.94-3.964-.605-6.45.584-.046 1.11-.371 1.411-.873 3.494-4.837-12.227-19.886-17.803-21.431-16.46-4.703-34.264-4.031-34.264-4.031-6.718 4.904-10.48 32.315-10.48 32.315z" transform="translate(10.75 74.574)"/>
                    <path fill="#263238" d="M159.292 146.594c3.946.8 7.678 2.426 10.95 4.77 3.763 2.822 6.652 6.652 10.078 9.81.135.066 0 .2-.134.133-1.612-1.612-3.36-3.09-5.039-4.702-1.68-1.613-3.292-3.09-5.038-4.502-3.132-2.633-6.836-4.497-10.817-5.442-.067 0 0-.067 0-.067zM162.718 139.674c4.3 1.411 8.734 2.822 12.698 5.04 3.964 2.216 7.659 6.314 10.95 10.01 1.95 2.217 3.83 4.5 5.712 6.852.067.067-.068.202-.135.135-3.292-3.83-6.718-7.592-10.279-11.153-3.229-3.408-7.114-6.127-11.421-7.995-2.486-1.075-5.039-1.948-7.525-2.821-.067 0-.067-.068 0-.068zM167.69 133.762c4.165 1.008 7.86 1.949 11.488 4.367 4.905 3.225 9.473 8.532 11.086 10.414 1.612 1.88 3.426 4.232 5.106 6.382.012.024.01.053-.005.075s-.04.035-.067.034c-.027-.002-.05-.018-.063-.042-3.838-4.71-7.966-9.175-12.362-13.37-2.084-2.025-4.462-3.724-7.054-5.038-2.625-1.17-5.344-2.113-8.13-2.822-.066 0-.066-.067 0 0z" transform="translate(10.75 74.574)"/>
                    <path fill="#FFC727" d="M65.504 117.437l25.328-14.982S80.016 84.987 70.812 76.79c-9.205-8.197-12.967-1.814-11.556 10.212 1.41 12.025 6.248 30.434 6.248 30.434z" transform="translate(10.75 74.574)"/>
                    <path fill="#FFF" d="M73.835 109.845c-.18 1.001-.497 1.973-.94 2.889l-.202.47-1.008.605c.15-.481.329-.952.537-1.411.383-.94.929-1.804 1.613-2.553zm-10.347-13.37c-.92-.433-1.89-.749-2.889-.94.776.667 1.634 1.231 2.553 1.68.939.431 1.934.725 2.957.873-.79-.662-1.674-1.205-2.62-1.613zm8.734-14.78c.307.972.785 1.882 1.411 2.687-.087-1.011-.314-2.006-.672-2.956-.358-.963-.856-1.869-1.478-2.687.103 1.016.352 2.011.74 2.956zm11.623 12.026c-.85.098-1.685.301-2.486.605-.942.376-1.842.849-2.687 1.41 1.017-.048 2.018-.276 2.956-.671.803-.262 1.57-.623 2.284-1.075 0-.135-.067-.202-.067-.27z" transform="translate(10.75 74.574)"/>
                    <path fill="#263238" d="M86.868 98.693c-4.098 2.082-14.915 8.062-21.431 12.899 0 0 .067.201.134.134 6.047-3.158 17.602-10.346 21.432-12.765.067-.067-.068-.336-.135-.268z" transform="translate(10.75 74.574)"/>
                    <path fill="#263238" d="M88.75 103.731l-23.246 13.706s-4.837-18.476-6.248-30.434c-.94-7.727.269-13.168 3.762-13.84L88.75 103.73z" transform="translate(10.75 74.574)"/>
                    <path fill="#FFC727" d="M89.959 167.757H6.249S24.454 97.55 41.25 77.731l1.142-1.276.268-.202c1.285-1.42 2.808-2.602 4.502-3.493l.873-.47c6.517-2.957 13.37-.47 18.274 3.762 1.545 1.343 19.349 24.387 20.894 33.188 1.344 7.794-3.897 16.124-3.897 16.124l6.652 42.393z" transform="translate(10.75 74.574)"/>
                    <path fill="#FFF" d="M53.008 82.098c-.192.999-.508 1.97-.94 2.89-.408.946-.951 1.829-1.613 2.62.147-1.023.442-2.019.873-2.957.449-.92 1.013-1.777 1.68-2.553zm-12.63 39.303c-.432.938-.727 1.933-.874 2.956.638-.807 1.18-1.687 1.612-2.62.423-.919.716-1.891.874-2.89-.661.767-1.205 1.627-1.613 2.554zM30.03 162.45c-.422.918-.716 1.89-.873 2.889.638-.784 1.18-1.64 1.612-2.553.422-.919.716-1.89.873-2.89-.675.756-1.22 1.62-1.612 2.554zm42.191-50.052c-.444.915-.76 1.887-.94 2.889.683-.75 1.23-1.614 1.612-2.553.444-.916.76-1.888.94-2.889-.683.75-1.23 1.614-1.612 2.553zm13.235 26.806c-.44.911-.735 1.886-.873 2.889.44-.454.802-.975 1.075-1.545l-.202-1.344zm-31.845 19.08c-.453.912-.77 1.885-.94 2.89.67-.76 1.214-1.623 1.612-2.554.453-.935.77-1.93.94-2.956-.684.774-1.23 1.66-1.612 2.62zm9.876-61.809c-.92-.433-1.89-.749-2.889-.94.776.667 1.634 1.231 2.553 1.68.939.431 1.934.725 2.957.873-.79-.662-1.674-1.205-2.62-1.613zm5.577 33.323c-.939-.431-1.934-.725-2.956-.873.807.639 1.686 1.18 2.62 1.612.918.423 1.89.717 2.889.874-.794-.623-1.65-1.164-2.553-1.613zm2.015 36.481c-.947-.423-1.938-.739-2.956-.94.788.682 1.67 1.248 2.62 1.68.915.43 1.888.725 2.89.872-.778-.646-1.636-1.188-2.554-1.612zm-40.512-30.703c-.938-.431-1.933-.726-2.956-.873.807.638 1.687 1.18 2.62 1.612.919.423 1.891.716 2.89.874-.794-.624-1.65-1.164-2.554-1.613zm54.42-16.393c.068.684.203 1.359.402 2.016.135-.269.202-.605.336-.873-.207-.405-.454-.788-.739-1.143zm-1.613 38.833c.348.975.822 1.901 1.41 2.754-.088-1.033-.313-2.05-.671-3.023-.35-.954-.824-1.858-1.411-2.688.08 1.013.307 2.009.672 2.957zm-43.4-56.367c.375.963.848 1.886 1.41 2.754-.08-1.034-.307-2.052-.672-3.023-.322-.966-.798-1.874-1.41-2.687.08 1.012.306 2.008.671 2.956zm13.301 34.465c.335.96.81 1.866 1.411 2.687-.087-1.011-.313-2.006-.671-2.956-.35-.954-.824-1.858-1.411-2.687.08 1.012.306 2.008.671 2.956zM17.2 150.222c.322.966.798 1.874 1.41 2.688-.087-1.034-.313-2.05-.671-3.024-.373-.956-.87-1.86-1.478-2.687.11 1.036.359 2.053.739 3.023zm51.53-1.612c.972-.307 1.882-.785 2.687-1.411-1.011.087-2.006.314-2.956.672-.963.358-1.869.856-2.687 1.478 1.015-.103 2.011-.352 2.956-.74zm-48.507-26.538c-.13.307-.243.62-.336.94l.403-.133c.973-.308 1.883-.785 2.688-1.411-.938.097-1.862.3-2.755.604zm59.86-27.209l-1.41.873c.612-.023 1.22-.113 1.814-.268l-.403-.605zM40.445 148.61c.967-.322 1.874-.798 2.688-1.411-1.033.088-2.05.314-3.023.672-.95.388-1.852.884-2.688 1.478 1.036-.11 2.053-.36 3.023-.74zM8.465 163.793l-1.344.538c-.012.25-.057.5-.134.739l1.747-.538c.96-.334 1.866-.81 2.687-1.41-1.011.087-2.006.313-2.956.671zm45.685-52.537c.949-.362 1.85-.836 2.687-1.411-1.011.087-2.006.314-2.956.672-.972.307-1.882.785-2.687 1.41 1.011-.087 2.006-.313 2.956-.671z" transform="translate(10.75 74.574)"/>
                    <path fill="#263238" d="M70.744 122.408c-3.557.332-7.084.938-10.548 1.814l-5.106 1.545-2.553.807c-.895.282-1.819.462-2.754.537-.067 0-.067.134 0 .134h2.687l2.486-.47 5.24-1.478c3.494-.94 6.987-1.881 10.615-2.553.135-.067.068-.403-.067-.336zM79.612 125.499c-2.943-.336-5.906-.47-8.868-.403l-4.434.336-2.083.268c-.767.096-1.53.23-2.284.403-.134 0-.134.135 0 .135h4.367l4.434-.135 8.868-.268c.093 0 .168-.076.168-.168 0-.093-.075-.168-.168-.168z" transform="translate(10.75 74.574)"/>
                    <path fill="#F7A9A0" d="M39.168 78.94C25.866 93.184-3.829 144.31 6.382 154.12c10.212 9.809 74.44 10.01 85.86 10.01 5.241 0-5.441-34.263-11.017-34.935-5.576-.672-38.43-1.68-39.168-3.023-.74-1.344 3.695-14.042 7.592-35.07 4.165-22.574-4.636-18.408-10.481-12.16zM99.767 122.14c11.556-1.613 14.714-.202 23.783-6.786 5.913-4.233 11.153-2.284 7.794 4.501-5.51 11.153-19.954 16.326-25.53 16.662l-6.047-14.377z" transform="translate(10.75 74.574)"/>
                    <path fill="#F7A9A0" d="M69.065 133.292s12.966-7.189 25.126-10.145c8.398-2.015 28.016-5.24 45.08 14.109 5.375 6.046 5.644 14.646-2.62 9.54-6.382-3.964-9.809-7.995-14.108-9.204 0 0 2.351 12.227-2.217 16.325-3.99 3.592-8.234 6.893-12.698 9.876 0 0-.94-.94-2.016-2.217 0 0-4.635 3.427-13.37 2.553l-23.177-30.837z" transform="translate(10.75 74.574)"/>
                    <path fill="#F7A9A0" d="M102.522 122.475c4.031 2.083 12.429 6.652 18.005 12.832 5.576 6.181 16.326 21.634 11.287 26.135-3.762 3.359-8.13-1.948-8.13-1.948s2.89 6.987-1.141 9.27c-4.031 2.285-6.786-2.283-6.786-2.283s1.075 4.568-2.889 5.845c-3.964 1.276-6.046-8.197-12.227-10.75-1.344-.537 1.881-39.1 1.881-39.1z" transform="translate(10.75 74.574)"/>
                    <path fill="#263238" d="M112.062 140.75c3.426 2.552 9.742 10.48 11.488 18.61.068.2-.067.335-.134.2-3.01-6.7-6.846-12.997-11.421-18.743-.067-.068 0-.068.067-.068zM105.545 147.132c2.755 2.553 8.868 10.95 10.414 19.281 0 .202-.135.336-.202.135-2.666-6.826-6.116-13.319-10.279-19.349-.067-.067 0-.134.067-.067z" transform="translate(10.75 74.574)"/>
                    <path fill="#263238" d="M94.796 164.264c1.37-.02 2.737-.11 4.098-.27 1.36-.191 2.692-.552 3.964-1.074h.067c1.308 1.232 2.5 2.581 3.56 4.03.532.737 1.025 1.499 1.479 2.285.373.809.898 1.538 1.545 2.15.648.591 1.477.946 2.351 1.008.881.028 1.734-.313 2.352-.94.62-.625 1.042-1.42 1.21-2.285.202-.858.27-1.742.2-2.62v-.538l.337.47c.916 1.132 2.124 1.991 3.493 2.486.703.202 1.448.202 2.15 0 .693-.181 1.322-.554 1.814-1.075.94-1.074 1.075-2.62 1.008-4.098-.153-1.464-.468-2.906-.94-4.3l-.404-1.142.806.941c.898 1.198 2.106 2.127 3.494 2.687.658.276 1.371.39 2.083.336.72-.127 1.406-.401 2.015-.806.535-.48.95-1.078 1.21-1.747.199-.72.267-1.472.2-2.217-.046-1.5-.365-2.98-.94-4.367-1.063-2.843-2.461-5.55-4.165-8.062-1.656-2.555-3.473-5-5.442-7.323l-.605-.739.941.269c1.05.374 2.062.846 3.023 1.41l2.755 1.68c1.747 1.277 3.426 2.688 5.106 3.964 1.692 1.287 3.516 2.39 5.442 3.292.94.403 2.015.672 2.821.202.806-.47 1.075-1.545 1.008-2.553-.078-1.042-.328-2.063-.739-3.023-.423-.967-.94-1.89-1.545-2.755-1.222-1.749-2.618-3.37-4.166-4.837-1.532-1.5-3.147-2.913-4.837-4.233-1.656-1.347-3.433-2.539-5.307-3.56l-.336-.202.269-.269c1.97-1.847 3.626-4.003 4.904-6.382.65-1.176 1.018-2.487 1.075-3.83-.043-.658-.227-1.3-.538-1.88-.338-.534-.866-.918-1.478-1.076-1.301-.189-2.628.072-3.762.74-1.21.604-2.419 1.343-3.56 2.015-2.285 1.478-4.502 3.225-7.19 4.03-1.312.404-2.663.675-4.03.807l-4.098.538c-2.688.335-5.442.671-8.13 1.142-5.416.794-10.732 2.168-15.855 4.098 5.117-1.995 10.432-3.437 15.855-4.3 2.688-.47 5.375-.873 8.13-1.21l4.03-.604c1.362-.171 2.709-.44 4.032-.806 2.553-.806 4.77-2.486 7.054-3.964 1.147-.78 2.336-1.498 3.56-2.15 1.21-.537 2.62-1.075 4.099-.739.717.201 1.337.655 1.747 1.277.381.625.568 1.35.537 2.082.01 1.408-.337 2.794-1.008 4.031-1.328 2.443-3.028 4.664-5.039 6.584v-.403c1.873 1.085 3.67 2.297 5.375 3.628 1.728 1.3 3.367 2.713 4.905 4.233 1.588 1.491 3.029 3.134 4.3 4.904.615.893 1.155 1.837 1.612 2.822.394 1.04.665 2.122.806 3.225 0 .588-.068 1.174-.202 1.746-.219.581-.62 1.076-1.142 1.411-.529.302-1.143.42-1.747.336-.557-.075-1.101-.234-1.612-.47-2.01-.876-3.887-2.03-5.576-3.426-1.747-1.277-3.427-2.688-5.173-3.897-1.747-1.21-1.747-1.21-2.688-1.747-.894-.52-1.84-.948-2.821-1.276l.268-.538c1.97 2.368 3.788 4.86 5.442 7.458 1.727 2.557 3.147 5.308 4.233 8.196.518 1.45.835 2.965.94 4.501.026.798-.088 1.593-.336 2.352-.212.783-.686 1.47-1.343 1.948-.66.475-1.417.797-2.217.94-.8.059-1.601-.056-2.352-.335-1.448-.648-2.717-1.64-3.695-2.89l.403-.2c.487 1.435.803 2.923.94 4.433.023.764-.022 1.529-.133 2.285-.14.773-.488 1.493-1.008 2.082-1.125 1.124-2.766 1.56-4.3 1.142-1.476-.465-2.768-1.381-3.695-2.62l.336-.134c.067.923-.001 1.85-.202 2.754-.187.926-.656 1.771-1.343 2.419-.693.639-1.611.977-2.553.94-.94-.067-1.823-.473-2.486-1.142-.669-.634-1.215-1.385-1.613-2.217-.42-.79-.892-1.553-1.41-2.284-1.06-1.451-2.251-2.8-3.561-4.03h.067c-1.25.57-2.593.91-3.964 1.007-1.38.195-2.772.285-4.165.269z" transform="translate(10.75 74.574)"/>
                    <path fill="#FFC727" d="M18.341 103.866l27.68 9.943s6.516-19.483 6.987-31.845c.47-12.362-6.92-11.085-15.25-2.352-8.332 8.734-19.417 24.254-19.417 24.254z" transform="translate(10.75 74.574)"/>
                    <path fill="#FFF" d="M53.008 82.098c-.192.999-.508 1.97-.94 2.89-.408.946-.951 1.829-1.613 2.62.147-1.023.442-2.019.873-2.957.449-.92 1.013-1.777 1.68-2.553zm-30.434 23.313l.739.201c.408-.847.68-1.754.806-2.687-.653.734-1.176 1.575-1.545 2.486zm17.4-3.762c.376.963.849 1.886 1.411 2.754-.08-1.034-.307-2.052-.672-3.023-.322-.966-.798-1.874-1.41-2.687.08 1.012.306 2.008.671 2.956zm-8.263-13.84l-1.747.806-.47.605c.846-.153 1.677-.378 2.485-.672.967-.322 1.874-.798 2.688-1.411-1.013.08-2.009.307-2.956.672z" transform="translate(10.75 74.574)"/>
                    <path fill="#263238" d="M46.357 108.3c-4.166-1.747-15.654-6.316-23.515-8.264-.067 0-.134.202-.134.202 6.315 2.62 19.214 6.92 23.581 8.33.068.068.202-.201.068-.268z" transform="translate(10.75 74.574)"/>
                    <path fill="#263238" d="M51.731 97.82s-.067-.068-.067 0c0 .066-.94 1.947-1.344 2.888.47-2.15.874-4.3 1.277-6.517h-.134c-1.814 6.383-3.83 12.698-5.577 19.148-.721 0-1.44-.068-2.15-.202-.067 0-.134.202 0 .202l2.285.671c.134.068.403.068.47-.134 1.322-3.653 2.444-7.377 3.36-11.152l.805-1.747c.429-1.028.788-2.083 1.075-3.158z" transform="translate(10.75 74.574)"/>
                    <path fill="#F7A9A0" d="M53.276 73.902c.135 1.478 5.711 11.891 12.362 12.496 2.15.201 3.83-11.556 3.83-11.556l.268-.873 4.502-11.824-13.034-11.22-1.881-1.545-2.217 7.457-.202.605-.201.672c-.202.604-.403 1.276-.538 1.88l-.403 1.479-.403 1.478c-1.276 5.039-2.15 10.279-2.083 10.95z" transform="translate(10.75 74.574)"/>
                    <path fill="#263238" d="M57.106 56.837c1.473 7.296 6.096 13.568 12.63 17.132l4.502-11.824-13.034-11.22-1.881-1.545-2.217 7.457z" transform="translate(10.75 74.574)"/>
                    <path fill="#F7A9A0" d="M93.654 45.08C92.512 67.183 79.142 68.997 74.372 68.73c-4.77-.27-19.08-1.546-20.222-23.649-1.142-22.103 9.473-28.62 19.416-28.62s21.23 6.45 20.088 28.62z" transform="translate(10.75 74.574)"/>
                    <path fill="#263238" d="M90.698 41.05l-1.478-.404c-.53-.11-1.02-.365-1.411-.739-.183-.295-.156-.674.067-.94.537-.538 1.276-.47 2.015-.337.678.17 1.273.575 1.68 1.143.47.604-.201 1.41-.873 1.276zM76.59 40.109l1.477-.202c.553.02 1.097-.146 1.545-.47.189-.304.214-.682.068-1.008-.486-.504-1.203-.709-1.882-.538-.716.035-1.391.349-1.88.874-.224.246-.273.604-.124.901.149.297.464.473.795.443zM78.806 45.618l-.134.134c0 1.478-.269 3.225-1.68 3.628-.067 0-.067.134 0 .134 1.68-.201 2.016-2.486 1.814-3.896z" transform="translate(10.75 74.574)"/>
                    <path fill="#263238" d="M77.53 43.938c-2.419-.269-2.822 4.568-.605 4.837 2.217.269 2.62-4.568.605-4.837z" transform="translate(10.75 74.574)"/>
                    <path fill="#263238" d="M76.59 44.14c-.471.201-.941.671-1.412.671-.47 0-1.007-.537-1.343-1.075-.336-.537-.135 0-.135.068 0 .067.202 1.948 1.142 2.15.94.201 1.68-.538 1.949-1.479.268-.94-.067-.47-.202-.335zM87.07 46.02v.135c-.202 1.478-.135 3.225 1.142 3.897.067 0 .067.067 0 .067-1.545-.403-1.613-2.687-1.142-4.098z" transform="translate(10.75 74.574)"/>
                    <path fill="#263238" d="M88.548 44.61c2.418 0 2.15 4.904-.135 4.837-2.284-.067-1.88-4.904.135-4.837z" transform="translate(10.75 74.574)"/>
                    <path fill="#263238" d="M89.556 44.946c.335.268.739.806 1.142.873.403.067 1.007-.47 1.343-.94.336-.47.068 0 .068.067s-.404 1.88-1.277 2.015c-.873.135-1.41-.739-1.545-1.68-.135-.94.134-.402.269-.335zM77.664 57.173c.336.403.605.94 1.142 1.075.564.058 1.133.013 1.68-.134.067-.067.067 0 .067.067-.52.54-1.296.747-2.016.537-.615-.228-1.02-.82-1.007-1.478l.134-.067zM84.114 52.94s.134 2.285.067 3.36c0 .067-3.964.604-5.442-2.15-.067-.134.067-.202.202-.134 1.248 1.04 2.81 1.632 4.434 1.68.134-.27-.336-3.898-.135-3.898.813.143 1.604.391 2.352.74-.135-4.703-1.075-9.406-1.142-14.11 0-.2.268-.2.268-.066 1.344 4.837 1.613 10.279 1.881 15.183.068.605-2.082-.336-2.485-.604z" transform="translate(10.75 74.574)"/>
                    <path fill="#263238" d="M54.351 44.61c3.105-.66 5.632-2.907 6.652-5.912 18.945-.47 25.26-12.228 25.26-12.228 3.628 9.876 6.853 11.623 7.39 13.101 0 0 1.613-8.6-1.276-15.183-3.26-7.522-11.175-11.907-19.281-10.683-5.845.74-10.75 5.778-10.75 5.778s-6.248.672-8.8 5.778c-4.368 8.465.805 19.349.805 19.349z" transform="translate(10.75 74.574)"/>
                    <path fill="#263238" d="M86.532 25.731c-.673 2.46-1.97 4.704-3.762 6.517-1.795 1.876-3.94 3.383-6.315 4.434l-1.747.672-1.881.47c-1.234.327-2.492.552-3.762.672-1.277.134-2.553.067-3.83.134l-3.762-.335h3.762c1.26-.043 2.516-.155 3.762-.336 2.47-.34 4.886-.995 7.189-1.949 2.286-.99 4.379-2.378 6.18-4.098 1.813-1.74 3.233-3.848 4.166-6.18z" transform="translate(10.75 74.574)"/>
                    <path fill="#455A64" d="M73.835 52.873c-3.407-.805-5.708-3.988-5.405-7.476.304-3.487 3.12-6.225 6.614-6.43 1.871-.073 3.695.601 5.068 1.874 1.374 1.273 2.185 3.04 2.255 4.91.113 3.872-2.915 7.11-6.786 7.257-.585.056-1.176.01-1.746-.135zm2.754-12.832c-.484-.11-.981-.156-1.478-.134-3.23.1-5.825 2.698-5.921 5.928-.097 3.231 2.338 5.979 5.557 6.271 3.22.293 6.11-1.97 6.597-5.166.488-3.195-1.595-6.217-4.755-6.899zM89.959 54.284c-2.62-.537-4.434-3.762-4.099-7.39.11-1.76.795-3.436 1.949-4.77.922-1.2 2.386-1.857 3.896-1.747 1.504.195 2.826 1.093 3.561 2.419.85 1.534 1.202 3.295 1.008 5.039-.336 3.896-3.023 6.785-5.845 6.516l-.47-.067zm2.015-12.966h-.336c-1.219-.07-2.396.456-3.157 1.41-.988 1.202-1.575 2.682-1.68 4.233-.336 3.36 1.344 6.248 3.695 6.45 2.352.201 4.501-2.284 4.837-5.644.176-1.554-.13-3.125-.873-4.5-.557-.938-1.443-1.633-2.486-1.95z" transform="translate(10.75 74.574)"/>
                    <path fill="#455A64" d="M82.031 46.491l-.537-.74c1.142-.805 3.762-1.746 5.307.202l-.806.605c-1.344-1.814-3.83-.134-3.964-.067zM50.656 45.416l-.806-.537c.269-.336 2.419-3.628 4.501-3.763 2.083-.134 14.445 2.217 14.982 2.352l-.201.94c-3.56-.739-13.168-2.418-14.713-2.351-1.546.067-3.158 2.418-3.763 3.359z" transform="translate(10.75 74.574)"/>
                    <path fill="#F7A9A0" d="M57.71 45.282s-3.829-7.525-7.188-6.248c-3.36 1.276-1.142 11.757 2.351 13.57.856.56 1.904.74 2.897.498.993-.242 1.841-.884 2.344-1.774l-.403-6.046z" transform="translate(10.75 74.574)"/>
                    <path fill="#263238" d="M51.261 42.057c-.067-.067-.067.067-.067.067 2.418 1.41 3.426 3.964 4.03 6.517-.604-1.008-1.544-1.68-2.955-.94-.067 0 0 .134.067.134.949-.171 1.9.29 2.351 1.142.41.694.727 1.44.94 2.217.068.201.538.134.471-.135.538-3.292-1.41-8.196-4.837-9.002z" transform="translate(10.75 74.574)"/>
                </g>
                <g fill="#263238">
                    <path d="M13.168 21.364c-2.15-.201-4.3-.604-6.45-1.007-2.16-.426-4.292-.987-6.382-1.68 2.217.202 4.367.605 6.517 1.008 2.138.425 4.248.986 6.315 1.68zM31.912 15.587c-.247-2.568-.36-5.147-.336-7.727-.02-2.579.092-5.158.336-7.726.269 2.62.269 5.173.336 7.726s-.067 5.174-.336 7.727zM25.328 15.72c-1.478-1.947-2.822-4.03-4.098-6.046-1.277-2.015-2.419-4.232-3.494-6.45 2.939 3.904 5.482 8.09 7.592 12.497zM1.814 3.829L6.181 7.39 10.413 11.085 14.579 14.915 16.594 16.863 18.543 18.811 16.393 17.065 14.176 15.251 9.943 11.556 5.778 7.793zM44.072 20.155c2.083-.672 4.233-1.21 6.383-1.68 2.128-.444 4.282-.759 6.45-.94-2.07.67-4.179 1.21-6.316 1.612-2.149.472-4.325.809-6.517 1.008zM54.419 2.486c-1.277 1.41-2.688 2.687-4.031 3.964l-4.166 3.83c-1.343 1.208-2.754 2.485-4.232 3.694l-2.15 1.814-2.217 1.747 2.015-2.016 2.016-1.948 4.165-3.83 4.233-3.694 4.367-3.561z" transform="translate(143.773 221.034)"/>
                </g>
                <g>
                    <path fill="#263238" d="M61.742 110.248L63.69 109.979 60.599 35.406 38.429 4.165 36.749 5.509 58.786 36.615z" transform="translate(197.52 125.633)"/>
                    <path fill="#FFC727" d="M62.413 36.01c0 1.522-1.233 2.755-2.754 2.755s-2.755-1.233-2.755-2.755c0-1.52 1.234-2.754 2.755-2.754.736-.019 1.448.265 1.968.786.52.52.805 1.232.786 1.968zM40.512 5.106c0 1.484-1.204 2.687-2.688 2.687-1.484 0-2.687-1.203-2.687-2.687 0-1.484 1.203-2.687 2.687-2.687 1.484 0 2.688 1.203 2.688 2.687z" transform="translate(197.52 125.633)"/>
                    <path fill="#FFC727" d="M19.416 6.181L29.829 22.103 36.749 15.855 40.982 12.026 33.121 0.067 27.948 2.351z" transform="translate(197.52 125.633)"/>
                    <path fill="#000" d="M19.416 6.181L29.829 22.103 36.749 15.855 27.948 2.351z" opacity=".1" transform="translate(197.52 125.633)"/>
                    <path fill="#FFC727" d="M.067 10.346L18.341 38.16 35.742 21.767 22.103.941zM45.282 116.765L78.134 116.765 76.119 106.419 47.297 106.419z" transform="translate(197.52 125.633)"/>
                </g>
                <g>
                    <path fill="#FFF" d="M44.879 23.917c-.542 5.363-3.202 10.288-7.39 13.68-4.188 3.394-9.557 4.975-14.915 4.393-4.343-.43-8.426-2.27-11.623-5.24L.739 38.226l5.106-8.733c-1.282-3.1-1.767-6.473-1.41-9.81C4.852 12.189 9.363 5.53 16.17 2.364 22.98-.804 30.977.033 36.981 4.541c6.005 4.508 9.04 11.955 7.898 19.376z" transform="translate(90.698 42.997)"/>
                    <path fill="#263238" d="M44.879 23.917c-.37 3.745-1.79 7.308-4.099 10.28-.568.746-1.173 1.464-1.814 2.15-.685.64-1.403 1.245-2.15 1.813-3.016 2.308-6.629 3.706-10.413 4.031-.938.09-1.88.112-2.822.067-.947-.045-1.89-.158-2.821-.336-3.733-.697-7.199-2.418-10.01-4.971l.2.134L.807 38.63H.067l.336-.604 5.106-8.801v.336C3.123 23.64 3.594 16.95 6.786 11.42c3.15-5.513 8.687-9.247 14.98-10.103C28.057.463 34.39 2.583 38.898 7.054c4.49 4.397 6.696 10.62 5.98 16.863zm0 0c.628-6.218-1.624-12.381-6.114-16.728-2.263-2.084-4.942-3.664-7.86-4.636-5.92-1.82-12.344-.856-17.468 2.62-2.488 1.758-4.572 4.025-6.114 6.651-1.474 2.644-2.345 5.58-2.553 8.6-.212 3.025.27 6.058 1.41 8.868v.336l-5.105 8.8-.403-.537 10.212-1.41h.268c2.707 2.565 6.084 4.312 9.742 5.038l2.755.336h2.754c1.858-.17 3.687-.576 5.442-1.209 1.742-.657 3.39-1.538 4.904-2.62.747-.568 1.465-1.174 2.15-1.814.64-.663 1.246-1.358 1.814-2.083 2.314-2.948 3.757-6.486 4.166-10.212z" transform="translate(90.698 42.997)"/>
                    <path fill="#263238" d="M36.01 22.372c.162.973-.267 1.95-1.093 2.489-.826.539-1.892.539-2.718 0-.826-.54-1.255-1.516-1.093-2.489.2-1.2 1.236-2.078 2.452-2.078s2.253.879 2.452 2.078zM27.21 22.372c.027 1.011-.561 1.938-1.488 2.344-.926.406-2.006.21-2.731-.495-.725-.705-.95-1.78-.57-2.717s1.291-1.55 2.303-1.55c1.347-.001 2.449 1.072 2.485 2.418zM18.341 22.372c.027 1.017-.568 1.948-1.503 2.35-.935.402-2.02.194-2.74-.526-.719-.72-.927-1.805-.525-2.74.401-.934 1.332-1.53 2.35-1.503 1.335 0 2.418 1.083 2.418 2.42z" transform="translate(90.698 42.997)"/>
                    <path fill="#455A64" d="M24.32 51.261H79.075V81.473H24.32zM68.527 81.494L79.142 81.494 79.142 89.085z" transform="translate(90.698 42.997)"/>
                    <path fill="#FFF" d="M30.972 56.837H55.83V57.837H30.972zM30.972 60.532H72.693V61.532H30.972zM30.972 64.16H72.693V65.16H30.972zM30.972 67.855H64.69800000000001V68.855H30.972zM30.972 71.55H72.693V72.55H30.972zM30.972 75.245H46.29V76.245H30.972z" transform="translate(90.698 42.997)"/>
                    <path fill="#FFC727" d="M42.997 92.444H97.416V114.856H42.997zM97.416 122.072L97.416 114.884 86.532 114.884z" transform="translate(90.698 42.997)"/>
                    <path fill="#FFF" d="M49.649 98.021H90.9V99.021H49.649zM49.649 101.716H73.163V102.716H49.649zM49.649 105.411H81.494V106.411H49.649zM49.649 109.039H60.734V110.039H49.649z" transform="translate(90.698 42.997)"/>
                </g>
                <g transform="translate(89.354 167.959)">
                    <path fill="#EBEBEB" d="M54.351 76.992H59.793V80.559H54.351zM61.406 76.724H66.848V80.291H61.406zM68.46 76.522H73.90199999999999V80.089H68.46zM75.581 76.253H81.023V79.82H75.581zM82.636 76.052H88.078V79.619H82.636zM89.757 75.783H95.19900000000001V79.35H89.757zM96.811 75.581H102.25300000000001V79.148H96.811zM103.933 75.313H109.375V78.88H103.933zM110.987 75.111H116.429V78.678H110.987z"/>
                    <path fill="#DBDBDB" d="M117.773 82.568L53.008 82.568 53.008 78.269 117.773 76.455z"/>
                    <path fill="#EBEBEB" d="M166.145 67.587L75.85 67.587 90.16 0.336 180.455 0.336z"/>
                    <path fill="#DBDBDB" d="M169.437 67.587L79.142 67.587 93.519 0.336 183.814 0.336z"/>
                    <ellipse cx="133.656" cy="30.264" fill="#FFF" rx="6.047" ry="5.173" transform="rotate(-42.7 133.656 30.264)"/>
                    <path fill="#EBEBEB" d="M143.907 85.121L99.499 85.121 99.499 81.695 143.907 80.217z"/>
                    <path fill="#EBEBEB" d="M156 85.121L132.15 85.121 117.773 47.432 141.623 47.432z"/>
                    <path fill="#A6A6A6" d="M159.897 85.121L136.114 85.121 121.736 47.432 145.587 47.432z"/>
                    <path fill="#DBDBDB" d="M47.028 86.062H1.276c-3.896 0 1.747-11.152 15.99-15.452 14.243-4.3 34.264 11.22 29.762 15.452z"/>
                    <path fill="#263238" d="M29.09 86.062c.032-1.276.235-2.541.605-3.762.405-1.21.922-2.38 1.545-3.494.673-1.087 1.487-2.08 2.419-2.956.964-.834 2.052-1.514 3.225-2.015-.47.403-1.008.671-1.478 1.142l-.74.604-.604.672c-.869.856-1.615 1.829-2.217 2.89-.657 1.034-1.198 2.138-1.612 3.291-.482 1.175-.864 2.389-1.143 3.628z"/>
                    <path fill="#263238" d="M34.532 75.447c1.36.439 2.685.977 3.964 1.612 1.269.612 2.483 1.33 3.628 2.15 1.199.841 2.283 1.835 3.225 2.956.48.536.866 1.15 1.142 1.814.35.639.535 1.355.537 2.083-.126-.7-.4-1.364-.806-1.948-.35-.594-.779-1.136-1.276-1.613-.958-1.001-2.016-1.902-3.158-2.687-1.146-.824-2.334-1.586-3.56-2.284l-1.815-1.075-1.88-1.008z"/>
                </g>
                <g>
                    <path fill="#DBDBDB" d="M29.292 54.822s16.326-7.525 16.326-17.602c0-10.078-21.163-16.595-21.163-24.455 0-7.86 9.204-12.496 9.204-12.496S19.08 5.24 19.08 15.183c0 9.944 13.974 16.73 15.318 23.112 1.814 8.8-5.106 16.527-5.106 16.527z" opacity=".6" transform="translate(22.17 176.693)"/>
                    <path fill="#DBDBDB" d="M30.098 54.822s-16.325-5.912-16.325-13.84 21.162-13.034 21.162-19.215c0-6.18-9.204-9.876-9.204-9.876s14.58 3.964 14.58 11.758c0 7.793-16.058 13.235-17.2 19.617-1.142 6.383 6.987 11.556 6.987 11.556z" opacity=".6" transform="translate(22.17 176.693)"/>
                    <path fill="#455A64" d="M21.7 80.217H37.219V82.642H21.7z" transform="translate(22.17 176.693)"/>
                    <path fill="#263238" d="M21.7 80.217H37.219V81.816H21.7z" transform="translate(22.17 176.693)"/>
                    <path fill="#455A64" d="M3.225 73.7c1.975 2.827 5.4 4.265 8.8 3.695.538-.072 1.06-.231 1.546-.47.79-.273 1.537-.657 2.217-1.142l-2.015-2.889-1.143.672c-3.695 1.68-6.046-1.277-6.516-1.948-2.083-2.957-2.89-9.81-.74-12.43.202-.2.807-.537 3.293 0l1.612.404 1.41.336v-1.814l.135-1.747-.739-.202c-1.15-.312-2.316-.559-3.493-.739-1.881-.134-3.83.068-4.972 1.546C-.806 61.204.605 69.938 3.225 73.7z" transform="translate(22.17 176.693)"/>
                    <path fill="#263238" d="M13.773 72.894l-1.143.672.941 3.36c.79-.274 1.537-.658 2.217-1.143l-2.015-2.889zM7.659 55.426l1.008 3.763 1.612.403 1.41.336v-1.814l.135-1.747-.739-.202c-1.127-.31-2.271-.556-3.426-.739z" transform="translate(22.17 176.693)"/>
                    <path fill="#455A64" d="M50.119 50.858s-1.881 15.855-5.106 22.506c-3.225 6.652-7.659 7.39-10.48 7.39H24.387c-2.822 0-7.256-.738-10.481-7.39-3.225-6.65-5.106-22.506-5.106-22.506h41.318z" transform="translate(22.17 176.693)"/>
                    <path fill="#37474F" d="M15.52 55.426c0 1.002-.813 1.814-1.815 1.814-1.001 0-1.814-.812-1.814-1.814 0-1.001.813-1.814 1.814-1.814 1.002 0 1.814.813 1.814 1.814zm14.377-2.217c-1.002 0-1.814.812-1.814 1.814s.812 1.814 1.814 1.814c1.001 0 1.814-.812 1.814-1.814s-.813-1.814-1.814-1.814zm0 23.044c-1.002 0-1.814.812-1.814 1.814s.812 1.814 1.814 1.814c1.001 0 1.814-.812 1.814-1.814s-.813-1.814-1.814-1.814zM43.199 65.84c-1.002 0-1.814.812-1.814 1.814s.812 1.814 1.814 1.814 1.814-.812 1.814-1.814-.812-1.814-1.814-1.814zm-20.357 5.442c-1.001 0-1.814.812-1.814 1.814 0 1.001.813 1.814 1.814 1.814 1.002 0 1.814-.813 1.814-1.814 0-1.002-.812-1.814-1.814-1.814zm21.5-18.073c-1.003 0-1.815.812-1.815 1.814s.812 1.814 1.814 1.814 1.814-.812 1.814-1.814-.812-1.814-1.814-1.814zM29.694 65.571c-1.002 0-1.814.812-1.814 1.814s.812 1.814 1.814 1.814 1.814-.812 1.814-1.814-.812-1.814-1.814-1.814zm-13.907.269c-1.002 0-1.814.812-1.814 1.814s.812 1.814 1.814 1.814 1.814-.812 1.814-1.814-.812-1.814-1.814-1.814zm21.432-6.181c-1.013.036-1.815.868-1.814 1.881 0 1.002.812 1.814 1.814 1.814 1.001 0 1.814-.812 1.814-1.814 0-1.013-.802-1.845-1.814-1.881zm-.47 11.891c-1.014 0-1.846.802-1.882 1.814.035 1.025.857 1.847 1.881 1.881 1.013-.036 1.815-.867 1.814-1.88 0-.482-.19-.943-.531-1.283-.34-.34-.802-.532-1.283-.532zM21.968 59.66c-1.024.035-1.846.857-1.881 1.881.036 1.013.868 1.815 1.881 1.814 1.002 0 1.814-.812 1.814-1.814 0-1.013-.801-1.845-1.814-1.881z" transform="translate(22.17 176.693)"/>
                </g>
            </g>
        </g>
    </g>
</svg>
