<svg xmlns="http://www.w3.org/2000/svg" xmlns:xlink="http://www.w3.org/1999/xlink" width="111" height="111" viewBox="0 0 111 111">
    <defs>
        <path id="sjwiywo4xa" d="M0 0.03L23.578 0.03 23.578 17.72 0 17.72z"/>
    </defs>
    <g fill="none" fill-rule="evenodd">
        <g>
            <g>
                <g>
                    <path fill="#FFF" d="M11 11.497L22.24 109 110 98.228 98.792 1z" transform="translate(-245 -785) translate(0 774) translate(245 12)"/>
                    <path fill="#D0F1FF" d="M11 11.718L11.032 12 98 1.283 97.968 1zM99 4.282L12.032 15 12 14.717 98.968 4zM99 8.282L12.032 19 12 18.718 98.968 8zM99 13.283L12.032 24 12 23.718 98.968 13zM99 17.282L12.032 28 12 27.718 98.968 17zM100 20.282L13.032 31 13 30.718 99.968 20zM102 24.282L15.032 35 15 34.718 101.968 24zM102 29.283L15.032 40 15 39.718 101.968 29zM102 32.282L15.032 43 15 42.717 101.968 32zM102 36.283L15.032 47 15 46.718 101.968 36zM103 41.282L16.032 52 16 51.717 102.968 41zM103 44.282L16.032 55 16 54.717 102.968 44zM105 48.283L18.032 59 18 58.718 104.968 48zM105 53.283L18.032 64 18 63.718 104.968 53zM105 56.282L18.032 67 18 66.717 104.968 56zM106 61.282L19.032 72 19 71.718 105.968 61zM106 65.283L19.032 76 19 75.718 105.968 65zM106 68.282L19.032 79 19 78.717 105.968 68zM106 72.282L19.032 83 19 82.718 105.968 72zM107 77.283L20.032 88 20 87.718 106.968 77zM107 80.282L20.032 91 20 90.717 106.968 80zM109 85.282L22.032 96 22 95.718 108.968 85zM109 89.283L22.032 100 22 99.718 108.968 89zM109 92.282L22.032 103 22 102.718 108.968 92zM23 108.718L23.032 109 110 98.282 109.968 98z" transform="translate(-245 -785) translate(0 774) translate(245 12)"/>
                    <g>
                        <path stroke="#D0F1FF" stroke-width=".8" d="M10.88 10.86L22.125 108.707 109.925 97.896 98.712 0.327z" transform="translate(-245 -785) translate(0 774) translate(245 12)"/>
                        <path fill="#EAF9FF" d="M84.403 104.366c.03 2.217-11.98 4.19-26.827 4.404-14.846.215-26.907-1.408-26.937-3.626-.031-2.217 11.98-4.189 26.826-4.404 14.847-.215 26.907 1.408 26.938 3.626" transform="translate(-245 -785) translate(0 774) translate(245 12)"/>
                        <path stroke="#000" stroke-width=".8" d="M70.556 75.387s-.85 7.796-.423 10.096c.426 2.3 2.203 13.576 2.203 13.576s-6.768-2.132-9.61-.784c0 0-2.285-7.27-2.698-10.032l-5.852 12.385s-2.918-4.493-7.592-5.04l9.03-21.734 14.942 1.533z" transform="translate(-245 -785) translate(0 774) translate(245 12)"/>
                        <path fill="#3E2C52" d="M70.556 75.387s-.85 7.796-.423 10.096c.426 2.3 2.203 13.576 2.203 13.576s-6.768-2.132-9.61-.784c0 0-2.285-7.27-2.698-10.032l-5.852 12.385s-2.918-4.493-7.592-5.04l9.03-21.734 14.942 1.533z" transform="translate(-245 -785) translate(0 774) translate(245 12)"/>
                        <path fill="#FFBA00" d="M36.99 30.796l16.353 50.388s8.775 3.217 14.271-4.704L51.883 24.51s-3.138.118-3.586 2.662c0 0-3.947-1.558-5.87 2.189 0 0-3.526-1.9-5.437 1.434" transform="translate(-245 -785) translate(0 774) translate(245 12)"/>
                        <path fill="#FFD367" d="M64.645 79.575L48.298 27.173s-3.948-1.558-5.871 2.19L58.449 81.8c1.913-.128 4.124-.7 6.196-2.225" transform="translate(-245 -785) translate(0 774) translate(245 12)"/>
                        <path fill="#FFBA00" d="M56.102 38.448l-.344 1.567s6.216 20-4.111 26.328c0 0 7.503 1.748 10.976 6.75 1.705 2.454 2.408 4.505 2.683 5.96.807-.69 1.587-1.533 2.308-2.573L56.102 38.448z" transform="translate(-245 -785) translate(0 774) translate(245 12)"/>
                        <path fill="#FDC6A2" d="M51.503 38.797s-.197 2.079.063 4.535.28 3.994.09 6.533c-.19 2.54 2.484 5.423 6.782 6.052 4.299.63 9.02-.745 11.849-3.016 2.828-2.27 2.96-3.579 2.96-3.579s2.49.425 2.579-4.035c.088-4.46-4.333-3.089-4.202.907 0 0-.183-2.38-1.174-3.29-.991-.907-3.652-2.868-4.29-5.473 0 0-5.04.228-7.788-2.577 0 0 .406 2.146-1.85 2.256-2.257.11-1.536-2.207-1.536-2.207s-2.905 2.194-3.483 3.894" transform="translate(-245 -785) translate(0 774) translate(245 12)"/>
                        <path fill="#462B19" d="M51.503 38.797c.578-1.7 3.483-3.895 3.483-3.895s-.72 2.318 1.535 2.208c2.257-.11 1.85-2.256 1.85-2.256 2.749 2.805 7.788 2.577 7.788 2.577.639 2.605 3.3 4.566 4.29 5.474.992.908 1.175 3.289 1.175 3.289-.13-3.996 4.29-5.367 4.202-.907-.013.627-.073 1.153-.167 1.601 0 0 1.358-2.54 1.297-6.922-.06-4.381-1.292-6.593-1.292-6.593s1.026-1.706.338-2.542c-.69-.835-2.242 1.186-2.242 1.186s-3.382-5.102-10.842-5.763c-7.46-.66-12.95 4.954-14.194 7.586-1.242 2.632.565 2.682.565 2.682s-.435 3.707 2.145 3.812c.012-.935.069-1.537.069-1.537" transform="translate(-245 -785) translate(0 774) translate(245 12)"/>
                        <path fill="#000" d="M55.397 45.563c.015 1.094-.57 1.988-1.308 2-.738.01-1.348-.868-1.363-1.96-.015-1.094.57-1.989 1.308-1.999.737-.011 1.348.867 1.363 1.96M62.73 45.457c.015 1.093-.57 1.988-1.308 2-.737.01-1.348-.868-1.363-1.961-.015-1.093.57-1.988 1.308-1.998.737-.011 1.348.867 1.363 1.96" transform="translate(-245 -785) translate(0 774) translate(245 12)"/>
                        <path fill="#F5AE89" d="M67.104 48.615c.013.885-.947 1.617-2.142 1.634-1.196.018-2.175-.686-2.187-1.571-.012-.885.947-1.617 2.142-1.634 1.196-.017 2.175.686 2.187 1.571M53.928 49.168c-.012-.877-.973-1.575-2.154-1.57-.015.692-.055 1.424-.118 2.268-.023.307-.002.62.057.934l.072.002c1.196-.018 2.155-.75 2.143-1.634" transform="translate(-245 -785) translate(0 774) translate(245 12)"/>
                        <path fill="#462B19" d="M52.932 40.122s-.634.393-.871.916c-.238.522.203 1.13.539.895.335-.235.631-.605 1.119-.708.488-.103.8-.665.342-1.12-.458-.454-1.129.017-1.129.017" transform="translate(-245 -785) translate(0 774) translate(245 12)"/>
                        <path fill="#E9A981" d="M55.759 55.156c.8.35 1.694.617 2.68.761 4.298.63 9.02-.745 11.848-3.016 2.828-2.27 2.96-3.579 2.96-3.579l-.911-.605s-4.638 7.802-16.577 6.44" transform="translate(-245 -785) translate(0 774) translate(245 12)"/>
                        <path fill="#462B19" d="M62.15 39.988s.644.375.896.89c.252.516-.172 1.137-.514.911-.342-.225-.648-.586-1.139-.675-.49-.089-.817-.641-.372-1.11.445-.467 1.128-.016 1.128-.016" transform="translate(-245 -785) translate(0 774) translate(245 12)"/>
                        <path fill="#CD454F" d="M54.652 48.796l5.452-.08s.042 3.064-2.333 3.213c-2.712.171-3.132-2.045-3.12-3.133" transform="translate(-245 -785) translate(0 774) translate(245 12)"/>
                        <path fill="#FE8487" d="M57.548 50.088c-.557.449-.62 1.272-.592 1.811.247.035.515.05.815.03 1.38-.086 1.941-1.155 2.172-2.037-.63-.328-1.735-.336-2.395.196" transform="translate(-245 -785) translate(0 774) translate(245 12)"/>
                        <path fill="#A7DFFA" d="M65.998 53.537s-3.007 1.375-5.578 3.257c-.257.189-.533.382-.82.576.153 1.287.666 3.793 2.377 5.827.94-.424 1.382-.626 1.382-.626l3.905 12.863s2.395.427 3.292-.047c0 0 1.152-6.475 1.231-12.991.079-6.517-.085-11.195-5.789-8.859" transform="translate(-245 -785) translate(0 774) translate(245 12)"/>
                        <path fill="#87C0EC" d="M63.359 62.571L65.905 61.558 64.142 65.15z" transform="translate(-245 -785) translate(0 774) translate(245 12)"/>
                        <path fill="#FDC6A2" d="M42.33 54.782s-1.197 3.175.305 5.69c1.502 2.516 5.725.38 5.982-.086.257-.465-.212-1.535-1.26-1.173 0 0 1.758-.602 1.295-1.557-.462-.954-2.297-.274-2.297-.274s1.83-1.064 1.215-1.94c-.614-.874-2.822.003-2.822.003s.876-1.973.08-2.423c-.797-.45-2.189.57-2.498 1.76M42.427 29.362c1.923-3.747 5.87-2.189 5.87-2.189.447-2.544 3.586-2.662 3.586-2.662s-5.985-5.504-10.088-4.233c-4.102 1.27-4.805 10.518-4.805 10.518 1.91-3.334 5.437-1.434 5.437-1.434" transform="translate(-245 -785) translate(0 774) translate(245 12)"/>
                        <path fill="#000" d="M46.622 20.983c-1.606-.735-3.34-1.166-4.827-.705-1.579.488-2.653 2.16-3.378 4.03l8.205-3.325z" transform="translate(-245 -785) translate(0 774) translate(245 12)"/>
                        <path fill="#D7D7D7" d="M67.614 76.48c-5.496 7.921-14.271 4.704-14.271 4.704s-.7.862-.404 1.896c.297 1.033 2.68 1.979 7.802.925 5.122-1.055 8.071-4.095 8.505-5.37.434-1.275-.361-2.622-1.632-2.155" transform="translate(-245 -785) translate(0 774) translate(245 12)"/>
                        <path fill="silver" d="M69.18 78.79c-.599 1.35-3.509 4.2-8.438 5.215-3.586.738-5.825.495-6.95-.071-.168.349-.33.889-.158 1.487.296 1.034 2.68 1.98 7.802.925 5.122-1.054 8.07-4.095 8.505-5.37.322-.948-.035-1.934-.761-2.186" transform="translate(-245 -785) translate(0 774) translate(245 12)"/>
                        <path fill="#FE8487" d="M71.562 86.846c-.263-.93-1.309-3.91-1.843-5.418-.852 1.434-3.691 3.973-8.283 4.918-3.349.69-5.52.522-6.71.035l-.007.002s1.504 5.529 3.278 7.29c1.774 1.762 10.253-1.416 11.986-2.652 1.732-1.236 1.935-2.911 1.579-4.175" transform="translate(-245 -785) translate(0 774) translate(245 12)"/>
                        <path fill="#A4323D" d="M46.584 95.588s-3.53.474-5.433 1.654c-1.903 1.181-1.893 4.64-1.28 5.323.61.684 4.005 1.288 8.675 1.566 4.67.278 4.88.045 5.274-.576.392-.62.356-2.927.356-2.927s-2.918-4.493-7.592-5.04M72.336 99.059s-6.768-2.132-9.61-.784l-.01-.035c-1.138.4-2.627 1.022-3.597 1.798-1.752 1.402-1.34 4.836-.654 5.44.686.605 4.128.794 8.797.506 4.669-.289 4.85-.546 5.168-1.21.319-.664-.094-5.715-.094-5.715" transform="translate(-245 -785) translate(0 774) translate(245 12)"/>
                        <path fill="#E8EEF5" d="M45.065 102.72c-.078-.19.243-4.193-.938-5.252-.51-.457-1.15-.704-1.714-.838-.457.178-.891.382-1.262.612-1.903 1.18-1.893 4.64-1.281 5.324.611.682 4.006 1.287 8.676 1.565 4.67.279 4.88.045 5.273-.576.061-.096.11-.236.153-.399-3.472.412-8.83-.248-8.907-.435M64.665 105.09s-.095-4.15-2.614-5.19c-.726-.3-1.408-.433-2.014-.473-.333.19-.646.394-.918.611-1.752 1.403-1.34 4.836-.654 5.44.686.605 4.128.794 8.797.506 4.669-.289 4.85-.546 5.168-1.21.046-.094.076-.278.094-.52-3.453.783-7.859.835-7.859.835M46.793 97.44c.835 1.544 1.039 1.973 1.601 1.821.562-.152.292-1.371.088-1.838 0 0 .629.617 1.148 1.388.518.77 1.302.298 1.121-.507-.115-.515-.617-1.226-1.216-1.804-.88-.445-1.868-.786-2.951-.913 0 0-.698.095-1.64.302.616.247 1.395.71 1.85 1.55M62.727 98.275l-.011-.035c-.246.086-.509.185-.778.291 1.228.012 2.776.233 3.668 1.148 1.641 1.683 2.643.677 2.37-.034 0 0 1.29.76.856-.654-.114-.372-.399-.673-.754-.916-1.923-.304-4.05-.417-5.351.2" transform="translate(-245 -785) translate(0 774) translate(245 12)"/>
                        <path fill="#25AFE8" d="M41.338 18.57c-.027 0-.054-.002-.082-.005-.38-.04-.657-.386-.618-.774.003-.03.079-.766.44-1.87.12-.37.514-.57.875-.447.364.124.56.525.439.896-.308.94-.375 1.56-.375 1.565-.038.36-.333.63-.68.634M54.496 6.455c-.32.005-.61-.218-.685-.549-.086-.38.147-.76.52-.849 1.188-.28 2.362-.456 3.488-.524.37-.025.71.274.733.664.023.39-.27.726-.651.749-1.05.063-2.146.228-3.259.49-.049.012-.098.018-.146.019m10.08.474c-.082.001-.164-.012-.245-.043-1.036-.382-2.1-.654-3.166-.81-.379-.055-.642-.413-.588-.8.054-.387.406-.655.784-.6 1.159.168 2.317.464 3.44.879.36.133.547.539.417.907-.101.285-.362.463-.642.467M48.167 8.988c-.239.003-.473-.12-.604-.344-.198-.335-.091-.77.236-.971.974-.598 2.042-1.126 3.176-1.572.36-.14.759.043.896.407.137.365-.041.774-.398.915-1.06.416-2.055.908-2.96 1.463-.108.067-.228.1-.346.102m22.312 1.38c-.152.002-.306-.047-.436-.15-.914-.728-1.836-1.368-2.74-1.904-.332-.196-.445-.63-.253-.968.192-.337.616-.453.948-.257.959.568 1.934 1.245 2.898 2.013.301.24.355.685.12.993-.134.176-.335.27-.537.272m-27.24 3.363c-.134.002-.27-.036-.39-.117-.32-.215-.408-.654-.198-.98.647-1.003 1.423-1.94 2.307-2.783.28-.267.718-.252.98.034.26.286.246.734-.034 1-.804.768-1.509 1.618-2.096 2.527-.13.204-.347.316-.569.319m32.192 1.423c-.192.003-.384-.075-.523-.232-.79-.892-1.579-1.72-2.341-2.464-.277-.27-.288-.719-.023-1.001.264-.284.702-.294.98-.024.786.768 1.598 1.622 2.41 2.538.258.29.236.737-.047 1-.13.12-.293.18-.456.183m4.328 5.39c-.213.004-.424-.093-.562-.279-.317-.424-.638-.851-.964-1.279-.378-.496-.753-.977-1.127-1.446-.242-.303-.197-.749.099-.995.297-.248.733-.203.975.1.38.477.763.967 1.147 1.471.328.432.653.863.973 1.293.232.31.172.754-.132.991-.122.095-.266.143-.41.145m4.053 5.612c-.218.003-.434-.099-.571-.292-.654-.922-1.322-1.862-2.007-2.815-.227-.315-.16-.758.148-.99.308-.232.742-.163.968.151.688.956 1.357 1.898 2.013 2.823.225.316.156.759-.154.988-.12.09-.259.133-.397.135m4.067 5.6c-.21.004-.419-.09-.557-.272-.626-.822-1.282-1.712-2.067-2.798-.227-.315-.161-.758.147-.99.308-.233.742-.165.97.15.776 1.077 1.426 1.957 2.044 2.769.235.309.18.753-.122.993-.123.099-.27.147-.415.149m4.475 5.26c-.18.002-.36-.066-.497-.205-.772-.78-1.543-1.629-2.359-2.598-.25-.296-.216-.743.074-.998s.728-.221.977.076c.791.939 1.537 1.761 2.282 2.513.272.275.275.723.006 1.002-.134.137-.308.207-.483.21m5.403 4.216c-.115.002-.231-.026-.34-.086-.99-.548-1.98-1.213-2.94-1.974-.303-.24-.358-.684-.124-.993.235-.309.67-.365.972-.126.903.715 1.83 1.337 2.753 1.849.337.186.462.616.279.96-.124.233-.357.367-.6.37M102.601 43.053c-.05.001-.101-.004-.152-.014-.588-.126-1.173-.282-1.742-.464-.365-.117-.568-.514-.454-.887.115-.373.502-.582.869-.464.525.169 1.067.313 1.61.429.375.08.615.455.537.838-.068.33-.35.558-.668.562M82.033 49.922c.896.137 1.792.265 2.69.384.278.036.558-.078.635-.38.063-.25-.092-.61-.373-.648-.41-.054-.819-.117-1.229-.175.242-.148.466-.323.67-.52.54-.525.939-1.239 1.09-1.986.091-.447.123-.93-.094-1.344-.194-.373-.568-.645-.968-.742-.815-.196-1.957.223-2.158 1.132-.147.666.859.935 1.006.267.087-.395.847-.49 1.122-.262.303.252.041.972-.103 1.284-.216.469-.541.888-.966 1.176-.51.347-1.098.506-1.563.93-.276.25-.138.825.241.884M95.504 51.745c.896.138 1.793.266 2.69.384.279.037.558-.078.635-.38.063-.25-.092-.61-.372-.648-.41-.054-.82-.117-1.23-.175.242-.147.466-.322.67-.52.541-.524.939-1.238 1.091-1.986.09-.446.123-.929-.094-1.344-.195-.372-.569-.644-.969-.741-.814-.197-1.957.222-2.158 1.131-.147.666.858.935 1.006.268.088-.395.847-.491 1.122-.263.304.252.041.972-.103 1.285-.215.469-.541.887-.966 1.176-.51.347-1.098.506-1.563.93-.276.25-.138.825.241.883M89.177 48.832l.786.07c-.05.424-.109.849-.184 1.276-.048.272.083.585.372.648.258.055.583-.088.634-.38.085-.483.152-.968.21-1.455l.825.072c.272.024.528-.271.512-.538-.018-.31-.236-.497-.527-.523l-.708-.062c.028-.379.052-.757.063-1.137.009-.278-.255-.54-.527-.523-.291.017-.503.24-.512.538-.01.348-.031.69-.056 1.032l-.903-.08c-.272-.023-.527.272-.512.539.018.311.236.498.527.523M35.799 73.963l-.759.323c-.15-.357-.304-.711-.47-1.061-.118-.251-.495-.328-.713-.18-.253.171-.304.46-.177.729.143.301.276.609.407.919l-.737.313c-.25.107-.45.366-.353.659.082.247.376.475.644.36l.828-.352c.15.41.294.825.424 1.248.081.265.375.455.644.362.263-.09.44-.374.354-.658-.14-.459-.298-.91-.465-1.36l.663-.282c.25-.107.451-.366.354-.659-.082-.247-.376-.475-.644-.361M62.179 14.654l-.767.02c-.012-.359-.03-.717-.058-1.075-.021-.277-.234-.541-.527-.523-.266.016-.536.242-.512.538.028.362.046.725.058 1.088l-.846.022c-.272.007-.53.25-.512.538.016.285.235.53.526.524l.844-.023c-.004.457-.017.914-.047 1.37-.018.279.262.54.527.524.3-.018.493-.24.512-.538.03-.46.044-.922.047-1.383l.77-.02c.27-.007.529-.25.512-.538-.017-.285-.236-.531-.527-.524M22.24 16.459l-2.624.398c-.144.022-.26.05-.366.161-.088.094-.154.246-.146.378.014.255.238.567.526.523l2.624-.398c.143-.022.26-.05.366-.161.088-.093.154-.245.147-.378-.015-.256-.24-.567-.528-.523M90.423 6.481l2.652-.069c.272-.007.529-.25.512-.539-.016-.284-.236-.53-.527-.523l-2.652.07c-.272.007-.529.25-.512.538.016.285.236.53.527.523M86.985 94.653c-.824-.297-1.929.06-2.237.933-.096.27.118.58.372.649.293.077.538-.11.634-.38.043-.123.324-.2.456-.223.215-.037.472-.017.639.14.33.312-.058 1.005-.244 1.312-.256.423-.622.766-1.05 1.002-.525.29-1.14.351-1.641.704-.365.256-.309.84.137.968.873.249 1.747.489 2.624.72.648.17.91-.857.262-1.028-.38-.1-.756-.208-1.134-.311.255-.116.497-.257.721-.43.617-.48 1.075-1.115 1.333-1.862.145-.418.223-.894.057-1.318-.166-.423-.513-.725-.93-.876M100.133 98.16c-.824-.297-1.929.06-2.237.933-.095.27.118.58.372.648.292.078.538-.11.634-.38.043-.122.324-.198.456-.222.216-.038.472-.017.639.14.33.312-.058 1.005-.244 1.312-.256.423-.622.765-1.05 1.002-.525.291-1.14.351-1.641.703-.364.257-.309.841.137.969.873.249 1.747.489 2.624.72.649.17.91-.857.262-1.028-.379-.1-.756-.208-1.134-.311.255-.116.498-.257.722-.43.616-.48 1.075-1.115 1.332-1.861.145-.42.223-.895.057-1.32-.165-.422-.512-.725-.929-.875M93.994 99.077l-.768-.166c.068-.346.132-.693.185-1.042.041-.274-.079-.584-.372-.648-.253-.055-.59.086-.634.38-.056.365-.123.728-.195 1.09l-.811-.176c-.266-.058-.574.09-.634.38-.057.27.087.586.372.648l.842.182c-.106.438-.222.873-.353 1.305-.08.265.106.59.372.647.286.063.548-.095.634-.38.136-.446.255-.897.365-1.351l.735.159c.265.058.573-.09.634-.38.056-.27-.088-.586-.372-.648" transform="translate(-245 -785) translate(0 774) translate(245 12)"/>
                        <path fill="#25AFE8" d="M101.475 95.523c-3.374-1.054-6.86-1.637-10.302-2.396-1.718-.38-3.428-.805-5.1-1.357-.641-.212-1.563-.777-2.236-.451-.325.157-.465.454-.6.775-.192.454-.388.906-.594 1.354-.605 1.323-1.278 2.611-2.008 3.866-.023-.707-.03-1.415-.018-2.123.012-.683-1.028-.668-1.04.016-.021 1.28.014 2.561.108 3.839.039.531.688.704.972.254.904-1.432 1.732-2.912 2.472-4.439.37-.763.714-1.538 1.044-2.32.06-.141.073-.242.177-.25.16-.013.405.138.553.192.4.145.805.283 1.212.413 3.158 1.014 6.427 1.588 9.662 2.277 1.829.389 3.649.82 5.436 1.377.641.2.9-.828.262-1.027M31.113 78.73c-.159.079-.316.161-.471.244-.511-1.368-1.088-2.71-1.733-4.02-.213-.432-.825-.263-.947.142l-.497 1.64c-.083.274.109.578.372.648.282.075.55-.105.633-.38l.1-.33c.417.918.802 1.851 1.15 2.8l.013.025c-.273.169-.542.343-.806.528-.223.158-.338.48-.176.73.148.227.474.348.714.18.695-.49 1.425-.923 2.185-1.297.246-.121.321-.506.176-.729-.168-.258-.45-.31-.713-.18M42.774 73.299c-.159.078-.316.16-.471.243-.511-1.368-1.088-2.71-1.733-4.02-.212-.432-.825-.263-.948.142-.166.547-.33 1.093-.497 1.64-.082.274.11.578.373.648.282.075.55-.106.634-.38l.1-.33c.416.918.801 1.851 1.15 2.8l.012.025c-.273.169-.543.343-.805.528-.224.157-.339.48-.176.73.148.227.473.348.713.18.694-.49 1.425-.923 2.185-1.297.246-.121.322-.506.176-.73-.168-.257-.45-.309-.713-.18M20.77 16.293c.67-.01.656-1.071-.014-1.062-.669.01-.655 1.072.015 1.062M21.219 18.115c-.67.01-.655 1.071.015 1.062.669-.01.655-1.072-.015-1.062" transform="translate(-245 -785) translate(0 774) translate(245 12)"/>
                        <path fill="#DD9E78" d="M74.834 44.988c-.104-.336-.234-.686-.465-.911-.214-.205-.59-.16-.84-.008-.265.152-.416.443-.477.756-.024.156-.04.335-.047.508-.004.086-.009.172-.008.255 0 .041.002.082.005.12l.006.053.003.02c-.003-.003.012.024-.011-.02l-.179-.07c.285-.061.564-.083.861-.01.145.037.301.107.413.24.114.136.155.287.182.434.047.295-.014.607-.19.845-.088.116-.207.21-.342.255-.134.047-.274.043-.404.019.267-.006.518-.129.625-.357.112-.217.134-.48.073-.712-.059-.252-.193-.381-.424-.424-.222-.043-.484-.014-.713.037l-.126.029-.052-.099c-.034-.064-.025-.059-.034-.083l-.01-.046-.01-.08c-.006-.05-.007-.098-.008-.146-.003-.095 0-.187.004-.28.012-.183.028-.358.063-.554.07-.381.303-.765.666-.947.179-.09.377-.13.574-.118.191.007.406.095.533.256.123.154.19.33.24.505.052.175.083.353.092.533" transform="translate(-245 -785) translate(0 774) translate(245 12)"/>
                        <path fill="#311B10" d="M74.392 34.179s2.362 3.088 0 4.74c-2.363 1.653-4.277-.672-4.277-.672-.145 1.56-.955 2.359-1.738 2.77.805.825 1.616 1.47 2.073 1.888.99.908 1.174 3.289 1.174 3.289-.13-3.996 4.29-5.367 4.202-.907-.013.626-.073 1.153-.167 1.601 0 0 1.358-2.54 1.297-6.922-.037-2.67-.508-4.53-.87-5.58-.825.186-1.694-.207-1.694-.207" transform="translate(-245 -785) translate(0 774) translate(245 12)"/>
                        <path fill="#815B44" d="M71.799 29.92s-1.316 1.472-4.185.876c-2.868-.596-7.749-1.212-10.237 0-2.487 1.212-3.485 1.198-5.946.96-.478-.045-.954.02-1.41.152-.6.717-1.04 1.388-1.297 1.932-1.242 2.632.565 2.683.565 2.683 1.59-2.327 3.645-1.667 5.52-2.344 1.876-.678 4.024-.302 9.554-1.134 5.53-.833 5.973.531 7.436 0 .742-.27 1.232-.963 1.535-1.58-.322-.387-.83-.94-1.535-1.545" transform="translate(-245 -785) translate(0 774) translate(245 12)"/>
                        <path fill="#E9A981" d="M53.139 37.248l.9-.508s.443 1.919 2.379 1.638c1.935-.282 2.043-1.856 2.043-1.856s2.382 1.694 4.898 1.747l2.516.053s.68.914 1.682 1.773c-.622-.78-1.156-1.675-1.398-2.664 0 0-5.039.228-7.787-2.577 0 0 .406 2.146-1.85 2.256-2.257.11-1.536-2.207-1.536-2.207s-2.777 2.101-3.438 3.784c.55-.59 1.172-1.202 1.59-1.439" transform="translate(-245 -785) translate(0 774) translate(245 12)"/>
                        <path fill="#E66D75" d="M71.562 86.846c-.263-.93-1.309-3.91-1.843-5.418-.688 1.158-2.674 3.036-5.831 4.214 1.395.236 2.77.708 3.726 1.6 1.938 1.804.426 4.04-.684 5.243 1.385-.54 2.529-1.09 3.053-1.464 1.732-1.236 1.935-2.911 1.579-4.175" transform="translate(-245 -785) translate(0 774) translate(245 12)"/>
                        <path fill="#FDC6A2" d="M61.977 63.197c-1.71-2.034-2.224-4.54-2.378-5.827-2.58 1.746-6.12 3.618-6.12 3.618s-1.47-.267-3.05-.157c-1.579.11-1.716.37-1.569.83.148.459.857.68.857.68s-2.247.781-2.29 1.79c-.042 1.01 1.786.61 1.786.61s-1.197 1.14-1.02 1.715c.177.574 1.803-.228 1.803-.228s-.882 1.483-.03 1.903c.853.42 2.416-.784 4.1-1.443 1.247-.487 5.838-2.553 8.142-3.596l-.23.105M59.997 57.096l.053-.037-.053.037" transform="translate(-245 -785) translate(0 774) translate(245 12)"/>
                        <path fill="#E9A981" d="M55.422 64.648c-3.705 1.469-5.456 3.483-5.456 3.483.853.42 2.416-.784 4.1-1.443 1.207-.472 5.545-2.421 7.912-3.491-.277-.328-.519-.67-.736-1.015-1.07.484-3.232 1.44-5.82 2.466M61.978 63.197c.079-.036.156-.07.23-.105l-.23.105M61.978 63.197zM44.749 60.637c-.895.042-1.638-.134-2.223-.371.037.069.068.139.109.207 1.502 2.515 5.725.378 5.982-.087.12-.217.08-.564-.1-.837-.5.3-1.86 1-3.768 1.088" transform="translate(-245 -785) translate(0 774) translate(245 12)"/>
                        <path fill="#8BC0D5" d="M90.663 12.355l.01.002c.019.007.036.015.053.024.229.124.472.225.707.337l5.552 2.646.069.033c-.23-.033-.458-.07-.688-.095l-.152-.022-.122-.056-.784-.353-5.627-2.537-.2-.09.97.09c.066.007.145.025.212.021zm.012.002c.063.002.081.034 0 0zm4.862 10.005l-.356.79-2.201-.365.83-1.751 1.762-.848c.442-.213.242-1.033-.257-.97-.228.03-.455.059-.683.087l.16-.335.028-.014c.248-.122.3-.345.237-.545l.86-1.815c.123-.256.244-.512.366-.769.366.076.762.095 1.123.148l.945.138-2.814 6.25zm-7.878-2.05l3.519-.651c-.166.232-.085.604.158.76.324.207.678.235 1.037.209-.159.196-.126.517.037.702.155.174.347.265.57.264l-.15.318-.346.729-4.825-2.33zm-2.716-1.31c.067.013.139.016.215.001l5.56-1.1c-1.251.527-2.52 1.01-3.79 1.492-.208.079-.317.233-.346.397l-.956-.46-.683-.33zm1.869-4.184c.072.044.153.07.247.059.689-.08 1.38-.127 2.07-.145-.954.612-2.009 1.084-2.788 1.949-.15.166-.161.393-.086.577-.272.13-.542.266-.808.409l1.365-2.849zm.93-1.941l.336-.701 5.044 2.275-3.361 1.074c.433-.272.85-.568 1.211-.941.32-.329.077-.872-.36-.889-.526-.02-1.051-.018-1.577-.002.54-.291.035-1.144-.547-.879-.344.157-.669.343-.98.55l.234-.487zm6.312 6.456l-.022.049-.103.013.125-.062zm.49-3.244l-5.331 1.055c1.565-.587 3.155-1.121 4.66-1.857.168-.082.243-.23.249-.386l.713.322c.31.14.63.32.955.454l-1.114 2.347c-.077-.026-.16-.035-.248-.019l-2.348.435c.968-.43 1.923-.89 2.856-1.4.534-.292.15-1.058-.393-.95zm-10.181 3.206l7.105 3.43 1.006.487c.006.003.014.003.02.005.015.007.024.018.041.02l2.728.453c.104.017.238-.01.288-.12l2.966-6.587.426-.946c.007-.016.007-.032.011-.047.035-.069.04-.145.003-.21-.006-.013-.012-.024-.02-.036l-.002-.002c-.025-.036-.064-.063-.118-.077L94.63 13.67l-2.79-1.329c-.358-.171-.756-.44-1.15-.504-.891-.142-1.812-.172-2.71-.256-.005-.002-.01 0-.016-.002h-.014c-.028-.002-.056 0-.083.01-.02.005-.036.015-.051.024l-.018.012c-.033.027-.058.061-.072.103l-3.02 6.304-.054.11c-.081.084-.124.182-.135.282l-.246.514c-.057.118-.04.293.09.357zM108.929 74.31c-.233 1.556-.654 3.08-1.227 4.54-.506 1.29-1.163 2.472-2.112 3.476-1.8 1.907-4.27 3-6.782 3.515-2.655.545-5.449.478-8.087-.13-2.392-.552-4.799-1.568-6.6-3.31-2.45-2.37-3.099-6.163-3.004-9.473.08-2.77.746-5.587 1.92-8.096.141.147.353.204.57.045l.085-.06c.427.165.854.332 1.271.519.466.21.95.445 1.372.753-.136.367.16.88.592.708l.014-.006c.092.309.005.64-.1 1.036-.176.663-.403 1.339-.407 2.034-.004.71.29 1.191.857 1.575.245.167.493.319.74.462.08.281.401.508.708.374.881.416 1.805.675 2.842.727 1.171.059 2.702.06 3.606.989-.635 1.018-1.253 2.049-1.826 3.104-.293.54-.654 1.126-.785 1.737-.14.664.003 1.37.317 1.961 1.007 1.898 3.456 2.235 5.329 2.604.937.186 1.879.34 2.822.487.39.06.79.172 1.184.115.633-.091 1.265-.399 1.705-.878.712-.772.738-1.863.795-2.865.052-.901.002-1.833-.134-2.725-.133-.87-.78-1.61-1.392-2.185-.191-.18-.391-.347-.596-.506-.071-.243-.316-.455-.6-.422-.192-.121-.389-.236-.595-.337l-.04-.02v-.008c.04-.04.086-.076.125-.12.191-.208.176-.465.05-.647.132-.47.26-.94.334-1.425.138-.916.167-1.928-.576-2.583-.634-.558-1.496-.727-2.24-1.076-.021-.01-.043-.024-.065-.035.368-.364-.057-.957-.514-.85-.174.041-.346.09-.52.133-.49-.452-.89-1.014-1.076-1.624-.142-.465-.034-.74.181-1.145.234-.44.443-.893.637-1.352.04-.09.078-.182.116-.273.109-.096.218-.192.324-.292.224-.21.181-.493.02-.682.076-.302.118-.61.091-.928-.066-.81-.227-1.614-.385-2.409-.014-.076-.03-.151-.046-.227 1.508.224 2.982.658 4.358 1.323 2.563 1.24 4.62 3.319 5.785 5.967 1.162 2.644 1.385 5.662.959 8.506m-12.363-9.777c-.266.484-.29.957-.16 1.427-.118-.19-.37-.315-.592-.28-.913.143-1.815.343-2.7.598 1.311-.795 2.632-1.577 3.848-2.514-.127.261-.259.52-.396.77m-3.462 4.48c1.187-.742 2.449-1.392 3.285-2.57.066-.092.088-.184.085-.272.063.168.143.335.24.502.188.327.418.636.678.917-1.456.389-2.888.864-4.288 1.424m8.084 3.65c-.026.102-.076.239-.129.393-.02.002-.038-.002-.058.002-.99.197-1.97.438-2.94.716.68-.46 1.396-.872 2.11-1.28.538-.307.146-1.038-.393-.95-1.063.17-2.134.263-3.208.298 1.17-.512 2.368-.962 3.35-1.834.43-.383-.05-.933-.495-.87-.735.104-1.465.235-2.19.39.462-.31.906-.647 1.337-1.006.092.051.185.1.28.143.703.323 1.574.485 2.154 1.032.765.72.416 2.078.182 2.967m-.827 2.118c.207-.118.406-.246.598-.386.021.028.046.053.075.076.051.04.113.073.177.103-.284.063-.568.133-.85.207M85.145 64.82c2.339-1.143 4.753-2.104 7.187-3.01-.571.34-1.152.66-1.71.99-1.406.829-2.796 1.718-3.955 2.89-.358-.265-.762-.477-1.15-.664-.137-.067-.277-.128-.416-.19l.044-.016m-.769-.484c0 .074.02.148.052.217l-.23-.092.178-.125m10.538-5.997l.049-.001c.484-.012.968-.002 1.452.028.135.01.27.02.406.033.158.018.315.036.473.056.103.497.202.995.287 1.496.11.635.264 1.303.108 1.94-.013 0-.025-.002-.037 0-2.7.607-5.304 1.607-7.883 2.648.527-.343 1.068-.667 1.611-.985 1.502-.882 3.137-1.731 4.34-3.032.329-.355.008-1.051-.495-.87-1.281.462-2.562.926-3.836 1.407.925-.586 1.847-1.18 2.76-1.786.324-.215.28-.698.028-.895.086-.007.173-.012.26-.017.159-.01.318-.018.477-.022m-9.274 3.468c.065-.057.131-.11.196-.166.109-.092.217-.184.327-.272.065-.053.131-.103.197-.154.112-.087.225-.174.34-.258.07-.052.143-.102.215-.153.108-.076.218-.15.328-.224.08-.053.162-.105.244-.156.11-.069.22-.134.33-.199l.26-.15c.131-.072.265-.141.4-.209l.178-.092c.85-.412 1.74-.727 2.655-.954l.026-.007c.2-.048.401-.092.603-.133l.135-.027c.22-.043.44-.082.663-.115.227-.034.456-.062.685-.089-3.245 1.2-6.34 2.787-9.209 4.742.363-.384.738-.755 1.126-1.111.1-.092.2-.184.301-.273m2.374 9.49c-.283-.182-.662-.367-.865-.647-.204-.279-.222-.647-.197-.98.052-.737.34-1.43.488-2.149.071-.342.087-.645-.005-.928 2.68-1.072 5.363-2.221 8.127-3.063-2.258 1.597-4.799 2.79-6.92 4.595-.463.393.127 1.076.617.817 1.624-.859 3.343-1.499 5.118-1.92-.765.558-1.653.994-2.403 1.492-1.32.877-2.58 1.849-3.774 2.897-.062-.039-.125-.074-.186-.114m7.672 2.476c-.616-.76-1.75-1.098-2.66-1.22-.994-.134-1.985-.039-2.967-.3-.268-.071-.524-.168-.775-.275 2.167-1.2 4.44-2.18 6.791-2.922-1.527.94-3.188 1.666-4.824 2.377-.525.227-.142 1.177.392.95 1.608-.682 3.264-1.23 4.953-1.642-.819.342-1.646.672-2.38 1.166-.424.286-.256.946.257.97 1.054.05 2.106.027 3.154-.05-.827.549-1.612 1.157-2.293 1.897l-.002.003.218-.355.176-.284c.065-.103.03-.227-.04-.315m6.882 1.69c.63.543 1.375 1.265 1.523 2.134.144.842.177 1.746.132 2.599-.053.984-.056 2.102-.877 2.769-.95.772-1.86.467-2.95.29-.994-.16-1.987-.339-2.971-.557-1.031-.229-2.152-.441-3.048-1.038-.669-.445-1.197-1.142-1.32-1.96-.09-.586.095-1.07.347-1.583.546-1.113 1.186-2.182 1.835-3.238-.143.368.153.875.59.714.74-.27 1.487-.51 2.24-.733l-.468.254-3.489 1.9c-.498.272-.151 1.173.392.952.373-.152.746-.303 1.12-.453l-1.152.564c-.516.251-.152 1.152.392.95l5.296-1.956c-1.09 1.096-2.445 1.92-3.759 2.712-.578.348-.072 1.162.514.898 1.134-.51 2.319-.91 3.529-1.192-.987.72-2.004 1.397-3.05 2.024-.49.294-.17 1.125.392.951.835-.259 1.67-.515 2.511-.75-.536.263-.271 1.192.328.976 1.12-.404 2.128-1.018 3.003-1.84.407-.381-.034-.951-.496-.869-.787.14-1.564.32-2.336.521.678-.49 1.345-.995 1.996-1.524.33-.269.067-.941-.36-.888-.795.099-1.577.242-2.348.429.794-.663 1.512-1.411 2.076-2.314.139-.222.05-.511-.133-.671l.338-.165c.018-.01.032-.02.048-.03.051.043.105.081.155.124m6.512-8.04c-.775-2.8-2.432-5.26-4.77-6.93-2.23-1.593-4.95-2.434-7.674-2.627-2.079-.184-4.286.056-6.288.682l-.157.048c-.064.022-.13.039-.193.06-.08.027-.159.06-.238.089-.098.035-.196.071-.293.109-.091.035-.182.071-.272.109-.068.028-.137.053-.205.082-.107.046-.212.098-.317.147l-.038.018c-.865.407-1.68.91-2.443 1.487l-.09.07c-.144.11-.286.223-.427.338-.065.053-.128.108-.193.162-.109.093-.217.187-.325.282-.037.034-.075.065-.112.098l-.08.077c-.04.036-.082.072-.121.109-.043.04-.082.082-.123.122-.255.242-.504.49-.746.743l-.103.106-.067.069c-.215.23-.43.454-.624.695-.056.063-.114.123-.17.187-.005.006-.006.013-.01.02-.01.01-.021.018-.03.033-1.102 1.954-1.76 4.27-2.111 6.48-.336 2.117-.355 4.28.023 6.394.298 1.665.787 3.407 1.77 4.797 1.466 2.071 3.751 3.396 6.083 4.203 2.64.914 5.506 1.223 8.277.95 2.708-.265 5.446-1.095 7.643-2.779 1.034-.792 1.93-1.76 2.606-2.887.805-1.343 1.332-2.904 1.727-4.418.773-2.964.914-6.156.091-9.126" transform="translate(-245 -785) translate(0 774) translate(245 12)"/>
                        <g transform="translate(-245 -785) translate(0 774) translate(245 12) translate(0 29.48)">
                            <mask id="quemw8sn8b" fill="#fff">
                                <use xlink:href="#sjwiywo4xa"/>
                            </mask>
                            <path fill="#8BC0D5" d="M12.722 14.84c-.364 1.124-1.483 2.028-2.637 2.271-1.068.226-2.416.081-3.293-.631-.603-.49-.915-1.239-.997-2.007-.012-.107-.02-.216-.025-.327.118.157.322.26.546.228 1.012-.139 1.93-.585 2.862-.986.966-.415 1.945-.797 2.937-1.14 1.255-.433 2.53-.798 3.824-1.083-.123.059-.244.12-.367.178-.839.396-1.685.776-2.54 1.138-1.664.706-3.355 1.347-5.066 1.928-.618.211-.354 1.215.27 1.003 2.737-.936 5.522-1.711 8.341-2.328-.94.604-1.917 1.15-2.928 1.622-.551.258-.141 1.063.393.95l2.943-.615c-.003.262.158.508.486.472.675-.073 1.147-.544 1.188-1.246.021-.358-.34-.565-.645-.502l-.871.183c.713-.462 1.404-.957 2.074-1.488.444-.353-.058-.95-.495-.87-.74.137-1.479.288-2.214.447.103-.049.207-.096.309-.146.665-.323 1.83-.689 1.767-1.636-.024-.371-.304-.55-.644-.502-1.06.148-2.109.356-3.146.615.81-.365 1.619-.736 2.42-1.12 1.109-.53 2.305-1.017 3.184-1.916.357-.365-.003-1.013-.496-.87-.86.252-1.717.52-2.571.796.342-.29.653-.614.914-.987.248-.355-.17-.925-.576-.764L6.207 10.06c.276-.165.549-.324.803-.482 1.189-.741 2.398-1.449 3.61-2.148 1.165-.672 2.345-1.322 3.491-2.026 1.006-.617 1.975-1.321 2.724-2.253.197.567.3 1.197.163 1.747-.066.264.238.418.426.253 1.242-1.084 3.304-1.904 4.59-.471 1.043 1.162 1.423 3.169.675 4.583-.55 1.04-1.61 1.526-2.71 1.705-.18.03-.21.247-.153.382-.046-.107.05.15.066.2.062.206.11.417.14.63.097.665.033 1.364-.231 1.984-.428 1.002-1.326 1.698-2.278 2.139-.901.417-1.954.59-2.878.142-.648-.314-1.206-.901-1.433-1.604-.079-.247-.411-.247-.49 0M1.805 12.227C.847 11.543.441 10.284.524 9.125c.067-.941.59-1.713 1.378-2.181.311-.185.646-.321.993-.418.107-.03.214-.054.323-.077.045-.01.192-.03.09-.018.183-.023.327-.205.219-.39-.107-.186-.197-.393-.269-.615.083.024.178.027.286-.001.793-.206 1.593-.382 2.398-.534-1.363 1.054-2.996 1.766-4.323 2.874-.382.319.03 1.066.495.869l3.828-1.618C4.569 7.86 3.119 8.61 2.01 9.813c-.418.453.104 1.05.617.817 1.061-.48 2.111-.985 3.155-1.503-.972.61-2.001 1.24-2.605 2.253-.215.361.15.934.575.765L11.417 9.1c-1.495.642-2.994 1.272-4.492 1.907-.5.212-.483 1.015.136 1.022 1.13.012 2.157-.584 3.173-1.017 1.072-.457 2.153-.891 3.242-1.305.491-.187.985-.367 1.48-.546-.762.35-1.527.693-2.296 1.026-1.266.549-2.542 1.076-3.823 1.59-1.082.433-2.195.85-3.017 1.727-.016.017-.022.035-.035.052.012-.133.028-.264.054-.386.042-.203-.12-.359-.314-.32-1.182.234-2.692.11-3.72-.624M4.993 1.365c1.764-.157 3.768 1.532 3.607 3.41l-1.845.78c.404-.322.785-.675 1.126-1.084.35-.419.005-.94-.496-.869-.437.061-.873.134-1.308.21.145-.078.29-.16.438-.235.586-.299.07-1.196-.514-.898-1.003.51-1.954 1.11-2.85 1.795-.026.02-.05.042-.071.065-.142-1.442.397-3.04 1.913-3.174m5.887.11C11.8.7 13.124.378 14.288.638c.903.202 1.626.787 2.106 1.571-.037.012-.075.028-.114.05-2.725 1.545-5.454 3.087-8.225 4.545.486-.376.94-.793 1.338-1.286.229-.285.102-.832-.238-.902.062-.296.143-.588.242-.873.3-.864.785-1.68 1.483-2.268m6.063 15.596c2.037-.577 3.767-2.299 3.632-4.56-.022-.368-.08-.742-.19-1.096 1.013-.215 1.96-.7 2.563-1.59.544-.8.707-1.816.598-2.77-.104-.912-.436-1.812-.998-2.534-.732-.942-1.818-1.314-2.968-1.063-.709.155-1.406.496-2.015.93.002-.63-.183-1.284-.42-1.837-.42-.988-1.158-1.825-2.147-2.233-1.214-.5-2.708-.325-3.835.33-.928.539-1.613 1.425-2.044 2.411-.067.155-.13.313-.189.473-.404-1.176-1.442-2.11-2.627-2.507C5.55.772 4.678.74 3.971 1.15c-.915.527-1.39 1.72-1.443 2.746-.035.69.102 1.443.395 2.085C1.608 6.274.38 7.21.086 8.6-.17 9.816.15 11.258.983 12.18c.694.769 1.698 1.122 2.693 1.236.529.06 1.079.06 1.613-.008-.145 1.16.137 2.458.964 3.277.87.86 2.219 1.117 3.39 1.012 1.022-.092 1.984-.52 2.693-1.29.237-.257.454-.555.628-.873.764 1.395 2.46 1.966 3.979 1.536" mask="url(#quemw8sn8b)"/>
                        </g>
                        <path fill="#8BC0D5" d="M29.216 63.188c-.55 1.173-1.569 2.015-2.685 2.595-2.315 1.203-5.469 1.54-7.83.279-.779-.416-1.36-1.002-1.8-1.701 2.46-1.52 5.04-2.822 7.712-3.898-.426.285-.868.545-1.304.8-1.177.693-2.37 1.384-3.334 2.377-.4.412.117 1.135.617.817 1.477-.94 3.007-1.79 4.576-2.559-.365.209-.731.393-1.03.57l-3.844 2.292c-.575.343-.071 1.177.514.898.518-.246 1.04-.483 1.563-.717-.052.282.107.505.36.61l.039.015c.235.098.418.005.52-.16 1.979-.71 3.838-1.717 5.51-3.015.418-.325.205-1.156-.393-.95-.563.193-1.122.398-1.68.605.483-.401.874-.887 1.03-1.538.082-.344-.247-.8-.627-.64-.143.061-.283.129-.426.191.23-.23.45-.476.652-.746.271-.363-.179-.9-.575-.765-2.781.955-5.48 2.146-8.064 3.56.295-.294.601-.578.915-.854 1.055-.927 2.153-1.806 3.234-2.701.343-.284.072-.84-.306-.889.032-.017.062-.037.09-.06.09-.055.152-.13.17-.226 1.22-.834 2.712-1.391 4.156-.84 1.178.45 2.017 1.551 2.41 2.741.417 1.261.398 2.699-.17 3.91m-12.32-4.953c.522-.489 1.213-.762 1.917-.803.919-.054 1.823.268 2.738.329l.125.005.014.002c.13.006.288.013.445.001-1.488.536-2.871 1.297-4.218 2.126.262-.392.583-.743.963-1.033.52-.395.013-1.299-.514-.898-1.028.782-1.762 1.851-2.081 3.126-.106.425.363.835.748.587.605-.388 1.213-.776 1.829-1.148-.935.841-1.799 1.752-2.482 2.802-.087-.22-.17-.444-.239-.678-.443-1.483-.447-3.295.755-4.418m5.423-1.071c-.004.013-.006.027-.008.04l-.006.003c-.037.009-.072.017-.109.024l-.039.008-.045.004c-.035.004-.072.006-.108.007-.052.002-.105 0-.157 0l-.686-1.403.784-.635.34 1.77c.01.06.022.121.034.182m.017.212c-.01-.021-.014-.039-.016-.055.005.019.008.038.016.055m4.991-1.252c-1.545-.682-3.198-.203-4.561.67l-.347-1.809-.06-.31c-.04-.211-.29-.224-.425-.114l-1.272 1.032c-.092.073-.087.22-.04.315l.652 1.332c-.515-.058-1.033-.192-1.52-.271-1.35-.22-2.75.204-3.605 1.333-1.026 1.355-.932 3.212-.414 4.755.106.315.23.616.367.906.012.138.08.264.183.354.501.916 1.193 1.677 2.16 2.193 4.625 2.47 13.175-.607 11.545-6.985-.369-1.445-1.294-2.797-2.663-3.4M26.265 98.555c-.81.585-1.853.639-2.804.468l-.01-.06-.174-.97-.368-2.057c.063.008.126.009.19-.013l.692-.235c-.288.295-.524.622-.669 1.029-.13.367.274.76.627.64l1.216-.416-.97.71c-.223.162-.333.454-.184.71.13.226.472.353.697.188l1.9-1.388c.295-.216.66-.432.935-.708-.069.82-.4 1.613-1.078 2.102m-3.814 2.266c-.35.116-.659-.11-.859-.387-.126-.174-.203-.375-.261-.586l-.155-.71-.268-1.231-.187-.861c.026-.135-.007-.263-.08-.368l-.276-1.266c.096-.122.19-.248.272-.384.213-.35-.068-.765-.44-.783l-.086-.004-.126-.577c.117-.244.045-.503-.14-.645l-.05-.23c.007-.264.1-.551.27-.748.244-.28.532-.32.796-.208.026.07.077.126.158.149.028.008.06.009.09.005.044.038.086.078.126.124.25.283.472.658.614 1.039l-.122.114c-.309.29-.084.906.347.887l.647 3.617c.09.503.14 1.037.273 1.53l.004.019c.002.011.008.023.013.035.058.193.133.37.116.592-.03.382-.316.757-.676.877m-5.051.39c-.64-.02-1.244-.263-1.683-.706.115.036.247.031.385-.039.597-.302 1.22-.546 1.86-.73-.14.082-.282.163-.432.235-.593.285-.076 1.182.514.899.81-.389 1.524-.948 2.104-1.643.255-.305.12-.938-.36-.888-.1.01-.198.024-.297.037.314-.189.618-.398.854-.66l.398 1.827.06.279c-.967.77-2.146 1.429-3.403 1.39m-2.01-4.051c.375-.627 1.039-.957 1.725-1.096.353-.071.727-.097 1.09-.068-.743.536-1.503 1.055-1.918 1.931-.17.359.124.951.576.764.116-.047.234-.092.351-.14l-1.626 1.016c-.178.11-.25.271-.248.428-.013-.023-.03-.045-.042-.07-.413-.828-.385-1.97.092-2.765m.458-2.552l1.949-.349c-.373.288-.157.903.31.925l1.048.05c-.185.177-.384.339-.589.494-.003-.107-.057-.21-.177-.235-.791-.164-1.584-.423-2.315-.77-.076-.037-.151-.076-.226-.115m.683-3.785l-.552.227c-.018-.089-.058-.175-.116-.248.223-.015.447-.008.668.021m1.854.849c-.054-.02-.111-.031-.174-.025-.35.034-.696.08-1.04.14.099-.084.195-.173.285-.27.099-.106.136-.247.128-.387.251.12.488.27.701.45.034.028.066.062.1.092m-3.799 1.951c.011-.004.022-.005.034-.01.344-.146.695-.272 1.049-.386l-.884.55c-.016.01-.028.02-.042.03-.055-.058-.107-.12-.157-.184m4.711-.728l.01.043-1.641.293c.316-.216.623-.444.905-.696.168-.149.177-.396.088-.593.26.282.486.606.638.953m.777 3.57c-.492.143-.978.3-1.462.465l.233-.169c.385-.277.763-.562 1.1-.887l.129.59m-.5-2.295l.01.046-.055-.003c.014-.015.03-.028.045-.043m4.07-3.686c.548-.314 1.63-.46 1.876.31.2.626-.056 1.401-.258 1.994-.16.464-.35.923-.58 1.357-.025.05-.032.104-.026.156l-.534.18c.164-.328.311-.666.437-1.015.143-.394-.278-.721-.626-.64-.099.023-.198.037-.296.057l1.19-1.117c.483-.454-.238-1.188-.72-.736l-1.612 1.513c.118-.822.459-1.661 1.15-2.059m-.432 3.536c-.147.292-.311.573-.492.845l-.121-.761c.205-.023.41-.051.613-.084m3.94 1.088c-.022.003-.045.005-.067.013l-1.834.626c.281-.266.537-.56.693-.924.058-.135.059-.29.016-.428.031.001.063 0 .094.003.526.044.891.308 1.098.71m-1.068-1.228c-.237-.02-.483-.009-.726.026.14-.31.27-.625.382-.945.248-.716.506-1.612.252-2.363-.29-.856-1.236-.985-2.002-.803-.887.211-1.47.936-1.769 1.779-.084.238-.147.49-.194.746-.178-.31-.398-.592-.654-.792l.286-1.853.046-.301c.021-.139-.035-.28-.178-.32-.12-.034-.291.042-.313.181l-.314 2.039c-.29-.081-.563-.034-.801.098l-1.058-1.702-.169-.27c-.175-.282-.616-.022-.44.262l1.201 1.93.069.111c-.1.118-.183.253-.25.396-.886-1.372-2.624-2.067-4.199-1.735-.953.2-1.696.907-1.673 1.946.017.802.414 1.525.982 2.053.066.195.244.355.474.371.539.36 1.145.644 1.772.863-.757.2-1.452.623-1.86 1.302-1.124 1.875-.092 4.507 2.085 4.8 1.438.195 2.81-.498 3.94-1.36.145.357.358.674.72.882 1.06.61 2.062-.608 1.911-1.653 1.632.208 3.379-.299 4.02-2.014.547-1.458.263-3.518-1.54-3.674M33.213 6.829c-.117 1.08-.858 2.035-1.57 2.79-.416.44-.867.858-1.348 1.227-.093-.35-.254-.689-.452-1.003-.025-.075-.05-.15-.073-.226.094.033.194.043.286.01l.663-.237c.024.088.066.17.124.23.213.217.505.175.72 0 .32-.26.536-.615.665-1.006.087-.263-.093-.545-.334-.634.223-.26.412-.545.54-.88.083-.22-.05-.477-.248-.595.235-.212.428-.463.514-.775.111-.401-.256-.718-.626-.64l-.018.003c-.125-.145-.327-.217-.518-.163-.323.09-.635.22-.937.368.327-.311.715-.535 1.15-.588 1.086-.135 1.56 1.216 1.462 2.119m-6.65 5.259c-.718.136-1.453.283-2.175.197.034-.011.067-.026.1-.047.627-.403 1.275-.768 1.94-1.099-.216.427.213 1.06.68.72.443-.322.912-.591 1.404-.814.168.238.506.35.76.075.135-.148.24-.308.32-.484.06.15.121.301.185.451-.185.102-.377.19-.569.267-.85.343-1.747.565-2.645.734m-4.272-1.054c-.038-.059-.074-.12-.107-.182.073-.002.146-.015.212-.051.132-.072.26-.15.393-.225-.155.451.41.903.842.534.473-.405.99-.742 1.539-1.012l-.092.08c-.476.41-.935.818-1.287 1.349-.16.24-.057.514.137.666-.051-.014-.103-.024-.154-.041-.587-.2-1.136-.59-1.483-1.118m1.035-2.662c.98-.323 2.123-.328 3.13-.141.77.142 1.529.435 2.139.948.186.157.361.337.522.532-.018.003-.035.003-.053.008-.274.088-.542.192-.806.305.012-.336-.25-.7-.62-.553-.278.11-.551.226-.823.346.138-.207.262-.426.355-.671.148-.393-.283-.721-.627-.64-.404.095-.797.224-1.18.377l.02-.041c.166-.427-.396-.819-.748-.588-.44.288-.887.567-1.337.838-.124-.312-.53-.514-.827-.2-.173.182-.32.375-.45.58.202-.574.76-.92 1.305-1.1m6.8-2.296c.072.169.2.255.35.289-.256.129-.515.25-.778.364.096-.272.228-.549.393-.807.005.052.013.105.034.154m.511 1.696c-.372.312-.764.604-1.075.985-.053-.316-.08-.636-.065-.958.09.027.185.04.282.018.343-.078.687-.143 1.033-.198-.058.051-.116.103-.175.153m1.386-3.587c-1.151-.089-2.17.963-2.629 1.941-.413.878-.483 1.844-.323 2.792-1.414-1.295-3.594-1.55-5.394-1.176-.756.156-1.544.506-1.968 1.198-.33.538-.353 1.213-.135 1.799.537 1.446 2.131 2.226 3.587 2.085 1.306-.126 2.642-.403 3.88-.852.32-.116.658-.24.964-.41.626 1 1.067 2.22 1.1 3.4.01.334.52.335.51 0-.026-.915-.282-1.798-.643-2.63-.144-.334-.311-.663-.499-.975.517-.385 1.005-.823 1.451-1.287.834-.865 1.65-1.943 1.793-3.185.13-1.118-.45-2.605-1.694-2.7" transform="translate(-245 -785) translate(0 774) translate(245 12)"/>
                    </g>
                </g>
            </g>
        </g>
    </g>
</svg>
