<?xml version="1.0" encoding="UTF-8"?>
<svg width="44px" height="44px" viewBox="0 0 44 44" version="1.1" xmlns="http://www.w3.org/2000/svg" xmlns:xlink="http://www.w3.org/1999/xlink">
    <!-- Generator: Sketch 64 (93537) - https://sketch.com -->
    <title>206897</title>
    <desc>Created with Sketch.</desc>
    <g id="Page-1" stroke="none" stroke-width="1" fill="none" fill-rule="evenodd">
        <g id="#7@2x" transform="translate(-40.000000, -630.000000)" fill-rule="nonzero">
            <g id="206897" transform="translate(40.000000, 630.000000)">
                <circle id="Oval" fill="#FFC61B" cx="22" cy="22" r="22"></circle>
                <path d="M19.9753984,32.4691641 L30.0041328,42.4978984 C37.4476953,39.589 42.9174453,32.7429609 43.8553672,24.5201172 L26.1036875,6.7684375 L19.9753984,32.4691641 Z" id="Path" fill="#D48B07"></path>
                <rect id="Rectangle" fill="#FCD088" x="18.3333047" y="25.1125703" width="7.33330469" height="8.9629375"></rect>
                <rect id="Rectangle" fill="#DDAB62" x="21.9511016" y="25.1125703" width="3.71559375" height="8.9629375"></rect>
                <path d="M30.7453437,31.4248516 L26.85925,30.6476328 L26.1724375,29.6450859 C26.043875,29.4573984 25.8005859,29.3866719 25.5915859,29.4762188 L22,33.5580781 L18.4298984,29.4777656 C18.2223594,29.3872734 17.9796719,29.45525 17.8494766,29.6404453 L17.14075,30.6475469 L13.2546563,31.4247656 C11.2761172,31.8205937 9.851875,33.5578203 9.851875,35.5755469 L9.851875,40.3429297 C13.3330312,42.6531875 17.5090781,44 22,44 C26.4909219,44 30.6669687,42.6531875 34.148125,40.3429297 L34.148125,35.5755469 C34.148125,33.5578203 32.7238828,31.8205938 30.7453437,31.4248516 Z" id="Path" fill="#FFAD9E"></path>
                <path d="M30.7453438,31.4248516 L26.85925,30.6476328 L26.1724375,29.6450859 C26.043875,29.4573984 25.8005859,29.3866719 25.5915859,29.4762188 L22,33.5580781 L21.9506719,33.5016172 L21.9506719,43.9989688 C21.9670859,43.9989688 21.9834141,43.9998281 22,43.9998281 C26.4909219,43.9998281 30.6669687,42.6530156 34.148125,40.3427578 L34.148125,35.575375 C34.148125,33.5578203 32.7238828,31.8205938 30.7453438,31.4248516 Z" id="Path" fill="#FF6262"></path>
                <path d="M29.8659453,17.655 C29.9053906,17.2902812 29.9259297,16.9307188 29.9259297,16.5800078 C29.9259297,11.9416172 26.3773125,8.18150781 22,8.18150781 C17.6226875,8.18150781 14.0740703,11.9416172 14.0740703,16.5800078 C14.0740703,16.9306328 14.0946953,17.2901953 14.1340547,17.655 C13.3653438,17.8548906 12.9995078,19.0374766 13.3171328,20.3033359 C13.6357891,21.5731484 14.5214609,22.4449844 15.2952422,22.2507656 C15.3657969,22.2331484 15.4315391,22.2045313 15.4951328,22.1711016 C16.9274531,25.0458828 19.3065469,27.3783984 22,27.3783984 C24.6934531,27.3783984 27.0726328,25.0461406 28.5048672,22.1711016 C28.5684609,22.2046172 28.6342031,22.2331484 28.7047578,22.2507656 C29.4785391,22.4449844 30.364125,21.5731484 30.6828672,20.3033359 C31.0005781,19.0374766 30.6348281,17.8546328 29.8659453,17.655 Z" id="Path" fill="#FFEDB5"></path>
                <path d="M29.8659453,17.655 C29.9053906,17.2902813 29.9259297,16.9307188 29.9259297,16.5800078 C29.9259297,11.9416172 26.3773125,8.18150781 22,8.18150781 C21.9834141,8.18150781 21.9672578,8.18271094 21.9506719,8.18288281 L21.9506719,27.3769375 C21.9670859,27.3771094 21.9835859,27.3783125 22,27.3783125 C24.6934531,27.3783125 27.0726328,25.0460547 28.5048672,22.1710156 C28.5684609,22.2045313 28.6342031,22.2330625 28.7047578,22.2506797 C29.4785391,22.4448984 30.364125,21.5730625 30.6828672,20.30325 C31.0005781,19.0374766 30.6348281,17.8546328 29.8659453,17.655 Z" id="Path" fill="#E8CF89"></path>
                <g id="Group" transform="translate(16.585938, 29.046875)" fill="#FFFFFF">
                    <circle id="Oval" cx="5.4140625" cy="6.46129687" r="1"></circle>
                    <circle id="Oval" cx="5.4140625" cy="7.99167188" r="1"></circle>
                    <path d="M5.4140625,4.521 L1.95404688,0.133632813 C1.80675,-0.03884375 1.54008594,-0.0385 1.39313281,0.134234375 L0.0559453125,1.70620313 L2.94086719,6.32216406 C3.18114844,6.70647656 3.73716406,6.71713281 3.99179687,6.3421875 L5.4140625,4.521 Z" id="Path"></path>
                </g>
                <path d="M22,33.567875 L25.4600156,29.1805078 C25.6073125,29.0080313 25.8739766,29.008375 26.0209297,29.1811094 L27.3581172,30.7530781 L24.4731953,35.3690391 C24.2329141,35.7533516 23.6768984,35.7640078 23.4222656,35.3890625 L22,33.567875 Z" id="Path" fill="#E0E0E0"></path>
                <path d="M25.4103437,17.22325 C24.3562344,17.22325 23.4710781,17.9501953 23.2234922,18.9284219 L20.7766797,18.9284219 C20.5290078,17.9501953 19.6439375,17.22325 18.5898281,17.22325 C17.6574062,17.22325 16.8553516,17.7913828 16.5111719,18.5995391 L14.6801875,16.7684688 C14.5354687,16.62375 14.3011172,16.62375 14.1564844,16.7684688 C14.0117656,16.9131016 14.0117656,17.1475391 14.1564844,17.2921719 L16.3323359,19.4681953 C16.3323359,19.4726641 16.3315625,19.4770469 16.3315625,19.4815156 C16.3315625,20.7266641 17.3445938,21.7396953 18.5897422,21.7396953 C19.7716406,21.7396953 20.7426484,20.8266953 20.8384687,19.6690312 L23.1616172,19.6690312 C23.2574375,20.8265234 24.2284453,21.7396953 25.4103437,21.7396953 C26.6554922,21.7396953 27.6685234,20.7266641 27.6685234,19.4815156 C27.6685234,18.2363672 26.6555781,17.22325 25.4103437,17.22325 Z M18.5897422,20.999 C17.7529688,20.999 17.0722578,20.3182891 17.0722578,19.4815156 C17.0722578,18.6447422 17.7529687,17.9640313 18.5897422,17.9640313 C19.4265156,17.9640313 20.1072266,18.6447422 20.1072266,19.4815156 C20.1072266,20.3182031 19.4265156,20.999 18.5897422,20.999 Z M25.4103437,20.999 C24.5735703,20.999 23.8928594,20.3182891 23.8928594,19.4815156 C23.8928594,18.6447422 24.5735703,17.9640313 25.4103437,17.9640313 C26.2471172,17.9640313 26.9278281,18.6447422 26.9278281,19.4815156 C26.9278281,20.3182031 26.2471172,20.999 25.4103437,20.999 Z" id="Shape" fill="#444444"></path>
                <path d="M25.4103438,17.22325 C24.3562344,17.22325 23.4710781,17.9501953 23.2234922,18.9284219 L21.9507578,18.9284219 L21.9507578,19.6692031 L23.1617031,19.6692031 C23.2575234,20.8266953 24.2285313,21.7398672 25.4104297,21.7398672 C26.6555781,21.7398672 27.6686094,20.7268359 27.6686094,19.4816875 C27.6686094,18.2365391 26.6555781,17.22325 25.4103438,17.22325 Z M25.4103438,20.999 C24.5735703,20.999 23.8928594,20.3182891 23.8928594,19.4815156 C23.8928594,18.6447422 24.5735703,17.9640313 25.4103438,17.9640313 C26.2471172,17.9640313 26.9278281,18.6447422 26.9278281,19.4815156 C26.9278281,20.3182031 26.2471172,20.999 25.4103438,20.999 Z" id="Shape" fill="#333333"></path>
                <path d="M27.3440234,19.6387813 C27.2492344,19.6387813 27.1545313,19.6026016 27.0820859,19.5303281 C26.9373672,19.3856953 26.9373672,19.1512578 27.0820859,19.006625 L29.3199844,16.7685547 C29.4647031,16.6238359 29.6990547,16.6238359 29.8436875,16.7685547 C29.9884063,16.9131875 29.9884063,17.147625 29.8436875,17.2922578 L27.6057891,19.5303281 C27.5335156,19.6025156 27.4386406,19.6387813 27.3440234,19.6387813 Z" id="Path" fill="#444444"></path>
                <path d="M30.1483359,12.4196875 C29.0745469,10.6669063 27.6483281,9.13232031 25.8813672,8.21657031 C26.0847813,7.92867969 26.1977031,7.6140625 26.1977031,7.28380469 C26.1977031,5.9200625 24.28525,4.81464844 21.9261797,4.81464844 C19.5671094,4.81464844 17.6546563,5.92014844 17.6546563,7.28380469 C17.6546563,7.65135938 17.7946484,7.99983594 18.0438672,8.31325 C18.0002969,8.33292969 17.9576719,8.35003125 17.9139297,8.3703125 C12.1732188,11.0369531 12.9386641,19.5184688 13.2843047,18.6295312 C13.6299453,17.7406797 14.1343984,17.6548281 14.1343984,17.6548281 C17.1325,16.2726094 18.9878906,13.3332031 18.9878906,13.3332031 C18.9878906,13.3332031 29.2594844,15.2838984 27.7780078,26.6418281 C27.7779219,26.6418281 34.26225,19.1342422 30.1483359,12.4196875 Z" id="Path" fill="#494948"></path>
                <path d="M30.1483359,12.4196875 C29.0745469,10.6669063 27.6483281,9.13232031 25.8813672,8.21657031 C26.0847813,7.92867969 26.1977031,7.6140625 26.1977031,7.28380469 C26.1977031,5.92496094 24.2984844,4.82272656 21.9507578,4.81507813 L21.9507578,14.4380156 C24.8574219,15.9546406 28.7265,19.3701406 27.7778359,26.6418281 C27.7779219,26.6418281 34.26225,19.1342422 30.1483359,12.4196875 Z" id="Path" fill="#333333"></path>
            </g>
        </g>
    </g>
</svg>