<svg xmlns="http://www.w3.org/2000/svg" xmlns:xlink="http://www.w3.org/1999/xlink" width="64" height="64" viewBox="22 18 56 56"><defs><style>.a{opacity:0.2;}.b{fill:#ff5858;}.c{filter:url(#a);}</style><filter id="a" x="0" y="0" width="94" height="94" filterUnits="userSpaceOnUse"><feOffset dy="3" input="SourceAlpha"/><feGaussianBlur stdDeviation="9" result="b"/><feFlood flood-opacity="0.059"/><feComposite operator="in" in2="b"/><feComposite in="SourceGraphic"/></filter></defs><g transform="translate(-164 -168)"><g class="a" transform="translate(191 192)"><g class="c" transform="matrix(1, 0, 0, 1, -27, -24)"><path class="b" d="M0,20A20,20,0,1,1,20,40,20,20,0,0,1,0,20Z" transform="translate(27 24)"/></g></g><path class="b" d="M19.946,1a3.009,3.009,0,0,0-2.985,3.04,2.986,2.986,0,1,0,5.97,0A3.009,3.009,0,0,0,19.946,1Zm0,1.216A1.8,1.8,0,0,1,21.737,4.04a1.791,1.791,0,1,1-3.582,0A1.8,1.8,0,0,1,19.946,2.216ZM10.592,7.892a1.622,1.622,0,0,0,0,3.243h6.368V24.716a1.791,1.791,0,1,0,3.582,0V22.385a1.736,1.736,0,0,0,1.512-.162l3.98-2.432a1.845,1.845,0,0,0,.06-3.1l-3.184-2.108V11.135H29.3a1.622,1.622,0,0,0,0-3.243Zm0,1.216H29.3a.405.405,0,0,1,0,.811H22.334a.592.592,0,0,0-.6.608l-.02,4.4a.58.58,0,0,0,.279.507l3.463,2.291a.614.614,0,0,1,.279.527.6.6,0,0,1-.3.507l-3.98,2.432a.554.554,0,0,1-.3.081.575.575,0,0,1-.517-.3.6.6,0,0,1,.2-.831L23.19,18.7a.607.607,0,0,0,.02-1.034l-2.926-1.926a.61.61,0,0,0-.617-.02.585.585,0,0,0-.318.527V24.7a.6.6,0,1,1-1.194,0V10.527a.592.592,0,0,0-.6-.608H10.592a.405.405,0,0,1,0-.811Zm9.951,8.25,1.194.791-1.194.75V17.358Z" transform="translate(191 198)"/></g></svg>
