<svg xmlns="http://www.w3.org/2000/svg" width="32" height="32" viewBox="0 0 32 32">
    <defs>
        <linearGradient id="ymg41pybda" x1="17.531%" x2="87.773%" y1="50%" y2="50%">
            <stop offset="0%" stop-color="#3C80F7"/>
            <stop offset="100%" stop-color="#1058D1"/>
        </linearGradient>
    </defs>
    <g fill="none" fill-rule="evenodd">
        <g fill-rule="nonzero">
            <g transform="translate(-279 -300) translate(279 300)">
                <circle cx="16" cy="16" r="16" fill="url(#ymg41pybda)"/>
                <path fill="#FFF" d="M20.573 8h-9.146c-.236 0-.427.21-.427.469V23.53c0 .19.104.36.264.433.052.024.108.036.163.036.111 0 .22-.048.302-.137L16 19.173l4.271 4.69c.122.134.306.174.465.101.16-.072.264-.243.264-.433V8.47c0-.26-.191-.469-.427-.469z"/>
            </g>
        </g>
    </g>
</svg>
