<svg xmlns="http://www.w3.org/2000/svg" width="24" height="24" viewBox="0 0 24 24"><defs><style>.a{fill:#2dd681;}.b{fill:#fff;}</style></defs><g transform="translate(-147 -241)"><rect class="a" width="24" height="24" rx="12" transform="translate(147 241)"/><path class="b" d="M4.477,9.046a.419.419,0,0,1-.323.138.359.359,0,0,1-.323-.138L.231,5.169.138,5.077a.446.446,0,0,1,0-.646l.646-.646a.446.446,0,0,1,.646,0l.046.046L4.015,6.554a.223.223,0,0,0,.323,0L10.523.138h.046a.446.446,0,0,1,.646,0l.646.646a.394.394,0,0,1,0,.6Z" transform="translate(153 248.2)"/></g></svg>