<svg width="8" height="8" viewBox="0 0 8 8" fill="none" xmlns="http://www.w3.org/2000/svg">
<path d="M2.95322 4.43953L3.80399 5.2903C3.94906 5.435 3.94906 5.67023 3.80399 5.81494C3.65929 5.96001 3.42406 5.96001 3.27935 5.81494L1.79523 4.33081C1.65016 4.18611 1.65016 3.95088 1.79523 3.80618L3.27935 2.32206C3.42406 2.17699 3.65929 2.17699 3.80399 2.32206C3.94906 2.46676 3.94906 2.70199 3.80399 2.84669L2.95322 3.69747H5.76785C5.97266 3.69747 6.13888 3.86369 6.13888 4.0685C6.13888 4.27331 5.97266 4.43953 5.76785 4.43953H2.95322ZM0.732231 5.9793C0.626859 5.8038 0.683627 5.57599 0.859124 5.47025C1.03499 5.36488 1.2628 5.42164 1.36855 5.59714C2.21264 7.0026 4.03626 7.45711 5.44135 6.61265C6.84681 5.76856 7.30132 3.94494 6.45686 2.53985C5.61276 1.13439 3.78915 0.679879 2.38406 1.52434C1.9622 1.77739 1.61788 2.12393 1.37003 2.53577C1.26466 2.71127 1.03648 2.76804 0.860979 2.66229C0.685482 2.55655 0.628714 2.32874 0.734087 2.15324C1.0439 1.63788 1.4754 1.20452 2.0019 0.888027C3.75835 -0.167182 6.03759 0.401236 7.09317 2.15769C8.14838 3.91415 7.57997 6.19339 5.82351 7.24897C4.06705 8.30418 1.78781 7.73576 0.732231 5.9793Z" fill="#FF5858"/>
</svg>
