<svg xmlns="http://www.w3.org/2000/svg" xmlns:xlink="http://www.w3.org/1999/xlink" width="64" height="64" viewBox="22 18 56 56"><defs><style>.a{opacity:0.2;}.b{fill:#fba924;}.c{filter:url(#a);}</style><filter id="a" x="0" y="0" width="94" height="94" filterUnits="userSpaceOnUse"><feOffset dy="3" input="SourceAlpha"/><feGaussianBlur stdDeviation="9" result="b"/><feFlood flood-opacity="0.059"/><feComposite operator="in" in2="b"/><feComposite in="SourceGraphic"/></filter></defs><g transform="translate(-7 -311)"><g class="a" transform="translate(34 335)"><g class="c" transform="matrix(1, 0, 0, 1, -27, -24)"><path class="b" d="M0,20A20,20,0,1,1,20,40,20,20,0,0,1,0,20Z" transform="translate(27 24)"/></g></g><path class="b" d="M15.977,2.984a.593.593,0,0,0-.581.6V4.765a.591.591,0,1,0,1.181,0V3.584a.591.591,0,0,0-.6-.6ZM6.533,5.942A.589.589,0,0,0,6.12,6.954L7.3,8.135A.591.591,0,1,0,8.136,7.3L6.955,6.119A.582.582,0,0,0,6.533,5.942Zm18.89,0a.574.574,0,0,0-.406.178L23.835,7.3a.591.591,0,1,0,.835.835l1.181-1.181a.589.589,0,0,0,.131-.653A.582.582,0,0,0,25.423,5.942ZM14.214,7.127a2.264,2.264,0,0,0-1.949,1.262,2.254,2.254,0,0,0-.413-.081A2.37,2.37,0,0,0,9.49,10.67c0,.042.018.076.021.118a2.336,2.336,0,0,0-1.792,2.244,2.287,2.287,0,0,0,.371,1.19,2.253,2.253,0,0,0-.962,1.762,2.253,2.253,0,0,0,.962,1.762,2.287,2.287,0,0,0-.371,1.19,2.336,2.336,0,0,0,1.792,2.244c0,.042-.021.076-.021.118a2.37,2.37,0,0,0,2.362,2.362,2.255,2.255,0,0,0,.413-.081,2.264,2.264,0,0,0,1.949,1.262,2.363,2.363,0,0,0,1.772-.814,2.334,2.334,0,0,0,1.76.814,2.264,2.264,0,0,0,1.949-1.262,2.255,2.255,0,0,0,.413.081A2.37,2.37,0,0,0,22.47,21.3a1.173,1.173,0,0,0-.023-.118,2.336,2.336,0,0,0,1.795-2.244,2.287,2.287,0,0,0-.371-1.19,2.253,2.253,0,0,0,.962-1.762,2.253,2.253,0,0,0-.962-1.762,2.287,2.287,0,0,0,.371-1.19,2.336,2.336,0,0,0-1.792-2.244c0-.042.021-.076.021-.118a2.37,2.37,0,0,0-2.362-2.362,2.254,2.254,0,0,0-.413.081,2.264,2.264,0,0,0-1.949-1.262,2.334,2.334,0,0,0-1.76.814A2.363,2.363,0,0,0,14.214,7.127Zm0,1.181a1.181,1.181,0,0,1,1.181,1.1v4.214a2.37,2.37,0,0,0-2.362,2.362.591.591,0,1,0,1.181,0A1.172,1.172,0,0,1,15.4,14.8v7.757a1.181,1.181,0,0,1-1.181,1.1,1.168,1.168,0,0,1-1.133-.874.58.58,0,0,0-.307-.374.586.586,0,0,0-.482-.021A1.176,1.176,0,0,1,10.671,21.3a.571.571,0,0,1,.007-.062,2.283,2.283,0,0,0,.611-.2,2.284,2.284,0,0,0,1.153-2.1.591.591,0,1,0-1.181,0c0,.747-.247.916-.505,1.045a1.261,1.261,0,0,1-.531.127,0,0,0,0,0-.007,0,.2.2,0,0,0-.053,0,.01.01,0,0,0-.012,0c-.035,0-.007,0-.025,0a.208.208,0,0,0-.037.007h-.012a1.177,1.177,0,0,1-.8-2.044.589.589,0,0,0-.2-.987,1.172,1.172,0,0,1,0-2.205.589.589,0,0,0,.2-.987,1.175,1.175,0,0,1,.554-2.016,2.624,2.624,0,0,0,.258.364,2.326,2.326,0,0,0,1.76.789.591.591,0,1,0,0-1.181,1.032,1.032,0,0,1-.867-.381,1.169,1.169,0,0,1-.228-.376c0-.009-.007-.016-.009-.025s0,0,0-.009a1.131,1.131,0,0,1-.074-.39,1.176,1.176,0,0,1,1.622-1.093.586.586,0,0,0,.482-.021.58.58,0,0,0,.307-.374A1.168,1.168,0,0,1,14.214,8.308Zm3.532,0a1.168,1.168,0,0,1,1.133.874.58.58,0,0,0,.307.374.586.586,0,0,0,.482.021,1.168,1.168,0,0,1,1.55,1.479l-.007.014c0,.021-.012.039-.016.058a.082.082,0,0,0,0,.023.868.868,0,0,1-.18.334.991.991,0,0,1-.89.367.591.591,0,1,0,0,1.181,2.306,2.306,0,0,0,1.808-.8,2.164,2.164,0,0,0,.224-.344,1.172,1.172,0,0,1,.526,2.009.59.59,0,0,0,.2.987,1.171,1.171,0,0,1,.775,1.1,1.151,1.151,0,0,1-.514.96,2.283,2.283,0,0,0-.734-.3,1.989,1.989,0,0,0-.477-.044,2.456,2.456,0,0,0-1.626.729.591.591,0,1,0,.821.849c.464-.447.759-.441,1.029-.381a1.418,1.418,0,0,1,.519.268.032.032,0,0,1,.009.007s0,0,0,0a1.175,1.175,0,0,1-.8,2.041c.053,0,.03,0-.076-.009a.591.591,0,0,0-.593.791,1.146,1.146,0,0,1,.078.4,1.176,1.176,0,0,1-1.622,1.093.586.586,0,0,0-.482.021.58.58,0,0,0-.307.374,1.171,1.171,0,0,1-2.3-.226V18.938a1.172,1.172,0,0,1,1.181-1.181.591.591,0,1,0,0-1.181,2.32,2.32,0,0,0-1.181.332v-7.5A1.166,1.166,0,0,1,17.746,8.308ZM3.585,15.394a.591.591,0,1,0,0,1.181H5.356a.591.591,0,1,0,0-1.181Zm23.03,0a.591.591,0,1,0,0,1.181h1.772a.591.591,0,1,0,0-1.181ZM7.707,23.655a.585.585,0,0,0-.406.18L6.12,25.016a.591.591,0,1,0,.835.835L8.136,24.67a.592.592,0,0,0-.429-1.015Zm16.539,0a.6.6,0,0,0-.547.369.591.591,0,0,0,.136.646l1.181,1.181a.591.591,0,1,0,.835-.835l-1.181-1.181A.6.6,0,0,0,24.246,23.655Zm-8.27,2.95a.593.593,0,0,0-.581.6v1.181a.591.591,0,1,0,1.181,0V27.2a.591.591,0,0,0-.6-.6Z" transform="translate(38.014 339.016)"/></g></svg>
