<svg width="11" height="5" viewBox="0 0 11 5" fill="none" xmlns="http://www.w3.org/2000/svg">
<path d="M0.831177 3.30385V2.47051C0.831177 2.24967 0.87326 2.03676 0.957844 1.83259C1.04243 1.62842 1.16326 1.44842 1.31951 1.29217C1.47576 1.13592 1.65576 1.01508 1.85993 0.9305C2.0641 0.845916 2.27701 0.803833 2.49785 0.803833H9.16452C9.38536 0.803833 9.59827 0.845916 9.80244 0.9305C10.0066 1.01508 10.1866 1.13592 10.3429 1.29217C10.4991 1.44842 10.6199 1.62842 10.7045 1.83259C10.7891 2.03676 10.8312 2.24967 10.8312 2.47051V3.30385C10.8312 3.52468 10.7891 3.7376 10.7045 3.94176C10.6199 4.14593 10.4991 4.32593 10.3429 4.48218C10.1866 4.63844 10.0066 4.75927 9.80244 4.84385C9.59827 4.92844 9.38536 4.97052 9.16452 4.97052H2.49785C2.27701 4.97052 2.0641 4.92844 1.85993 4.84385C1.65576 4.75927 1.47576 4.63844 1.31951 4.48218C1.16326 4.32593 1.04243 4.14593 0.957844 3.94176C0.87326 3.7376 0.831177 3.52468 0.831177 3.30385Z" fill="white"/>
</svg>
