<svg width="1272" height="1272" xmlns="http://www.w3.org/2000/svg" xmlns:xlink="http://www.w3.org/1999/xlink" overflow="hidden"><defs><clipPath id="clip0"><rect x="55" y="558" width="1272" height="1272"/></clipPath></defs><g clip-path="url(#clip0)" transform="translate(-55 -558)"><path d="M691 558C339.739 558 55 842.739 55 1194 55 1545.26 339.739 1830 691 1830 1042.26 1830 1327 1545.26 1327 1194 1327 842.739 1042.26 558 691 558Z" fill="#E4E4F9" fill-rule="evenodd"/><path d="M149 1176.86C125.247 1176.86 106 1196.14 106 1219.93 106 1243.72 125.247 1263 149 1263 172.753 1263 192 1243.72 192 1219.93 192 1196.14 172.753 1176.86 149 1176.86ZM1198.2 884C1183.96 884 1172.4 895.577 1172.4 909.841 1172.4 924.105 1183.96 935.682 1198.2 935.682 1212.44 935.682 1224 924.105 1224 909.841 1224 895.577 1212.44 884 1198.2 884Z" fill="#FFFFFF" fill-rule="evenodd"/><path d="M691 775C460.696 775 274 961.472 274 1191.5 274 1421.53 460.696 1608 691 1608 921.304 1608 1108 1421.53 1108 1191.5 1108 961.472 921.304 775 691 775Z" fill="#FFFEF4" fill-rule="evenodd"/><path d="M691 1621C454.44 1621 262 1428.56 262 1192 262 955.44 454.44 763 691 763 927.561 763 1120 955.44 1120 1192 1120 1428.56 927.561 1621 691 1621ZM691 787.072C467.731 787.072 286.072 968.714 286.072 1192 286.072 1415.29 467.731 1596.93 691 1596.93 914.269 1596.93 1095.93 1415.29 1095.93 1192 1095.93 968.714 914.269 787.072 691 787.072Z" fill="#472B29" fill-rule="evenodd"/><path d="M690.491 842C497.494 841.966 341.017 998.418 341 1191.45 340.966 1384.48 497.391 1540.98 690.388 1541 690.422 1541 690.474 1541 690.509 1541 883.506 1541.03 1039.98 1384.58 1040 1191.55 1040.03 998.521 883.609 842.017 690.612 842 690.577 842 690.526 842 690.491 842Z" fill="#F1BC19" fill-rule="evenodd"/><path d="M690.483 893.527C874.798 893.527 1025.44 1036.21 1038.69 1217 1039.31 1208.46 1040 1199.93 1040 1191.24 1040 998.351 883.513 842 690.5 842 497.487 842 341 998.369 341 1191.24 341 1199.93 341.67 1208.46 342.307 1217 355.525 1036.19 506.167 893.527 690.483 893.527Z" fill="#FBCD59" fill-rule="evenodd" fill-opacity="0.788235"/><path d="M1024.42 1101C1020.75 1101 1017.36 1098.63 1016.23 1094.94 1014.7 1090 1013.07 1085.12 1011.36 1080.28 1004.67 1061.59 996.188 1043.3 986.16 1025.9 983.777 1021.79 985.183 1016.54 989.297 1014.17 993.376 1011.77 998.621 1013.18 1001 1017.31 1011.56 1035.59 1020.48 1054.85 1027.5 1074.48 1029.32 1079.58 1031.02 1084.7 1032.61 1089.86 1034.02 1094.41 1031.48 1099.2 1026.96 1100.59 1026.1 1100.88 1025.26 1101 1024.42 1101Z" fill="#472B29" fill-rule="evenodd"/><path d="M691.009 1550C493.042 1550 332 1389.62 332 1192.49 332 995.366 493.042 835 691.009 835 793.767 835 891.778 878.974 959.917 955.635 965.076 961.424 970.029 967.402 974.793 973.517 977.717 977.261 977.046 982.638 973.28 985.558 969.548 988.461 964.148 987.791 961.224 984.046 956.684 978.223 951.972 972.555 947.07 967.041 882.182 894.038 788.865 852.16 691.009 852.16 502.536 852.16 349.198 1004.83 349.198 1192.49 349.198 1380.15 502.536 1532.82 691.009 1532.82 879.482 1532.82 1032.82 1380.15 1032.82 1192.49 1032.82 1175.45 1031.55 1158.27 1029 1141.42 1028.3 1136.73 1031.51 1132.37 1036.22 1131.67 1040.92 1130.95 1045.29 1134.18 1045.99 1138.88 1048.66 1156.56 1050 1174.59 1050 1192.49 1050.02 1389.62 888.975 1550 691.009 1550Z" fill="#472B29" fill-rule="evenodd"/><path d="M605 1108C605 1146.11 581.943 1177 553.5 1177 525.057 1177 502 1146.11 502 1108 502 1069.89 525.057 1039 553.5 1039 581.943 1039 605 1069.89 605 1108Z" fill="#684933" fill-rule="evenodd"/><path d="M553.5 1051.94C574.443 1051.94 592.125 1077.61 592.125 1108 592.125 1138.39 574.443 1164.06 553.5 1164.06 532.556 1164.06 514.875 1138.39 514.875 1108 514.875 1077.61 532.556 1051.94 553.5 1051.94M553.5 1039C525.055 1039 502 1069.89 502 1108 502 1146.11 525.055 1177 553.5 1177 581.945 1177 605 1146.11 605 1108 605 1069.89 581.945 1039 553.5 1039L553.5 1039Z" fill="#472B29" fill-rule="evenodd"/><path d="M880 1108C880 1146.11 856.943 1177 828.5 1177 800.057 1177 777 1146.11 777 1108 777 1069.89 800.057 1039 828.5 1039 856.943 1039 880 1069.89 880 1108Z" fill="#684933" fill-rule="evenodd"/><path d="M828.5 1051.94C849.443 1051.94 867.125 1077.61 867.125 1108 867.125 1138.39 849.443 1164.06 828.5 1164.06 807.556 1164.06 789.875 1138.39 789.875 1108 789.875 1077.61 807.556 1051.94 828.5 1051.94M828.5 1039C800.055 1039 777 1069.89 777 1108 777 1146.11 800.055 1177 828.5 1177 856.945 1177 880 1146.11 880 1108 880 1069.89 856.945 1039 828.5 1039L828.5 1039Z" fill="#472B29" fill-rule="evenodd"/><path d="M690.5 1383C632.186 1383 578.001 1356.74 541.849 1310.93 538.907 1307.2 539.543 1301.8 543.277 1298.86 547.011 1295.92 552.432 1296.57 555.357 1300.29 588.239 1341.91 637.486 1365.8 690.5 1365.8 743.515 1365.8 792.761 1341.91 825.644 1300.27 828.604 1296.56 833.989 1295.9 837.723 1298.84 841.457 1301.78 842.094 1307.18 839.151 1310.92 803 1356.74 748.815 1383 690.5 1383Z" fill="#472B29" fill-rule="evenodd"/></g></svg>