<?xml version="1.0" encoding="UTF-8"?>
<svg width="219px" height="200px" viewBox="0 0 219 200" version="1.1" xmlns="http://www.w3.org/2000/svg" xmlns:xlink="http://www.w3.org/1999/xlink">
    <!-- Generator: Sketch 64 (93537) - https://sketch.com -->
    <title>4060172_Mesa de trabajo 1</title>
    <desc>Created with Sketch.</desc>
    <defs>
        <filter x="-19.4%" y="-21.7%" width="138.8%" height="143.3%" filterUnits="objectBoundingBox" id="filter-1">
            <feOffset dx="0" dy="10" in="SourceAlpha" result="shadowOffsetOuter1"></feOffset>
            <feGaussianBlur stdDeviation="5" in="shadowOffsetOuter1" result="shadowBlurOuter1"></feGaussianBlur>
            <feColorMatrix values="0 0 0 0 0   0 0 0 0 0   0 0 0 0 0  0 0 0 0.2 0" type="matrix" in="shadowBlurOuter1" result="shadowMatrixOuter1"></feColorMatrix>
            <feMerge>
                <feMergeNode in="shadowMatrixOuter1"></feMergeNode>
                <feMergeNode in="SourceGraphic"></feMergeNode>
            </feMerge>
        </filter>
    </defs>
    <g id="Page-1" stroke="none" stroke-width="1" fill="none" fill-rule="evenodd">
        <g id="#9@2x" transform="translate(-78.000000, -352.000000)">
            <g id="4060172_Mesa-de-trabajo-1" filter="url(#filter-1)" transform="translate(87.000000, 352.000000)">
                <g id="Background_Complete" opacity="0.5" transform="translate(0.000000, 5.763547)" fill-rule="nonzero">
                    <rect id="Rectangle" fill="#EBEBEB" x="24.9605911" y="19.817734" width="32.7635468" height="32.7546798"></rect>
                    <path d="M33.9605911,112.034483 L53.5123153,112.034483 C56.083296,112.034483 58.1674877,109.950291 58.1674877,107.37931 L58.1674877,70.8029557 C58.1674877,69.4729064 59.0985222,66.0591133 63.1773399,66.0591133 L38.6157635,66.0591133 C36.0447828,66.0591133 33.9605911,68.143305 33.9605911,70.7142857 L33.9605911,112.034483 Z" id="Path" fill="#DBDBDB"></path>
                    <rect id="Rectangle" fill="#C7C7C7" x="37.5073892" y="70.7586207" width="17.5566502" height="1"></rect>
                    <rect id="Rectangle" fill="#C7C7C7" x="37.5073892" y="73.0197044" width="17.5566502" height="1"></rect>
                    <rect id="Rectangle" fill="#C7C7C7" x="37.5073892" y="75.2807882" width="17.5566502" height="1"></rect>
                    <rect id="Rectangle" fill="#C7C7C7" x="37.5073892" y="77.5418719" width="17.5566502" height="1"></rect>
                    <rect id="Rectangle" fill="#C7C7C7" x="37.5073892" y="79.8029557" width="17.5566502" height="1"></rect>
                    <rect id="Rectangle" fill="#C7C7C7" x="37.5073892" y="82.0640394" width="17.5566502" height="1"></rect>
                    <rect id="Rectangle" fill="#C7C7C7" x="37.5073892" y="84.3251232" width="17.5566502" height="1"></rect>
                    <rect id="Rectangle" fill="#C7C7C7" x="37.5073892" y="86.5862069" width="17.5566502" height="1"></rect>
                    <rect id="Rectangle" fill="#C7C7C7" x="37.5073892" y="88.8916256" width="17.5566502" height="1"></rect>
                    <rect id="Rectangle" fill="#C7C7C7" x="37.5073892" y="91.1527094" width="17.5566502" height="1"></rect>
                    <rect id="Rectangle" fill="#C7C7C7" x="37.5073892" y="93.4137931" width="17.5566502" height="1"></rect>
                    <rect id="Rectangle" fill="#C7C7C7" x="37.5073892" y="95.6748768" width="17.5566502" height="1"></rect>
                    <rect id="Rectangle" fill="#C7C7C7" x="37.5073892" y="97.9359606" width="17.5566502" height="1"></rect>
                    <rect id="Rectangle" fill="#C7C7C7" x="37.5073892" y="100.197044" width="17.5566502" height="1"></rect>
                    <rect id="Rectangle" fill="#C7C7C7" x="37.5073892" y="102.458128" width="17.5566502" height="1"></rect>
                    <rect id="Rectangle" fill="#C7C7C7" x="37.5073892" y="104.719212" width="17.5566502" height="1"></rect>
                    <path d="M15.0738916,96.5615764 L15.0738916,140.763547 L29.8817734,140.763547 C29.8569876,143.317522 31.8946419,145.414525 34.4482759,145.463054 L35.1133005,145.463054 L36,145.285714 L36.6206897,145.019704 L36.9310345,144.8867 L37.0640394,144.79803 L37.4630542,144.487685 C37.4875397,144.487685 37.5073892,144.467835 37.5073892,144.44335 L37.773399,144.221675 L37.9064039,144.133005 C38.4484238,143.589926 38.844864,142.919027 39.0591133,142.182266 L39.1034483,142.182266 C39.1170783,142.060618 39.1468988,141.941337 39.1921182,141.827586 C39.1921182,141.694581 39.2364532,141.561576 39.2364532,141.384236 C39.2717161,141.332216 39.2874224,141.269391 39.2807882,141.206897 L39.2807882,96.6059113 C39.2807882,95.2758621 40.2118227,91.9064039 44.2906404,91.9064039 L19.729064,91.9064039 C18.4944356,91.9064039 17.3103742,92.3968582 16.4373601,93.2698724 C15.5643459,94.1428865 15.0738916,95.3269479 15.0738916,96.5615764 Z" id="Path" fill="#EBEBEB"></path>
                    <rect id="Rectangle" fill="#C7C7C7" x="18.3103448" y="94.8325123" width="17.5566502" height="1"></rect>
                    <rect id="Rectangle" fill="#C7C7C7" x="19.9507389" y="92.7487685" width="17.5566502" height="1"></rect>
                    <rect id="Rectangle" fill="#C7C7C7" x="18.3103448" y="97.0935961" width="17.5566502" height="1"></rect>
                    <rect id="Rectangle" fill="#C7C7C7" x="18.3103448" y="99.3546798" width="17.5566502" height="1"></rect>
                    <rect id="Rectangle" fill="#C7C7C7" x="18.3103448" y="101.660099" width="17.5566502" height="1"></rect>
                    <rect id="Rectangle" fill="#C7C7C7" x="18.3103448" y="103.921182" width="17.5566502" height="1"></rect>
                    <rect id="Rectangle" fill="#C7C7C7" x="18.3103448" y="106.182266" width="17.5566502" height="1"></rect>
                    <rect id="Rectangle" fill="#C7C7C7" x="18.3103448" y="108.44335" width="17.5566502" height="1"></rect>
                    <rect id="Rectangle" fill="#C7C7C7" x="18.3103448" y="110.704433" width="17.5566502" height="1"></rect>
                    <rect id="Rectangle" fill="#C7C7C7" x="18.3103448" y="112.965517" width="17.5566502" height="1"></rect>
                    <rect id="Rectangle" fill="#C7C7C7" x="18.3103448" y="115.226601" width="17.5566502" height="1"></rect>
                    <rect id="Rectangle" fill="#C7C7C7" x="18.3103448" y="117.487685" width="17.5566502" height="1"></rect>
                    <rect id="Rectangle" fill="#C7C7C7" x="18.3103448" y="119.748768" width="17.5566502" height="1"></rect>
                    <rect id="Rectangle" fill="#C7C7C7" x="18.3103448" y="122.054187" width="17.5566502" height="1"></rect>
                    <rect id="Rectangle" fill="#C7C7C7" x="18.3103448" y="124.315271" width="17.5566502" height="1"></rect>
                    <rect id="Rectangle" fill="#C7C7C7" x="18.3103448" y="126.576355" width="17.5566502" height="1"></rect>
                    <rect id="Rectangle" fill="#C7C7C7" x="18.3103448" y="128.837438" width="17.5566502" height="1"></rect>
                    <rect id="Rectangle" fill="#C7C7C7" x="18.3103448" y="131.098522" width="17.5566502" height="1"></rect>
                    <rect id="Rectangle" fill="#C7C7C7" x="18.3103448" y="133.359606" width="17.5566502" height="1"></rect>
                    <rect id="Rectangle" fill="#C7C7C7" x="27.08867" y="136.640394" width="8.77832512" height="1.86206897"></rect>
                    <path d="M53.3793103,112.034483 C53.3793103,112.078818 53.4236453,112.078818 53.4679803,112.078818 L53.3793103,112.078818 L53.3793103,112.034483 Z" id="Path" fill="#FFC727"></path>
                    <path d="M62.91133,66.0591133 C60.2913783,66.0591133 58.1674877,68.1830039 58.1674877,70.8029557 L58.1674877,79.6699507 L67.6108374,79.6699507 L67.6108374,70.8029557 C67.6109511,68.2002205 65.5139515,66.0834379 62.91133,66.0591133 L62.91133,66.0591133 Z" id="Path" fill="#A6A6A6"></path>
                    <path d="M39.2807338,96.6059113 L39.2807338,112.078818 L53.2906404,112.078818 C50.7298671,112.030493 48.679347,109.940539 48.679803,107.37931 L48.679803,96.6059113 C48.6917657,95.3558956 48.2004828,94.1535943 47.3165477,93.2696592 C46.4326126,92.3857241 45.2303113,91.8944412 43.9802956,91.9064039 C42.7344485,91.9101276 41.5400715,92.4038034 40.6551724,93.2807882 C39.7699191,94.1601703 39.2747611,95.3581332 39.2807338,96.6059113 Z" id="Path" fill="#A6A6A6"></path>
                    <path d="M8.20197037,140.763547 L8.20197037,140.763547 C8.20151451,143.324776 10.2520346,145.414729 12.8128079,145.463054 L34.4482759,145.463054 C31.8946419,145.414525 29.8569876,143.317522 29.8817734,140.763547 L8.20197037,140.763547 Z" id="Path" fill="#A6A6A6"></path>
                    <rect id="Rectangle" fill="#EBEBEB" transform="translate(188.445813, 62.115517) rotate(180.000000) translate(-188.445813, -62.115517) " x="182.571429" y="59.6349754" width="11.7487685" height="4.96108374"></rect>
                    <rect id="Rectangle" fill="#EBEBEB" transform="translate(194.963054, 55.819951) rotate(180.000000) translate(-194.963054, -55.819951) " x="189.08867" y="53.3394089" width="11.7487685" height="4.96108374"></rect>
                    <rect id="Rectangle" fill="#EBEBEB" transform="translate(181.884236, 55.819951) rotate(180.000000) translate(-181.884236, -55.819951) " x="176.009852" y="53.3394089" width="11.7487685" height="4.96108374"></rect>
                    <rect id="Rectangle" fill="#EBEBEB" transform="translate(12.834975, 126.046552) rotate(180.000000) translate(-12.834975, -126.046552) " x="6.96059113" y="123.56601" width="11.7487685" height="4.96108374"></rect>
                    <rect id="Rectangle" fill="#EBEBEB" transform="translate(6.273399, 119.795320) rotate(180.000000) translate(-6.273399, -119.795320) " x="0.399014778" y="117.314778" width="11.7487685" height="4.96108374"></rect>
                    <rect id="Rectangle" fill="#EBEBEB" transform="translate(194.963054, 126.090887) rotate(180.000000) translate(-194.963054, -126.090887) " x="189.08867" y="123.610345" width="11.7487685" height="4.96108374"></rect>
                    <rect id="Rectangle" fill="#EBEBEB" x="39.635468" y="0.310344828" width="11.7487685" height="4.96108374"></rect>
                    <rect id="Rectangle" fill="#EBEBEB" x="33.1182266" y="6.56157635" width="11.7487685" height="4.96108374"></rect>
                </g>
                <g id="Shadow" opacity="0.100000001" transform="translate(12.413793, 158.275862)" fill="#EBEBEB" fill-rule="nonzero">
                    <path d="M176.142857,9.39901478 C176.142857,14.408867 136.773399,18.4876847 88.226601,18.4876847 C39.679803,18.4876847 0.310344828,14.408867 0.310344828,9.39901478 C0.310344828,4.38916256 39.679803,0.354679803 88.226601,0.354679803 C136.773399,0.354679803 176.142857,4.43349754 176.142857,9.39901478 Z" id="Path"></path>
                </g>
                <g id="Floor" transform="translate(10.640394, 152.512315)" fill="#263238" fill-rule="nonzero">
                    <polygon id="Path" points="0 0.620689655 22.4778325 0.532019704 45 0.487684729 90 0.399014778 135 0.487684729 157.522167 0.532019704 180 0.620689655 157.522167 0.753694581 135 0.798029557 90 0.842364532 45 0.798029557 22.4778325 0.753694581"></polygon>
                </g>
                <g id="Device" transform="translate(55.418719, 0.000000)">
                    <path d="M82.6847291,0.399014778 L7.75862069,0.399014778 C5.7284208,0.410680814 3.78668623,1.23144968 2.36363162,2.67947015 C0.940577022,4.12749062 0.153699019,6.08320473 0.176822199,8.11330049 L0.176822199,162.44335 C0.153699019,164.473446 0.940577022,166.42916 2.36363162,167.87718 C3.78668623,169.325201 5.7284208,170.145969 7.75862069,170.157635 L82.6847291,170.157635 C84.714929,170.145969 86.6566635,169.325201 88.0797181,167.87718 C89.5027727,166.42916 90.2896507,164.473446 90.2665276,162.44335 L90.2665276,8.11330049 C90.2896507,6.08320473 89.5027727,4.12749062 88.0797181,2.67947015 C86.6566635,1.23144968 84.714929,0.410680814 82.6847291,0.399014778 Z M85.5221675,157.655172 C85.5221675,161.73399 82.5073892,165.014778 78.7389163,165.014778 L11.7044335,165.014778 C7.93596059,165.014778 4.87684729,161.73399 4.87684729,157.655172 L4.87684729,13.9655172 C4.87684729,5.71921182 7.93596059,5.32019704 11.7044335,5.32019704 L25.137931,5.32019704 C25.8916256,5.32019704 26.5566502,6.20689655 26.5566502,7.27093596 L26.5566502,7.75862069 C26.5566502,10.3300493 27.9753695,10.3300493 29.7044335,10.3300493 L60.7389163,10.3300493 C62.5123153,10.3300493 63.8866995,10.3300493 63.8866995,7.75862069 L63.8866995,7.27093596 C63.8866995,6.20689655 64.5073892,5.32019704 65.3054187,5.32019704 L78.7389163,5.32019704 C82.5073892,5.32019704 85.5221675,6.38423645 85.5221675,13.9655172 L85.5221675,157.655172 Z" id="Shape" fill="#37474F" fill-rule="nonzero"></path>
                    <path d="M85.5221675,13.9655172 L85.5221675,157.655172 C85.5221675,161.73399 82.5073892,165.014778 78.7389163,165.014778 L11.7044335,165.014778 C7.93596059,165.014778 4.87684729,161.73399 4.87684729,157.655172 L4.87684729,13.9655172 C4.87684729,5.71921182 7.93596059,5.32019704 11.7044335,5.32019704 L25.137931,5.32019704 C25.8916256,5.32019704 26.5566502,6.20689655 26.5566502,7.27093596 L26.5566502,7.75862069 C26.5566502,10.3300493 27.9753695,10.3300493 29.7044335,10.3300493 L60.7389163,10.3300493 C62.5123153,10.3300493 63.8866995,10.3300493 63.8866995,7.75862069 L63.8866995,7.27093596 C63.8866995,6.20689655 64.5073892,5.32019704 65.3054187,5.32019704 L78.7389163,5.32019704 C82.5073892,5.32019704 85.5221675,6.38423645 85.5221675,13.9655172 Z" id="Path" fill="#FFFFFF" fill-rule="nonzero"></path>
                    <path d="M85.5221675,13.9655172 L85.5221675,26.7783251 L4.87684729,26.7783251 L4.87684729,13.9655172 C4.87684729,5.71921182 7.93596059,5.32019704 11.7044335,5.32019704 L25.137931,5.32019704 C25.8916256,5.32019704 26.5566502,6.20689655 26.5566502,7.27093596 L26.5566502,7.75862069 C26.5566502,10.3300493 27.9753695,10.3300493 29.7044335,10.3300493 L60.7389163,10.3300493 C62.5123153,10.3300493 63.8866995,10.3300493 63.8866995,7.75862069 L63.8866995,7.27093596 C63.8866995,6.20689655 64.5073892,5.32019704 65.3054187,5.32019704 L78.7389163,5.32019704 C82.5073892,5.32019704 85.5221675,6.38423645 85.5221675,13.9655172 Z" id="Path" fill="#FFC727" fill-rule="nonzero"></path>
                    <g id="u5Zjqx" transform="translate(19.507389, 7.980296)" fill="#FFFFFF" fill-rule="nonzero">
                        <path d="M3.28078818,0.532019704 L3.19211823,0.665024631 C3.14778325,0.709359606 3.10344828,0.709359606 3.10344828,0.753694581 C2.78195573,0.410996231 2.33194884,0.218136134 1.86206897,0.221674877 C1.37891625,0.216456526 0.914553125,0.408606785 0.57635468,0.753694581 C0.57635468,0.709359606 0.532019704,0.709359606 0.532019704,0.665024631 L0.399014778,0.532019704 L0.399014778,0.532019704 L0.57635468,0.399014778 L0.931034483,0.133004926 L1.46305419,0 L2.08374384,0 C2.25489206,0.00270042767 2.42260681,0.0484408137 2.57142857,0.133004926 L2.8817734,0.266009852 L3.14778325,0.487684729 L3.28078818,0.57635468 L3.28078818,0.532019704 Z" id="Path"></path>
                        <path d="M1.01970443,1.15270936 L0.798029557,0.975369458 C1.01450745,0.728726441 1.31452624,0.570821812 1.64039409,0.532019704 C2.10109336,0.474464235 2.56176521,0.638989895 2.8817734,0.975369458 L2.7044335,1.15270936 C2.47656347,0.935301199 2.17682068,0.809093709 1.86206897,0.798029557 C1.54440316,0.795130148 1.23962285,0.923458699 1.01970443,1.15270936 L1.01970443,1.15270936 Z" id="Path"></path>
                        <path d="M2.48275862,1.37438424 L2.26108374,1.55172414 C2.15182951,1.44938627 2.0112427,1.38690324 1.86206897,1.37438424 C1.69964965,1.38686262 1.54493898,1.44874689 1.41871921,1.55172414 L1.19704433,1.37438424 C1.55681851,1.03096301 2.12298444,1.03096301 2.48275862,1.37438424 Z" id="Path"></path>
                        <path d="M2.03940887,1.77339901 C2.03940887,1.87134114 1.96001109,1.95073892 1.86206897,1.95073892 C1.8150355,1.95073892 1.7699284,1.93205494 1.73667072,1.89879726 C1.70341304,1.86553958 1.68472906,1.82043248 1.68472906,1.77339901 C1.68472906,1.64039409 1.72906404,1.55172414 1.86206897,1.55172414 C1.9669485,1.57310992 2.04156703,1.66638308 2.03940887,1.77339901 Z" id="Path"></path>
                    </g>
                    <path d="M10.1527094,8.91133005 C10.1527094,8.61750368 10.3909027,8.37931034 10.6847291,8.37931034 C10.9785554,8.37931034 11.2167488,8.61750368 11.2167488,8.91133005 C11.2167488,9.20515642 10.9785554,9.44334975 10.6847291,9.44334975 C10.3909027,9.44334975 10.1527094,9.20515642 10.1527094,8.91133005 Z" id="Path" fill="#FFFFFF" fill-rule="nonzero"></path>
                    <path d="M11.8374384,8.91133005 C11.8374384,8.61750368 12.0756318,8.37931034 12.3694581,8.37931034 C12.6632845,8.37931034 12.9014778,8.61750368 12.9014778,8.91133005 C12.9014778,9.20515642 12.6632845,9.44334975 12.3694581,9.44334975 C12.0756318,9.44334975 11.8374384,9.20515642 11.8374384,8.91133005 Z" id="Path" fill="#FFFFFF" fill-rule="nonzero"></path>
                    <path d="M13.5221675,8.91133005 C13.5221675,8.61750368 13.7603608,8.37931034 14.0541872,8.37931034 C14.3480136,8.37931034 14.5862069,8.61750368 14.5862069,8.91133005 C14.5862069,9.20515642 14.3480136,9.44334975 14.0541872,9.44334975 C13.7603608,9.44334975 13.5221675,9.20515642 13.5221675,8.91133005 Z" id="Path" fill="#FFFFFF" fill-rule="nonzero"></path>
                    <path d="M15.2068966,8.91133005 C15.2068966,8.61750368 15.4450899,8.37931034 15.7389163,8.37931034 C16.0327426,8.37931034 16.270936,8.61750368 16.270936,8.91133005 C16.270936,9.20515642 16.0327426,9.44334975 15.7389163,9.44334975 C15.4450899,9.44334975 15.2068966,9.20515642 15.2068966,8.91133005 Z" id="Path" fill="#FFFFFF" fill-rule="nonzero"></path>
                    <path d="M16.8916256,8.91133005 C16.8916256,8.61750368 17.129819,8.37931034 17.4236453,8.37931034 C17.7174717,8.37931034 17.955665,8.61750368 17.955665,8.91133005 C17.955665,9.20515642 17.7174717,9.44334975 17.4236453,9.44334975 C17.129819,9.44334975 16.8916256,9.20515642 16.8916256,8.91133005 L16.8916256,8.91133005 Z" id="Path" fill="#FFFFFF" fill-rule="nonzero"></path>
                    <path d="M79.4926108,10.1083744 L75.1477833,10.1083744 L75.1477833,8.06896552 L79.4926108,8.06896552 L79.4926108,10.1083744 Z M75.3694581,9.88669951 L79.270936,9.88669951 L79.270936,8.29064039 L75.3694581,8.29064039 L75.3694581,9.88669951 Z" id="Shape" fill="#FFFFFF" fill-rule="nonzero"></path>
                    <rect id="Rectangle" fill="#FFFFFF" fill-rule="nonzero" x="75.5024631" y="8.42364532" width="2.79310345" height="1.33004926"></rect>
                    <rect id="Rectangle" fill="#FFFFFF" fill-rule="nonzero" x="79.4926108" y="8.55665025" width="1" height="1.0773399"></rect>
                    <path d="M85.5221675,151.536946 L85.5221675,157.655172 C85.5221675,161.73399 82.5073892,165.014778 78.7389163,165.014778 L11.7044335,165.014778 C7.93596059,165.014778 4.87684729,161.73399 4.87684729,157.655172 L4.87684729,151.536946 L85.5221675,151.536946 Z" id="Path" fill="#FFC727" fill-rule="nonzero"></path>
                    <path d="M85.5665025,13.9655172 L85.5665025,157.655172 C85.5665025,161.73399 82.5073892,165.014778 78.7389163,165.014778 L11.7044335,165.014778 C7.93596059,165.014778 4.92118227,161.73399 4.92118227,157.655172 L4.92118227,13.9655172 C4.92118227,5.71921182 7.93596059,5.32019704 11.7044335,5.32019704 L25.137931,5.32019704 C25.8916256,5.32019704 26.5566502,6.20689655 26.5566502,7.27093596 L26.5566502,7.75862069 C26.5566502,10.3300493 27.9753695,10.3300493 29.7044335,10.3300493 L60.7389163,10.3300493 C62.5123153,10.3300493 63.8866995,10.3300493 63.8866995,7.75862069 L63.8866995,7.27093596 C63.8866995,6.20689655 64.5073892,5.32019704 65.3054187,5.32019704 L78.7389163,5.32019704 C82.5073892,5.32019704 85.5665025,6.38423645 85.5665025,13.9655172 Z" id="Path" fill="#263238" fill-rule="nonzero" opacity="0.3"></path>
                    <rect id="Rectangle" fill="#FFFFFF" fill-rule="nonzero" x="14" y="46" width="61.8029557" height="49.9034483"></rect>
                    <text id="Done" font-family="Poppins-Regular, Poppins" font-size="6" font-weight="normal" fill="#212121">
                        <tspan x="36" y="87">DONE</tspan>
                    </text>
                    <circle id="Oval" fill="#FFC727" fill-rule="nonzero" cx="44.5763547" cy="64.5763547" r="9.57635468"></circle>
                    <path d="M39,66.4039409 C39.5763547,66.8916256 40.0640394,67.4236453 40.5960591,67.955665 C41.1280788,68.4876847 41.6157635,69.0640394 42.1034483,69.5960591 L41.2167488,69.5960591 C42.5024631,67.6896552 43.8768473,65.8719212 45.2955665,64.0985222 C46.0049261,63.2118227 46.7586207,62.3251232 47.5123153,61.4827586 C48.2660099,60.6403941 49.0640394,59.7980296 49.9064039,59 C49.3743842,60.0197044 48.7980296,61.0394089 48.1773399,62.0147783 C47.5566502,62.9901478 46.9359606,63.9211823 46.270936,64.8522167 C44.9852217,66.7142857 43.5665025,68.5320197 42.1034483,70.2610837 L41.6157635,70.7931034 L41.2167488,70.2610837 C40.817734,69.6403941 40.4187192,69.0197044 40.0640394,68.3546798 C39.7093596,67.6896552 39.3103448,67.0689655 39,66.4039409 Z" id="Path" fill="#FFFFFF" fill-rule="nonzero"></path>
                </g>
                <g id="Character" transform="translate(82.463054, 43.881773)" fill-rule="nonzero">
                    <rect id="Rectangle" fill="#DD6A57" x="63.2216749" y="0.36453202" width="1" height="3.12118227"></rect>
                    <polygon id="Path" fill="#DD6A57" points="63.3103448 114.527094 63.2216749 114.527094 63.2216749 114.438424"></polygon>
                    <polygon id="Path" fill="#DBDBDB" points="55.0197044 82.0738916 53.955665 88.4137931 46.817734 126.896552 45.6650246 126.896552 50.8522167 88.4137931 51.6502463 82.0738916"></polygon>
                    <polygon id="Path" fill="#A6A6A6" points="51.6502463 82.0738916 55.0197044 82.0738916 53.955665 88.4137931 50.8522167 88.4137931"></polygon>
                    <polygon id="Path" fill="#DBDBDB" points="77.408867 126.896552 76.2561576 126.896552 69.1182266 88.4137931 68.0541872 82.0738916 71.4236453 82.0738916 72.2216749 88.4137931"></polygon>
                    <polygon id="Path" fill="#A6A6A6" points="71.4236453 82.0738916 72.2216749 88.4137931 69.1182266 88.4137931 68.0541872 82.0738916"></polygon>
                    <polygon id="Path" fill="#DBDBDB" points="98.7783251 126.896552 97.6256158 126.896552 90.4876847 88.4137931 89.4236453 82.0738916 92.8374384 82.0738916 93.591133 88.4137931"></polygon>
                    <polygon id="Path" fill="#A6A6A6" points="93.591133 88.4137931 90.4876847 88.4137931 89.4236453 82.0738916 92.8374384 82.0738916"></polygon>
                    <polygon id="Path" fill="#DBDBDB" points="96.9605911 85.044335 44.7339901 85.044335 44.7339901 79.546798 64.2857143 79.546798 70.8472906 41.3300493 94.9655172 41.3300493"></polygon>
                    <polygon id="Path" fill="#A6A6A6" points="96.9605911 85.044335 94.1231527 85.044335 92.2610837 41.3300493 94.9655172 41.3300493"></polygon>
                    <path d="M41.453202,135.630542 C42.4285714,135.719212 69.9605911,129.1133 70.8472906,128.226601 C70.9359606,128.137931 70.4039409,125.655172 69.6059113,122.241379 L69.6059113,122.152709 C69.0738916,119.980296 61.0492611,102.512315 61.0492611,102.512315 L43.226601,107.477833 L51.3399015,123.704433 C51.3399015,123.704433 47.9704433,126.142857 45.08867,128.448276 L45.08867,128.448276 C43.3152709,129.866995 41.8078818,131.152709 41.453202,131.551724 C40.6108374,132.660099 40.4334975,135.541872 41.453202,135.630542 Z" id="Path" fill="#F7A9A0"></path>
                    <path d="M41.453202,135.630542 C42.4285714,135.719212 69.9605911,129.1133 70.8472906,128.226601 C70.9359606,128.137931 70.4039409,125.655172 69.6059113,122.241379 L69.6059113,122.152709 C69.4285714,121.35468 68.1871921,118.428571 66.679803,115.059113 C63.7536946,115.857143 53.2463054,118.694581 49.4334975,119.891626 L51.3399015,123.704433 C51.3399015,123.704433 47.9704433,126.142857 45.08867,128.448276 L45.08867,128.448276 C43.3152709,129.866995 41.8078818,131.152709 41.453202,131.551724 C40.6108374,132.660099 40.4334975,135.541872 41.453202,135.630542 Z" id="Path" fill="#FFFFFF"></path>
                    <path d="M41.364532,135.763547 C42.3842365,135.852217 69.9162562,129.20197 70.8029557,128.270936 C71.6896552,127.339901 70.5369458,123.571429 69.0295567,118.960591 L51.2955665,123.261084 C51.2955665,123.261084 42.2068966,130.487685 41.364532,131.596059 C40.5221675,132.704433 40.3004926,135.674877 41.364532,135.763547 Z" id="Path" fill="#FFC727"></path>
                    <path d="M41.4975369,134.566502 C46.0640394,133.325123 64.6847291,128.802956 69.3399015,127.916256 C69.3842365,127.916256 69.3842365,127.960591 69.3399015,127.960591 C64.817734,129.29064 46.1527094,133.635468 41.4975369,134.610837 C41.408867,134.655172 41.364532,134.566502 41.4975369,134.566502 Z" id="Path" fill="#263238"></path>
                    <path d="M42.8719212,130.17734 C43.9094858,129.902944 45.0140581,130.063027 45.9310345,130.62069 C46.7342795,131.120523 47.3078383,131.917133 47.5270936,132.837438 L47.4827586,132.837438 C46.7100473,131.048471 44.8503223,129.983192 42.9162562,130.221675 L42.8719212,130.17734 Z" id="Path" fill="#263238"></path>
                    <path d="M49.9655172,124.103448 C51.7832512,123.615764 54.08867,123.748768 55.5960591,124.990148 C55.6113168,125.012936 55.6151711,125.041502 55.6064987,125.067519 C55.5978263,125.093536 55.5776033,125.114077 55.5517241,125.123153 C53.7276252,124.637859 51.8525346,124.369989 49.9655172,124.325123 C49.8325123,124.325123 49.8325123,124.147783 49.9655172,124.103448 Z" id="Path" fill="#263238"></path>
                    <path d="M48.635468,124.990148 C50.4975369,124.502463 52.8029557,124.635468 54.3103448,125.876847 C54.3546798,125.921182 54.3103448,126.009852 54.2216749,126.009852 C52.4046662,125.564591 50.5486175,125.29732 48.679803,125.211823 C48.6366931,125.195708 48.6049778,125.158452 48.5959519,125.113322 C48.586926,125.068192 48.6018723,125.021604 48.635468,124.990148 Z" id="Path" fill="#263238"></path>
                    <path d="M47.3497537,125.876847 C49.2118227,125.433498 51.5172414,125.566502 53.0246305,126.807882 C53.0689655,126.852217 53.0246305,126.940887 52.9359606,126.896552 C51.1216339,126.444228 49.2633163,126.191497 47.3940887,126.142857 C47.3206321,126.1551 47.2511591,126.105476 47.2389163,126.03202 C47.2266735,125.958563 47.2762971,125.88909 47.3497537,125.876847 Z" id="Path" fill="#263238"></path>
                    <path d="M46.0640394,126.807882 C47.9261084,126.320197 50.2315271,126.453202 51.7389163,127.694581 C51.7832512,127.738916 51.6945813,127.827586 51.6502463,127.827586 C49.8412785,127.342068 47.9808333,127.074164 46.1083744,127.029557 C46.0652645,127.013442 46.0335492,126.976186 46.0245233,126.931056 C46.0154974,126.885926 46.0304437,126.839338 46.0640394,126.807882 Z" id="Path" fill="#263238"></path>
                    <path d="M67.0788177,123.837438 C69.1625616,123.349754 69.9162562,126.541872 67.8768473,127.073892 C65.8374384,127.605911 64.9950739,124.325123 67.0788177,123.837438 Z" id="Path" fill="#263238"></path>
                    <path d="M47.5714286,122.330049 C48.8571429,123.349754 50.5862069,123.793103 52.137931,124.413793 C52.270936,124.458128 52.4039409,124.325123 52.4039409,124.147783 C52.4039409,123.970443 52.4926108,124.147783 52.4482759,124.103448 C51.9097735,122.450153 50.9466305,120.967218 49.6551724,119.802956 C48.8571429,119.137931 47.4827586,118.650246 46.773399,119.625616 C46.0640394,120.600985 46.773399,121.70936 47.5714286,122.330049 Z M47.0837438,120.82266 C46.817734,118.738916 48.9901478,119.847291 49.5221675,120.37931 C49.8815737,120.700968 50.2082869,121.057382 50.4975369,121.44335 C51.1625616,122.241379 51.6502463,123.083744 52.226601,123.926108 L49.9655172,123.039409 C49.0788177,122.640394 47.2610837,121.931034 47.0837438,120.82266 Z" id="Shape" fill="#263238"></path>
                    <path d="M58.7438424,121.35468 C58.3004926,120.157635 56.8817734,120.246305 55.9507389,120.64532 C54.3712961,121.416118 53.0135604,122.575533 52.0049261,124.014778 C52.0049261,124.059113 52.0049261,124.059113 52.0492611,124.103448 C52.0176617,124.175077 52.026188,124.258061 52.0716925,124.321768 C52.1171971,124.385474 52.1929308,124.420454 52.270936,124.413793 C53.91133,124.236453 55.6847291,124.325123 57.2364532,123.660099 C58.7881773,122.995074 59.1428571,122.463054 58.7438424,121.35468 Z M54.7093596,123.660099 L52.270936,123.926108 C53.0689655,123.261084 53.7783251,122.596059 54.6206897,122.019704 C55.0182937,121.742729 55.4329031,121.491001 55.862069,121.26601 C56.5270936,120.91133 58.9655172,120.46798 58.0788177,122.374384 C57.591133,123.394089 55.6403941,123.571429 54.7093596,123.660099 Z" id="Shape" fill="#263238"></path>
                    <path d="M49.6551724,122.241379 L68.7635468,116.522167 C68.7635468,116.522167 53.0246305,83.6699507 53.5123153,82.0295567 C54,80.3891626 77.453202,80.8325123 84.3694581,74.5812808 C91.2857143,68.3300493 85.9655172,55.5172414 85.9655172,55.5172414 L66.1034483,55.4285714 C66.1034483,55.4285714 66.4581281,59.5517241 65.7044335,60.2167488 C64.9507389,60.8817734 38.0394089,63.0541872 32.8522167,73.0295567 C28.1083744,82.0738916 49.6551724,122.241379 49.6551724,122.241379 Z" id="Path" fill="#455A64"></path>
                    <path d="M53.5123153,82.0295567 C53.4236453,82.2955665 53.7783251,83.4482759 54.4876847,85.2216749 L40.2118227,102.778325 C35.1133005,91.1625616 30.3251232,77.773399 32.8522167,73.0295567 C38.0394089,63.0541872 65.1724138,60.6600985 65.7044335,60.2167488 C66.2364532,59.773399 66.1034483,55.4285714 66.1034483,55.4285714 L78.6945813,55.4285714 L57.7684729,81.1871921 C55.2413793,81.4975369 53.6009852,81.7192118 53.5123153,82.0295567 Z" id="Path" fill="#263238"></path>
                    <path d="M49.1674877,118.206897 C49.6664986,117.96887 50.1858116,117.775982 50.7192118,117.630542 L52.4039409,117.054187 L55.6847291,116.078818 L62.3349754,114.261084 L66.1477833,113.330049 C66.1967543,113.317806 66.2463779,113.347581 66.2586207,113.396552 C66.2708635,113.445523 66.2410893,113.495146 66.1921182,113.507389 C64.0197044,114.261084 61.8472906,114.926108 59.6305419,115.591133 C57.4137931,116.256158 55.2413793,116.921182 53.0246305,117.497537 L51.2068966,117.940887 C50.5510899,118.116423 49.8846965,118.249701 49.2118227,118.339901 C49.1674877,118.339901 49.0788177,118.251232 49.1674877,118.206897 Z" id="Path" fill="#263238"></path>
                    <path d="M84.9014778,59.3300493 C84.8128079,58.6650246 84.7684729,58 84.679803,57.3349754 C84.679803,57.2982471 84.6500288,57.2684729 84.6133005,57.2684729 C84.5765722,57.2684729 84.546798,57.2982471 84.546798,57.3349754 C84.8128079,59.9950739 85.0788177,62.7438424 84.591133,65.4482759 C84.1442606,67.9215444 82.8982756,70.1798923 81.044335,71.8768473 C77.0985222,75.5566502 71.6009852,76.6206897 66.4581281,77.5073892 C63.5320197,77.9950739 60.5615764,78.3940887 57.591133,78.6600985 L53.2463054,79.0147783 L48.9014778,79.1921182 C48.4581281,79.2364532 48.0591133,79.4581281 48.1034483,79.9458128 C48.1823132,80.2697569 48.3014684,80.5825393 48.4581281,80.8768473 L48.9458128,81.9408867 L50.6748768,85.8423645 C51.8719212,88.546798 53.1133005,91.2512315 54.3546798,93.91133 C56.8374384,99.2315271 59.364532,104.507389 62.0246305,109.738916 C62.3793103,110.403941 62.6896552,111.068966 63.044335,111.689655 C63.3990148,112.310345 63.08867,111.73399 63.08867,111.689655 C60.5615764,106.369458 58.0344828,101.049261 55.5960591,95.729064 L51.9162562,87.7931034 L50.0985222,83.8029557 L49.2118227,81.8078818 C49.0788177,81.453202 48.9014778,81.1428571 48.7684729,80.7881773 C48.635468,80.4334975 48.1921182,79.8571429 48.5024631,79.591133 C48.8128079,79.3251232 49.1231527,79.5024631 49.3891626,79.4581281 L50.5418719,79.4581281 L52.7142857,79.3694581 L57.1477833,79.0591133 C60.0295567,78.7931034 62.91133,78.4384236 65.7931034,77.9507389 C70.8916256,77.1527094 76.4334975,76.2216749 80.5123153,72.8078818 C82.351696,71.3310268 83.7098544,69.3400901 84.4137931,67.08867 C85.2118227,64.5615764 85.1231527,61.9014778 84.9014778,59.3300493 Z" id="Path" fill="#263238"></path>
                    <path d="M0.532019704,110.448276 C1.24137931,111.157635 26.6453202,123.660099 27.8866995,123.527094 C28.0197044,123.527094 29.2167488,121.221675 30.7684729,118.118227 L30.7684729,118.029557 C31.7438424,116.034483 40.7881773,99.364532 40.7881773,99.364532 L25.0049261,91.3842365 L15.6945813,107.610837 C15.6945813,107.610837 11.5714286,107.344828 7.89162562,107.256158 C7.89162562,107.300493 7.89162562,107.256158 7.84729064,107.300493 C6.26629287,107.234093 4.68292889,107.248891 3.10344828,107.344828 C1.81773399,107.655172 -0.177339901,109.738916 0.532019704,110.448276 Z" id="Path" fill="#F7A9A0"></path>
                    <path d="M0.532019704,110.448276 C1.24137931,111.157635 26.6453202,123.660099 27.8866995,123.527094 C28.0197044,123.527094 29.2167488,121.221675 30.7684729,118.118227 L30.7684729,118.029557 C30.825305,117.887766 30.8997837,117.753704 30.9901478,117.630542 L31.1231527,117.320197 L31.3891626,116.876847 C32.0541872,115.546798 33.2068966,113.463054 34.4482759,111.157635 L18.3103448,103.044335 L15.6945813,107.610837 C15.6945813,107.610837 11.5714286,107.344828 7.89162562,107.256158 C7.89162562,107.300493 7.84729064,107.256158 7.84729064,107.300493 C6.26629287,107.234093 4.68292889,107.248891 3.10344828,107.344828 C1.81773399,107.655172 -0.177339901,109.738916 0.532019704,110.448276 Z" id="Path" fill="#FFFFFF"></path>
                    <path d="M0.399014778,110.492611 C1.10837438,111.246305 26.6009852,123.660099 27.8423645,123.527094 C28.3300493,123.482759 30.635468,119.758621 32.408867,115.236453 L16.0049261,107.211823 C16.0049261,107.211823 4.43349754,106.990148 3.0591133,107.300493 C1.68472906,107.610837 -0.354679803,109.783251 0.399014778,110.492611 Z" id="Path" fill="#FFC727"></path>
                    <path d="M1.24137931,109.650246 C5.54187192,111.64532 22.7881773,120.024631 26.91133,122.330049 C26.955665,122.330049 26.955665,122.374384 26.91133,122.330049 C22.5665025,120.46798 5.408867,111.955665 1.19704433,109.738916 C1.10837438,109.694581 1.15270936,109.605911 1.24137931,109.650246 Z" id="Path" fill="#263238"></path>
                    <path d="M5.14285714,107.167488 C6.11642457,107.615228 6.85663672,108.45199 7.18226601,109.472906 C7.47662282,110.378155 7.41316469,111.361755 7.00492611,112.221675 C6.99316774,112.221675 6.98189097,112.217004 6.97357655,112.208689 C6.96526213,112.200375 6.96059113,112.189098 6.96059113,112.17734 C7.50735797,110.292469 6.74983694,108.272413 5.09852217,107.211823 C5.05418719,107.211823 5.09852217,107.167488 5.14285714,107.167488 Z" id="Path" fill="#263238"></path>
                    <path d="M14.453202,106.990148 C16.137931,107.832512 17.8226601,109.384236 18.2216749,111.29064 C18.2216749,111.37931 18.1330049,111.37931 18.08867,111.334975 C16.9743686,109.837356 15.7118181,108.455977 14.320197,107.211823 C14.1871921,107.123153 14.320197,106.945813 14.453202,106.990148 Z" id="Path" fill="#263238"></path>
                    <path d="M12.8571429,106.857143 C14.5862069,107.699507 16.270936,109.251232 16.6699507,111.157635 C16.6699507,111.246305 16.5812808,111.246305 16.5369458,111.20197 C15.4198037,109.692962 14.1412975,108.310391 12.7241379,107.078818 C12.6804308,107.035721 12.6718915,106.968313 12.7034716,106.915679 C12.7350518,106.863045 12.7985486,106.838858 12.8571429,106.857143 L12.8571429,106.857143 Z" id="Path" fill="#263238"></path>
                    <path d="M11.3054187,106.724138 C13.0344828,107.566502 14.7192118,109.118227 15.0738916,111.024631 C15.1182266,111.1133 14.9852217,111.1133 14.9408867,111.068966 C13.8392741,109.560919 12.5755585,108.178266 11.1724138,106.945813 C11.1287066,106.902717 11.1201673,106.835308 11.1517475,106.782674 C11.1833277,106.73004 11.2468245,106.705853 11.3054187,106.724138 Z" id="Path" fill="#263238"></path>
                    <path d="M9.70935961,106.635468 C11.4384236,107.433498 13.1231527,108.985222 13.5221675,110.891626 C13.5221675,110.980296 13.4334975,111.024631 13.3891626,110.935961 C12.2720205,109.426952 10.9935142,108.044381 9.57635468,106.812808 C9.48768473,106.724138 9.62068966,106.546798 9.70935961,106.635468 Z" id="Path" fill="#263238"></path>
                    <path d="M27.7980296,117.719212 C29.7044335,118.694581 28.2857143,121.665025 26.3349754,120.689655 C24.3842365,119.714286 25.8916256,116.788177 27.7980296,117.719212 Z" id="Path" fill="#263238"></path>
                    <path d="M13.7438424,104.108374 C14.0541872,105.748768 15.1182266,107.167488 15.9162562,108.630542 C15.9581204,108.686361 16.0238223,108.719212 16.0935961,108.719212 C16.1633698,108.719212 16.2290717,108.686361 16.270936,108.630542 L16.3596059,108.630542 C16.9907696,106.99434 17.1892806,105.22301 16.9359606,103.487685 C16.7586207,102.46798 16.0492611,101.226601 14.8078818,101.536946 C13.5665025,101.847291 13.5221675,103.17734 13.7438424,104.108374 Z M14.320197,102.64532 C15.4285714,100.871921 16.4039409,103.133005 16.4926108,103.8867 C16.5516835,104.372034 16.5665228,104.861733 16.5369458,105.349754 C16.5143936,106.344713 16.4255266,107.337062 16.270936,108.320197 C15.9162562,107.610837 15.5172414,106.901478 15.1182266,106.192118 C14.7192118,105.482759 13.7438424,103.62069 14.320197,102.64532 Z" id="Shape" fill="#263238"></path>
                    <path d="M22.9655172,110.492611 C23.364532,109.295567 22.2118227,108.453202 21.2364532,108.187192 C19.5458916,107.749443 17.7680626,107.780096 16.0935961,108.275862 C16.0691105,108.275862 16.0492611,108.295712 16.0492611,108.320197 C15.9162562,108.408867 15.8719212,108.630542 16.0049261,108.719212 C17.3793103,109.650246 18.7093596,110.802956 20.3054187,111.334975 C21.2364532,111.600985 22.5665025,111.600985 22.9655172,110.492611 Z M18.3546798,109.694581 L16.3596059,108.364532 C17.3349754,108.364532 18.3546798,108.320197 19.3743842,108.408867 C19.8519468,108.421513 20.3271222,108.48091 20.7931034,108.586207 C21.546798,108.763547 23.6748768,109.960591 21.8128079,110.847291 C20.7931034,111.334975 19.1527094,110.226601 18.3546798,109.694581 Z" id="Shape" fill="#263238"></path>
                    <path d="M15.0738916,104.995074 L34.137931,114.482759 C34.137931,114.482759 48.9901478,84.2463054 50.6305419,82.2955665 C52.270936,80.3448276 81.1330049,83.4039409 87.8275862,74.9802956 C94.5221675,66.5566502 88.8029557,55.5615764 88.8029557,55.5615764 L67.2561576,55.5615764 C67.2561576,55.5615764 67.1674877,57.955665 68.408867,61.4581281 C68.408867,61.4581281 43.7586207,59.9950739 36.7536946,66.7783251 C31.4334975,71.9211823 15.0738916,104.995074 15.0738916,104.995074 Z" id="Path" fill="#455A64"></path>
                    <path d="M72.3546798,63.5862069 C71.2442016,62.8238354 70.0894627,62.1280312 68.8965517,61.5024631 C68.0781487,61.0605762 67.2164736,60.704021 66.3251232,60.4384236 C65.7044335,60.3054187 65.3940887,60.2610837 66.0147783,60.5270936 L67.6108374,61.2807882 L63.4876847,61.2807882 C61.8029557,61.2807882 60.1625616,61.4581281 58.4778325,61.546798 C58.4334975,61.546798 58.4334975,61.591133 58.4778325,61.591133 C60.1625616,61.546798 61.8472906,61.635468 63.4876847,61.635468 L67.2118227,61.635468 C67.5513606,61.6577012 67.8919892,61.6577012 68.2315271,61.635468 L68.7192118,61.8571429 C69.9162562,62.4334975 71.1576355,63.0098522 72.3103448,63.6748768 C72.3546798,63.6748768 72.3990148,63.6305419 72.3546798,63.5862069 Z" id="Path" fill="#263238"></path>
                    <path d="M66.7241379,54.7192118 C66.9458128,55.7389163 67.1231527,56.7586207 67.3891626,57.7783251 C67.6551724,58.7980296 67.6108374,58.7093596 67.7881773,59.1527094 C67.9655172,59.5960591 68.1428571,59.9950739 68.5418719,60.0837438 C68.9408867,60.1724138 69.2068966,59.773399 69.1625616,59.3300493 C69.1182266,58.8866995 69.0295567,58.3990148 68.9852217,57.955665 L68.7192118,56.3596059 L68.5862069,55.6059113 C68.5862069,55.5172414 68.5418719,55.0295567 68.5418719,54.8522167 C68.5418719,54.8767023 68.5220225,54.8965517 68.4975369,54.8965517 L68.4975369,54.8965517 C68.4857786,54.8965517 68.4745018,54.8918807 68.4661874,54.8835663 C68.457873,54.8752519 68.453202,54.8639751 68.453202,54.8522167 L68.453202,54.7635468 L68.4975369,54.7635468 C68.5862069,54.8522167 68.5862069,54.9852217 68.6305419,55.0738916 C68.6748768,55.1625616 68.7635468,55.5615764 68.8078818,55.8275862 C68.8522167,56.0935961 69.0738916,56.8029557 69.1625616,57.2906404 C69.2916092,57.7874913 69.3951924,58.2906099 69.4729064,58.7980296 C69.590711,59.1550732 69.621119,59.5351726 69.5615764,59.9064039 C69.4346006,60.2664372 69.1006996,60.5124695 68.7192118,60.5270936 L68.7192118,60.6157635 L68.8522167,60.9261084 C68.8965517,61.0147783 68.8965517,61.1477833 68.9408867,61.2364532 L68.9408867,61.591133 C68.9408867,61.679803 68.8522167,61.7241379 68.8078818,61.635468 C68.7635468,61.546798 68.7192118,61.546798 68.7192118,61.5024631 C68.7192118,61.4581281 68.6748768,61.3694581 68.6305419,61.3251232 C68.5862069,61.2807882 68.5862069,61.1034483 68.5418719,61.0147783 C68.4975369,60.9261084 68.4975369,60.7931034 68.4975369,60.7044335 L68.4975369,60.5270936 C68.2843092,60.494112 68.0846185,60.4019471 67.9211823,60.2610837 C67.6252864,60.0284129 67.4211466,59.6986486 67.3448276,59.3300493 C67.2118227,58.8866995 67.0788177,58.4433498 66.9901478,58.044335 C66.705105,56.9709477 66.5268981,55.8720053 66.4581281,54.7635468 C66.546798,54.6305419 66.7241379,54.5862069 66.7241379,54.7192118 Z" id="Path" fill="#263238"></path>
                    <path d="M77.1428571,57.6009852 C77.1871921,58.1330049 77.2315271,58.6206897 77.320197,59.1527094 C77.4267909,59.6326491 77.5600016,60.1062872 77.7192118,60.5714286 C77.8422552,61.0346144 78.0208934,61.4812099 78.2512315,61.9014778 C78.5179924,62.2927644 78.8475509,62.6373028 79.226601,62.9211823 C79.905446,63.5262763 80.6859327,64.0065758 81.5320197,64.3399015 L82.862069,64.7832512 L83.5270936,64.9162562 C83.7242908,64.9346452 83.9181343,64.9793783 84.1034483,65.0492611 C84.1921182,65.0935961 84.1477833,65.226601 84.1034483,65.270936 C83.7542522,65.3591393 83.388605,65.3591393 83.0394089,65.270936 L81.9310345,65.0492611 C81.193863,64.8242099 80.4923061,64.4958215 79.8472906,64.0738916 C79.1925008,63.6692026 78.6084147,63.1599993 78.1182266,62.5665025 C77.6706708,61.9304785 77.3679989,61.2040659 77.2315271,60.4384236 C77.0477345,59.5193905 76.9733256,58.581839 77.0098522,57.6453202 C77.0541872,57.5566502 77.0985222,57.5566502 77.1428571,57.6009852 Z" id="Path" fill="#263238"></path>
                    <path d="M18.9310345,101.492611 C19.4449514,101.687358 19.9481276,101.909348 20.4384236,102.157635 L22.0344828,102.91133 L25.137931,104.418719 L31.2118227,107.699507 C32.2758621,108.275862 34.5369458,109.517241 34.6256158,109.650246 C34.7142857,109.783251 34.5812808,109.827586 34.5369458,109.783251 C32.453202,108.852217 30.3694581,107.832512 28.3300493,106.812808 C26.2906404,105.793103 24.2512315,104.773399 22.2118227,103.665025 L20.5714286,102.689655 C19.979538,102.402564 19.4155469,102.061201 18.8866995,101.669951 C18.8377285,101.657708 18.8079543,101.608084 18.8201971,101.559113 C18.8324398,101.510142 18.8820634,101.480368 18.9310345,101.492611 L18.9310345,101.492611 Z" id="Path" fill="#263238"></path>
                    <path d="M88.8029557,60.5714286 C88.8029557,60.4827586 88.6256158,60.4827586 88.6256158,60.5714286 C88.6699507,65.226601 87.9605911,70.5024631 84.3694581,73.8275862 C80.7783251,77.1527094 74.7044335,77.9507389 69.5615764,77.9064039 C66.635468,77.9064039 63.7093596,77.817734 60.7389163,77.9064039 C57.7684729,77.9950739 54.7980296,78.1724138 51.8719212,78.5270936 C50.7202211,78.6236304 49.6456107,79.1451325 48.8571429,79.9901478 C48.0745838,80.8476103 47.404187,81.8010636 46.862069,82.8275862 C45.3546798,85.3103448 43.9359606,87.7931034 42.5172414,90.2758621 C39.7684729,95.2857143 37.2413793,100.384236 34.8916256,105.571429 C34.5812808,106.192118 34.3152709,106.857143 34.0049261,107.522167 C33.6945813,108.187192 34.0492611,107.566502 34.0935961,107.522167 C36.4433498,102.334975 39.0591133,97.1921182 41.7635468,92.182266 C43.137931,89.6551724 44.5566502,87.1724138 46.0197044,84.6896552 C46.729064,83.5369458 47.3940887,82.3399015 48.1477833,81.2315271 C48.9014778,80.1231527 49.6551724,79.3251232 50.8522167,78.9704433 C51.5613355,78.7804785 52.2906863,78.6762855 53.0246305,78.6600985 L55.2857143,78.4827586 C56.7487685,78.3497537 58.2118227,78.3054187 59.7192118,78.2167488 C62.6896552,78.1280788 65.6157635,78.1724138 68.5862069,78.2167488 C73.773399,78.3054187 79.4039409,78.1280788 83.6600985,74.8472906 C85.4926953,73.4195366 86.8774676,71.4962418 87.6502463,69.3054187 C88.4096591,67.0631475 88.7989873,64.7122043 88.8029557,62.3448276 L88.8029557,60.5714286 Z" id="Path" fill="#263238"></path>
                    <path d="M57.9458128,81.0541872 L54.7536946,81.1871921 C53.8759555,81.1523727 52.9972929,81.2268356 52.137931,81.408867 C51.3842365,81.5862069 50.7192118,81.6748768 50.0985222,82.6059113 C49.4778325,83.5369458 44.8226601,92.270936 42.9605911,96.0394089 C42.4729064,97.1034483 41.9408867,98.1231527 41.453202,99.1871921 C40.9655172,100.251232 40.4778325,101.403941 39.9901478,102.512315 C39.9458128,102.55665 39.9901478,102.55665 40.0344828,102.55665 C40.4778325,101.625616 41.0098522,100.738916 41.453202,99.8078818 C41.8965517,98.8768473 42.3842365,97.9901478 42.8275862,97.1034483 L45.6206897,91.5615764 C46.5517241,89.7438424 47.6600985,87.9261084 48.591133,86.1083744 C49.5221675,84.2906404 50.453202,82.5172414 51.2068966,82.2068966 C52.2430361,81.7906883 53.3324929,81.5220551 54.4433498,81.408867 L57.9458128,81.1428571 C57.9901478,81.1428571 57.9901478,81.0541872 57.9458128,81.0541872 Z" id="Path" fill="#263238"></path>
                    <path d="M64.1083744,18.408867 C60.3399015,22.1773399 61.8472906,27.1428571 60.3842365,30.0246305 C59.453202,31.7980296 56.2167488,33.8374384 55.729064,35.7881773 C54.8423645,39.0689655 57.635468,40 57.1477833,41.773399 C56.4827586,44.3004926 53.2019704,44.3448276 52.9359606,48.3793103 C52.6699507,52.4137931 57.3694581,56.3596059 67.9211823,56.7142857 C78.4729064,57.0689655 83.8817734,52.8128079 84.0147783,49.3990148 C84.1477833,45.9852217 80.5566502,45.0985222 80.1133005,42.5714286 C79.8472906,40.9753695 81.9310345,39.6896552 81.7980296,36.6748768 C81.6650246,33.6600985 78.6945813,32.9507389 78.0738916,30.4679803 C77.453202,27.9852217 78.3399015,21.6896552 74.3940887,18.8522167 C70.4482759,16.0147783 65.9704433,16.546798 64.1083744,18.408867 Z" id="Path" fill="#263238"></path>
                    <path d="M64.5960591,18.453202 C63.5230276,19.3449883 62.6856535,20.4868622 62.1576355,21.7783251 C61.6046166,23.1338594 61.203163,24.5463812 60.9605911,25.9901478 C60.8644239,26.8559117 60.6557681,27.7054387 60.3399015,28.5172414 C60.0306497,29.1993014 59.5943011,29.816208 59.0541872,30.3349754 C58.0344828,31.4433498 56.7487685,32.3300493 55.817734,33.5714286 C54.8866995,34.8128079 54.3103448,36.2315271 54.7980296,37.6945813 C55.2857143,39.1576355 55.6403941,39.1133005 56.0394089,39.8226601 C56.4384236,40.5320197 56.5714286,41.4187192 56.0394089,42.0394089 C55.5073892,42.6600985 54.7980296,42.8817734 54.2216749,43.3251232 C53.6805133,43.7923118 53.2034758,44.3289789 52.8029557,44.9211823 C52.030627,46.1326128 51.8052489,47.613669 52.182266,49 C53.0246305,52.2364532 56.2167488,53.8325123 59.1428571,54.8078818 L60.3399015,55.1625616 C60.4285714,55.2068966 60.4729064,55.1182266 60.3842365,55.0738916 C57.4581281,54.0098522 54.08867,52.8128079 52.7586207,49.7093596 C52.1274066,48.3604936 52.193593,46.7885679 52.9359606,45.4975369 C53.2633176,44.8533898 53.715424,44.2807217 54.2660099,43.8128079 C54.8423645,43.3251232 55.4630542,43.0147783 55.9950739,42.5714286 C56.5564116,42.1663455 56.8467043,41.4833039 56.7487685,40.7980296 C56.6148566,40.0641007 56.2942178,39.3770176 55.817734,38.8029557 C55.3382479,38.1724376 55.0462865,37.4194846 54.9753695,36.6305419 C55.0082815,35.868826 55.2540292,35.131583 55.6847291,34.5024631 C56.4384236,33.1724138 57.679803,32.2857143 58.7881773,31.2216749 C59.9201957,30.2720527 60.7136018,28.9808231 61.0492611,27.5418719 C61.226601,26.7438424 61.3152709,25.9901478 61.4482759,25.2364532 C61.5534738,24.5188844 61.7015217,23.8082544 61.8916256,23.1083744 C62.2513604,21.7086095 62.9176679,20.4062812 63.8423645,19.2955665 C64.0754413,19.0116076 64.3435906,18.7583555 64.6403941,18.5418719 C64.6847291,18.4975369 64.6403941,18.453202 64.5960591,18.453202 Z" id="Path" fill="#263238"></path>
                    <path d="M84.2807882,46.8719212 C84.1251816,46.322134 83.8357695,45.8194709 83.4384236,45.408867 C83.031481,44.9872348 82.6022977,44.5876503 82.1527094,44.2118227 C81.7035427,43.8557325 81.3651977,43.3789736 81.1773399,42.8374384 C81.0620271,42.1851611 81.1714392,41.5130582 81.4876847,40.9310345 C81.8173202,40.3395866 82.0847592,39.7155622 82.2857143,39.0689655 C82.4611316,38.4184117 82.5505626,37.7476796 82.5517241,37.0738916 C82.5074251,35.6897662 82.0263399,34.3551426 81.1773399,33.2610837 C80.7783251,32.729064 80.3349754,32.1970443 79.9359606,31.6206897 C79.4868487,31.0265857 79.1282728,30.3691966 78.8719212,29.6699507 C78.2512315,28.1182266 78.0295567,26.4778325 77.5418719,24.9261084 C77.0027389,23.32354 76.3046839,21.7789078 75.4581281,20.3152709 C75.4581281,20.270936 75.4137931,20.3152709 75.4137931,20.3596059 C76.1724843,21.677007 76.7821507,23.0747786 77.2315271,24.5270936 C77.6748768,25.9014778 77.8965517,27.320197 78.2512315,28.6945813 C78.5724102,30.0256293 79.160662,31.27755 79.9802956,32.3743842 C80.7783251,33.4827586 81.6206897,34.546798 81.8866995,35.8768473 C82.1964688,37.2107251 82.0722071,38.608669 81.5320197,39.8669951 C81.044335,40.9310345 80.3793103,42.1280788 80.955665,43.3251232 C81.5320197,44.5221675 82.4630542,44.8768473 83.1724138,45.6748768 C83.9451349,46.5647211 84.3001407,47.7426949 84.1477833,48.91133 C83.7931034,51.8817734 81,53.5665025 78.2512315,53.9211823 C78.2145032,53.9211823 78.1847291,53.9509564 78.1847291,53.9876847 C78.1847291,54.024413 78.2145032,54.0541872 78.2512315,54.0541872 C80.6453202,53.8325123 83.1724138,52.591133 84.1034483,50.2857143 C84.557267,49.2029196 84.6199688,47.9959106 84.2807882,46.8719212 Z" id="Path" fill="#263238"></path>
                    <path d="M48.8128079,23.1083744 L53.4679803,35.6995074 C53.6453202,36.0985222 53.4679803,36.408867 53.1133005,36.453202 L46.4187192,37.1625616 C45.9967718,37.1804021 45.6013535,36.9569048 45.3990148,36.5862069 L40.7881773,23.9507389 C40.6108374,23.5517241 40.7438424,23.2413793 41.1428571,23.1970443 L47.7931034,22.4876847 C48.2279822,22.4664677 48.6319101,22.7123369 48.8128079,23.1083744 Z" id="Path" fill="#37474F"></path>
                    <path d="M48.0147783,23.1527094 L52.6699507,35.7881773 C52.7637312,35.9301343 52.7767516,36.1107037 52.7043079,36.2646468 C52.6318641,36.4185898 52.4844293,36.5236509 52.3152709,36.5418719 L45.6206897,37.2512315 C45.1888867,37.2606838 44.7909206,37.0184435 44.6009852,36.6305419 L39.9901478,24.0394089 C39.8128079,23.6403941 39.9458128,23.3300493 40.3448276,23.2857143 L47.0394089,22.5763547 C47.4482866,22.5650291 47.827461,22.7890866 48.0147783,23.1527094 L48.0147783,23.1527094 Z" id="Path" fill="#455A64"></path>
                    <path d="M46.2413793,23.9507389 C46.2631648,24.1044265 46.3460207,24.2428296 46.4711941,24.3346234 C46.5963674,24.4264172 46.7532751,24.4638406 46.9064039,24.4384236 C47.0564679,24.4280533 47.1951287,24.3546425 47.2880626,24.236363 C47.3809964,24.1180835 47.4195169,23.965991 47.3940887,23.817734 C47.3723031,23.6640465 47.2894473,23.5256433 47.1642739,23.4338495 C47.0391006,23.3420557 46.8821929,23.3046323 46.729064,23.3300493 C46.5790001,23.3404196 46.4403393,23.4138304 46.3474054,23.5321099 C46.2544716,23.6503894 46.2159511,23.8024819 46.2413793,23.9507389 Z" id="Path" fill="#263238"></path>
                    <path d="M72.4876847,40.4433498 C69.6059113,48.955665 62.3349754,60.3940887 58.7881773,60.8374384 C57.1477833,61.0591133 54.1773399,61.7684729 51.7832512,60.1280788 C46.5073892,56.4482759 41.5862069,48.91133 40.2561576,44.4334975 C39.7684729,42.7931034 47.3054187,38.3596059 48.635468,39.5566502 C51.7389163,42.3497537 55.6403941,48.1133005 56.1280788,48.0246305 C57.9014778,47.6699507 64.1527094,40.8866995 68.6748768,36.320197 C73.1970443,31.7536946 73.5960591,37.0738916 72.4876847,40.4433498 Z" id="Path" fill="#F7A9A0"></path>
                    <path d="M39.1034483,36.1428571 C39.546798,32.729064 40.2118227,31.9310345 39.0591133,28.8275862 C38.3054187,26.7881773 39.2807882,25.4581281 40.9655172,26.9655172 C43.6699507,29.4039409 44.0246305,33.9261084 43.6699507,35.5221675 L39.1034483,36.1428571 Z" id="Path" fill="#F7A9A0"></path>
                    <path d="M40.7881773,45.8078818 C40.7881773,45.8078818 38.7931034,41.3300493 38.9261084,37.6502463 C39.0147783,35.1231527 39.8128079,29.5812808 46.5073892,25.9458128 C48.1034483,25.1034483 50.9852217,24.9704433 48.9014778,27.320197 C46.817734,29.6699507 45.9753695,29.6256158 45.2660099,30.7339901 C45.2660099,30.7339901 48.9458128,31.044335 49.7438424,32.6847291 C50.4481448,34.10507 51.0554457,35.5714795 51.5615764,37.0738916 L50.7635468,37.4729064 C50.7635468,37.4729064 51.3399015,39.0689655 50.408867,41.4630542 L40.7881773,45.8078818 Z" id="Path" fill="#F7A9A0"></path>
                    <path d="M39.3694581,35.2561576 C40.3004926,34.2807882 42.2955665,32.2413793 44.4679803,31.1330049 C46.6403941,30.0246305 51.9162562,28.2068966 52.8029557,30.0246305 C53.6896552,31.8423645 51.6059113,32.1527094 51.6059113,32.1527094 C51.6059113,32.1527094 53.8226601,31.8866995 54.1330049,33.2167488 C54.4433498,34.546798 52.9802956,34.9458128 52.9802956,34.9458128 C52.9802956,34.9458128 54.3546798,35.0344828 54.3990148,36.2315271 C54.4433498,37.4285714 51.5615764,37.3399015 50.364532,38.8916256 C50.0985222,39.2019704 39.3694581,35.2561576 39.3694581,35.2561576 Z" id="Path" fill="#F7A9A0"></path>
                    <path d="M45.3103448,33.9261084 C47.160442,32.6979195 49.3413701,32.0637489 51.5615764,32.1083744 C51.6059113,32.1083744 51.6502463,32.1527094 51.5615764,32.1527094 C49.4316302,32.5046654 47.3490637,33.0996844 45.3546798,33.9261084 L45.3103448,33.9261084 Z" id="Path" fill="#263238"></path>
                    <path d="M46.6403941,36.320197 C48.5756662,35.2965393 50.7486796,34.8068462 52.9359606,34.9014778 C53.0246305,34.9014778 53.0246305,34.9458128 52.9802956,34.9458128 C50.8191339,35.1712938 48.6915358,35.6473997 46.6403941,36.364532 L46.6403941,36.320197 Z" id="Path" fill="#263238"></path>
                    <path d="M51.1625616,41.773399 L42.3842365,51.5714286 C42.3842365,51.5714286 49.6551724,60.4827586 53.91133,61.1921182 C58.1674877,61.9014778 59.364532,61.1921182 60.4729064,60.7931034 C61.5812808,60.3940887 68.7192118,52.1034483 72.3990148,40.7980296 C76.0788177,29.4926108 70.270936,34.1921182 66.2807882,38.4039409 C64.0197044,40.7980296 56.5714286,47.3596059 56.2610837,47.3152709 C55.9507389,47.270936 51.1625616,41.773399 51.1625616,41.773399 Z" id="Path" fill="#FFC727"></path>
                    <path d="M52.3596059,43.9458128 C50.9852217,45.453202 49.6551724,46.9605911 48.3251232,48.5123153 C47.7044335,49.2216749 45.2216749,52.3251232 44.5123153,53.2118227 C44.5123153,53.2561576 44.6009852,53.3004926 44.6009852,53.3004926 C45.3546798,52.5024631 47.9704433,49.4876847 48.591133,48.6896552 C49.8768473,47.137931 51.1625616,45.5862069 52.4039409,43.9901478 C52.4482759,43.9458128 52.4039409,43.9458128 52.3596059,43.9458128 Z" id="Path" fill="#263238"></path>
                    <path d="M65.6600985,60.2167488 C65.6600985,60.2167488 74.3497537,61.8128079 90.5320197,59.5960591 C90.5320197,59.5960591 83.1280788,39.6009852 77.7192118,34.4137931 C75.2807882,32.0197044 73.0197044,32.5073892 71.1576355,34.2364532 C70.7142857,34.635468 65.1280788,42.5270936 64.729064,45.1871921 C64.3300493,47.8472906 66.4581281,50.0640394 66.4581281,50.0640394 L65.6600985,60.2167488 Z" id="Path" fill="#FFC727"></path>
                    <path d="M65.7487685,43.1034483 C66.1034483,42.3054187 66.4581281,41.5517241 66.9014778,40.7536946 C67.3448276,39.955665 67.9211823,39.0689655 68.453202,38.226601 L68.453202,38.226601 C67.8534196,38.9142879 67.3190857,39.6564183 66.8571429,40.4433498 C66.9901478,40.044335 67.1674877,39.6453202 67.3448276,39.2463054 L67.3004926,39.2463054 C66.9896334,39.8162154 66.7228446,40.4090795 66.5024631,41.0197044 C66.1477833,41.6403941 65.8374384,42.2610837 65.5270936,42.8817734 C65.113411,43.693522 64.8149694,44.5590025 64.6403941,45.453202 C64.5574838,46.268314 64.6793971,47.0912285 64.9950739,47.8472906 C65.1720427,48.2975467 65.3948921,48.728389 65.6600985,49.1330049 C65.8869611,49.5018035 66.1546599,49.8438631 66.4581281,50.1527094 L66.4581281,50.1527094 C66.2768361,51.3872722 66.1584566,52.6302574 66.1034483,53.8768473 C66.1034483,53.9211823 66.1477833,53.9211823 66.1477833,53.8768473 C66.1477833,53.8325123 66.635468,50.1527094 66.635468,50.1527094 L66.635468,50.1527094 C66.635468,50.1083744 66.2364532,49.4876847 66.0591133,49.2216749 C65.8817734,48.955665 65.6600985,48.4679803 65.4827586,48.1133005 C65.068276,47.370954 64.883138,46.5224052 64.9507389,45.6748768 C65.0666209,44.7781599 65.3366037,43.9082153 65.7487685,43.1034483 Z" id="Path" fill="#263238"></path>
                    <path d="M76.2118227,38.0492611 C82.817734,41.3743842 92.5714286,44.5221675 95.2315271,42.6600985 C95.8965517,42.1724138 97.7142857,40.6206897 97.9359606,38.8916256 C98.7339901,32.5960591 95.8965517,20.7142857 95.7635468,18.8078818 C95.6305419,16.9014778 83.5714286,18.8078818 83.7931034,20.6256158 C84.0147783,22.4433498 87.3842365,33.3940887 87.0738916,33.3940887 C86.0541872,33.4827586 81.5320197,33.2610837 77.320197,32.9064039 C72.1330049,32.4187192 70.0049261,34.8571429 76.2118227,38.0492611 Z" id="Path" fill="#F7A9A0"></path>
                    <path d="M90.4433498,4.22167488 C89.6752717,4.22588715 88.9885919,4.70128089 88.7142857,5.41871921 C88.1830357,5.05077158 87.5406354,4.8784203 86.8965517,4.93103448 C85.7881773,5.06403941 85.5665025,6.8817734 85.5665025,6.8817734 C84.9501838,6.62258271 84.2687179,6.56063126 83.6157635,6.7044335 C82.5517241,6.92610837 82.0197044,8.74384236 82.0197044,8.74384236 C81.3231249,8.79766123 80.6731772,9.11470889 80.2019704,9.63054187 C78.9605911,11.0492611 79.8029557,13.7980296 80.3349754,15.5714286 C80.8669951,17.3448276 83.9704433,21.8226601 84.5024631,22.7093596 L95.7635468,19.4729064 C95.7635468,19.4729064 95.6748768,10.9605911 94.7881773,8.96551724 C93.9014778,6.97044335 91.862069,4.31034483 90.4433498,4.22167488 Z" id="Path" fill="#F7A9A0"></path>
                    <path d="M88.8916256,5.41871921 C90.1330049,7.01477833 90.8423645,8.87684729 91.6403941,10.6945813 L91.5960591,10.6945813 C90.7980296,8.87684729 89.6896552,7.2364532 88.8029557,5.46305419 C88.8029557,5.41871921 88.8472906,5.37438424 88.8916256,5.41871921 Z" id="Path" fill="#263238"></path>
                    <path d="M85.6995074,6.8817734 C85.9616885,7.25928319 86.1566745,7.67925304 86.2758621,8.12315271 L86.8078818,9.49753695 C87.1182266,10.3842365 87.4285714,11.3152709 87.6945813,12.2463054 C87.6945813,12.2906404 87.6502463,12.3349754 87.6059113,12.2906404 C87.2955665,11.3596059 86.9852217,10.4729064 86.6305419,9.54187192 C86.2758621,8.61083744 86.2315271,8.65517241 86.0541872,8.21182266 C85.8411586,7.80860355 85.6916163,7.37493087 85.6108374,6.92610837 C85.5665025,6.8817734 85.6551724,6.83743842 85.6995074,6.8817734 Z" id="Path" fill="#263238"></path>
                    <path d="M82.0640394,8.74384236 C82.2572004,9.10905195 82.4060383,9.49603056 82.5073892,9.89655172 C82.6403941,10.3399015 82.773399,10.7389163 82.9507389,11.182266 C83.1280788,11.6256158 83.4827586,12.8226601 83.7931034,13.6650246 L83.7487685,13.6650246 C83.4384236,12.8669951 83.0837438,12.0246305 82.773399,11.182266 L82.3300493,9.9408867 C82.1447401,9.58350494 82.0388743,9.19028891 82.0197044,8.78817734 C82.0197044,8.74384236 82.0197044,8.74384236 82.0640394,8.74384236 Z" id="Path" fill="#263238"></path>
                    <path d="M87.0295567,33.3054187 L83.1724138,24.0394089 L96.1182266,20.3152709 C96.1182266,20.3152709 99.2216749,36.7192118 97.9802956,39.4679803 C96.7389163,42.2167488 95.453202,42.9261084 94.6108374,43.2807882 C91.4630542,44.5221675 78.1625616,40.044335 73.9950739,37.0295567 C69.8275862,34.0147783 73.5517241,32.5517241 76.6108374,32.729064 L87.0295567,33.3054187 Z" id="Path" fill="#FFC727"></path>
                    <path d="M82.2857143,40.9310345 C81.5123225,40.5845987 80.711553,40.3028465 79.8916256,40.08867 L77.320197,39.5123153 C77.2758621,39.5123153 77.2758621,39.5566502 77.320197,39.6009852 C77.364532,39.6453202 78.3842365,39.8669951 78.9162562,40 L78.0295567,40 C77.9852217,40 77.9852217,40.044335 78.0295567,40.044335 L79.4926108,40.044335 L79.8029557,40.1330049 L82.2857143,40.8866995 C82.3300493,41.0197044 82.3300493,40.9310345 82.2857143,40.9310345 Z" id="Path" fill="#263238"></path>
                    <path d="M96.4285714,22.9753695 C94.4334975,23.4187192 92.4827586,23.9507389 90.5320197,24.4384236 L84.7241379,26.1674877 C84.7088803,26.190276 84.7050259,26.218842 84.7136983,26.2448592 C84.7223707,26.2708764 84.7425938,26.2914165 84.7684729,26.3004926 L90.6206897,24.7931034 C92.5714286,24.2167488 94.5221675,23.6847291 96.4285714,23.0640394 C96.4729064,23.0197044 96.4729064,22.9753695 96.4285714,22.9753695 Z" id="Path" fill="#263238"></path>
                    <path d="M74.6157635,34.0147783 C74.5714286,34.4581281 72.7093596,37.4729064 70.7142857,37.5615764 C70.0492611,37.5615764 69.7832512,34.0147783 69.7832512,34.0147783 L69.6945813,33.7487685 L68.5418719,30.1576355 L72.6206897,27.0098522 L73.2413793,26.5665025 C73.2413793,26.5665025 73.4630542,27.5862069 73.773399,28.8719212 C73.7724287,28.9338928 73.7877147,28.9950369 73.817734,29.0492611 L73.817734,29.226601 L73.9507389,29.8029557 C73.9950739,29.9359606 73.9950739,30.1133005 74.0394089,30.2463054 C74.0837438,30.3793103 74.0837438,30.5566502 74.1280788,30.6896552 C74.3840776,31.7823013 74.5472204,32.8946387 74.6157635,34.0147783 Z" id="Path" fill="#F7A9A0"></path>
                    <path d="M73.773399,28.8719212 C73.1995033,31.0194929 71.7068438,32.8041945 69.6945813,33.7487685 L68.5418719,30.1576355 L72.6206897,27.0098522 L73.2413793,26.5665025 C73.2413793,26.5665025 73.4630542,27.5862069 73.773399,28.8719212 Z" id="Path" fill="#263238"></path>
                    <path d="M62.7339901,24.6157635 C61.8916256,31.2216749 65.7487685,32.4630542 67.1674877,32.6403941 C68.5862069,32.817734 72.8423645,33.2167488 74.3940887,26.7438424 C75.9458128,20.270936 73.1083744,17.7881773 70.182266,17.2561576 C67.2561576,16.7241379 63.5763547,18.0541872 62.7339901,24.6157635 Z" id="Path" fill="#F7A9A0"></path>
                    <path d="M63.7980296,23.5960591 L64.2857143,23.5960591 C64.446051,23.6217032 64.6093209,23.5727222 64.729064,23.4630542 C64.8022812,23.3946041 64.8204585,23.2855405 64.773399,23.1970443 C64.6403941,22.9753695 64.4187192,22.9753695 64.1970443,22.9753695 C63.9806396,22.9972939 63.7777728,23.0909247 63.6206897,23.2413793 C63.5927937,23.311748 63.5961983,23.3906687 63.6300508,23.4583736 C63.6639032,23.5260785 63.724997,23.5761546 63.7980296,23.5960591 Z" id="Path" fill="#263238"></path>
                    <path d="M68.364532,24.0837438 L67.9211823,23.9507389 C67.7438424,23.862069 67.6108374,23.862069 67.4778325,23.6847291 C67.430773,23.5962329 67.4489503,23.4871693 67.5221675,23.4187192 C67.6840587,23.2869843 67.9045207,23.2530671 68.0985222,23.3300493 C68.3068537,23.3934455 68.4918948,23.5168062 68.6305419,23.6847291 C68.7635468,23.862069 68.5418719,24.1280788 68.364532,24.0837438 Z" id="Path" fill="#263238"></path>
                    <path d="M67.1231527,25.591133 C67.1231527,25.546798 67.1674877,25.591133 67.1674877,25.635468 C67.1674877,25.679803 67.0788177,26.6108374 67.4778325,26.7881773 L67.4334975,26.7881773 C66.9901478,26.6995074 66.9901478,25.9901478 67.1231527,25.591133 Z" id="Path" fill="#263238"></path>
                    <path d="M67.6108374,25.1477833 C68.320197,25.1921182 68.1871921,26.6551724 67.5221675,26.6108374 C66.8571429,26.5665025 66.9901478,25.1477833 67.6108374,25.1477833 Z" id="Path" fill="#263238"></path>
                    <path d="M67.8768473,25.2807882 C67.9750846,25.3933783 68.0959341,25.4840154 68.2315271,25.546798 C68.4206385,25.5575331 68.6029527,25.474663 68.7192118,25.3251232 L68.7192118,25.3251232 C68.7192118,25.591133 68.5862069,25.9014778 68.2758621,25.9014778 C67.9655172,25.9014778 67.8325123,25.635468 67.7881773,25.3694581 C67.7438424,25.1034483 67.8325123,25.2364532 67.8768473,25.2807882 Z" id="Path" fill="#263238"></path>
                    <path d="M64.6403941,25.2807882 L64.5960591,25.2807882 C64.5517241,25.7684729 64.4630542,26.2561576 64.0640394,26.3891626 L64.0640394,26.3891626 C64.5517241,26.3891626 64.6847291,25.679803 64.6403941,25.2807882 Z" id="Path" fill="#263238"></path>
                    <path d="M64.2857143,24.7487685 C63.5320197,24.6600985 63.3546798,26.0788177 64.0197044,26.2118227 C64.6847291,26.3448276 64.862069,24.8374384 64.2857143,24.7487685 Z" id="Path" fill="#263238"></path>
                    <path d="M63.9753695,24.8374384 C63.8423645,24.8817734 63.7093596,25.0147783 63.5763547,25.0147783 C63.4433498,25.0147783 63.3103448,24.8374384 63.2216749,24.6600985 L63.1773399,24.6600985 C63.1773399,24.9261084 63.2216749,25.2364532 63.4876847,25.3251232 C63.7536946,25.4137931 63.9310345,25.1921182 64.0197044,24.9261084 C64.1083744,24.6600985 64.0197044,24.7931034 63.9753695,24.8374384 Z" id="Path" fill="#263238"></path>
                    <path d="M66.8571429,29.270936 C66.7241379,29.4039409 66.635468,29.5369458 66.4581281,29.5369458 C66.2893893,29.5195652 66.1246422,29.4746342 65.9704433,29.4039409 L65.9704433,29.4039409 C66.0669244,29.6030137 66.2853161,29.7122096 66.5024631,29.6699507 C66.7241379,29.6699507 66.8128079,29.4926108 66.9014778,29.3152709 L66.8571429,29.270936 Z" id="Path" fill="#263238"></path>
                    <path d="M65.1724138,28.3842365 C65.3330883,28.6449352 65.5440918,28.8710103 65.7931034,29.0492611 C65.9557761,29.1393189 66.1392083,29.185177 66.3251232,29.182266 C66.679803,29.137931 66.7241379,28.8275862 66.7241379,28.5172414 C66.726683,28.3648125 66.6964438,28.2136164 66.635468,28.0738916 C66.1923313,28.328039 65.6805669,28.4365951 65.1724138,28.3842365 L65.1724138,28.3842365 Z" id="Path" fill="#263238"></path>
                    <path d="M65.7931034,29.0492611 C65.9557761,29.1393189 66.1392083,29.185177 66.3251232,29.182266 C66.679803,29.137931 66.7241379,28.8275862 66.7241379,28.5172414 C66.3295718,28.4655748 65.9489089,28.6830965 65.7931034,29.0492611 L65.7931034,29.0492611 Z" id="Path" fill="#FF9CBD"></path>
                    <path d="M65.1280788,27.453202 C65.0401762,27.772427 64.9808293,28.0988351 64.9507389,28.4285714 C64.9507389,28.4729064 64.9950739,28.5172414 65.1280788,28.5172414 L65.1280788,28.5172414 C65.6657377,28.6646841 66.2411686,28.5123642 66.635468,28.1182266 C66.679803,28.0738916 66.635468,28.0295567 66.591133,28.0738916 C66.1559202,28.3031452 65.6568168,28.3811301 65.1724138,28.2955665 C65.1724138,28.2068966 65.4827586,27.1871921 65.4384236,27.1871921 C65.198628,27.1756647 64.9586438,27.2056627 64.729064,27.2758621 C64.9950739,25.8571429 65.5270936,24.5270936 65.7931034,23.1527094 C65.8374384,23.1083744 65.7487685,23.0640394 65.7044335,23.1083744 C65.1338617,24.5298163 64.6888133,25.998476 64.3743842,27.4975369 C64.3300493,27.6748768 64.9950739,27.4975369 65.1280788,27.453202 Z" id="Path" fill="#263238"></path>
                    <path d="M63.044335,22.4876847 C63.8423645,22.7536946 66.7241379,21.1576355 67.9655172,18.6748768 C68.08669,20.1505499 68.7313906,21.5342975 69.7832512,22.5763547 C71.5123153,24.3497537 73.2413793,24.5270936 73.2413793,24.5270936 C73.2413793,24.5270936 73.6403941,27.5862069 74.1280788,27.6748768 C74.6157635,27.7635468 78.2512315,17.5665025 69.4729064,17.0788177 C69.4729064,17.0788177 66.9014778,16.679803 65.2167488,18.1428571 C63.5320197,19.6059113 63.044335,22.4876847 63.044335,22.4876847 Z" id="Path" fill="#263238"></path>
                    <path d="M74.0837438,29.182266 L73.4630542,29.182266 C73.3362632,29.1654331 73.2149701,29.1199482 73.1083744,29.0492611 C72.9753695,29.0049261 72.9310345,28.9162562 72.8423645,28.8275862 C72.73983,28.729876 72.6635882,28.6078892 72.6206897,28.4729064 L73.0640394,26.6995074 C73.0640394,26.6995074 74.5714286,24.7044335 75.5024631,25.2364532 C76.4334975,25.7684729 75.1921182,28.8275862 74.0837438,29.182266 Z" id="Path" fill="#F7A9A0"></path>
                    <path d="M75.1477833,26.1231527 L75.1477833,26.1231527 C74.3497537,26.3891626 73.9064039,27.0985222 73.5960591,27.8522167 C73.862069,27.5418719 74.1724138,27.408867 74.5270936,27.7192118 C74.8817734,28.0295567 74.5270936,27.7635468 74.5270936,27.7192118 C74.2407963,27.6566941 73.9421004,27.7396651 73.729064,27.9408867 L73.3300493,28.5615764 L73.2413793,28.5615764 C73.2413793,27.5418719 74.0837438,26.1674877 75.1477833,26.1231527 Z" id="Path" fill="#263238"></path>
                    <path d="M73.9950739,28.8719212 C73.9863087,28.953054 73.9407887,29.0256744 73.8715879,29.0689249 C73.8023871,29.1121754 73.7171634,29.1212698 73.6403941,29.0935961 C73.4630542,29.0935961 73.3743842,28.9162562 73.4187192,28.7389163 C73.4274844,28.6577835 73.4730044,28.5851631 73.5422052,28.5419126 C73.611406,28.4986621 73.6966297,28.4895677 73.773399,28.5172414 C73.9278258,28.5604431 74.023911,28.7141795 73.9950739,28.8719212 L73.9950739,28.8719212 Z" id="Path" fill="#FFFFFF"></path>
                    <path d="M74.6600985,28.4285714 C74.6157635,28.5615764 74.5270936,28.6502463 74.3940887,28.6059113 C74.3347053,28.5952654 74.2822262,28.5608758 74.2487611,28.5106782 C74.215296,28.4604805 74.203736,28.3988115 74.2167488,28.3399015 C74.2610837,28.2512315 74.3940887,28.1625616 74.4827586,28.2068966 C74.5714286,28.2512315 74.7044335,28.3399015 74.6600985,28.4285714 Z" id="Path" fill="#FFFFFF"></path>
                </g>
                <g id="Plant" transform="translate(20.837438, 109.064039)" fill-rule="nonzero">
                    <path d="M25.182266,44.2463054 C25.182266,44.2463054 30.2807882,30.0147783 33.8719212,25.3152709 C37.4630542,20.6157635 43.8472906,15.6059113 43.8472906,15.6059113 C43.8472906,15.6059113 42.1182266,37.9950739 25.182266,44.2463054 Z" id="Path" fill="#FFC727"></path>
                    <path d="M25.4926108,44.0246305 C27.016613,41.8492104 28.408292,39.5840307 29.6600985,37.2413793 C30.3371251,34.685613 31.1964698,32.1816604 32.2315271,29.7487685 C32.2758621,29.7044335 32.320197,29.7487685 32.320197,29.7931034 C31.6108374,32.0541872 30.8128079,34.270936 30.0591133,36.5320197 C31.9655172,33.0738916 33.7832512,29.6157635 35.955665,26.4236453 C36.532312,24.8419904 37.2754003,23.3260903 38.1724138,21.9014778 C38.2167488,21.8571429 38.2610837,21.9014778 38.2610837,21.9458128 C37.6771546,23.0307179 37.1733479,24.156874 36.7536946,25.3152709 C37.7778959,23.9047202 38.9040629,22.5711013 40.1231527,21.3251232 C40.2118227,21.2364532 40.3448276,21.3251232 40.2561576,21.4137931 C37.4187192,24.5615764 35.3349754,28.1970443 33.3399015,31.9211823 C35.3237432,30.0570275 37.1755035,28.0571263 38.8817734,25.9359606 C38.9261084,25.8916256 38.9261084,25.9359606 38.9261084,25.9359606 C37.1489012,28.3260971 35.1606186,30.5517866 32.9852217,32.5862069 C31.5221675,35.3349754 30.1034483,38.0394089 28.4187192,40.6108374 C31.5665025,38.3054187 34.0935961,35.2463054 36.5763547,32.2758621 C36.6206897,32.1871921 36.7536946,32.2758621 36.6650246,32.320197 C34.182266,35.6009852 31.6108374,38.7044335 28.1527094,41.0098522 C27.3990148,42.1182266 26.6009852,43.182266 25.7586207,44.2463054 C25.7252887,44.3108804 25.6559333,44.348585 25.5836146,44.3414461 C25.5112959,44.3343073 25.4506511,44.28377 25.4305883,44.2139242 C25.4105254,44.1440784 25.4351051,44.0690608 25.4926108,44.0246305 L25.4926108,44.0246305 Z" id="Path" fill="#263238"></path>
                    <path d="M24.3842365,44.2906404 C24.3842365,44.2906404 31.9655172,30.9901478 30.1034483,17.91133 C28.2413793,4.83251232 26.0689655,0.177339901 26.0689655,0.177339901 C26.0689655,0.177339901 14.1871921,20.2167488 24.3842365,44.2906404 Z" id="Path" fill="#FFC727"></path>
                    <path d="M21.8128079,23.0985222 C22.3694928,26.802443 23.2446583,30.451438 24.4285714,34.0049261 C24.5172414,29.2167488 24.7389163,24.4285714 24.9605911,19.6847291 C24.1870564,16.7616248 23.7848748,13.7527108 23.7635468,10.729064 C23.7635468,10.6923357 23.793321,10.6625616 23.8300493,10.6625616 C23.8667776,10.6625616 23.8965517,10.6923357 23.8965517,10.729064 C24.063695,13.3255221 24.4342902,15.9048648 25.0049261,18.4433498 C25.182266,14.4975369 25.4039409,10.5517241 25.6256158,6.60591133 L25.7586207,6.60591133 C25.6256158,12.7684729 25.4926108,18.9310345 25.3152709,25.0935961 C26.2485221,22.7294783 27.0043092,20.299104 27.5763547,17.8226601 L27.6206897,17.8226601 C27.2818487,20.6932887 26.4886943,23.4917768 25.270936,26.1133005 C25.182266,30.0591133 25.0492611,33.9605911 24.8719212,37.9064039 C26.2019704,33.7389163 27.6206897,29.7487685 28.0640394,25.3152709 C28.0640394,25.270936 28.1527094,25.270936 28.1527094,25.3152709 C27.9753695,30.1921182 26.6009852,35.1133005 24.8719212,39.679803 C24.8691218,39.7139686 24.853239,39.745734 24.8275862,39.7684729 C24.7389163,41.2315271 24.6945813,42.6502463 24.6059113,44.1133005 C24.6059113,44.2906404 24.2955665,44.2906404 24.2955665,44.0689655 C24.2955665,41.1428571 24.3399015,38.1724138 24.3842365,35.2463054 C22.8761861,31.3606148 21.9933197,27.2605231 21.7684729,23.0985222 C21.7684729,23.0541872 21.8128079,23.0541872 21.8128079,23.0985222 Z" id="Path" fill="#263238"></path>
                    <path d="M22.3448276,21.0147783 C22.5824891,22.1990058 22.7306909,23.39944 22.7881773,24.6059113 C22.7881773,24.6502463 22.7438424,24.6502463 22.7438424,24.6059113 C22.4584585,23.4423934 22.2803729,22.2551563 22.2118227,21.0591133 C22.2118227,20.9704433 22.3448276,20.9261084 22.3448276,21.0147783 Z" id="Path" fill="#263238"></path>
                    <path d="M26.8226601,11.3054187 C26.8226601,11.2610837 26.91133,11.2610837 26.91133,11.3054187 C26.8755828,12.1346576 26.7264129,12.9550917 26.4679803,13.7438424 C26.4679803,13.8325123 26.3793103,13.7881773 26.3793103,13.7438424 C26.5566502,12.9014778 26.6896552,12.1034483 26.8226601,11.3054187 Z" id="Path" fill="#263238"></path>
                    <path d="M22.2561576,43.6699507 C22.2561576,43.6699507 19.4630542,28.9950739 13.7438424,22.5665025 C8.02463054,16.137931 0.266009852,13.9655172 0.266009852,13.9655172 C0.266009852,13.9655172 8.51231527,39.1921182 22.2561576,43.6699507 Z" id="Path" fill="#FFC727"></path>
                    <path d="M11.9704433,32.7635468 C14.1982236,34.9635662 16.6001278,36.9799796 19.1527094,38.7931034 C17.6896552,35.955665 16.0935961,33.2512315 14.408867,30.546798 C11.6157635,28.9950739 8.8226601,27.3546798 6.78325123,24.8275862 C6.73891626,24.7832512 6.78325123,24.7389163 6.82758621,24.7832512 C8.91133005,26.955665 11.3940887,28.5073892 14.0098522,29.9704433 C11.3913604,25.9741179 8.53394376,22.1395536 5.45320197,18.4876847 C5.408867,18.3990148 5.54187192,18.2660099 5.63054187,18.3546798 C7.40394089,20.2167488 9.08866995,22.2118227 10.6847291,24.2512315 C9.97536946,22.7881773 9.31034483,21.2364532 8.60098522,19.773399 C8.55665025,19.729064 8.60098522,19.6847291 8.6453202,19.729064 C9.79802956,21.546798 10.9950739,23.5418719 11.6600985,25.5812808 C13.836664,28.5214118 15.7927409,31.6185337 17.5123153,34.8472906 C16.9359606,32.6748768 16.3152709,30.5024631 15.6502463,28.3743842 C15.6059113,28.3300493 15.6945813,28.2857143 15.6945813,28.3300493 C16.673268,30.6587375 17.4159016,33.0797232 17.91133,35.5566502 C18.9753695,37.6403941 19.9507389,39.7241379 20.8374384,41.8522167 C20.8374384,41.9408867 20.7487685,41.9852217 20.7487685,41.8965517 L19.4187192,39.2807882 L19.3743842,39.2807882 C16.5576941,37.540445 14.042216,35.3543747 11.9261084,32.8078818 C11.9261084,32.7635468 11.9261084,32.7635468 11.9704433,32.7635468 Z" id="Path" fill="#263238"></path>
                    <path d="M4.56650246,21.9014778 L6.25123153,23.1428571 C6.73891626,23.5418719 7.31527094,23.8522167 7.75862069,24.2955665 C8.20197044,24.7389163 7.75862069,24.3842365 7.71428571,24.3399015 C7.10883057,24.0599881 6.542476,23.7022905 6.02955665,23.2758621 C5.49598912,22.8690625 4.99223773,22.424576 4.52216749,21.9458128 C4.47783251,21.9014778 4.52216749,21.8571429 4.56650246,21.9014778 Z" id="Path" fill="#263238"></path>
                    <polygon id="Path" fill="#455A64" points="31.5221675 61.270936 16.8029557 61.270936 18.08867 46.2413793 18.3990148 42.8719212 29.9704433 42.8719212 30.2364532 46.2413793"></polygon>
                    <polygon id="Path" fill="#263238" points="30.2364532 46.2413793 18.08867 46.2413793 18.3990148 42.8719212 29.9704433 42.8719212"></polygon>
                    <rect id="Rectangle" fill="#455A64" x="17.3793103" y="41.9408867" width="13.4778325" height="2.81970443"></rect>
                </g>
            </g>
        </g>
    </g>
</svg>