<?xml version="1.0" encoding="UTF-8"?>
<svg width="44px" height="44px" viewBox="0 0 44 44" version="1.1" xmlns="http://www.w3.org/2000/svg" xmlns:xlink="http://www.w3.org/1999/xlink">
    <!-- Generator: sketchtool 64 (101010) - https://sketch.com -->
    <title>A36687E4-64FA-4BE0-885B-7199D4A923CE</title>
    <desc>Created with sketchtool.</desc>
    <g id="Page-2" stroke="none" stroke-width="1" fill="none" fill-rule="evenodd">
        <g id="#7@2x" transform="translate(-40.000000, -546.000000)" fill-rule="nonzero">
            <g id="3430078" transform="translate(40.000000, 546.000000)">
                <g id="Group-5">
                    <path d="M21.9914603,0 C28.8232784,0 34.9274356,3.11530336 38.9609607,8.00276137 C39.0586952,8.12119035 39.1543311,8.24086616 39.2479042,8.36175685 L39.2744242,8.39346007 C42.2229313,12.1353356 43.9826716,16.8575048 43.9826716,21.9912112 C43.9826716,28.281407 41.3204049,34.1655635 36.7175912,38.3229665 L36.7175912,38.3229665 C32.8185849,41.8403188 27.6555273,43.9824224 21.991549,43.9824224 C9.82012301,43.9824224 -0.0580098316,34.054632 0.000256444671,21.8832947 C0.0386400755,13.953774 4.27370663,7.01676114 10.598114,3.17842458 C10.7299067,3.09803536 10.8629813,3.01888075 10.9975396,2.94105848 C14.2317551,1.07056408 17.986577,0 21.9914603,0 Z" id="Combined-Shape" fill="#20B7A1"></path>
                    <g id="Group" transform="translate(6.869565, 9.826087)">
                        <polygon id="Path" fill="#FFC305" points="1.6549623 7.28534123 28.5245275 7.28534123 28.5245275 22.3288195 1.6549623 22.3288195"></polygon>
                        <polygon id="Path" fill="#FF8500" points="5.74191882 21.8940369 28.5245275 21.8940369 28.5245275 24.241863 5.74191882 24.241863"></polygon>
                        <path d="M1.74191882,22.6308348 C1.74191882,23.7628246 1.74191882,24.3288195 1.74191882,24.3288195 L6.35061448,24.2718645 L6.35061448,21.8940369 L1.74191882,21.8940369 L1.74191882,22.6308348 Z" id="Path" fill="#FA690F"></path>
                        <polygon id="Path" fill="#FF8500" points="30.0027884 5.89403688 28.6584935 0.0679499261 5.74191882 0.0679499261 5.74191882 5.89403688"></polygon>
                        <path d="M29.7871863,5.60017194 L21.5735344,5.60017194 C20.6081213,5.60017194 19.7014324,5.13866641 19.1364119,4.35957282 L16.8013895,1.1401251 C16.3963925,0.581789083 15.5609735,0.581789083 15.1560432,1.1401251 L12.8108109,4.37365242 C12.2521966,5.14384664 11.3558512,5.60010553 10.4013822,5.60010553 L8.15771606,5.60010553 C6.73658958,5.60010553 5.68455827,4.28492435 6.00313724,2.90658418 L6.65931383,0.0679499261 L1.6710905,0.0679499261 L0.00278838915,7.28534123 L30.1767014,7.28534123 L29.7871863,5.60017194 Z" id="Path" fill="#FA690F"></path>
                        <polygon id="Path" fill="#FF5551" points="13.3071362 5.97833114 13.5983162 24.241863 19.5680058 24.241863 19.5680058 7.30259592 16.6783583 3.28534123"></polygon>
                        <path d="M15.3735889,6.23431413 C15.3665371,6.23357684 15.3594853,6.23283954 15.3524335,6.23216927 C15.0236601,6.20093475 14.8500928,5.82618755 15.0434185,5.55640442 L16.6687912,3.28767911 L15.1719475,1.19838471 L10.7853971,7.32115474 L10.7853971,24.3288195 L13.7790845,24.3288195 L13.7790845,11.3540271 C13.7790845,10.5934063 14.400441,9.99398502 15.1553159,10.0005537 C15.1608376,10.0006207 15.1663592,10.0006207 15.1718809,10.0006207 C16.2746889,10.0006207 17.1550325,9.04106409 17.0353516,7.90542792 C16.9432125,7.03032518 16.2422905,6.3265431 15.3735889,6.23431413 L15.3735889,6.23431413 Z" id="Path" fill="#E20A62"></path>
                        <circle id="Oval" fill="#FFFFFF" cx="15.0897449" cy="7.50273253" r="1.86956522"></circle>
                        <polygon id="Path" fill="#6EE1FF" points="14.7853971 24.241863 12.0027884 24.241863 12.0027884 22.934297 12.7019296 21.1536321 12.0027884 19.8713713 12.0027884 16.9375151 14.7853971 16.9375151 14.4198003 18.6714526 14.7853971 20.14464 14.7853971 21.1536321 14.4198003 22.3349402 14.7853971 23.2587115"></polygon>
                        <polygon id="Path" fill="#6EE1FF" points="18.437571 24.241863 15.6549623 24.241863 15.6549623 22.3349402 15.9965198 21.1536321 15.6549623 20.2298607 15.6549623 19.2208686 16.2042589 17.8444834 17.9325467 16.9375151 18.437571 16.9375151 18.437571 17.4402037 18.1145103 18.8637181 18.437571 19.5452831"></polygon>
                        <polygon id="Path" fill="#FFC305" points="12.8723536 15.3722978 19.6549623 15.3722978 19.6549623 16.9375151 12.8723536 16.9375151"></polygon>
                        <polygon id="Path" fill="#FF8500" points="10.6984406 15.3722978 13.2201797 15.3722978 13.2201797 16.9375151 10.6984406 16.9375151"></polygon>
                        <g transform="translate(2.872354, 9.459254)">
                            <g transform="translate(0.000000, 7.023000)">
                                <g>
                                    <path d="M2.58566332,4.10256889 L0.156328378,4.10256889 L0.156328378,1.45596817 C0.156328378,0.78777991 0.700187285,0.246072533 1.37102942,0.246072533 C2.04187156,0.246072533 2.58573047,0.78777991 2.58573047,1.45596817 L2.58573047,4.10256889 L2.58566332,4.10256889 Z" id="Path" fill="#6EE1FF"></path>
                                    <path d="M1.86794953,0.352822128 C1.71612029,0.284866245 1.54824188,0.246139418 1.37096227,0.246139418 C0.700120134,0.246139418 0.156261227,0.787846796 0.156261227,1.45603505 L0.156261227,4.10263577 L1.15023574,4.10263577 L1.15023574,1.45603505 C1.15030289,0.964358188 1.44516453,0.542108692 1.86794953,0.352822128 Z" id="Path" fill="#2896FF"></path>
                                    <path d="M1.37102942,0.478634151 C1.86345039,0.478634151 2.26407543,0.877674306 2.26407543,1.36821411 L2.26407543,3.87007415 L0.477916267,3.87007415 L0.477916267,1.36821411 C0.477916267,0.877674306 0.878541312,0.478634151 1.37102942,0.478634151 M1.37102942,0.010434171 C0.618195469,0.010434171 0.00785670973,0.618358403 0.00785670973,1.36821411 L0.00785670973,4.33827413 L2.73413499,4.33827413 L2.73413499,1.36821411 C2.73413499,0.618358403 2.12386338,0.010434171 1.37102942,0.010434171 Z" id="Shape" fill="#FF8500"></path>
                                </g>
                                <g transform="translate(3.961931, 0.000000)">
                                    <path d="M2.58385023,4.10256889 L0.154515291,4.10256889 L0.154515291,1.45596817 C0.154515291,0.78777991 0.698374199,0.246072533 1.36921634,0.246072533 C2.04005848,0.246072533 2.58391738,0.78777991 2.58391738,1.45596817 L2.58391738,4.10256889 L2.58385023,4.10256889 Z" id="Path" fill="#6EE1FF"></path>
                                    <path d="M1.86620359,0.352822128 C1.71437435,0.284866245 1.54649594,0.246139418 1.36921634,0.246139418 C0.698374199,0.246139418 0.154515291,0.787846796 0.154515291,1.45603505 L0.154515291,4.10263577 L1.1484898,4.10263577 L1.1484898,1.45603505 C1.1484898,0.964358188 1.4434186,0.542108692 1.86620359,0.352822128 L1.86620359,0.352822128 Z" id="Path" fill="#2896FF"></path>
                                    <path d="M1.36921634,0.478634151 C1.8616373,0.478634151 2.26226234,0.877674306 2.26226234,1.36821411 L2.26226234,3.87007415 L0.47610318,3.87007415 L0.47610318,1.36821411 C0.47610318,0.877674306 0.876728225,0.478634151 1.36921634,0.478634151 M1.36921634,0.010434171 C0.616382382,0.010434171 0.00604362287,0.618358403 0.00604362287,1.36821411 L0.00604362287,4.33827413 L2.7323219,4.33827413 L2.7323219,1.36821411 C2.7323219,0.618358403 2.12205029,0.010434171 1.36921634,0.010434171 L1.36921634,0.010434171 Z" id="Shape" fill="#FF8500"></path>
                                </g>
                            </g>
                            <g>
                                <g>
                                    <path d="M2.58566332,4.12945694 L0.156328378,4.12945694 L0.156328378,1.48285622 C0.156328378,0.814667966 0.700187285,0.272960589 1.37102942,0.272960589 C2.04187156,0.272960589 2.58573047,0.814667966 2.58573047,1.48285622 L2.58573047,4.12945694 L2.58566332,4.12945694 Z" id="Path" fill="#6EE1FF"></path>
                                    <path d="M1.86794953,0.379710184 C1.71612029,0.311754301 1.54824188,0.273027474 1.37096227,0.273027474 C0.700120134,0.273027474 0.156261227,0.814734852 0.156261227,1.48292311 L0.156261227,4.12952383 L1.15023574,4.12952383 L1.15023574,1.48285622 C1.15030289,0.991246244 1.44516453,0.568996748 1.86794953,0.379710184 L1.86794953,0.379710184 Z" id="Path" fill="#2896FF"></path>
                                    <path d="M1.37102942,0.505522208 C1.86345039,0.505522208 2.26407543,0.904562362 2.26407543,1.39510217 L2.26407543,3.89696221 L0.477916267,3.89696221 L0.477916267,1.39510217 C0.477916267,0.904562362 0.878541312,0.505522208 1.37102942,0.505522208 M1.37102942,0.037322227 C0.618195469,0.037322227 0.00785670973,0.645246459 0.00785670973,1.39510217 L0.00785670973,4.36516219 L2.73413499,4.36516219 L2.73413499,1.39510217 C2.73413499,0.645246459 2.12386338,0.037322227 1.37102942,0.037322227 Z" id="Shape" fill="#FF8500"></path>
                                </g>
                                <g transform="translate(3.961931, 0.000000)">
                                    <path d="M2.58385023,4.12945694 L0.154515291,4.12945694 L0.154515291,1.48285622 C0.154515291,0.814667966 0.698374199,0.272960589 1.36921634,0.272960589 C2.04005848,0.272960589 2.58391738,0.814667966 2.58391738,1.48285622 L2.58391738,4.12945694 L2.58385023,4.12945694 Z" id="Path" fill="#6EE1FF"></path>
                                    <path d="M1.86620359,0.379710184 C1.71437435,0.311754301 1.54649594,0.273027474 1.36921634,0.273027474 C0.698374199,0.273027474 0.154515291,0.814734852 0.154515291,1.48292311 L0.154515291,4.12952383 L1.1484898,4.12952383 L1.1484898,1.48285622 C1.1484898,0.991246244 1.4434186,0.568996748 1.86620359,0.379710184 L1.86620359,0.379710184 Z" id="Path" fill="#2896FF"></path>
                                    <path d="M1.36921634,0.505522208 C1.8616373,0.505522208 2.26226234,0.904562362 2.26226234,1.39510217 L2.26226234,3.89696221 L0.47610318,3.89696221 L0.47610318,1.39510217 C0.47610318,0.904562362 0.876728225,0.505522208 1.36921634,0.505522208 M1.36921634,0.037322227 C0.616382382,0.037322227 0.00604362287,0.645246459 0.00604362287,1.39510217 L0.00604362287,4.36516219 L2.7323219,4.36516219 L2.7323219,1.39510217 C2.7323219,0.645246459 2.12205029,0.037322227 1.36921634,0.037322227 L1.36921634,0.037322227 Z" id="Shape" fill="#FF8500"></path>
                                </g>
                            </g>
                        </g>
                        <g transform="translate(20.698441, 9.372298)">
                            <g transform="translate(0.000000, 7.023000)">
                                <g>
                                    <path d="M2.62865828,4.12885497 L0.191836484,4.12885497 L0.191836484,1.48225425 C0.191836484,0.814065995 0.737371485,0.272358617 1.41028106,0.272358617 C2.08319064,0.272358617 2.62872564,0.814065995 2.62872564,1.48225425 L2.62872564,4.12885497 L2.62865828,4.12885497 Z" id="Path" fill="#6EE1FF"></path>
                                    <path d="M1.9087326,0.379041327 C1.75643545,0.311085444 1.58803966,0.272358617 1.4102137,0.272358617 C0.737304126,0.272358617 0.191769126,0.814065995 0.191769126,1.48225425 L0.191769126,4.12885497 L1.18880692,4.12885497 L1.18880692,1.48225425 C1.18887428,0.990644273 1.48464464,0.568394776 1.9087326,0.379041327 L1.9087326,0.379041327 Z" id="Path" fill="#2896FF"></path>
                                    <path d="M1.41028106,0.504920236 C1.90421959,0.504920236 2.30607931,0.903960391 2.30607931,1.3945002 L2.30607931,3.89636024 L0.514415459,3.89636024 L0.514415459,1.3945002 C0.514415459,0.903960391 0.916275172,0.504920236 1.41028106,0.504920236 M1.41028106,0.0367202556 C0.655126981,0.0367202556 0.0429072473,0.644577602 0.0429072473,1.3945002 L0.0429072473,4.36456022 L2.77758752,4.36456022 L2.77758752,1.3945002 C2.77758752,0.644577602 2.16543514,0.0367202556 1.41028106,0.0367202556 Z" id="Shape" fill="#FF8500"></path>
                                </g>
                                <g transform="translate(3.974141, 0.000000)">
                                    <path d="M2.62683961,4.12885497 L0.190017809,4.12885497 L0.190017809,1.48225425 C0.190017809,0.814065995 0.73555281,0.272358617 1.40846239,0.272358617 C2.08137196,0.272358617 2.62690696,0.814065995 2.62690696,1.48225425 L2.62690696,4.12885497 L2.62683961,4.12885497 Z" id="Path" fill="#6EE1FF"></path>
                                    <path d="M1.90698128,0.379041327 C1.75468413,0.311085444 1.58628834,0.272358617 1.40846239,0.272358617 C0.73555281,0.272358617 0.190017809,0.814065995 0.190017809,1.48225425 L0.190017809,4.12885497 L1.1870556,4.12885497 L1.1870556,1.48225425 C1.1870556,0.990644273 1.48289333,0.568394776 1.90698128,0.379041327 L1.90698128,0.379041327 Z" id="Path" fill="#2896FF"></path>
                                    <path d="M1.40846239,0.504920236 C1.90240092,0.504920236 2.30426063,0.903960391 2.30426063,1.3945002 L2.30426063,3.89636024 L0.512596784,3.89636024 L0.512596784,1.3945002 C0.512596784,0.903960391 0.914456497,0.504920236 1.40846239,0.504920236 M1.40846239,0.0367202556 C0.653308306,0.0367202556 0.0410885727,0.644577602 0.0410885727,1.3945002 L0.0410885727,4.36456022 L2.77576884,4.36456022 L2.77576884,1.3945002 C2.77576884,0.644577602 2.16361647,0.0367202556 1.40846239,0.0367202556 Z" id="Shape" fill="#FF8500"></path>
                                </g>
                            </g>
                            <g>
                                <g>
                                    <path d="M2.62865828,4.15574303 L0.191836484,4.15574303 L0.191836484,1.50914231 C0.191836484,0.840954051 0.737371485,0.299246673 1.41028106,0.299246673 C2.08319064,0.299246673 2.62872564,0.840954051 2.62872564,1.50914231 L2.62872564,4.15574303 L2.62865828,4.15574303 Z" id="Path" fill="#6EE1FF"></path>
                                    <path d="M1.9087326,0.405929383 C1.75643545,0.3379735 1.58803966,0.299246673 1.4102137,0.299246673 C0.737304126,0.299246673 0.191769126,0.840954051 0.191769126,1.50914231 L0.191769126,4.15574303 L1.18880692,4.15574303 L1.18880692,1.50914231 C1.18887428,1.01746544 1.48464464,0.595215947 1.9087326,0.405929383 Z" id="Path" fill="#2896FF"></path>
                                    <path d="M1.41028106,0.531808292 C1.90421959,0.531808292 2.30607931,0.930848447 2.30607931,1.42132137 L2.30607931,3.92318141 L0.514415459,3.92318141 L0.514415459,1.42132137 C0.514415459,0.930848447 0.916275172,0.531808292 1.41028106,0.531808292 M1.41028106,0.0636083116 C0.655126981,0.0636083116 0.0429072473,0.671465658 0.0429072473,1.42132137 L0.0429072473,4.39138139 L2.77758752,4.39138139 L2.77758752,1.42132137 C2.77758752,0.671465658 2.16543514,0.0636083116 1.41028106,0.0636083116 Z" id="Shape" fill="#FF8500"></path>
                                </g>
                                <g transform="translate(3.974141, 0.000000)">
                                    <path d="M2.62683961,4.15574303 L0.190017809,4.15574303 L0.190017809,1.50914231 C0.190017809,0.840954051 0.73555281,0.299246673 1.40846239,0.299246673 C2.08137196,0.299246673 2.62690696,0.840954051 2.62690696,1.50914231 L2.62690696,4.15574303 L2.62683961,4.15574303 Z" id="Path" fill="#6EE1FF"></path>
                                    <path d="M1.90698128,0.405929383 C1.75468413,0.3379735 1.58628834,0.299246673 1.40846239,0.299246673 C0.73555281,0.299246673 0.190017809,0.840954051 0.190017809,1.50914231 L0.190017809,4.15574303 L1.1870556,4.15574303 L1.1870556,1.50914231 C1.1870556,1.01746544 1.48289333,0.595215947 1.90698128,0.405929383 Z" id="Path" fill="#2896FF"></path>
                                    <path d="M1.40846239,0.531808292 C1.90240092,0.531808292 2.30426063,0.930848447 2.30426063,1.42132137 L2.30426063,3.92318141 L0.512596784,3.92318141 L0.512596784,1.42132137 C0.512596784,0.930848447 0.914456497,0.531808292 1.40846239,0.531808292 M1.40846239,0.0636083116 C0.653308306,0.0636083116 0.0410885727,0.671465658 0.0410885727,1.42132137 L0.0410885727,4.39138139 L2.77576884,4.39138139 L2.77576884,1.42132137 C2.77576884,0.671465658 2.16361647,0.0636083116 1.40846239,0.0636083116 Z" id="Shape" fill="#FF8500"></path>
                                </g>
                            </g>
                        </g>
                        <polygon id="Path" fill="#FFFFFF" points="15.6549623 19.1983847 17.9158319 16.9375151 15.6549623 16.9375151"></polygon>
                        <polygon id="Path" fill="#FFFFFF" points="12.0027884 22.9375151 14.7853971 20.1604874 14.7853971 17.1114282 12.0027884 19.8884559"></polygon>
                        <polygon id="Path" fill="#FFFFFF" points="15.6549623 22.3288195 18.437571 19.5535083 18.437571 17.4592543 15.6549623 20.2345655"></polygon>
                        <polygon id="Path" fill="#FFFFFF" points="14.7853971 23.2729587 14.7853971 21.1983847 12.0027884 23.9476159 12.0027884 24.241863 13.8047297 24.241863"></polygon>
                        <path d="M14.5164543,8.06794993 C14.4647009,8.06794993 14.4136763,8.04403572 14.3813387,7.99909012 C14.3282599,7.92544748 14.3456877,7.82310779 14.4202366,7.7706931 L14.9758079,7.37974501 L14.9758079,6.14478932 C14.9758079,6.05430846 15.0499592,5.9809934 15.1414721,5.9809934 C15.2329849,5.9809934 15.3071362,6.05430846 15.3071362,6.14478932 L15.3071362,7.54865135 L14.612407,8.03761492 C14.5832501,8.05812217 14.5496534,8.06794993 14.5164543,8.06794993 L14.5164543,8.06794993 Z" id="Path" fill="#2896FF"></path>
                    </g>
                </g>
            </g>
        </g>
    </g>
</svg>