<svg xmlns="http://www.w3.org/2000/svg" width="375" height="242" viewBox="0 0 375 242">
    <defs>
        <filter id="hdvdugorra" width="120.8%" height="135.1%" x="-10.4%" y="-17.6%" filterUnits="objectBoundingBox">
            <feOffset dy="10" in="SourceAlpha" result="shadowOffsetOuter1"/>
            <feGaussianBlur in="shadowOffsetOuter1" result="shadowBlurOuter1" stdDeviation="5"/>
            <feColorMatrix in="shadowBlurOuter1" result="shadowMatrixOuter1" values="0 0 0 0 0 0 0 0 0 0 0 0 0 0 0 0 0 0 0.2 0"/>
            <feMerge>
                <feMergeNode in="shadowMatrixOuter1"/>
                <feMergeNode in="SourceGraphic"/>
            </feMerge>
        </filter>
    </defs>
    <g fill="none" fill-rule="evenodd">
        <g fill-rule="nonzero">
            <g filter="url(#hdvdugorra)" transform="translate(0 -258) translate(0 258)">
                <g opacity=".5">
                    <path fill="#EBEBEB" d="M366.088 143.08l-7.43.17h-7.767v-6.755h7.71l7.487.113h.113v.112c0 1.07 0 2.139-.057 3.208l-.056 3.153zm0 0l-.113-3.152c0-1.069-.056-2.082-.056-3.152l.169.17-7.486.112h-7.43l.281-.282v6.305l-.225-.226h7.318l7.542.226zM357.758 151.017l-7.374.169h-7.768v-6.755h7.768l7.43.113h.169v.113c0 1.069-.057 2.138-.113 3.208l-.112 3.152zm0 0v-3.152c-.057-1.07-.113-2.083-.113-3.152l.169.169-7.43.112h-7.542l.281-.281v6.304l-.281-.225h3.715l3.658.112 7.543.113zM374.362 151.017l-7.373.169h-7.768v-6.755h7.711l7.43.113h.169v.113c0 1.069-.056 2.138-.056 3.208l-.113 3.152zm0 0v-3.152c0-1.07-.056-2.083-.056-3.152l.112.169-7.43.112h-7.486l.282-.281v6.304l-.225-.225h3.658l3.715.112 7.43.113zM153.55 68.163l-7.374.113-3.77.112h-3.997v-6.81h7.767l7.43.112h.169v.169c-.056 1.07-.056 2.139-.113 3.152l-.112 3.152zm0 0v-3.208c-.056-1.013-.113-2.083-.113-3.096l.17.169h-14.973l.281-.282v6.304l-.281-.281h7.373l7.543.394zM145.22 76.1l-7.374.168h-7.768v-6.754h15.367v.169c0 1.07-.057 2.139-.057 3.152l-.169 3.264zm0 0V72.89c-.057-1.013-.057-2.082-.113-3.096l.169.17h-14.973l.282-.282v6.304l-.282-.282h7.43l7.486.394zM161.88 76.1l-7.43.168h-7.767v-6.754h15.31v.169c0 1.07 0 2.139-.056 3.152l-.057 3.264zm0 0l-.112-3.209c0-1.013-.057-2.082-.057-3.096l.17.17h-14.917l.282-.282v6.304l-.225-.282h7.373l7.486.394zM32.027 109.815l-7.373.169h-7.768v-6.754h15.31v.168c-.056 1.07-.056 2.14-.113 3.209l-.056 3.208zm0 0l-.113-3.152c0-1.07-.056-2.139-.056-3.152l.17.169-7.487.112h-7.43l.282-.281v6.304l-.226-.225h7.318l7.542.225zM279.125 68.163l-7.43.113h-7.767v-6.698h7.711l7.486.112h.113v.169c0 1.07-.057 2.139-.057 3.152l-.056 3.152zm0 0l-.112-3.208c0-1.07-.057-2.083-.057-3.096l.17.113-7.487.112h-7.43l.282-.281v6.304l-.225-.282h7.373l7.486.338zM365.187 6.98l-7.373.168h-7.768V.394h15.31v.169c0 1.07-.056 2.139-.056 3.152l-.113 3.265zm0 0V3.77c0-1.013-.056-2.082-.056-3.096l.113.17h-14.916l.281-.282V6.98l-.225-.282h7.374l7.43.282zM373.518 14.916l-7.374.169h-7.767V8.33h15.366v.17c0 1.069-.056 2.138-.056 3.208l-.17 3.208zm0 0v-3.208c-.056-1.014-.056-2.083-.113-3.096l.17.169h-14.973l.281-.282v6.417l-.281-.281h7.43l7.486.28zM15.366 6.98l-7.373.168H.225V.394h15.31v.169c0 1.07-.056 2.139-.056 3.208l-.113 3.209zm0 0V3.77C15.31 2.758 15.31 1.69 15.31.675l.113.17H.507L.788.562V6.98l-.225-.282H7.88l7.486.282z"/>
                    <path fill="#FFF" d="M76.831 1.801H143.531V46.763000000000005H76.831z"/>
                    <path fill="#EBEBEB" d="M143.812 47.056H76.55V1.52h67.262v45.536zm-66.7-.563h66.137V2.083H77.113v44.41z"/>
                    <path fill="#37474F" d="M83.248 5.235c0 .839-.68 1.52-1.52 1.52s-1.52-.681-1.52-1.52c0-.84.68-1.52 1.52-1.52s1.52.68 1.52 1.52z"/>
                    <path fill="#EBEBEB" d="M89.552 5.235c-.03.848-.727 1.52-1.576 1.52-.84 0-1.52-.681-1.52-1.52 0-.85.672-1.546 1.52-1.576.858.029 1.547.718 1.576 1.576z"/>
                    <path fill="#FFC727" d="M95.8 5.235c0 .839-.68 1.52-1.52 1.52-.849 0-1.546-.672-1.576-1.52.03-.858.718-1.547 1.576-1.576.848.03 1.52.727 1.52 1.576z"/>
                    <path fill="#EBEBEB" d="M76.831 8.33H143.531V9.33H76.831zM88.933 61.127c0-.731.112-2.589.112-3.377 0-3.433-1.238-4.953-4.446-5.066-1.464-.112-2.364-1.013-2.364-2.251 0-1.239.9-2.14 2.364-2.252 3.208-.112 4.446-1.632 4.446-5.122 0-.788-.112-2.645-.112-3.377 0-4.503 1.914-7.43 9.175-9.006 1.463-.338 2.589.563 2.589 1.914.045.856-.484 1.638-1.295 1.914-4.56 1.407-5.235 2.87-5.235 6.022 0 .957.113 2.477.113 3.49 0 3.659-1.801 5.404-4.897 6.417 3.152 1.013 4.897 2.758 4.897 6.416 0 1.014-.113 2.533-.113 3.49 0 3.152.676 4.616 5.235 6.023.811.276 1.34 1.058 1.295 1.914 0 1.35-1.126 2.251-2.59 1.913-7.26-1.576-9.174-4.503-9.174-9.062zM116.4 39.682c0 .732-.112 2.59-.112 3.377 0 3.49 1.295 5.01 4.447 5.122 1.463.113 2.364.957 2.364 2.252 0 1.294-.9 2.139-2.364 2.251-3.152.113-4.447 1.633-4.447 5.066 0 .788.113 2.646.113 3.377 0 4.56-1.914 7.486-9.175 9.062-1.464.338-2.59-.562-2.59-1.913-.038-.872.518-1.658 1.352-1.914 4.503-1.407 5.178-2.87 5.178-6.023 0-.957-.113-2.476-.113-3.49 0-3.658 1.802-5.46 4.897-6.416-3.152-1.013-4.897-2.758-4.897-6.417 0-1.013.113-2.533.113-3.49 0-3.152-.675-4.615-5.178-6.022-.834-.256-1.39-1.043-1.351-1.914 0-1.35 1.125-2.252 2.589-1.914 7.26 1.576 9.175 4.503 9.175 9.006zM322.297 90.509c.744.747.744 1.955 0 2.702-.354.364-.843.568-1.35.563-.526.007-1.033-.196-1.408-.563l-8.5-8.612c-.112 0-.112-.113-.168-.17h-.056l-.113-.28c-.056 0-.056-.057-.056-.113l-.113-.169c0-.113-.056-.113-.056-.169v-.732c.003-.043.024-.083.056-.112l.113-.282.169-.225s0-.112.056-.112.056-.113.169-.17l8.499-8.667c.462-.617 1.242-.907 1.995-.743.753.164 1.342.752 1.506 1.505.164.754-.126 1.533-.743 1.996l-7.205 7.204 7.205 7.149zM330.008 91.466l7.43-17.674c.173-.41.504-.73.918-.89.414-.159.875-.142 1.277.045.405.16.726.482.886.887.16.405.145.858-.041 1.252l-7.43 17.674c-.24.627-.85 1.034-1.52 1.013-.213.017-.426-.022-.62-.112-.85-.362-1.25-1.34-.9-2.195zM355.168 84.374h-.056c-.056.056-.113.168-.225.225l-8.5 8.612c-.345.376-.84.582-1.35.562-.773-.001-1.468-.468-1.764-1.182-.295-.713-.132-1.535.413-2.082l7.148-7.261-7.148-7.205c-.375-.36-.587-.859-.587-1.379s.212-1.018.587-1.379c.747-.744 1.955-.744 2.702 0l8.499 8.668.225.17c.056 0 .056.112.056.112l.113.225h.056c-.009.106.033.21.113.281v.845c-.113.168-.113.225-.113.281 0 .056-.056.056-.056.113l-.113.394zM306.48 46.887c-.015 3.79-2.922 6.94-6.698 7.26h-41.145c-4.694.234-8.688-3.382-8.922-8.076-.233-4.694 3.384-8.689 8.078-8.922.233-6.884 5.306-12.64 12.106-13.736 6.8-1.097 13.426 2.772 15.812 9.233 1.178-.62 2.496-.93 3.827-.9 4.492.02 8.204 3.51 8.5 7.992l1.181-.112c4.01 0 7.261 3.25 7.261 7.26zM346.67 145.839l4.67-7.543-2.307-1.463c-.678-.417-1.068-1.176-1.013-1.97.048-.43.067-.863.056-1.295-.01-.798.423-1.536 1.126-1.914l2.364-1.294-4.165-7.824-2.42 1.294c-.673.388-1.51.344-2.14-.112l-1.181-.732c-.712-.362-1.134-1.118-1.07-1.914v-2.701l-8.837-.282-.112 2.758c-.002.782-.466 1.489-1.182 1.801l-.62.282-.619.338c-.641.451-1.497.451-2.139 0l-2.307-1.408-4.672 7.543 2.308 1.407c.656.431 1.023 1.188.956 1.97-.045.43-.064.862-.056 1.295.031.803-.38 1.558-1.07 1.97l-2.42 1.238 4.222 7.824 2.364-1.295c.729-.34 1.582-.276 2.251.17l1.07.675c.685.395 1.113 1.122 1.126 1.913l-.113 2.702 8.893.281v-2.701c.044-.799.518-1.51 1.239-1.858.203-.059.393-.154.562-.281l.62-.338c.679-.392 1.516-.392 2.195 0l2.42 1.464zm-6.699-6.136c-2.521 1.827-5.927 1.843-8.465.04-2.539-1.803-3.645-5.023-2.75-8.006.894-2.982 3.59-5.062 6.703-5.17 3.111-.108 5.946 1.78 7.045 4.693 1.156 3.064.118 6.522-2.533 8.443zM297.756 163.681l5.404-3.095-.957-1.633c-.296-.47-.273-1.073.056-1.52.172-.269.322-.551.45-.844.276-.459.76-.753 1.295-.788h1.914v-6.191h-1.914c-.55-.036-1.04-.356-1.295-.845-.116-.28-.267-.545-.45-.788-.324-.469-.346-1.084-.056-1.576l.957-1.632-5.404-3.096-.957 1.633c-.241.513-.789.81-1.35.731h-.901c-.544.056-1.07-.207-1.351-.675l-.957-1.689-5.404 3.096.957 1.689c.296.47.273 1.073-.056 1.52-.171.25-.322.513-.45.787-.236.505-.738.833-1.295.845h-1.914v6.191h1.914c.541.014 1.034.314 1.295.788.128.293.278.575.45.845.33.446.352 1.05.056 1.52l-.957 1.632 5.404 3.095.957-1.632c.293-.462.804-.739 1.35-.732h.901c.55-.018 1.066.262 1.351.732l.957 1.632zm-2.758-5.91c-2.798 0-5.066-2.268-5.066-5.065 0-2.798 2.268-5.066 5.066-5.066s5.066 2.268 5.066 5.066c0 2.797-2.268 5.065-5.066 5.065zM24.935 29.72c.48.303.759.84.732 1.406v.901c.03.552-.252 1.075-.732 1.35l-1.632.958 3.095 5.403 1.633-.957c.491-.29 1.106-.268 1.576.057l.788.45c.503.23.815.743.788 1.295v1.913h6.248v-1.913c-.027-.552.285-1.065.788-1.295l.788-.45c.469-.325 1.084-.347 1.576-.057l1.632.957 3.096-5.403-1.633-.957c-.48-.276-.762-.799-.731-1.35v-.902c-.027-.566.252-1.103.731-1.407l1.633-.9-3.096-5.404-1.632.957c-.498.264-1.099.243-1.576-.056l-.788-.45c-.475-.26-.775-.754-.788-1.295v-1.914h-6.248v1.914c-.014.541-.314 1.034-.788 1.295l-.788.45c-.478.299-1.079.32-1.576.056l-1.633-.957-3.095 5.404 1.632.9zm9.344-3.209c2.797 0 5.065 2.268 5.065 5.066s-2.268 5.066-5.065 5.066c-2.798 0-5.066-2.268-5.066-5.066s2.268-5.066 5.066-5.066z"/>
                </g>
                <g>
                    <path fill="#DBDBDB" d="M0.169 73.623L63.154 73.623 50.602 0.507 3.49 0.507z" transform="translate(191.374 133.962)"/>
                    <path fill="#A6A6A6" d="M0.169 73.623L5.685 73.623 8.781 0.507 3.49 0.507z" transform="translate(191.374 133.962)"/>
                </g>
                <g>
                    <path fill="#DBDBDB" d="M63.548 73.623L0.507 73.623 13.115 0.507 60.227 0.507z" transform="translate(121.016 133.962)"/>
                    <path fill="#A6A6A6" d="M63.548 73.623L58.031 73.623 54.936 0.507 60.227 0.507z" transform="translate(121.016 133.962)"/>
                </g>
                <g>
                    <path fill="#FFF" d="M244.903 26.781H302.93399999999997V63.801H244.903z" transform="translate(30.395 66.317)"/>
                    <path fill="#EBEBEB" d="M303.328 64.155h-58.763V26.443h58.763v37.712zm-58.031-.732h57.3V27.175h-57.3v36.248z" transform="translate(30.395 66.317)"/>
                    <path fill="#FFC727" d="M244.903 26.781H302.93399999999997V33.783H244.903z" transform="translate(30.395 66.317)"/>
                    <path fill="#EBEBEB" d="M303.328 34.154h-58.763v-7.711h58.763v7.711zm-58.031-.731h57.3v-6.248h-57.3v6.248z" transform="translate(30.395 66.317)"/>
                    <path fill="#A6A6A6" d="M251.488 30.327c.023.738-.407 1.415-1.085 1.709-.678.293-1.466.142-1.988-.38-.523-.522-.673-1.31-.38-1.989.293-.678.97-1.108 1.709-1.085.963 0 1.744.781 1.744 1.745z" transform="translate(30.395 66.317)"/>
                    <path fill="#EBEBEB" d="M258.693 30.327c.023.738-.407 1.415-1.085 1.709-.678.293-1.467.142-1.989-.38s-.673-1.31-.38-1.989c.294-.678.971-1.108 1.71-1.085.963 0 1.744.781 1.744 1.745z" transform="translate(30.395 66.317)"/>
                    <path fill="#FFF" d="M265.898 30.327c.127.709-.18 1.425-.782 1.821-.601.396-1.38.396-1.982 0-.601-.396-.909-1.112-.782-1.821.153-.859.9-1.484 1.773-1.484.872 0 1.62.625 1.773 1.484zM.45 30.552H58.481V67.572H.45z" transform="translate(30.395 66.317)"/>
                    <path fill="#EBEBEB" d="M58.876 67.926H.113V30.158h58.763v37.768zM.844 67.195h57.3V30.89H.844v36.305z" transform="translate(30.395 66.317)"/>
                    <path fill="#FFC727" d="M0.45 30.552H58.481V37.554H0.45z" transform="translate(30.395 66.317)"/>
                    <path fill="#EBEBEB" d="M58.876 37.926H.113v-7.768h58.763v7.768zM.844 37.194h57.3V30.89H.844v6.304z" transform="translate(30.395 66.317)"/>
                    <path fill="#A6A6A6" d="M7.036 34.098c0 .964-.781 1.745-1.745 1.745-.964 0-1.745-.781-1.745-1.745 0-.964.781-1.745 1.745-1.745.964 0 1.745.781 1.745 1.745z" transform="translate(30.395 66.317)"/>
                    <path fill="#EBEBEB" d="M14.24 34.098c.023.738-.407 1.416-1.085 1.709-.678.293-1.466.142-1.988-.38-.523-.522-.673-1.31-.38-1.988.293-.678.97-1.109 1.709-1.086.963 0 1.745.781 1.745 1.745z" transform="translate(30.395 66.317)"/>
                    <path fill="#FFF" d="M21.445 34.098c.023.738-.407 1.416-1.085 1.709-.678.293-1.466.142-1.989-.38-.522-.522-.673-1.31-.38-1.988.294-.678.971-1.109 1.71-1.086.963 0 1.744.781 1.744 1.745z" transform="translate(30.395 66.317)"/>
                    <path fill="#455A64" d="M214.17 0.945H253.683V15.58H214.17z" transform="translate(30.395 66.317)"/>
                    <path fill="#263238" d="M285.317 70.065L287.737 76.088 285.317 77.101 282.784 71.078 278.731 74.23 278.731 57.401 290.495 69.333zM278.731 55.6c-.225-.54-.225-1.149 0-1.69.225.541.225 1.15 0 1.69zM277.268 56.219c-.518-.274-.933-.709-1.182-1.239.518.274.932.709 1.182 1.239zM276.649 57.626c-.54.225-1.149.225-1.689 0 .553-.151 1.136-.151 1.689 0zM277.268 59.09c-.116.276-.289.525-.507.731l-.675.507c.25-.53.664-.965 1.182-1.239zM280.814 57.626c.553-.151 1.136-.151 1.688 0-.54.225-1.148.225-1.688 0zM280.195 56.219c.249-.53.664-.965 1.182-1.239-.25.53-.665.965-1.182 1.239z" transform="translate(30.395 66.317)"/>
                </g>
                <g>
                    <path fill="#263238" d="M31.69 3.32c-7.712 6.643-5.573 16.324-8.781 21.559-2.027 3.208-8.443 6.641-9.738 10.3-2.083 6.08 3.04 8.274 1.914 11.595-1.633 4.672-7.937 4.334-9.062 11.99-1.126 7.654 7.317 15.816 27.355 18.01 20.038 2.196 31.014-5.121 31.69-11.594.675-6.473-5.91-8.668-6.361-13.565-.282-3.096 3.827-5.235 3.996-10.976.17-5.741-5.347-7.542-6.135-12.383-.788-4.84 1.745-16.661-5.347-22.684C44.129-.45 35.517 0 31.689 3.321z" transform="translate(194.752 97.376)"/>
                    <path fill="#263238" d="M32.59 3.49c-2.164 1.522-3.923 3.551-5.122 5.91-1.263 2.505-2.227 5.15-2.87 7.88-.339 1.632-.868 3.22-1.577 4.728-.682 1.252-1.577 2.376-2.645 3.321-2.195 1.914-4.785 3.433-6.698 5.629-1.914 2.195-3.265 4.84-2.533 7.71.394 1.52 1.407 2.815 2.026 4.222.62 1.408.844 3.096-.338 4.222-1.182 1.126-2.42 1.407-3.546 2.195-1.12.775-2.109 1.725-2.927 2.814-1.685 2.19-2.36 4.994-1.857 7.712 1.182 6.247 7.036 9.794 12.383 11.989l2.308.957c.112 0 .169-.17.056-.17-5.403-2.476-11.651-5.29-13.734-11.37-.981-2.656-.647-5.62.9-7.992.777-1.17 1.748-2.198 2.871-3.04 1.07-.787 2.364-1.294 3.434-2.026 1.13-.718 1.794-1.982 1.745-3.32-.194-1.414-.714-2.763-1.52-3.94-.732-1.352-1.351-2.646-1.295-4.222.17-1.456.735-2.838 1.633-3.996 1.688-2.365 4.165-3.94 6.416-5.742 2.252-1.8 4.053-3.94 4.841-6.754.45-1.407.675-2.87 1.07-4.334.393-1.464.731-2.646 1.181-3.94.87-2.612 2.312-4.997 4.222-6.98.504-.497 1.05-.948 1.632-1.35.031-.016.044-.054.028-.085-.015-.031-.053-.044-.084-.028zM65.968 60.396c-.236-1.072-.718-2.074-1.407-2.927-.725-.848-1.496-1.656-2.308-2.42-.781-.735-1.346-1.67-1.632-2.702-.135-1.27.184-2.546.9-3.603.678-1.121 1.28-2.287 1.801-3.49.438-1.192.685-2.445.732-3.714.126-2.639-.562-5.252-1.97-7.487-.675-1.125-1.463-2.139-2.139-3.264-.781-1.203-1.388-2.51-1.801-3.884-.9-3.04-1.07-6.192-1.801-9.287-.81-3.114-1.903-6.148-3.265-9.062-.056-.057-.169 0-.112.056 1.213 2.637 2.156 5.39 2.814 8.218.675 2.701.9 5.403 1.35 8.105.245 1.317.584 2.615 1.014 3.884.514 1.16 1.096 2.287 1.745 3.377 1.35 2.195 2.758 4.39 3.152 6.98.367 2.569-.086 5.189-1.295 7.486-1.07 2.026-2.533 4.221-1.632 6.529.9 2.308 2.702 3.152 3.94 4.784 1.303 1.824 1.792 4.107 1.351 6.304-1.07 5.629-6.698 8.387-11.989 8.668-.113.057-.113.282.056.282 4.56-.056 9.513-2.083 11.652-6.36 1.036-1.991 1.335-4.284.844-6.473z" transform="translate(194.752 97.376)"/>
                    <path fill="#D3766A" d="M38.613 53.866c5.065 20.15 10.075 35.517 15.816 39.288 4.672 3.04 11.145 5.179 17.843 6.698 7.824 1.745 15.985 2.59 21.67 3.096l5.46.394c3.265.169 8.612-21.445 6.304-24.09-.563-.62-2.702-1.07-5.741-1.464-10.188-1.295-30.282-1.576-31.464-2.702-1.182-1.125-11.483-15.535-20.263-26.848-6.08-7.768-12.44-5.573-9.625 5.628z" transform="translate(194.752 97.376)"/>
                    <path fill="#D3766A" d="M92.817 101.147c.394.169 6.191 2.702 9.737 3.602 2.646.676 10.357 2.364 11.37-.506.675-1.914-3.715-3.434-6.81-4.616-1.633-.619-3.66-2.195-3.209-3.264.45-1.07 4.953-.17 7.711 1.294 5.348 2.87 12.552 8.105 15.648 5.291 1.182-1.013-.281-2.814-2.42-4.503 3.433 1.97 7.035 3.546 8.386 2.42 1.351-1.125.788-1.463.282-2.42 1.07.338 1.97.225 2.589-.506.62-.732.45-2.815-.788-4.503.405-.068.757-.317.957-.676 2.139-3.602-9.738-13.227-13.734-14.015-11.82-2.364-24.203-.844-24.203-.844-4.447 3.827-5.516 23.246-5.516 23.246z" transform="translate(194.752 97.376)"/>
                    <path fill="#263238" d="M109.59 89.608c2.81.318 5.517 1.24 7.936 2.702 2.815 1.801 5.066 4.278 7.655 6.304.057.056 0 .169-.112.113-1.182-1.07-2.533-2.027-3.828-2.984-1.294-.956-2.42-2.026-3.715-2.926-2.366-1.65-5.083-2.728-7.936-3.152v-.057zM111.616 84.542c3.096.732 6.248 1.464 9.175 2.815 2.927 1.35 5.741 3.996 8.218 6.416 1.52 1.408 2.983 2.927 4.39 4.447.056.056 0 .169-.056.056-2.533-2.476-5.178-4.897-7.824-7.204-2.485-2.173-5.373-3.837-8.5-4.897-1.8-.62-3.602-1.07-5.403-1.576-.056 0-.056-.057 0-.057zM114.712 80.096c3.04.506 5.629.957 8.33 2.42 3.603 2.026 7.093 5.46 8.33 6.698 1.24 1.239 2.703 2.702 3.997 4.11.057.055-.056.168-.112.112-2.946-3.107-6.106-6.003-9.456-8.668-1.545-1.324-3.294-2.389-5.179-3.152-1.924-.671-3.9-1.18-5.91-1.52z" transform="translate(194.752 97.376)"/>
                    <path fill="#FFC727" d="M42.328 74.13L60.452 63.49s-7.711-12.495-14.353-18.35c-6.642-5.853-9.231-1.294-8.218 7.262 1.013 8.555 4.447 21.726 4.447 21.726z" transform="translate(194.752 97.376)"/>
                    <path fill="#263238" d="M57.581 60.79c-2.87 1.463-10.638 5.74-15.253 9.174-.057 0 0 .17.056.113 4.334-2.252 12.552-7.374 15.31-9.119.056-.056-.057-.225-.113-.168z" transform="translate(194.752 97.376)"/>
                    <path fill="#263238" d="M58.932 64.336l-16.604 9.793s-3.434-13.17-4.447-21.726c-.676-5.516.225-9.4 2.702-9.907l18.35 21.84z" transform="translate(194.752 97.376)"/>
                    <path fill="#FFC727" d="M59.833 110.097H0s13.002-50.152 25.048-64.28c.232-.325.496-.627.788-.9l.168-.17c.926-.996 2.01-1.833 3.209-2.476l.675-.337c4.616-2.14 9.513-.394 13.059 2.645 1.125.957 13.79 17.449 14.916 23.753 1.125 6.304-2.815 11.539-2.815 11.539l4.785 30.226z" transform="translate(194.752 97.376)"/>
                    <path fill="#263238" d="M46.099 77.675c-2.546.25-5.069.701-7.543 1.351-1.238.282-2.476.676-3.658 1.07l-1.801.619c-.64.199-1.302.312-1.97.338-.057 0-.057.112 0 .112h1.913l1.745-.337c1.238-.338 2.477-.732 3.771-1.014 2.477-.675 5.01-1.35 7.543-1.857.112-.056.112-.282 0-.282zM52.403 79.87c-2.096-.187-4.2-.262-6.304-.224-1.054.017-2.107.092-3.152.225l-1.52.169-1.632.281c-.057 0-.057.113 0 .113h3.152l3.152-.113c2.082-.113 4.221-.169 6.304-.169.112-.056.112-.225 0-.281z" transform="translate(194.752 97.376)"/>
                    <path fill="#D3766A" d="M21.614 48.744c-11.257 15.817-25.892 43.34-18.35 48.35 12.327 8.33 46.324 10.582 54.092 10.752 3.377.112 7.936-22.178 5.46-24.767-2.477-2.59-38.05-1.238-38.5-3.377-.282-1.238 4.109-12.44 6.304-25.948 2.533-15.535-5.854-9.513-9.006-5.01z" transform="translate(194.752 97.376)"/>
                    <path fill="#D3766A" d="M56.85 81.84s10.131-1.069 16.83-1.406c3.714-.226 10.13 0 12.945 1.069 4.165 1.632 20.657 11.201 18.406 15.254-2.252 4.052-15.141-6.36-15.141-6.36s14.184 8.949 10.92 12.889c-3.265 3.94-16.549-9.287-16.549-9.287s14.297 9.512 10.3 13.058c-2.983 2.702-15.76-8.668-15.76-8.668s12.27 8.274 9.288 11.145c-2.984 2.87-15.704-6.53-15.704-6.53-8.837 6.08-15.536 5.404-20.207 4.335-1.182-.282 4.671-25.498 4.671-25.498z" transform="translate(194.752 97.376)"/>
                    <path fill="#263238" d="M85.218 87.02c1.722.944 3.394 1.977 5.01 3.095 1.632 1.126 3.208 2.364 4.671 3.602 1.993 1.644 3.787 3.514 5.347 5.573-3.04-3.434-8.724-7.6-10.3-8.725-1.576-1.126-3.152-2.364-4.784-3.49l.056-.056zM80.996 92.76c2.14 1.351 4.278 2.59 6.36 4.053 2.083 1.463 4.841 3.546 6.755 5.122.169.113.056.394-.112.281-2.027-1.52-4.954-3.546-6.98-5.01-2.026-1.463-3.996-3.039-6.023-4.446-.056 0 0-.056 0 0zM76.55 96.982c3.32 1.914 6.304 4.446 9.174 6.98.113.112-.056.168-.168.056-3.04-2.364-5.348-4.278-9.119-6.924-.056 0 0-.168.113-.112z" transform="translate(194.752 97.376)"/>
                    <path fill="#263238" d="M55.386 81.616c4.616-.45 18.237-1.802 22.909-1.858 4.671-.056 7.542.507 11.2 2.42 7.825 4.166 13.115 9.457 14.466 11.033 1.351 1.576 2.027 2.476 1.182 3.715-.844 1.238-5.46.562-10.3-3.096-.225-.113-.113-.225.056-.113 6.81 4.56 9.287 3.715 9.85 2.758.563-.957-.112-1.52-.563-2.251-.723-1.023-1.574-1.95-2.532-2.758-3.197-2.832-6.666-5.34-10.357-7.486-3.995-2.44-8.603-3.69-13.284-3.603-4.728.057-17.843 1.464-22.627 1.464-.113 0-.113-.17 0-.225z" transform="translate(194.752 97.376)"/>
                    <path fill="#263238" d="M101.372 101.203c-.394-1.238-1.407-2.307-2.251-3.264-.976-1.248-2.09-2.381-3.321-3.378-.057-.056-.113 0-.113.057 1.07 1.033 2.085 2.123 3.04 3.264.45.62.957 1.295 1.35 1.97.483.655.758 1.44.789 2.252-.226 1.52-2.14 1.688-3.265 1.35-.77-.203-1.523-.466-2.252-.787-.964-.508-1.886-1.092-2.758-1.745-.056-.056-.225 0-.168.056 1.857 1.464 5.347 4.503 7.823 3.04.99-.558 1.458-1.729 1.126-2.815z" transform="translate(194.752 97.376)"/>
                    <path fill="#FFC727" d="M7.599 65.236l19.756 7.149s4.672-13.96 4.954-22.797c.28-8.837-4.897-7.936-10.864-1.688C15.48 54.148 7.6 65.236 7.6 65.236z" transform="translate(194.752 97.376)"/>
                    <path fill="#263238" d="M27.58 68.444c-2.983-1.294-11.2-4.559-16.83-5.91v.113c4.504 1.914 13.735 4.953 16.83 5.966 0 .057.057-.169 0-.169z" transform="translate(194.752 97.376)"/>
                    <path fill="#263238" d="M31.408 60.958c0-.056 0-.056-.056-.056-.057 0-.676 1.407-.957 2.083.337-1.52.675-3.096.957-4.616h-.113c-1.35 4.56-2.758 9.062-3.996 13.622l-1.52-.113c-.056 0-.113.113 0 .169l1.576.45c.169.056.338.056.394-.112.958-2.592 1.747-5.243 2.364-7.937.23-.42.436-.852.62-1.294.294-.714.538-1.448.73-2.196z" transform="translate(194.752 97.376)"/>
                    <path fill="#FFF" d="M35.01 40.076c-4.503.844-4.503 5.798-3.264 9.4 1.238 3.602 4.109 7.936 6.473 8.049 2.364.112 3.377-5.741 3.377-5.741s2.983 3.996 4.84 2.87c1.858-1.125-.956-8.105-3.264-10.469-3.321-3.377-5.798-4.56-8.162-4.109z" transform="translate(194.752 97.376)"/>
                    <path fill="#D3766A" d="M32.365 42.609c.056 1.07 4.052 8.5 8.837 8.95 1.52.168 2.702-8.275 2.702-8.275l.225-.619 3.208-8.386-9.287-8.05-1.351-1.069-1.632 5.291c-.012.156-.05.308-.113.45-.07.14-.108.294-.113.45l-.45 1.352c-.067.344-.162.683-.281 1.013-.06.364-.155.722-.282 1.07-.9 3.601-1.52 7.373-1.463 7.823z" transform="translate(194.752 97.376)"/>
                    <path fill="#263238" d="M35.067 30.451c1.062 5.213 4.38 9.686 9.062 12.214l3.208-8.386-9.287-8.05-1.351-1.069-1.632 5.291z" transform="translate(194.752 97.376)"/>
                    <path fill="#D3766A" d="M61.184 22.008c-.788 15.817-10.357 17.111-13.79 16.942-3.434-.169-13.622-1.125-14.41-16.942C32.196 6.192 39.738 1.576 46.83 1.576c7.093 0 15.198 4.616 14.354 20.432z" transform="translate(194.752 97.376)"/>
                    <path fill="#263238" d="M59.1 19.194l-1.069-.338c-.384-.051-.74-.23-1.013-.507-.117-.216-.095-.481.057-.675.393-.325.932-.41 1.407-.225.51.101.957.406 1.238.844.338.394-.113.957-.62.9zM48.97 18.518l1.125-.169c.383 0 .756-.117 1.07-.337.15-.194.173-.46.056-.676-.328-.394-.852-.569-1.351-.45-.513.028-.995.25-1.351.62-.15.18-.184.43-.089.645.096.215.305.357.54.367zM50.602 22.402s-.113.056-.113.113c0 1.07-.225 2.307-1.182 2.589-.056.056-.056.112 0 .112 1.182-.112 1.464-1.8 1.295-2.814z" transform="translate(194.752 97.376)"/>
                    <path fill="#263238" d="M49.701 21.22c-1.745-.169-2.026 3.265-.45 3.49 1.576.225 1.914-3.265.45-3.49z" transform="translate(194.752 97.376)"/>
                    <path fill="#263238" d="M48.97 21.389c-.291.239-.642.394-1.014.45-.394 0-.675-.394-.957-.732-.281-.337-.056 0-.056 0s.169 1.408.844 1.576c.67.043 1.27-.413 1.407-1.069 0-.113-.056-.338-.225-.225zM56.512 22.74h.056c-.169 1.07-.113 2.364.788 2.814.9.45.056.056 0 .056-1.182-.225-1.182-1.913-.844-2.87z" transform="translate(194.752 97.376)"/>
                    <path fill="#263238" d="M57.581 21.67c1.689.057 1.52 3.546-.112 3.49-1.633-.056-1.351-3.49.112-3.49z" transform="translate(194.752 97.376)"/>
                    <path fill="#263238" d="M58.257 21.952c.281.225.506.563.844.619.338.056.675-.338.957-.676.281-.337.056 0 .056.057 0 .056-.281 1.35-.957 1.407-.675.056-.957-.507-1.07-1.182-.112-.676.057-.282.17-.225zM49.814 30.676c.225.282.394.676.788.788.397.022.795-.016 1.182-.112.056-.057.056 0 .056.056-.398.355-.94.501-1.464.394-.412-.196-.676-.612-.675-1.07 0-.056.056-.056.113-.056zM54.373 27.693s.112 1.632.056 2.364-2.814.45-3.884-1.52c-.056-.112.057-.169.113-.112.92.717 2.042 1.13 3.208 1.182.113-.17-.225-2.758-.112-2.758.58.106 1.146.276 1.688.506-.112-3.377-.731-6.698-.788-10.075 0-.113.17-.169.17-.056.956 3.49 1.125 7.373 1.35 10.863 0 .45-1.52-.281-1.801-.394z" transform="translate(194.752 97.376)"/>
                    <path fill="#263238" d="M34.11 22.683c3.883.338 6.529-11.313 6.867-12.777-.17.901-.957 5.798-.563 6.023.412.065.833.046 1.238-.056.064-.59.176-1.174.338-1.745.112-.281.056.62.056 1.689l.732-.113c.117-1.252.401-2.482.844-3.659.169-.45.056 1.633.225 3.49 2.758-.338 6.755-.788 10.357-.394.834.042 1.662.155 2.477.338.225-1.464.225-2.983.337-2.646.155.911.23 1.834.225 2.758l1.07.226c.394-2.027-.169-5.404.112-4.897.745 1.672 1.183 3.464 1.295 5.29 1.35.45 1.689.789 1.801.395.113-.394.113-6.417-3.771-11.145S44.072-2.14 37.712 4.109c0 0-4.84 2.364-6.135 6.923-1.295 4.56.281 11.426 2.533 11.651z" transform="translate(194.752 97.376)"/>
                    <path fill="#D3766A" d="M35.517 22.177s-2.702-5.347-5.122-4.447c-2.42.9-.788 8.387 1.688 9.682.604.406 1.35.54 2.056.368.707-.171 1.309-.632 1.66-1.269l-.282-4.334z" transform="translate(194.752 97.376)"/>
                    <path fill="#263238" d="M30.901 19.87c-.056 0-.056.055 0 .055 1.689 1.014 2.42 2.815 2.871 4.672-.45-.731-1.126-1.238-2.139-.675-.056 0 0 .112.056.112.675-.133 1.358.185 1.689.788.259.51.484 1.037.675 1.576.016.094.104.157.197.141.094-.015.157-.104.141-.197.338-2.364-1.013-5.91-3.49-6.473z" transform="translate(194.752 97.376)"/>
                </g>
                <g>
                    <path fill="#AD6359" d="M96.757 52.234c-4.053 17.505-12.158 39.57-18.406 44.072-5.066 3.603-31.633 9.907-33.097 10.076-3.658.394-10.92-25.498-7.092-26.568 4.785-1.294 27.524-2.026 28.819-3.377 1.295-1.35 9.625-12.552 18.969-25.554 6.473-9.006 13.283-9.456 10.807 1.351z" transform="translate(42.215 92.31)"/>
                    <path fill="#AD6359" d="M48.181 104.974c-.45.226-6.641 3.321-10.469 4.447-2.87.844-11.145 2.983-12.383-.056-.844-2.083 3.884-3.94 7.205-5.347 1.745-.676 3.94-2.533 3.377-3.659-.563-1.126-5.347 0-8.33 1.745-5.742 3.32-13.34 9.287-16.83 6.36-1.295-1.07.225-3.04 2.476-5.01-3.658 2.252-7.542 4.166-9.062 2.984-1.52-1.182-.9-1.576-.394-2.59-1.126.338-2.139.282-2.814-.45-.676-.731-.62-3.095.675-4.953-.443-.043-.84-.293-1.07-.675-2.476-3.828 10.02-14.804 14.354-15.817 12.777-3.04 26.342-1.913 26.342-1.913 5.01 3.996 6.923 24.934 6.923 24.934z" transform="translate(42.215 92.31)"/>
                    <path fill="#263238" d="M29.438 93.21c-3.033.506-5.927 1.637-8.5 3.321-3.264 2.083-5.403 4.616-8.105 7.093-.056.112.057.225.113.168 1.295-1.238 6.642-5.74 8.049-6.754 2.503-1.862 5.386-3.15 8.443-3.771.056 0 .056-.056 0-.056zM27.074 87.807c-3.377.9-6.81 1.858-9.907 3.434-3.095 1.576-6.079 4.559-8.668 7.317-1.576 1.632-3.152 3.264-4.615 5.01-.057.056 0 .168.056.112 2.702-2.814 5.404-5.572 8.274-8.218 2.603-2.464 5.662-4.396 9.006-5.685 1.914-.732 3.884-1.294 5.854-1.914.056 0 0-.056 0-.056zM23.472 83.079c-3.265.675-6.08 1.238-8.95 2.983-3.828 2.308-7.542 6.192-8.837 7.599s-2.758 3.096-4.165 4.672c0 .056.056.169.169.112 3.073-3.505 6.383-6.796 9.906-9.85 1.66-1.482 3.54-2.697 5.572-3.602 2.04-.814 4.15-1.436 6.305-1.858.056-.056 0-.056 0-.056z" transform="translate(42.215 92.31)"/>
                    <path fill="#A6A6A6" d="M67.15 73.904l24.485-1.013s4.446-12.158 6.079-22.909c1.632-10.75-7.543-6.866-16.605 4.672-9.062 11.539-13.96 19.25-13.96 19.25z" transform="translate(42.215 92.31)"/>
                    <path fill="#263238" d="M92.479 67.544c-5.291-.113-10.582.112-15.873.45l-4.503.394c-.056 0-.056.056 0 .056 2.646.057 5.291-.056 7.937-.168 2.645-.113 5.29-.17 7.936-.338l4.503-.282c.056 0 .056-.112 0-.112z" transform="translate(42.215 92.31)"/>
                    <path fill="#DBDBDB" d="M84.768 51.784l-.394.169c-.267.083-.558-.006-.732-.226h-.056l-.282.282h.056c.283.274.689.381 1.07.281.184-.086.34-.222.45-.394l.282-.394c-.153.06-.288.157-.394.282zm5.347 19.08c0-.168-.056-.337-.056-.506-.065.162-.103.333-.113.507-.056.169-.056.281-.169.394-.098.252-.349.412-.619.394-.408.018-.774.254-.957.619-.046.184-.065.373-.056.563 0 .056.056.112.056.169h.113c-.006-.062.015-.123.056-.17.002-.138.04-.274.113-.393.147-.234.399-.381.675-.394.408-.018.774-.255.957-.62.056-.183.056-.379 0-.562zm-6.586-9.85c-.056-.168-.056-.337-.112-.506-.057-.169-.057.338-.113.507-.011.155-.05.307-.112.45-.135.211-.369.339-.62.338-.411.005-.783.246-.956.619-.1.17-.121.376-.057.563.01.173.049.344.113.506 0-.169.056-.337.056-.506l.169-.394c.153-.22.407-.348.675-.338.415-.006.779-.279.901-.675.1-.17.12-.377.056-.563zm-4.39 9.907l-.394.225c-.257.071-.532.008-.732-.169-.282-.274-.688-.38-1.07-.281-.184.086-.34.222-.45.394l-.281.394c.152-.06.287-.157.394-.281l.394-.17c.267-.083.558.006.732.226.305.282.751.348 1.126.169.172-.08.325-.195.45-.338.073-.162.168-.314.281-.45l-.45.281zm13.171-7.43l-.338.225c-.267.084-.558-.005-.731-.225-.3-.287-.739-.375-1.126-.225-.175.1-.328.234-.45.394l-.282.394.45-.281c.1-.112.245-.174.394-.17.267-.068.55.02.732.226.305.282.751.349 1.126.169.166-.065.304-.184.394-.338.114-.137.208-.288.281-.45l-.45.281zm1.407-7.936c-.167.007-.329-.054-.45-.169-.211-.135-.339-.369-.338-.62.02-.435-.258-.828-.675-.956h-.507l-.506.113.506.112.394.113c.234.147.381.4.394.675-.01.416.236.795.62.957.183.056.379.056.562 0h.45l-.45-.225zM73.904 66.362l-.394-.169c-.22-.153-.347-.407-.337-.675.008-.08-.012-.16-.057-.226l-.337.45c.048.343.289.628.619.732.15.099.338.12.506.057l.507-.113-.507-.056zm18.744-22.12c0 .112.056.168.056.224.048.293-.028.593-.21.828-.18.235-.451.383-.747.41-.268-.009-.522.118-.675.338-.113.113-.113.226-.17.394-.055.17-.055.338-.055.507-.065-.162-.103-.333-.113-.507-.065-.186-.044-.392.056-.562.174-.374.546-.615.957-.62.25.001.484-.126.62-.337.07-.14.108-.294.112-.45.041-.047.061-.108.056-.17l.113-.056z" transform="translate(42.215 92.31)"/>
                    <path fill="#A6A6A6" d="M73.341 115.275h62.479c.675-1.295-9.57-56.005-30.62-71.371-4.672-3.434-12.946-1.239-15.254 2.082-11.595 16.717-16.605 69.289-16.605 69.289z" transform="translate(42.215 92.31)"/>
                    <path fill="#DBDBDB" d="M99.852 68.838l.507-.112c.19-.035.384-.016.563.056.364.154.606.505.619.9.002.28.152.537.394.676.113.113.225.113.394.17h.507l-.507.112c-.187.064-.393.044-.563-.057-.394-.147-.646-.536-.619-.956-.021-.26-.169-.49-.394-.62l-.394-.112-.507-.057zm9.682 33.04l.45.113c.225.13.373.36.394.62-.047.425.212.825.62.956.15.099.338.12.506.057l.506-.113h-.506l-.394-.169c-.22-.153-.348-.407-.338-.675-.006-.415-.279-.779-.675-.9-.17-.101-.376-.122-.563-.057l-.507.112.507.057zm11.482-31.182c.169.056.282.056.394.169.225.129.373.36.394.619.018.408.255.774.62.957h.562l.507-.113-.507-.112-.394-.113c-.234-.147-.38-.4-.394-.675-.018-.408-.254-.774-.619-.957-.183-.057-.38-.057-.563 0h-.506l.506.225zM91.747 53.979l.394.112c.234.148.381.4.394.676-.02.405.234.774.62.9.17.1.375.121.562.057h.507l-.507-.113c-.169-.056-.338-.056-.45-.169-.23-.145-.36-.405-.338-.675-.006-.415-.279-.779-.675-.9h-.507l-.506.112h.506zm18.012-.394l.394.112c.234.147.381.4.394.676-.01.416.236.795.619.957h.563l.506-.113-.506-.112-.394-.113c-.234-.147-.381-.4-.394-.675-.005-.412-.246-.784-.62-.957h-1.069l.507.225zM87.3 82.685c.17.056.282.056.395.169.241.11.396.353.394.619.005.412.245.784.619.957.177.075.374.095.563.056l.506-.112-.506-.113-.394-.113c-.234-.147-.382-.399-.394-.675-.018-.408-.255-.774-.62-.957-.183-.056-.38-.056-.563 0l-.506.113.506.056zm19.645 30.17l.45.168c.211.135.338.369.338.62.017.407.254.773.619.956h.563l.506-.112-.506-.113-.394-.112c-.22-.153-.348-.408-.338-.676-.015-.425-.28-.8-.676-.957h-.562l-.507.113.507.113zm-9.682-16.21l.45.168c.212.135.34.368.338.62.018.407.255.773.62.956h.562l.507-.113-.507-.112-.394-.113c-.22-.153-.347-.407-.337-.675-.015-.425-.28-.8-.676-.957h-.563l-.506.112.506.113zm-22.177 16.66l-.394-.169c-.22-.153-.347-.407-.337-.675-.026-.391-.264-.737-.62-.901v.394c.138.13.202.32.17.507-.001.43.27.813.675.956.15.099.338.12.506.057l.507-.113-.507-.056zm4.278-13.678l.45.113c.212.135.339.368.338.619-.01.416.236.795.62.957.17.1.375.12.562.056l.507-.112h-.507c-.169-.057-.281-.057-.394-.17-.24-.135-.373-.402-.338-.675-.027-.295-.176-.566-.41-.748-.235-.181-.535-.257-.828-.209l-.506.113.506.056zm26.173-16.548c.17.056.282.056.394.169.226.129.373.36.394.619-.01.416.236.795.62.957.17.1.376.12.562.056l.507-.112-.507-.113-.45-.113c-.22-.153-.347-.407-.338-.675-.006-.415-.278-.779-.675-.9-.15-.1-.338-.12-.507-.057l-.506.113.506.056zm22.853 22.233c.157-.005.313.034.45.113.242.14.392.396.394.675-.02.406.233.774.62.9.17.101.375.122.562.057h.45l-.45-.112c-.169-.057-.338-.057-.45-.17-.23-.145-.36-.404-.338-.675-.027-.295-.176-.566-.411-.748-.235-.181-.534-.257-.827-.209l-.45.113.45.056zm-9.062-13.565l.394.113c.25.13.404.393.394.675.017.408.254.774.619.957h.563l.506-.113-.506-.112-.394-.113c-.234-.147-.382-.4-.394-.675.01-.416-.236-.795-.62-.957h-.562l-.507.113.507.112zM92.366 63.491l-.394.225c-.267.084-.558-.005-.731-.225-.3-.287-.739-.375-1.126-.225-.175.1-.328.234-.45.394l-.282.394.45-.281c.1-.112.245-.174.394-.17.267-.068.55.02.732.226.305.282.751.349 1.126.169.166-.065.304-.184.394-.338.114-.137.208-.288.281-.45l-.394.281zm26.905 19.363l-.394.225c-.267.084-.558-.006-.731-.225-.3-.287-.739-.375-1.126-.225-.175.1-.328.234-.45.394l-.282.394.45-.282c.1-.112.245-.173.394-.169.267-.068.55.019.732.226.305.281.751.348 1.126.168.166-.064.304-.183.394-.337.114-.137.208-.288.281-.45l-.394.28zm-16.83-36.024c-.1.112-.244.174-.393.17-.257.082-.538.017-.732-.17-.208-.204-.494-.31-.786-.288-.29.022-.558.168-.734.401l-.281.45.45-.281.338-.225c.266-.046.538.037.731.225.3.287.739.375 1.126.225.185-.086.34-.222.45-.394l.282-.394-.45.281zm-.337 10.639c.005.157-.034.313-.113.45-.129.225-.36.373-.619.394-.425-.047-.826.211-.957.62-.1.17-.12.375-.056.562.011.155.05.308.113.45 0-.169.056-.281.056-.45 0-.169.056-.338.169-.45.153-.22.407-.348.675-.338.296-.027.567-.176.748-.411.181-.235.257-.535.209-.827-.056-.17-.056-.338-.113-.45-.056-.113-.056.28-.112.45zm-3.94 29.269c-.011.155-.05.307-.113.45-.153.22-.407.347-.675.338-.408.017-.774.254-.957.619-.044.184-.063.373-.056.563.056.169.056.337.112.506.056.17.056-.337.113-.506.002-.14.04-.275.112-.394.153-.22.408-.348.676-.338.435.02.829-.259.957-.676.046-.183.065-.373.056-.562-.056-.17-.056-.338-.113-.507-.056-.169-.056.338-.112.507zm20.77-25.498h-.113c-.425.015-.8.28-.957.675-.046.165-.065.336-.056.507.056.169.056.338.112.506.057.17.057-.337.113-.506-.005-.15.057-.294.169-.394.135-.211.368-.339.619-.338h.281l-.168-.45zm-.17 47.28c-.001.14-.04.275-.112.395-.147.234-.4.38-.675.394-.396.012-.747.254-.9.619-.101.17-.122.376-.057.563 0 .168.056.337.056.506.064-.162.102-.333.113-.506.056-.17.056-.282.169-.394.139-.242.396-.392.675-.394.395-.013.747-.255.9-.62.076-.177.095-.373.057-.562-.056-.17-.056-.338-.113-.507-.056-.169-.056.338-.112.507zm8.95-26.51c-.13.25-.393.404-.675.394-.408.017-.774.254-.957.619-.047.184-.066.373-.056.563.056.168.056.337.112.506.057.169.057-.338.113-.506.002-.14.04-.275.112-.394.136-.24.403-.374.676-.338.324.003.626-.17.788-.45-.012-.138-.05-.272-.113-.394zM82.01 87.807c.027.142-.014.288-.113.394-.129.225-.36.373-.62.394-.415-.01-.794.236-.956.62-.1.17-.12.375-.056.562.01.174.048.345.112.507 0-.17.057-.338.057-.507l.168-.394c.147-.234.4-.381.676-.394.395-.013.747-.255.9-.62.1-.17.121-.375.057-.562-.057-.169-.057-.338-.113-.507-.056-.168-.056.338-.112.507zm1.125-26.23l-.281.845c.119-.076.2-.199.225-.338.046-.165.065-.336.056-.506zm9.344-17.11c-.011.155-.05.307-.113.45-.135.21-.368.338-.619.337-.411.005-.783.246-.957.62-.1.17-.12.376-.056.562.01.174.048.345.113.507 0-.169.056-.338.056-.507 0-.168.056-.281.169-.394.153-.22.407-.347.675-.337.296-.028.566-.176.748-.411.181-.235.257-.535.209-.828-.056-.168-.056-.337-.113-.506-.056-.169-.056.338-.112.506zm-2.533 26.398c-.056.169-.056.281-.169.394-.11.242-.353.396-.619.394-.408.018-.774.254-.957.619-.046.184-.065.373-.056.563.056.169.056.338.112.506.057.17.057-.337.113-.506.002-.14.04-.275.113-.394.147-.234.399-.381.675-.394.408-.018.774-.255.957-.62.056-.183.056-.379 0-.562 0-.169-.056-.338-.056-.507-.065.162-.103.333-.113.507zm23.077 3.546c-.03.133-.067.265-.112.394-.13.25-.393.404-.676.394-.407.018-.773.255-.956.619-.047.184-.066.374-.057.563.057.169.057.338.113.506.056.17.056-.337.112-.506.003-.14.041-.275.113-.394.147-.234.4-.381.675-.394.408-.018.774-.255.957-.62.057-.183.057-.379 0-.562 0-.169-.056-.338-.056-.507-.064.162-.102.333-.113.507zm-21.332 29.607c-.056.168-.056.337-.113.45-.153.22-.407.347-.675.338-.425.015-.8.28-.957.675-.046.165-.065.336-.056.507.056.169.056.337.112.506.057.17.057-.337.113-.506.002-.14.04-.275.112-.394.153-.22.408-.348.676-.338.425-.015.8-.28.957-.676.056-.183.056-.379 0-.562 0-.17-.057-.338-.057-.507-.064.162-.102.333-.112.507zm17.899-38.782c.1-.112.244-.173.394-.169.256-.082.537-.018.732.17.274.29.7.38 1.07.224.18-.065.337-.182.45-.337.113-.137.208-.289.28-.45l-.393.28-.394.226c-.266.046-.538-.038-.732-.225-.3-.287-.738-.375-1.126-.225-.174.1-.327.234-.45.394l-.281.394.45-.282zM96.137 77.45l.338-.225c.267-.084.558.006.732.225.3.288.739.375 1.126.225.186-.083.343-.22.45-.394l.281-.394-.45.282c-.1.112-.244.174-.394.169-.266.056-.543-.029-.732-.225-.222-.183-.509-.267-.795-.236-.286.032-.547.178-.724.404l-.282.45.45-.28zM87.02 95.406l.338-.225c.266-.047.538.037.732.225.3.287.738.375 1.125.225.172-.08.326-.195.45-.338.074-.162.168-.313.282-.45l-.45.281-.394.225c-.265.03-.53-.051-.732-.225-.284-.316-.742-.408-1.126-.225-.17.087-.307.225-.394.394l-.281.394.45-.281zm3.94 18.687l.338-.225c.267-.084.558.006.732.225.3.287.738.375 1.125.225.175-.1.328-.234.45-.394l.282-.394-.45.281c-.1.112-.244.174-.394.17-.267.056-.543-.03-.732-.226-.223-.182-.51-.267-.795-.235-.286.032-.547.177-.725.404l-.281.45.45-.281zm17.618-20.545l.394-.169c.257-.07.532-.007.732.17.292.3.74.39 1.125.224.166-.064.305-.183.394-.337.114-.137.209-.288.282-.45l-.394.28-.394.226c-.266.046-.538-.037-.732-.225-.3-.287-.739-.375-1.126-.225l-.394.394-.281.394.394-.282zm12.158 7.43c.169-.056.225-.169.394-.169.257-.07.532-.007.731.17.293.3.74.39 1.126.224.166-.065.305-.184.394-.337.114-.137.209-.289.282-.45l-.394.28-.394.226c-.266.046-.538-.038-.732-.225-.3-.287-.739-.375-1.126-.225-.158.1-.293.235-.394.394l-.281.394.394-.282zm-20.432 5.685l.394-.225c.256-.071.532-.008.731.169.288.307.728.417 1.126.281.17-.086.308-.224.394-.394l.282-.394-.394.282-.394.169c-.267.083-.558-.006-.732-.226-.305-.281-.751-.348-1.126-.168-.172.08-.325.194-.45.337-.073.162-.168.314-.282.45l.45-.28zm26.342 7.43l.394-.225c.267-.084.558.006.732.225.292.3.74.39 1.125.225.17-.086.308-.224.394-.394.125-.107.221-.242.282-.394l-.394.281c-.107.102-.247.162-.394.17-.267.083-.558-.006-.732-.226-.305-.282-.751-.348-1.126-.169-.165.065-.304.184-.394.338-.113.137-.208.288-.281.45l.394-.281zm4.728-20.207l-.338-.225c-.305-.282-.751-.349-1.126-.169-.165.065-.304.184-.394.338-.113.136-.208.288-.281.45l.394-.281.394-.226c.267-.083.558.006.732.226.2.183.46.283.731.281l-.112-.394zm-49.87 15.31c.1-.112.244-.174.394-.169.257-.053.524.009.732.169.274.291.7.381 1.07.225.18-.065.337-.182.45-.338.113-.136.208-.288.28-.45l-.393.282-.394.225c-.266.046-.538-.038-.732-.225-.3-.288-.738-.375-1.126-.226l-.45.394-.281.394.45-.281zm-1.52-31.352l.394-.169c.257-.07.532-.007.732.17.292.3.74.39 1.126.224.165-.064.304-.183.394-.337.113-.137.208-.288.281-.45l-.394.28-.394.226c-.266.046-.538-.037-.732-.225-.3-.287-.738-.375-1.125-.225-.159.1-.293.235-.394.394l-.282.394.394-.282z" transform="translate(42.215 92.31)"/>
                    <path fill="#263238" d="M83.304 60.508c-.619 2.083-1.126 4.165-1.688 6.248.056-.9.168-1.801.281-2.702.113-.9-.056-.056-.056 0-.215 1.115-.346 2.243-.394 3.377-.62 2.533-1.239 5.066-1.801 7.599-1.07 4.84-2.027 9.738-2.815 14.635-.45 2.758-.788 5.572-1.238 8.33h.056c.45-2.42 1.013-4.897 1.52-7.317.506-2.42 1.07-4.841 1.576-7.261 1.013-4.84 2.083-9.738 3.096-14.579.563-2.758 1.07-5.516 1.632-8.274.056-.112-.169-.168-.169-.056z" transform="translate(42.215 92.31)"/>
                    <path fill="#AD6359" d="M113.192 49.307c10.076 10.75 34.054 51.333 26.286 58.763-7.767 7.43-50.94-2.589-63.04-8.33-3.603-1.745 10.074-24.203 14.352-24.766 4.278-.563 21.558 7.824 22.065 6.81.506-1.013-3.49-8.724-7.824-24.372-5.01-18.068 3.715-12.89 8.161-8.105zM72.835 67.713c-8.725-1.182-11.201-.17-18.012-5.122-4.503-3.265-8.555-1.801-5.966 3.377 4.221 8.5 15.197 12.44 19.362 12.72l4.616-10.975z" transform="translate(42.215 92.31)"/>
                    <path fill="#AD6359" d="M96.137 76.156s-9.85-5.46-19.08-7.655c-6.361-1.576-20.602-3.377-34.223 10.694-3.208 3.321-5.46 10.357 1.801 6.81 5.122-2.476 7.655-5.628 10.92-6.528 0 0-1.801 9.287 1.688 12.383 3.022 2.727 6.239 5.229 9.625 7.486.558-.532 1.085-1.095 1.576-1.689 0 0 3.49 2.59 10.076 1.97l17.617-23.471z" transform="translate(42.215 92.31)"/>
                    <path fill="#AD6359" d="M70.752 67.994c-3.04 1.576-9.456 5.066-13.677 9.738-4.222 4.672-12.44 16.38-8.556 19.869 2.814 2.477 6.135-1.52 6.135-1.52s-2.195 5.291.845 7.036c3.039 1.745 5.178-1.745 5.178-1.745s-.788 3.49 2.195 4.447c2.983.957 4.616-6.192 9.287-8.105 1.07-.45-1.407-29.72-1.407-29.72z" transform="translate(42.215 92.31)"/>
                    <path fill="#263238" d="M63.379 81.784c-2.646 1.97-7.43 7.937-8.781 14.128 0 .17.056.282.113.113 2.309-5.071 5.24-9.836 8.724-14.184l-.056-.057zM68.444 86.681c-2.082 1.914-6.754 8.33-7.88 14.635 0 .169.057.281.113.112 2.034-5.181 4.66-10.11 7.824-14.69.056-.057 0-.057-.057-.057zM55.555 79.42c-2.87.845-4.728 2.252-7.149 3.884-1.162.872-2.385 1.662-3.658 2.364-1.182.62-2.87 1.576-4.11.563-1.237-1.013-.675-1.52-.562-2.308.205-.883.567-1.722 1.07-2.476h-.057c-.502.647-.9 1.369-1.182 2.139-.318.685-.416 1.452-.281 2.195.45 1.576 2.308 1.8 3.602 1.35.786-.275 1.541-.634 2.252-1.069l2.026-1.294 3.996-2.815c1.318-.875 2.69-1.664 4.11-2.364.055-.112 0-.169-.057-.169z" transform="translate(42.215 92.31)"/>
                    <path fill="#263238" d="M49.588 89.44c.732-1.633 4.729-8.387 6.023-9.963.056-.057 0-.113-.056-.057-2.252 2.14-5.798 7.712-6.642 9.513-.844 1.801-1.745 4.052-1.745 6.022-.056 2.984 1.97 3.547 2.702 3.715.87.162 1.77.002 2.533-.45.898-.56 1.681-1.286 2.308-2.139 0-.056-.057-.112-.057-.056-1.07 1.182-2.758 2.308-4.39 2.139-.724-.094-1.386-.456-1.858-1.013-.46-.717-.621-1.586-.45-2.42.207-1.851.76-3.646 1.632-5.292z" transform="translate(42.215 92.31)"/>
                    <path fill="#263238" d="M60.564 101.316c-.394.394-1.294 1.632-2.645 1.857-.964.292-2.011.057-2.758-.619-.73-.708-1.136-1.685-1.126-2.702.13-1.272.356-2.532.676-3.77h-.113c-.394 1.294-.9 2.757-.9 4.052-.046 1.1.385 2.167 1.181 2.927.818.8 2.02 1.062 3.096.675.563-.225 2.195-1.294 2.702-2.364l-.113-.056zM71.878 97.15c-.463.295-.88.655-1.238 1.07-.45.394-.845.844-1.239 1.238-.774.876-1.47 1.818-2.082 2.815-.563 1.013-1.126 2.139-2.14 2.87-.964.713-2.275.736-3.264.057-.493-.36-.85-.876-1.013-1.464-.196-.676-.253-1.384-.169-2.082 0-.057-.112-.057-.112 0-.122.61-.16 1.236-.113 1.857.042.566.237 1.111.563 1.576.703.941 1.893 1.382 3.04 1.126 1.238-.225 2.195-1.182 2.87-2.195.675-1.014 1.35-2.308 2.139-3.378l1.295-1.744c.506-.563 1.069-1.07 1.52-1.633.45-.563 0-.169-.057-.112z" transform="translate(42.215 92.31)"/>
                    <path fill="#263238" d="M75.368 99.684c-1.621-.17-3.223-.49-4.785-.957-.056-.057-.112.112-.112.112.757.347 1.55.612 2.364.788.833.168 1.685.225 2.533.17.056 0 .056-.113 0-.113zM129.178 89.665c-2.53-1.715-5.182-3.239-7.937-4.56-2.743-1.262-5.563-2.352-8.443-3.264l-4.953-1.407c-.056 0-.056.056 0 .112 2.893.883 5.73 1.936 8.5 3.152l8.217 3.771 4.56 2.308c.056 0 .112-.056.056-.112z" transform="translate(42.215 92.31)"/>
                    <path fill="#A6A6A6" d="M133.85 74.749l-24.485-.788s-4.56-12.102-6.304-22.853c-1.745-10.75 7.092-7.486 16.267 4.053 9.174 11.539 14.522 19.588 14.522 19.588z" transform="translate(42.215 92.31)"/>
                    <path fill="#DBDBDB" d="M112.123 64.955l-.394.225c-.266.046-.538-.038-.732-.225-.3-.287-.738-.375-1.126-.225-.174.1-.327.234-.45.394l-.281.394.45-.282c.1-.112.244-.173.394-.169.256-.082.537-.018.732.17.274.29.7.38 1.07.224.18-.065.337-.182.45-.337.113-.137.208-.289.28-.45l-.393.28zm7.711-4.503c-.056-.17-.056-.338-.112-.507-.057-.169-.057.338-.113.507-.004.156-.043.31-.113.45-.135.24-.402.373-.675.338-.425.015-.8.28-.957.675-.046.165-.065.336-.056.507.056.169.056.338.112.506.057.17.057-.337.113-.506-.005-.15.057-.294.169-.394.135-.211.368-.339.619-.338.436.02.829-.258.957-.675.046-.184.065-.374.056-.563zm-8.612-13.453v.17c.057.168.057.337.113.506.056.169.056-.338.112-.507l-.225-.169zm17.45 20.376c-.187-.026-.363-.104-.507-.225-.275-.291-.701-.381-1.07-.225-.18.065-.337.182-.45.337-.114.137-.209.289-.282.45l.394-.28.394-.226c.266-.046.538.038.732.225.259.276.65.384 1.013.282l-.225-.338zm-16.943-12.214l-.394-.113c-.234-.147-.381-.4-.394-.675.01-.416-.236-.795-.62-.957h-1.069l.507.113.394.112c.234.147.381.4.394.676-.01.415.236.795.619.956h.563l.506-.112h-.506zm11.257 17.111l-.394-.113c-.234-.147-.38-.399-.394-.675-.018-.408-.254-.774-.619-.957-.183-.056-.38-.056-.563 0h-.506l.506.113c.169.056.282.056.394.169.242.11.396.353.394.619-.01.415.236.795.62.957h.562l.507-.113h-.507z" transform="translate(42.215 92.31)"/>
                    <path fill="#263238" d="M110.378 73.848l-1.013-.113c-.056-.337-1.464-5.403-1.801-6.473-.732-2.251-1.633-4.446-2.477-6.641-.056-.113-.113-.057-.113 0 .563 1.913 1.07 3.827 1.633 5.685l-.507-.788c-.333-.564-.634-1.147-.9-1.745h-.113c.24.8.601 1.559 1.07 2.251.173.322.38.623.619.9l.169.451c.337 1.126 2.138 6.586 2.251 6.586h1.182c.056.056.056-.113 0-.113zM129.91 70.02c-5.291-.393-10.639-.45-15.93-.337l-4.503.169s-.056.056 0 .056c2.646.169 5.291.169 7.937.225h12.44c.112 0 .112-.112.055-.112z" transform="translate(42.215 92.31)"/>
                    <path fill="#DBDBDB" d="M90.34 44.354c-1.576 1.35-3.208 6.417-2.308 9.794.9 3.377 2.646 5.516 5.685 5.234 3.04-.281 8.95-2.589 12.777-9.456 3.828-6.867-8.105-12.27-16.154-5.572z" transform="translate(42.215 92.31)"/>
                    <path fill="#AD6359" d="M92.591 55.611c3.603 1.07 10.188-4.165 12.89-8.555.225-.338-.394-12.834-.281-15.31 0-.507-15.817 2.983-15.817 2.983s1.238 5.29.957 9.625c0 .338-1.238 10.244 2.251 11.257z" transform="translate(42.215 92.31)"/>
                    <path fill="#263238" d="M105.481 43.847c-8.33 1.239-12.833-1.238-15.197-3.658-.338-2.984-.9-5.516-.9-5.516s15.816-3.434 15.816-2.927c-.113 1.745.168 8.161.281 12.101z" transform="translate(42.215 92.31)"/>
                    <path fill="#AD6359" d="M85.5 11.708c-2.308 5.29-1.239 21.557 2.307 25.554 5.066 5.797 14.297 7.317 19.475 1.013 5.179-6.304 3.209-27.3-.788-31.014-5.91-5.46-17.561-3.434-20.995 4.447z" transform="translate(42.215 92.31)"/>
                    <path fill="#263238" d="M100.19 23.134c0-.056-.056.056-.056.112.112 1.07 0 2.364-.957 2.758 1.238-.168 1.295-1.857 1.013-2.87z" transform="translate(42.215 92.31)"/>
                    <path fill="#263238" d="M99.177 22.064c-1.801-.056-1.689 3.49-.056 3.546 1.632.057 1.52-3.546.056-3.546zM106.27 23.134c.032.029.052.069.055.112 0 1.126.17 2.364 1.182 2.702.057 0 .057.056 0 .056-1.238-.112-1.407-1.8-1.238-2.87z" transform="translate(42.215 92.31)"/>
                    <path fill="#263238" d="M107.226 22.008c1.745-.169 1.97 3.321.338 3.49-1.633.169-1.802-3.377-.338-3.49zM97.714 20.488l1.35-.563c.516-.09.978-.372 1.295-.788.156-.293.111-.654-.113-.9-.562-.45-1.238-.338-1.913-.113-.637.19-1.18.611-1.52 1.182-.183.28-.17.644.032.91.203.265.55.375.869.272zM108.52 20.207l-1.407-.338c-.495-.089-.96-.302-1.35-.619-.216-.282-.216-.674 0-.957.511-.442 1.222-.572 1.857-.338.67.076 1.28.422 1.689.957.173.272.176.618.009.893-.168.275-.477.43-.797.402zM99.12 33.322c.282.281.564.619.958.619.408-.013.81-.11 1.182-.282 0 0 .056 0 0 .057-.312.427-.824.662-1.351.619-.507-.056-.732-.507-.9-.957-.17-.45.055-.113.112-.056z" transform="translate(42.215 92.31)"/>
                    <path fill="#263238" d="M100.19 30c.59.864 1.503 1.452 2.533 1.633.449.057.902.057 1.35 0h.507c.113 0 .17-.113.226-.225-.004-.043-.024-.084-.057-.113 0-.844-.112-2.139-.112-2.139s1.914.788 1.914.338c-.338-3.602-.676-7.655-1.745-11.257 0-.113-.17-.056-.17.056.113 3.49.901 6.98 1.126 10.526-.569-.266-1.177-.437-1.8-.507-.113.056.28 2.477.224 2.87-1.407.226-2.476-.168-3.883-1.069.02-.02.028-.05.02-.077-.007-.027-.029-.048-.056-.056-.027-.007-.057 0-.077.02z" transform="translate(42.215 92.31)"/>
                    <path fill="#263238" d="M103.567 31.24c-.455.606-1.055 1.09-1.745 1.406-.368.175-.787.215-1.182.113-.9-.225-.956-1.013-.788-1.689.078-.366.191-.725.338-1.07.966.761 2.149 1.195 3.377 1.24z" transform="translate(42.215 92.31)"/>
                    <path fill="#FF99BA" d="M101.822 32.646c-.368.175-.787.215-1.182.113-.9-.225-.956-1.013-.788-1.689.944.003 1.76.656 1.97 1.576z" transform="translate(42.215 92.31)"/>
                    <path fill="#263238" d="M84.993 24.316c4.109.169 5.29-7.317 5.29-7.317s7.15-.845 8.444-6.136c0 0 6.529 4.616 11.932 2.927 5.404-1.688 4.56-7.711 4.053-9.006-.507-1.294-3.602.957-3.602.957s-.17-3.433-1.07-3.827c-.9-.394-1.97 1.632-1.97 1.632S101.372.901 95.124.788c-6.247-.113-9.568 6.023-9.568 6.023s-3.321.563-4.503 2.814c-1.182 2.251 1.294 14.578 3.94 14.69z" transform="translate(42.215 92.31)"/>
                    <path fill="#263238" d="M98.67 9.85c-.061 1.091-.329 2.16-.788 3.152-.458.953-1.181 1.754-2.082 2.308-.912.555-1.927.919-2.983 1.07l-1.633.168h-1.632l1.632.225h1.689c1.135-.077 2.235-.425 3.208-1.013.976-.622 1.741-1.524 2.195-2.589.408-1.056.543-2.198.394-3.32zM85.5 7.655c.482-1.719 1.393-3.287 2.645-4.56 1.259-1.213 2.88-1.984 4.615-2.194l1.351-.17h1.295c.9.057 1.745.282 2.645.395.9.112 1.689.45 2.533.788l2.533.9-2.42-1.182-2.533-.9c-1.776-.487-3.628-.64-5.46-.45-1.844.264-3.547 1.136-4.84 2.476-1.277 1.348-2.104 3.059-2.365 4.897z" transform="translate(42.215 92.31)"/>
                    <path fill="#FFC727" d="M97.77 28.256c-2.135-.232-3.846-1.873-4.165-3.996-.242-1.66.42-3.321 1.736-4.36 1.317-1.038 3.087-1.296 4.644-.675 1.558.62 2.666 2.025 2.907 3.684.37 2.56-1.385 4.942-3.94 5.347-.392.056-.79.056-1.182 0zm.9-8.725h-1.013c-1.069.153-2.033.727-2.677 1.593-.645.867-.917 1.955-.756 3.023.374 2.194 2.407 3.706 4.615 3.433 1.976-.37 3.393-2.114 3.351-4.124-.041-2.01-1.53-3.693-3.52-3.98v.055zM108.52 28.03c-1.744-.168-3.208-2.138-3.208-4.615-.074-1.158.243-2.308.9-3.264.51-.89 1.449-1.447 2.474-1.47 1.025-.023 1.987.492 2.536 1.357.678.955 1.051 2.093 1.07 3.265 0 2.589-1.52 4.728-3.434 4.784l-.337-.056zm.45-8.724h-.224c-.826.048-1.579.487-2.027 1.182-.562.87-.837 1.893-.788 2.927 0 2.252 1.351 4.053 2.927 3.997 1.576-.057 2.815-1.858 2.815-4.11-.016-1.032-.35-2.035-.957-2.87-.377-.624-1.021-1.04-1.745-1.126z" transform="translate(42.215 92.31)"/>
                    <path fill="#FFC727" d="M102.723 23.472l-.394-.507c.732-.62 2.364-1.407 3.49-.225l-.45.45c-1.014-1.07-2.533.225-2.646.282zM81.84 24.935l-.562-.281c.169-.226 1.35-2.533 2.702-2.815 1.35-.281 9.737.45 10.131.507v.619c-2.42-.225-8.95-.676-9.963-.507-1.013.17-1.97 1.858-2.307 2.477z" transform="translate(42.215 92.31)"/>
                    <path fill="#AD6359" d="M87.413 25.048s-3.096-5.517-5.572-4.447c-2.477 1.07-.45 8.837 2.195 10.075.661.378 1.448.472 2.18.26.732-.212 1.347-.712 1.704-1.386l-.507-4.502z" transform="translate(42.215 92.31)"/>
                    <path fill="#263238" d="M82.46 22.796c-.056 0-.056.056 0 .113 1.857.957 2.702 2.814 3.208 4.728-.506-.732-1.238-1.239-2.251-.62-.057 0 0 .113.056.113.707-.15 1.431.167 1.801.788.318.496.582 1.024.788 1.576.056.225.394.113.338-.056.281-2.533-1.295-6.135-3.94-6.642z" transform="translate(42.215 92.31)"/>
                </g>
                <g fill="#263238">
                    <path d="M0.45 0.45L45.367 0.281 90.284 0.225 180.117 0.169 269.95 0.225 314.867 0.281 359.784 0.45 314.867 0.563 269.95 0.619 180.117 0.732 90.284 0.619 45.367 0.563z" transform="translate(7.317 207.135)"/>
                </g>
                <g>
                    <path fill="#455A64" d="M0.225 38.95H62.816V41.759H0.225z" transform="translate(262.858 167.171)"/>
                    <path fill="#263238" d="M0.225 38.95H31.745V41.759H0.225z" transform="translate(262.858 167.171)"/>
                    <path fill="#37474F" d="M31.014 41.765L91.972 41.765 100.584 0.338 39.626 0.338z" transform="translate(262.858 167.171)"/>
                    <path fill="#FFF" d="M61.07 22.008c-.13 1.04.198 2.087.901 2.865.703.779 1.71 1.212 2.759 1.188 2.29-.043 4.192-1.777 4.446-4.053.168-1.043-.138-2.107-.834-2.902-.697-.795-1.712-1.237-2.768-1.207-2.311.067-4.225 1.814-4.503 4.11z" transform="translate(262.858 167.171)"/>
                </g>
                <g>
                    <path fill="#455A64" d="M90.002 57.97H93.435V60.227H90.002z" transform="translate(11.82 146.908) rotate(180 91.719 59.098)"/>
                    <path fill="#455A64" d="M85.556 57.744H88.989V60.001H85.556z" transform="translate(11.82 146.908) rotate(180 87.272 58.873)"/>
                    <path fill="#455A64" d="M81.053 57.632H84.48599999999999V59.888999999999996H81.053z" transform="translate(11.82 146.908) rotate(180 82.77 58.76)"/>
                    <path fill="#455A64" d="M76.55 57.519H79.983V59.775999999999996H76.55z" transform="translate(11.82 146.908) rotate(180 78.266 58.648)"/>
                    <path fill="#455A64" d="M72.103 57.35H75.536V59.607H72.103z" transform="translate(11.82 146.908) rotate(180 73.82 58.479)"/>
                    <path fill="#455A64" d="M67.6 57.182H71.03299999999999V59.439H67.6z" transform="translate(11.82 146.908) rotate(180 69.317 58.31)"/>
                    <path fill="#455A64" d="M63.154 57.069H66.587V59.326H63.154z" transform="translate(11.82 146.908) rotate(180 64.87 58.198)"/>
                    <path fill="#455A64" d="M58.651 56.9H62.084V59.157H58.651z" transform="translate(11.82 146.908) rotate(180 60.367 58.029)"/>
                    <path fill="#455A64" d="M54.148 56.731H57.581V58.988H54.148z" transform="translate(11.82 146.908) rotate(180 55.864 57.86)"/>
                    <path fill="#37474F" d="M53.303 61.465L94.28 61.465 94.28 58.763 53.303 57.581z" transform="translate(11.82 146.908)"/>
                    <path fill="#455A64" d="M13.284 50.658L80.94 50.658 70.189 0.225 2.477 0.225z" transform="translate(11.82 146.908)"/>
                    <path fill="#37474F" d="M10.751 50.658L78.464 50.658 67.713 0.225 0 0.225z" transform="translate(11.82 146.908)"/>
                    <path fill="#263238" d="M33.378 22.515c.421 2.37 2.436 4.126 4.84 4.221 1.07.02 2.092-.445 2.78-1.265.69-.82.97-1.906.767-2.956-.45-2.368-2.488-4.102-4.897-4.166-1.063-.042-2.085.411-2.768 1.226-.683.815-.95 1.9-.722 2.94z" transform="translate(11.82 146.908)"/>
                    <path fill="#455A64" d="M29.888 63.829L63.21 63.829 63.21 61.24 29.888 60.17z" transform="translate(11.82 146.908)"/>
                    <path fill="#455A64" d="M20.826 63.829L38.725 63.829 49.476 35.573 31.633 35.573z" transform="translate(11.82 146.908)"/>
                    <path fill="#263238" d="M17.899 63.829L35.798 63.829 46.549 35.573 28.65 35.573z" transform="translate(11.82 146.908)"/>
                    <path fill="#37474F" d="M95.575 64.504h34.334c2.927 0-1.294-8.33-11.989-11.538-10.694-3.209-25.723 8.443-22.345 11.538z" transform="translate(11.82 146.908)"/>
                    <path fill="#263238" d="M109.027 64.504c-.222-.9-.504-1.783-.844-2.645-.333-.863-.748-1.692-1.238-2.477-.461-.79-1.009-1.526-1.633-2.195l-.506-.506-.507-.45c-.35-.313-.727-.596-1.126-.845.892.33 1.713.827 2.42 1.463.725.657 1.35 1.416 1.858 2.252.996 1.63 1.54 3.494 1.576 5.403z" transform="translate(11.82 146.908)"/>
                    <path fill="#263238" d="M104.974 56.568l-2.758 1.576-2.645 1.689c-.857.613-1.666 1.29-2.42 2.026-.733.74-1.274 1.649-1.576 2.645.076-1.086.511-2.116 1.238-2.926.723-.82 1.535-1.556 2.42-2.196 1.752-1.237 3.69-2.187 5.741-2.814z" transform="translate(11.82 146.908)"/>
                </g>
                <g>
                    <path fill="#FFC727" d="M23.64 7.88L21.164 38.95 4.109 38.95 1.632 7.88z" transform="translate(147.47 182.931)"/>
                    <path fill="#455A64" d="M0 5.066H25.16V9.597H0z" transform="translate(147.47 182.931)"/>
                    <path fill="#37474F" d="M23.415 5.066L1.745 5.066 2.983 0 22.121 0z" transform="translate(147.47 182.931)"/>
                    <path fill="#FFF" d="M18.575 23.697c0 4.052-2.646 7.317-5.967 7.317-3.32 0-5.91-3.265-5.91-7.317 0-4.053 2.646-7.318 5.91-7.318 3.265 0 5.967 3.265 5.967 7.318z" transform="translate(147.47 182.931)"/>
                </g>
                <g>
                    <path fill="#FFF" d="M2.702 18.687c-1.087-1.614-1.675-3.513-1.689-5.46C1.013 6.36 8.612.732 17.955.732c9.344 0 16.886 5.628 16.886 12.495 0 6.867-7.542 12.496-16.886 12.496-4.16.075-8.245-1.123-11.707-3.434L.45 23.753l2.252-5.066z" transform="translate(160.417 93.436)"/>
                    <path fill="#263238" d="M2.702 18.687c-1.028-1.542-1.63-3.329-1.745-5.178-.054-1.856.414-3.689 1.35-5.291.962-1.581 2.224-2.958 3.716-4.053C7.52 3.097 9.172 2.262 10.92 1.69c1.766-.602 3.6-.98 5.46-1.126 1.843-.102 3.692-.007 5.515.281 1.832.295 3.613.844 5.291 1.633 1.675.806 3.213 1.87 4.56 3.152 1.327 1.328 2.33 2.947 2.927 4.728.581 1.809.6 3.752.056 5.572-.564 1.784-1.548 3.405-2.87 4.728-1.3 1.328-2.825 2.414-4.504 3.209-3.37 1.586-7.09 2.283-10.807 2.026-3.717-.183-7.307-1.412-10.356-3.546h.112L.45 23.753H.338v-.169l2.364-4.897zm0 0L.507 23.753H.45l5.798-1.576h.112c3.04 1.994 6.557 3.14 10.188 3.32 1.81.096 3.626-.036 5.404-.393 1.8-.306 3.544-.875 5.178-1.689 1.611-.776 3.077-1.824 4.334-3.096 1.273-1.275 2.219-2.84 2.758-4.559.5-1.715.46-3.542-.112-5.234-.554-1.697-1.498-3.24-2.758-4.503-1.275-1.262-2.761-2.29-4.39-3.04-1.637-.795-3.382-1.345-5.18-1.632-1.78-.338-3.594-.452-5.403-.338-1.796.136-3.571.476-5.29 1.013-1.746.554-3.397 1.37-4.897 2.42-1.47 1.036-2.714 2.357-3.66 3.884-.95 1.56-1.456 3.352-1.463 5.179.077 1.84.64 3.627 1.633 5.178z" transform="translate(160.417 93.436)"/>
                    <path fill="#263238" d="M24.034 13.227c0 .964.782 1.745 1.745 1.745.964 0 1.745-.781 1.745-1.745 0-.963-.781-1.745-1.745-1.745-.463 0-.906.184-1.234.512-.327.327-.51.77-.51 1.233zM16.154 13.227c-.023.734.401 1.407 1.072 1.704.671.297 1.455.157 1.982-.354.527-.51.691-1.289.416-1.969-.275-.68-.935-1.125-1.669-1.126-.472-.015-.93.162-1.27.491-.34.33-.531.782-.53 1.254zM8.33 13.227c-.022.739.408 1.416 1.086 1.709.678.293 1.466.143 1.988-.38.523-.522.673-1.31.38-1.988-.293-.678-.97-1.108-1.709-1.086-.963 0-1.745.782-1.745 1.745z" transform="translate(160.417 93.436)"/>
                </g>
            </g>
        </g>
    </g>
</svg>
