<svg xmlns="http://www.w3.org/2000/svg" xmlns:xlink="http://www.w3.org/1999/xlink" width="542" height="590" viewBox="0 0 542 590">
  <defs>
    <clipPath id="clip-path">
      <rect id="Rectangle_27898" data-name="Rectangle 27898" width="542" height="542" transform="translate(233 201.682)" fill="#fff"/>
    </clipPath>
  </defs>
  <g id="Group_49585" data-name="Group 49585" transform="translate(-103 -166)">
    <g id="Mask_Group_130" data-name="Mask Group 130" transform="translate(-130 -35.682)" clip-path="url(#clip-path)">
      <g id="_4549582_Mesa_de_trabajo_1" data-name="4549582_Mesa de trabajo 1" transform="translate(255.775 315.362)">
        <g id="Background_Complete" transform="translate(0.225 0.394)" opacity="0.5">
          <path id="Shape" d="M0,8.951V0H10.218l9.92.149h.149V.3c0,1.417,0,2.835-.074,4.252l-.075,4.177-9.845.224Z" transform="translate(464.675 180.351)" fill="#ebebeb"/>
          <path id="Shape-2" data-name="Shape" d="M0,8.951V0H10.293l9.845.149h.224V.3c0,1.417-.075,2.835-.149,4.252l-.15,4.177-9.77.224Z" transform="translate(453.711 190.867)" fill="#ebebeb"/>
          <path id="Shape-3" data-name="Shape" d="M0,8.951V0H10.218l9.845.149h.224V.3c0,1.417-.074,2.835-.074,4.252l-.15,4.177-9.77.224Z" transform="translate(475.714 190.867)" fill="#ebebeb"/>
          <path id="Shape-4" data-name="Shape" d="M0,9.024V0H10.293l9.845.149h.224V.373c-.075,1.417-.075,2.834-.149,4.177l-.15,4.177-9.77.149-5,.149Z" transform="translate(183.11 81.076)" fill="#ebebeb"/>
          <path id="Shape-5" data-name="Shape" d="M0,8.951V0H20.363V.224c0,1.417-.075,2.834-.075,4.177l-.224,4.326-9.77.224Z" transform="translate(172.072 91.593)" fill="#ebebeb"/>
          <path id="Shape-6" data-name="Shape" d="M0,8.951V0H20.288V.224c0,1.417,0,2.834-.074,4.177l-.075,4.326-9.845.224Z" transform="translate(194.075 91.593)" fill="#ebebeb"/>
          <path id="Shape-7" data-name="Shape" d="M0,8.951V0H20.288V.224c-.074,1.417-.074,2.834-.149,4.25l-.075,4.252-9.77.224Z" transform="translate(22.078 136.27)" fill="#ebebeb"/>
          <path id="Shape-8" data-name="Shape" d="M0,8.875V0H10.218l9.92.149h.149V.373c0,1.417-.074,2.834-.074,4.177l-.075,4.177-9.845.149Z" transform="translate(349.439 81.076)" fill="#ebebeb"/>
          <path id="Shape-9" data-name="Shape" d="M0,8.951V0H20.288V.224c0,1.417-.074,2.834-.074,4.177l-.15,4.326-9.77.224Z" transform="translate(463.557)" fill="#ebebeb"/>
          <path id="Shape-10" data-name="Shape" d="M0,8.951V0H20.363V.224c0,1.417-.075,2.834-.075,4.25l-.224,4.252-9.77.224Z" transform="translate(474.595 10.517)" fill="#ebebeb"/>
          <path id="Shape-11" data-name="Shape" d="M0,8.951V0H20.288V.224c0,1.417-.074,2.834-.074,4.25l-.15,4.252-9.77.224Z" fill="#ebebeb"/>
          <rect id="Rectangle" width="88.385" height="59.58" transform="translate(101.513 1.865)" fill="#fff"/>
          <path id="Shape-12" data-name="Shape" d="M0,60.34V0H89.131V60.34Z" transform="translate(101.14 1.492)" fill="#ebebeb"/>
          <path id="Path" d="M4.028,2.014A2.014,2.014,0,1,1,2.014,0,2.014,2.014,0,0,1,4.028,2.014Z" transform="translate(105.988 4.401)" fill="#37474f"/>
          <path id="Path-2" data-name="Path" d="M4.1,2.088A2.088,2.088,0,0,1,2.014,4.1,2.014,2.014,0,0,1,0,2.088,2.088,2.088,0,0,1,2.014,0,2.163,2.163,0,0,1,4.1,2.088Z" transform="translate(114.267 4.326)" fill="#ebebeb"/>
          <path id="Path-3" data-name="Path" d="M4.1,2.088A2.014,2.014,0,0,1,2.088,4.1,2.088,2.088,0,0,1,0,2.088,2.163,2.163,0,0,1,2.088,0,2.088,2.088,0,0,1,4.1,2.088Z" transform="translate(122.546 4.326)" fill="#ffc727"/>
          <rect id="Rectangle-2" data-name="Rectangle" width="88.385" height="0.746" transform="translate(101.513 10.517)" fill="#ebebeb"/>
          <path id="Path-4" data-name="Path" d="M8.876,40.446c0-.97.149-3.431.149-4.475,0-4.55-1.641-6.564-5.892-6.713C1.193,29.109,0,27.915,0,26.274s1.193-2.834,3.133-2.983c4.251-.149,5.892-2.163,5.892-6.787,0-1.044-.149-3.506-.149-4.475,0-5.967,2.536-9.845,12.158-11.934A2.607,2.607,0,0,1,24.464,2.63a2.536,2.536,0,0,1-1.715,2.536c-6.042,1.865-6.937,3.8-6.937,7.981,0,1.268.149,3.282.149,4.624,0,4.848-2.387,7.16-6.489,8.5,4.177,1.343,6.489,3.655,6.489,8.5,0,1.343-.149,3.356-.149,4.624,0,4.177.9,6.116,6.937,7.981a2.536,2.536,0,0,1,1.715,2.536,2.607,2.607,0,0,1-3.431,2.536C11.412,50.366,8.876,46.487,8.876,40.446Z" transform="translate(108.673 40.033)" fill="#ebebeb"/>
          <path id="Path-5" data-name="Path" d="M15.591,12.028c0,.97-.149,3.431-.149,4.475,0,4.624,1.715,6.638,5.892,6.787,1.939.149,3.133,1.268,3.133,2.983s-1.193,2.834-3.133,2.983c-4.177.149-5.892,2.163-5.892,6.713,0,1.044.149,3.506.149,4.475,0,6.042-2.536,9.92-12.158,12.008A2.607,2.607,0,0,1,0,49.918a2.536,2.536,0,0,1,1.79-2.536c5.967-1.865,6.862-3.8,6.862-7.981,0-1.268-.149-3.282-.149-4.624,0-4.848,2.387-7.235,6.489-8.5-4.177-1.343-6.489-3.655-6.489-8.5,0-1.343.149-3.356.149-4.624,0-4.177-.9-6.116-6.862-7.981A2.536,2.536,0,0,1,0,2.63,2.607,2.607,0,0,1,3.433.094C13.055,2.183,15.591,6.061,15.591,12.028Z" transform="translate(138.356 40.033)" fill="#ebebeb"/>
          <path id="Path-6" data-name="Path" d="M15.663,23.719a2.536,2.536,0,0,1,0,3.58,2.461,2.461,0,0,1-1.79.746,2.611,2.611,0,0,1-1.865-.746L.746,15.887c-.149,0-.149-.149-.224-.224H.448L.3,15.29c-.075,0-.075-.075-.075-.149l-.149-.224c0-.149-.075-.149-.075-.224v-.97a.224.224,0,0,1,.075-.149L.224,13.2h0l.224-.3s0-.149.075-.149.075-.149.224-.224L12.008,1.044A2.611,2.611,0,1,1,15.663,4.7L6.116,14.246Z" transform="translate(411.122 95.695)" fill="#ebebeb"/>
          <path id="Path-7" data-name="Path" d="M.168,24.743l9.845-23.42A2.163,2.163,0,0,1,12.923.2a2.088,2.088,0,0,1,1.119,2.834L4.2,26.458A2.088,2.088,0,0,1,2.182,27.8a1.641,1.641,0,0,1-.82-.149A2.238,2.238,0,0,1,.168,24.743Z" transform="translate(436.835 95.939)" fill="#ebebeb"/>
          <path id="Path-8" data-name="Path" d="M15.993,15.433h-.075c-.075.075-.149.224-.3.3L4.358,27.143a2.312,2.312,0,0,1-1.79.746,2.536,2.536,0,0,1-1.79-4.326l9.473-9.622L.778,4.394A2.536,2.536,0,0,1,.778.74a2.536,2.536,0,0,1,3.58,0L15.62,12.226l.3.224c.075,0,.075.149.075.149l.149.3h.075a.448.448,0,0,0,.149.373v1.119h0c-.149.224-.149.3-.149.373s-.075.075-.075.149Z" transform="translate(454.351 95.85)" fill="#ebebeb"/>
          <path id="Path-9" data-name="Path" d="M75.235,31.351a9.7,9.7,0,0,1-8.876,9.622H11.836a11.276,11.276,0,0,1-1.119-22.525,19.094,19.094,0,0,1,37-5.967,10.368,10.368,0,0,1,5.072-1.193A11.337,11.337,0,0,1,64.047,21.879l1.566-.149a9.622,9.622,0,0,1,9.622,9.622Z" transform="translate(330.592 30.257)" fill="#ebebeb"/>
          <path id="Shape-13" data-name="Shape" d="M14.47,41.322l.149-3.58A2.983,2.983,0,0,0,13.127,35.2L11.71,34.31a3.06,3.06,0,0,0-2.984-.224L5.595,35.8,0,25.434l3.207-1.641a2.908,2.908,0,0,0,1.418-2.609A13.517,13.517,0,0,1,4.7,19.467a2.837,2.837,0,0,0-1.268-2.611L.373,14.992,6.564,5,9.622,6.862a2.46,2.46,0,0,0,2.834,0l.821-.448.821-.372a2.613,2.613,0,0,0,1.567-2.388L15.813,0l11.71.373v3.58A2.607,2.607,0,0,0,28.94,6.489l1.566.97a2.613,2.613,0,0,0,2.835.149l3.207-1.715L42.067,16.26l-3.133,1.715a2.836,2.836,0,0,0-1.492,2.537,12.672,12.672,0,0,1-.074,1.715,2.834,2.834,0,0,0,1.343,2.611l3.058,1.939-6.191,10-3.207-1.94a2.913,2.913,0,0,0-2.909,0l-.821.448a2.308,2.308,0,0,1-.747.372,2.912,2.912,0,0,0-1.641,2.462v3.58Z" transform="translate(423.504 155.961)" fill="#ebebeb"/>
          <path id="Shape-14" data-name="Shape" d="M16.856,27a2.01,2.01,0,0,0-1.79-.97H13.874a2.086,2.086,0,0,0-1.79.97l-1.269,2.162-7.16-4.1L4.923,22.9a1.791,1.791,0,0,0-.075-2.014,8.041,8.041,0,0,1-.6-1.119,2.015,2.015,0,0,0-1.716-1.044H0V10.516H2.535A1.94,1.94,0,0,0,4.252,9.4a7.393,7.393,0,0,1,.6-1.044A1.791,1.791,0,0,0,4.923,6.34L3.654,4.1,10.815,0l1.269,2.237a1.865,1.865,0,0,0,1.79.9h1.193a1.716,1.716,0,0,0,1.79-.97L18.124,0l7.16,4.1L24.017,6.265a1.941,1.941,0,0,0,.075,2.089,4.737,4.737,0,0,1,.6,1.044A2.087,2.087,0,0,0,26.4,10.516H28.94v8.205H26.4a2.163,2.163,0,0,0-1.715,1.044,8.042,8.042,0,0,1-.6,1.119,1.791,1.791,0,0,0-.075,2.014l1.268,2.163-7.16,4.1Z" transform="translate(376.141 187.213)" fill="#ebebeb"/>
          <path id="Shape-15" data-name="Shape" d="M10.443,28.94V26.4A1.789,1.789,0,0,0,9.4,24.688l-1.044-.6a1.941,1.941,0,0,0-2.089-.075L4.1,25.285,0,18.124l2.163-1.268a1.94,1.94,0,0,0,.97-1.79V13.874a2.091,2.091,0,0,0-.97-1.865L0,10.815l4.1-7.16L6.265,4.923a2.091,2.091,0,0,0,2.089-.075l1.044-.6a2.016,2.016,0,0,0,1.045-1.716V0h8.279V2.535a2.015,2.015,0,0,0,1.044,1.716l1.045.6a2.088,2.088,0,0,0,2.088.075l2.163-1.269,4.1,7.16L27,12.008a2.088,2.088,0,0,0-.97,1.865v1.193a1.937,1.937,0,0,0,.97,1.79l2.162,1.268-4.1,7.16L22.9,24.017a1.938,1.938,0,0,0-2.088.075l-1.045.6A1.79,1.79,0,0,0,18.722,26.4V28.94Z" transform="translate(30.581 26.851)" fill="#ebebeb"/>
        </g>
        <g id="Chair_2" transform="translate(253.745 178.06)">
          <path id="Path-10" data-name="Path" d="M0,96.888H83.463L66.83,0H4.4L0,96.888Z" transform="translate(0 0)" fill="#dbdbdb"/>
          <path id="Path-11" data-name="Path" d="M0,96.888H7.31L11.412,0H4.4L0,96.888Z" transform="translate(0 0)" fill="#a6a6a6"/>
        </g>
        <g id="Chair_1" transform="translate(160.96 178.06)">
          <path id="Path-12" data-name="Path" d="M83.537,96.888H0L16.707,0H79.137l4.4,96.888Z" transform="translate(0 0)" fill="#dbdbdb"/>
          <path id="Path-13" data-name="Path" d="M11.412,96.888H4.1L0,0H7.011l4.4,96.888Z" transform="translate(72.125 0)" fill="#a6a6a6"/>
        </g>
        <g id="Windows" transform="translate(40.353 89.003)">
          <rect id="Rectangle-3" data-name="Rectangle" width="76.899" height="49.056" transform="translate(324.378 34.235)" fill="#fff"/>
          <path id="Shape-16" data-name="Shape" d="M0,49.973V0H77.868V49.973Z" transform="translate(323.93 33.788)" fill="#ebebeb"/>
          <rect id="Rectangle-4" data-name="Rectangle" width="76.899" height="9.279" transform="translate(324.378 34.235)" fill="#ffc727"/>
          <path id="Shape-17" data-name="Shape" d="M0,10.218V0H77.868V10.218Z" transform="translate(323.93 33.788)" fill="#ebebeb"/>
          <path id="Path-14" data-name="Path" d="M4.772,2.313A2.387,2.387,0,1,1,2.46,0,2.312,2.312,0,0,1,4.772,2.313Z" transform="translate(328.332 36.621)" fill="#a6a6a6"/>
          <path id="Path-15" data-name="Path" d="M4.772,2.313A2.387,2.387,0,1,1,2.46,0,2.312,2.312,0,0,1,4.772,2.313Z" transform="translate(337.879 36.621)" fill="#ebebeb"/>
          <path id="Path-16" data-name="Path" d="M4.736,1.967A2.387,2.387,0,1,1,2.387,0,2.387,2.387,0,0,1,4.736,1.967Z" transform="translate(347.462 36.968)" fill="#fff"/>
          <rect id="Rectangle-5" data-name="Rectangle" width="76.899" height="49.056" transform="translate(0.448 39.233)" fill="#fff"/>
          <path id="Shape-18" data-name="Shape" d="M0,50.048V0H77.868V50.048Z" transform="translate(0 38.711)" fill="#ebebeb"/>
          <rect id="Rectangle-6" data-name="Rectangle" width="76.899" height="9.279" transform="translate(0.448 39.233)" fill="#ffc727"/>
          <path id="Shape-19" data-name="Shape" d="M0,10.293V0H77.868V10.293Z" transform="translate(0 38.711)" fill="#ebebeb"/>
          <path id="Path-17" data-name="Path" d="M4.624,2.312A2.312,2.312,0,1,1,2.312,0,2.312,2.312,0,0,1,4.624,2.312Z" transform="translate(4.55 41.619)" fill="#a6a6a6"/>
          <path id="Path-18" data-name="Path" d="M4.772,2.313A2.387,2.387,0,1,1,2.46,0,2.312,2.312,0,0,1,4.772,2.313Z" transform="translate(13.949 41.618)" fill="#ebebeb"/>
          <path id="Path-19" data-name="Path" d="M4.772,2.313A2.387,2.387,0,1,1,2.46,0,2.312,2.312,0,0,1,4.772,2.313Z" transform="translate(23.496 41.618)" fill="#fff"/>
          <rect id="Rectangle-7" data-name="Rectangle" width="52.36" height="19.393" transform="translate(283.653 0)" fill="#455a64"/>
          <path id="Path-20" data-name="Path" d="M8.727,16.782l3.207,7.981L8.727,26.105,5.37,18.125,0,22.3V0L15.589,15.812l-6.862.97Z" transform="translate(369.204 74.811)" fill="#263238"/>
          <path id="Path-21" data-name="Path" d="M.336,2.238A2.909,2.909,0,0,1,.336,0a2.909,2.909,0,0,1,0,2.238Z" transform="translate(368.868 70.186)" fill="#263238"/>
          <path id="Path-22" data-name="Path" d="M1.566,1.641A3.58,3.58,0,0,1,0,0,3.58,3.58,0,0,1,1.566,1.641Z" transform="translate(365.699 71.603)" fill="#263238"/>
          <path id="Path-23" data-name="Path" d="M2.238.29A2.909,2.909,0,0,1,0,.29a4.251,4.251,0,0,1,2.238,0Z" transform="translate(364.207 74.819)" fill="#263238"/>
          <path id="Path-24" data-name="Path" d="M1.566,0A2.834,2.834,0,0,1,.9.97L0,1.641A3.58,3.58,0,0,1,1.566,0Z" transform="translate(365.699 77.048)" fill="#263238"/>
          <path id="Path-25" data-name="Path" d="M0,.29a4.251,4.251,0,0,1,2.238,0A2.909,2.909,0,0,1,0,.29Z" transform="translate(371.964 74.819)" fill="#263238"/>
          <path id="Path-26" data-name="Path" d="M0,1.641A3.58,3.58,0,0,1,1.566,0,3.58,3.58,0,0,1,0,1.641Z" transform="translate(371.144 71.603)" fill="#263238"/>
        </g>
        <g id="Character_2" transform="translate(257.997 129.599)">
          <path id="Path-27" data-name="Path" d="M34.143,3.195C23.924,12,26.759,24.825,22.507,31.762c-2.685,4.251-11.188,8.8-12.9,13.649-2.76,8.055,4.028,10.964,2.536,15.365C9.977,66.967,1.623,66.519.131,76.663s9.7,20.959,36.249,23.868,41.1-6.787,41.992-15.365S70.541,73.679,69.944,67.19c-.373-4.1,5.072-6.937,5.3-14.544s-7.086-9.995-8.13-16.409,2.312-22.078-7.086-30.058S39.215-1.206,34.143,3.195Z" transform="translate(7.85 0.514)" fill="#263238"/>
          <path id="Path-28" data-name="Path" d="M37.435.009A21.481,21.481,0,0,0,30.647,7.84a47.288,47.288,0,0,0-3.8,10.442,28.119,28.119,0,0,1-2.088,6.265,16.26,16.26,0,0,1-3.506,4.4c-2.909,2.536-6.34,4.55-8.876,7.459S8.047,42.822,9.017,46.626c.522,2.014,1.865,3.729,2.685,5.594s1.119,4.1-.448,5.594-3.207,1.865-4.7,2.909a16.782,16.782,0,0,0-3.879,3.729A12.9,12.9,0,0,0,.216,74.67c1.566,8.279,9.323,12.978,16.409,15.887l3.058,1.268c.149,0,.224-.224.075-.224C12.6,88.32,4.318,84.59,1.558,76.535A11.859,11.859,0,0,1,2.752,65.944a16.26,16.26,0,0,1,3.8-4.028c1.417-1.044,3.133-1.715,4.55-2.685a5,5,0,0,0,2.312-4.4A12.158,12.158,0,0,0,11.4,49.609a10.714,10.714,0,0,1-1.715-5.594,10.666,10.666,0,0,1,2.163-5.3c2.238-3.133,5.519-5.221,8.5-7.608a17.581,17.581,0,0,0,6.414-8.95c.6-1.865.9-3.8,1.417-5.743s.97-3.506,1.566-5.221a24.464,24.464,0,0,1,5.594-9.249A16.185,16.185,0,0,1,37.509.158a.083.083,0,0,0-.075-.149Z" transform="translate(5.751 3.924)" fill="#263238"/>
          <path id="Path-29" data-name="Path" d="M17.25,68.725a9.4,9.4,0,0,0-1.865-3.879,41.1,41.1,0,0,0-3.058-3.207,7.757,7.757,0,0,1-2.163-3.58,7.16,7.16,0,0,1,1.193-4.774,38.785,38.785,0,0,0,2.387-4.624,16.036,16.036,0,0,0,.97-4.923,17.08,17.08,0,0,0-2.611-9.92c-.9-1.492-1.939-2.834-2.834-4.326a20.064,20.064,0,0,1-2.387-5.146c-1.193-4.028-1.417-8.2-2.387-12.307A69.962,69.962,0,0,0,.17.031C.095-.044-.054.031.02.105A56.91,56.91,0,0,1,3.75,11c.9,3.58,1.193,7.16,1.79,10.74a37.144,37.144,0,0,0,1.343,5.146,42.142,42.142,0,0,0,2.312,4.475c1.79,2.909,3.655,5.818,4.177,9.249a16.334,16.334,0,0,1-1.715,9.92C10.239,53.211,8.3,56.12,9.493,59.178s3.58,4.177,5.221,6.34a10.741,10.741,0,0,1,1.79,8.354C15.087,81.33,7.628,84.985.617,85.358c-.149.075-.149.373.075.373,6.042-.075,12.605-2.76,15.439-8.428A12.605,12.605,0,0,0,17.25,68.725Z" transform="translate(70.166 10.614)" fill="#263238"/>
          <path id="Path-30" data-name="Path" d="M.91,13.555c6.713,26.7,13.351,47.064,20.959,52.062,6.191,4.028,14.768,6.862,23.644,8.876a228.044,228.044,0,0,0,28.716,4.1l7.235.522c4.326.224,11.412-28.418,8.354-31.923-.746-.82-3.58-1.417-7.608-1.939-13.5-1.715-40.128-2.088-41.694-3.58S25.3,21.088,13.664,6.1C5.609-4.2-2.82-1.288.91,13.555Z" transform="translate(50.257 57.133)" fill="#d3766a"/>
          <path id="Path-31" data-name="Path" d="M0,31.442a110.712,110.712,0,0,0,12.9,4.774c3.506.9,13.724,3.133,15.067-.671.9-2.536-4.923-4.55-9.025-6.116-2.163-.82-4.848-2.909-4.251-4.326s6.564-.224,10.218,1.715c7.086,3.8,16.633,10.74,20.735,7.011,1.566-1.343-.373-3.729-3.207-5.967,4.55,2.611,9.323,4.7,11.113,3.207s1.044-1.939.373-3.207a2.979,2.979,0,0,0,3.431-.671c.82-.97.6-3.729-1.044-5.967a1.79,1.79,0,0,0,1.268-.9c2.834-4.774-12.9-17.528-18.2-18.572C23.719-1.377,7.31.637,7.31.637,1.417,5.709,0,31.442,0,31.442Z" transform="translate(122.994 101.899)" fill="#d3766a"/>
          <path id="Path-32" data-name="Path" d="M0,0A25.956,25.956,0,0,1,10.517,3.58c3.729,2.387,6.713,5.669,10.144,8.354.075.075,0,.224-.149.149C18.945,10.666,17.155,9.4,15.439,8.13s-3.207-2.685-4.923-3.879A24.763,24.763,0,0,0,0,.075Z" transform="translate(145.22 118.05)" fill="#263238"/>
          <path id="Path-33" data-name="Path" d="M.056,0A63.577,63.577,0,0,1,12.214,3.729c3.879,1.79,7.608,5.3,10.89,8.5,2.014,1.865,3.953,3.879,5.818,5.892.075.075,0,.224-.075.075-3.356-3.282-6.862-6.489-10.368-9.547A33.415,33.415,0,0,0,7.216,2.163C4.829,1.343,2.443.746.056.075-.019.075-.019,0,.056,0Z" transform="translate(147.85 111.337)" fill="#263238"/>
          <path id="Path-34" data-name="Path" d="M0,0C4.028.671,7.459,1.268,11.039,3.207c4.774,2.685,9.4,7.235,11.039,8.876s3.58,3.58,5.3,5.445c.075.075-.075.224-.149.149A121.651,121.651,0,0,0,14.694,6.191,24.912,24.912,0,0,0,7.832,2.014,48.332,48.332,0,0,0,0,0Z" transform="translate(152.008 105.445)" fill="#263238"/>
          <path id="Path-35" data-name="Path" d="M6.174,41.9,30.191,27.8S19.972,11.246,11.171,3.489-1.061,1.774.282,13.111,6.174,41.9,6.174,41.9Z" transform="translate(49.915 55.637)" fill="#ffc727"/>
          <path id="Path-36" data-name="Path" d="M20.244.015C16.44,1.954,6.147,7.623.031,12.173c-.075,0,0,.224.075.149C5.849,9.338,16.738,2.551,20.393.239,20.468.164,20.318-.06,20.244.015Z" transform="translate(56.058 79.847)" fill="#263238"/>
          <path id="Path-37" data-name="Path" d="M28.183,28.94l-22,12.978S1.63,24.464.288,13.127C-.607,5.818.586.671,3.868,0Z" transform="translate(49.909 55.621)" fill="#263238"/>
          <path id="Path-38" data-name="Path" d="M79.286,91.579H0S17.23,25.122,33.191,6.4a7.981,7.981,0,0,1,1.044-1.193l.224-.224A16.335,16.335,0,0,1,38.711,1.7l.9-.448C45.722-1.58,52.211.732,56.91,4.76,58.4,6.028,75.183,27.882,76.675,36.236s-3.729,15.29-3.729,15.29Z" transform="translate(0 53.621)" fill="#ffc727"/>
          <path id="Path-39" data-name="Path" d="M19.9,0A63.7,63.7,0,0,0,9.9,1.79c-1.641.373-3.282.9-4.848,1.417l-2.387.82a10.069,10.069,0,0,1-2.611.448c-.075,0-.075.149,0,.149H2.592L4.9,4.177c1.641-.448,3.282-.97,5-1.343,3.282-.9,6.638-1.79,9.995-2.461C20.045.3,20.045,0,19.9,0Z" transform="translate(41.191 102.238)" fill="#263238"/>
          <path id="Path-40" data-name="Path" d="M16.763.311A78.167,78.167,0,0,0,8.41.012a37.965,37.965,0,0,0-4.177.3L2.219.534.056.907c-.075,0-.075.149,0,.149H4.233L8.41.907C11.169.758,14,.684,16.763.684A.211.211,0,0,0,16.763.311Z" transform="translate(52.677 104.836)" fill="#263238"/>
          <path id="Path-41" data-name="Path" d="M27.062,6.645C12.145,27.6-7.248,64.076,2.747,70.715,19.081,81.753,64.132,84.737,74.425,84.961c4.475.149,10.517-29.387,7.235-32.818S31.239,50.5,30.642,47.667C30.269,46.026,36.087,31.184,39,13.283,42.352-7.3,31.239.678,27.062,6.645Z" transform="translate(1.579 57.256)" fill="#d3766a"/>
          <path id="Path-42" data-name="Path" d="M6.4,1.969S19.825.552,28.7.1c4.923-.3,13.426,0,17.155,1.417,5.519,2.163,27.373,14.843,24.39,20.213s-20.064-8.428-20.064-8.428,18.8,11.859,14.47,17.08S42.723,18.08,42.723,18.08s18.945,12.605,13.649,17.3C52.42,38.965,35.488,23.9,35.488,23.9S51.748,34.862,47.8,38.666s-20.81-8.652-20.81-8.652C15.275,38.069,6.4,37.174.209,35.757-1.357,35.384,6.4,1.969,6.4,1.969Z" transform="translate(68.933 105.788)" fill="#d3766a"/>
          <path id="Path-43" data-name="Path" d="M.075,0A75.556,75.556,0,0,1,6.713,4.1C8.876,5.594,10.964,7.235,12.9,8.876a44.081,44.081,0,0,1,7.086,7.384C15.962,11.71,8.428,6.191,6.34,4.7S2.163,1.566,0,.075Z" transform="translate(112.85 114.619)" fill="#263238"/>
          <path id="Path-44" data-name="Path" d="M.033.033C2.867,1.823,5.7,3.464,8.461,5.4s6.414,4.7,8.95,6.787c.224.149.075.522-.149.373-2.685-2.014-6.564-4.7-9.249-6.638S2.718,1.9.033.033C-.041.033.033-.041.033.033Z" transform="translate(107.297 122.194)" fill="#263238"/>
          <path id="Path-45" data-name="Path" d="M.178.015A76.88,76.88,0,0,1,12.336,9.264c.149.149-.075.224-.224.075C8.085,6.206,5.027,3.67.029.164-.045.164.029-.059.178.015Z" transform="translate(101.26 127.806)" fill="#263238"/>
          <path id="Path-46" data-name="Path" d="M.112,2.466C6.228,1.87,24.278.08,30.469,0s9.995.671,14.843,3.207A72.856,72.856,0,0,1,64.48,17.831c1.79,2.088,2.685,3.282,1.566,4.923s-7.235.746-13.649-4.1c-.3-.149-.149-.3.075-.149,9.025,6.042,12.307,4.923,13.053,3.655s-.149-2.014-.746-2.983a19.542,19.542,0,0,0-3.356-3.655A85.626,85.626,0,0,0,47.7,5.6,32.594,32.594,0,0,0,30.1.825C23.83.9,6.452,2.765.112,2.765-.037,2.765-.037,2.541.112,2.466Z" transform="translate(73.281 104.993)" fill="#263238"/>
          <path id="Path-47" data-name="Path" d="M11.874,8.832A13.227,13.227,0,0,0,8.891,4.506,27.746,27.746,0,0,0,4.49.031c-.075-.075-.149,0-.149.075A55.269,55.269,0,0,1,8.369,4.432c.6.82,1.268,1.715,1.79,2.611A5.37,5.37,0,0,1,11.2,10.026c-.3,2.014-2.834,2.238-4.326,1.79a20.138,20.138,0,0,1-2.983-1.044A27.3,27.3,0,0,1,.239,8.459c-.075-.075-.3,0-.224.075C2.476,10.473,7.1,14.5,10.383,12.561a3.207,3.207,0,0,0,1.492-3.729Z" transform="translate(122.456 124.583)" fill="#263238"/>
          <path id="Path-48" data-name="Path" d="M0,29.355l26.18,9.473s6.191-18.5,6.564-30.208S26.255-1.9,18.348,6.382,0,29.355,0,29.355Z" transform="translate(10.069 56.399)" fill="#ffc727"/>
          <path id="Path-49" data-name="Path" d="M22.3,7.832C18.348,6.116,7.459,1.79,0,0V.149C5.967,2.685,18.2,6.713,22.3,8.055,22.3,8.13,22.376,7.832,22.3,7.832Z" transform="translate(14.246 82.174)" fill="#263238"/>
          <path id="Path-50" data-name="Path" d="M7.619,3.431c0-.075,0-.075-.075-.075a28.387,28.387,0,0,0-1.268,2.76c.448-2.014.9-4.1,1.268-6.116H7.4C5.606,6.042,3.741,12.008,2.1,18.05L.086,17.9c-.075,0-.149.149,0,.224l2.088.6c.224.075.448.075.522-.149A85.253,85.253,0,0,0,5.829,8.055,17.9,17.9,0,0,0,6.65,6.34,22.152,22.152,0,0,0,7.619,3.431Z" transform="translate(34 76.655)" fill="#263238"/>
          <path id="Path-51" data-name="Path" d="M5.261.122C-.706,1.24-.706,7.8.935,12.578S6.38,23.094,9.512,23.243s4.475-7.608,4.475-7.608,3.953,5.3,6.414,3.8S19.134,8.7,16.076,5.566C11.675,1.091,8.393-.475,5.261.122Z" transform="translate(41.132 52.292)" fill="#fff"/>
          <path id="Path-52" data-name="Path" d="M0,23.122c.075,1.417,5.37,11.263,11.71,11.859,2.014.224,3.58-10.964,3.58-10.964l.3-.82,4.251-11.113L7.538,1.417,5.748,0,3.585,7.011a1.79,1.79,0,0,1-.149.6,1.417,1.417,0,0,0-.149.6l-.6,1.79a9.025,9.025,0,0,1-.373,1.343,7.832,7.832,0,0,1-.373,1.417A70.244,70.244,0,0,0,0,23.122Z" transform="translate(42.883 32.648)" fill="#d3766a"/>
          <path id="Path-53" data-name="Path" d="M0,7.011A23.793,23.793,0,0,0,12.008,23.2L16.26,12.083,3.953,1.417,2.163,0Z" transform="translate(46.468 32.648)" fill="#263238"/>
          <path id="Path-54" data-name="Path" d="M37.443,27.075C36.4,48.034,23.719,49.749,19.17,49.526S1.12,48.034.075,27.075,9.026,0,18.424,0,38.562,6.116,37.443,27.075Z" transform="translate(43.632 1.397)" fill="#d3766a"/>
          <path id="Path-55" data-name="Path" d="M2.859,2.44,1.441,1.992A2.312,2.312,0,0,1,.1,1.321a.82.82,0,0,1,.075-.9,1.865,1.865,0,0,1,1.865-.3A2.536,2.536,0,0,1,3.679,1.247C4.127,1.769,3.53,2.515,2.859,2.44Z" transform="translate(75.457 22.302)" fill="#263238"/>
          <path id="Path-56" data-name="Path" d="M.785,2.212l1.492-.224A2.461,2.461,0,0,0,3.694,1.54a.82.82,0,0,0,.075-.9,1.79,1.79,0,0,0-1.79-.6,2.685,2.685,0,0,0-1.79.82.82.82,0,0,0,.6,1.343Z" transform="translate(64.106 21.636)" fill="#263238"/>
          <path id="Path-57" data-name="Path" d="M1.771,0s-.149.075-.149.149c0,1.417-.3,3.058-1.566,3.431-.075.075-.075.149,0,.149C1.622,3.58,2,1.343,1.771,0Z" transform="translate(65.282 28.994)" fill="#263238"/>
          <path id="Path-58" data-name="Path" d="M1.969.008c-2.312-.224-2.685,4.326-.6,4.624S3.908.306,1.969.008Z" transform="translate(63.892 27.419)" fill="#263238"/>
          <path id="Path-59" data-name="Path" d="M2.8.572a2.76,2.76,0,0,1-1.343.6C.933,1.169.561.646.188.2S.113.2.113.2.337,2.064,1.232,2.287A1.79,1.79,0,0,0,3.1.87C3.1.721,3.022.423,2.8.572Z" transform="translate(62.092 27.079)" fill="#263238"/>
          <path id="Path-60" data-name="Path" d="M.257,0H.332C.108,1.417.183,3.133,1.376,3.729s.075.075,0,.075C-.19,3.506-.19,1.268.257,0Z" transform="translate(74.628 29.441)" fill="#263238"/>
          <path id="Path-61" data-name="Path" d="M1.619,0C3.857.075,3.633,4.7,1.47,4.624S-.32,0,1.619,0Z" transform="translate(74.683 28.024)" fill="#263238"/>
          <path id="Path-62" data-name="Path" d="M.273.271c.373.3.671.746,1.119.82S2.287.644,2.66.2s.075,0,.075.075-.373,1.79-1.268,1.865S.2,1.464.049.569.124.2.273.271Z" transform="translate(76.924 28.126)" fill="#263238"/>
          <path id="Path-63" data-name="Path" d="M.149,0c.3.373.522.9,1.044,1.044A5.3,5.3,0,0,0,2.76.9c.075-.075.075,0,.075.075A2.238,2.238,0,0,1,.9,1.492,1.566,1.566,0,0,1,0,.075C0,0,.075,0,.149,0Z" transform="translate(65.86 39.958)" fill="#263238"/>
          <path id="Path-64" data-name="Path" d="M5.092,13.954s.149,2.163.075,3.133-3.729.6-5.146-2.014c-.075-.149.075-.224.149-.149A7.459,7.459,0,0,0,4.421,16.49c.149-.224-.3-3.655-.149-3.655a10.591,10.591,0,0,1,2.238.671C6.36,9.032,5.54,4.631,5.465.156c0-.149.224-.224.224-.075,1.268,4.624,1.492,9.771,1.79,14.4C7.479,15.073,5.465,14.1,5.092,13.954Z" transform="translate(66.959 22.05)" fill="#263238"/>
          <path id="Path-65" data-name="Path" d="M3.975,29.367c5.146.448,8.652-14.992,9.1-16.931-.224,1.193-1.268,7.682-.746,7.981a4.1,4.1,0,0,0,1.641-.075h0a14.022,14.022,0,0,1,.448-2.312c.149-.373.075.82.075,2.238l.97-.149A18.721,18.721,0,0,1,16.58,15.27c.224-.6.075,2.163.3,4.624A62.135,62.135,0,0,1,30.6,19.372a19.393,19.393,0,0,1,3.282.448c.3-1.939.3-3.953.448-3.506a21.258,21.258,0,0,1,.3,3.655l1.417.3c.522-2.685-.224-7.16.149-6.489a20.288,20.288,0,0,1,1.715,7.011c1.79.6,2.238,1.044,2.387.522a23.258,23.258,0,0,0-5-14.768C30.155.278,17.177-3.526,8.749,4.753c0,0-6.414,3.133-8.13,9.174S.992,29.068,3.975,29.367Z" transform="translate(41.224 0)" fill="#263238"/>
          <path id="Path-66" data-name="Path" d="M8.364,6.028S4.784-1.058,1.576.135.532,11.249,3.814,12.964a3.431,3.431,0,0,0,4.923-1.193Z" transform="translate(38.7 22.668)" fill="#d3766a"/>
          <path id="Path-67" data-name="Path" d="M.056,0c-.075,0-.075.075,0,.075C2.294,1.417,3.263,3.8,3.86,6.265a1.929,1.929,0,0,0-2.834-.9c-.075,0,0,.149.075.149A2.088,2.088,0,0,1,3.338,6.564a17.6,17.6,0,0,1,.9,2.088.227.227,0,0,0,.448-.075h0C5.128,5.445,3.338.746.056,0Z" transform="translate(40.892 25.637)" fill="#263238"/>
        </g>
        <g id="Character_1" transform="translate(56.186 122.463)">
          <path id="Path-68" data-name="Path" d="M79.08,10.746c-5.37,23.2-16.111,52.434-24.39,58.4C47.978,73.921,12.773,82.274,10.834,82.5c-4.848.522-14.47-33.788-9.4-35.2,6.34-1.715,36.473-2.685,38.188-4.475S52.378,26.185,64.76,8.955C73.337-2.978,82.362-3.575,79.08,10.746Z" transform="translate(48.815 58.203)" fill="#ad6359"/>
          <path id="Path-69" data-name="Path" d="M63.527,33.312c-.6.3-8.8,4.4-13.873,5.892-3.8,1.119-14.768,3.953-16.409-.075-1.119-2.76,5.146-5.221,9.547-7.086,2.312-.9,5.221-3.356,4.475-4.848s-7.086,0-11.039,2.312c-7.608,4.4-17.677,12.307-22.3,8.428-1.715-1.417.3-4.028,3.282-6.638C12.36,34.282,7.214,36.818,5.2,35.251s-1.193-2.088-.522-3.431c-1.492.448-2.834.373-3.729-.6s-.82-4.1.9-6.564a1.865,1.865,0,0,1-1.417-.9C-2.855,18.693,13.7,4.149,19.446,2.806,36.377-1.222,54.353.27,54.353.27,60.991,5.566,63.527,33.312,63.527,33.312Z" transform="translate(0 105.524)" fill="#ad6359"/>
          <path id="Path-70" data-name="Path" d="M22.023,0A29.387,29.387,0,0,0,10.761,4.4C6.435,7.16,3.6,10.517.02,13.8c-.075.149.075.3.149.224,1.715-1.641,8.8-7.608,10.666-8.95a28.119,28.119,0,0,1,11.188-5C22.1.075,22.1,0,22.023,0Z" transform="translate(16.666 123.247)" fill="#263238"/>
          <path id="Path-71" data-name="Path" d="M30.761,0A66.662,66.662,0,0,0,17.633,4.55c-4.1,2.088-8.055,6.042-11.486,9.7C4.059,16.409,1.97,18.572.031,20.884c-.075.075,0,.224.075.149,3.58-3.729,7.16-7.384,10.964-10.89A36.4,36.4,0,0,1,23,2.611C25.54,1.641,28.15.9,30.761.075,30.835.075,30.761,0,30.761,0Z" transform="translate(4.796 116.087)" fill="#263238"/>
          <path id="Path-72" data-name="Path" d="M29.089,0C24.763.9,21.033,1.641,17.23,3.953c-5.072,3.058-9.995,8.2-11.71,10.069S1.865,18.125,0,20.213c0,.075.075.224.224.149A135.524,135.524,0,0,1,13.351,7.31a28.492,28.492,0,0,1,7.384-4.774A46.691,46.691,0,0,1,29.089.075C29.163,0,29.089,0,29.089,0Z" transform="translate(1.694 109.822)" fill="#263238"/>
          <path id="Path-73" data-name="Path" d="M0,40.08l32.445-1.343S38.338,22.627,40.5,8.381s-9.995-9.1-22,6.191S0,40.08,0,40.08Z" transform="translate(88.663 57.584)" fill="#a6a6a6"/>
          <path id="Path-74" data-name="Path" d="M27.056.039C20.045-.11,13.034.188,6.023.635L.056,1.158c-.075,0-.075.075,0,.075,3.506.075,7.011-.075,10.517-.224S17.584.785,21.089.561L27.056.188C27.131.188,27.131.039,27.056.039Z" transform="translate(95.17 89.197)" fill="#263238"/>
          <path id="Shape-20" data-name="Shape" d="M20.437,38.114c0-.074-.074-.149-.074-.223a2.5,2.5,0,0,1,.074-.747,1.493,1.493,0,0,1,1.268-.821.82.82,0,0,0,.821-.521c.149-.15.149-.3.224-.522a2.167,2.167,0,0,1,.149-.671c0,.223.075.447.075.671a1.28,1.28,0,0,1,0,.745,1.494,1.494,0,0,1-1.269.821,1.118,1.118,0,0,0-.894.522,1.032,1.032,0,0,0-.149.522.3.3,0,0,0-.075.223ZM6.564,35.8a.9.9,0,0,0-.97-.3l-.522.224a1.359,1.359,0,0,1-.522.373l.373-.522a1.405,1.405,0,0,1,.6-.522,1.491,1.491,0,0,1,1.417.373,1.044,1.044,0,0,0,.97.223l.522-.3.6-.372a2.592,2.592,0,0,0-.372.6,1.777,1.777,0,0,1-.6.447A1.34,1.34,0,0,1,6.564,35.8ZM.821,29.462A1.194,1.194,0,0,1,0,28.493l.447-.6a.449.449,0,0,1,.075.3,1.043,1.043,0,0,0,.447.9l.522.223.671.075-.671.149a.748.748,0,0,1-.671-.074Zm23.271-3.506a.971.971,0,0,0-.97-.3.67.67,0,0,0-.522.224l-.6.372.373-.521a1.992,1.992,0,0,1,.6-.522,1.414,1.414,0,0,1,1.491.3.9.9,0,0,0,.97.3l.448-.3.6-.373a2.588,2.588,0,0,1-.373.6,1.043,1.043,0,0,1-.522.447,1.343,1.343,0,0,1-1.491-.224ZM11.635,24.837a.9.9,0,0,1,.075-.745,1.415,1.415,0,0,1,1.268-.821.969.969,0,0,0,.821-.448,1.776,1.776,0,0,0,.149-.6c.075-.224.075-.894.149-.671s.075.447.149.671a.9.9,0,0,1-.074.747,1.27,1.27,0,0,1-1.194.894,1.043,1.043,0,0,0-.894.447l-.224.522c0,.224-.075.447-.075.671A2.2,2.2,0,0,1,11.635,24.837ZM27,15.29a1.342,1.342,0,0,1-.821-1.268,1.123,1.123,0,0,0-.522-.9l-.522-.149-.671-.149.671-.149h.671a1.269,1.269,0,0,1,.9,1.268.968.968,0,0,0,.447.821.823.823,0,0,0,.6.224l.6.3h-.6a1.261,1.261,0,0,1-.745,0Zm-12.978-5h-.075l.373-.373h.074a.9.9,0,0,0,.97.3l.522-.224a1.343,1.343,0,0,1,.522-.372l-.373.522a1.411,1.411,0,0,1-.6.521,1.491,1.491,0,0,1-1.417-.372Zm9.77-7.385a.9.9,0,0,1,.075-.745,1.416,1.416,0,0,1,1.268-.821.969.969,0,0,0,.821-.448,1.4,1.4,0,0,0,.149-.6A.3.3,0,0,0,26.18.075L26.329,0c0,.149.074.224.074.3a1.417,1.417,0,0,1-1.268,1.641,1.043,1.043,0,0,0-.894.447c-.149.149-.149.3-.224.522a2.083,2.083,0,0,0-.074.671A2.169,2.169,0,0,1,23.793,2.909Z" transform="translate(96.121 58.357)" fill="#dbdbdb"/>
          <path id="Path-75" data-name="Path" d="M0,96.869H82.791c.9-1.715-12.68-74.214-40.575-94.576C36.025-2.257,25.061.652,22,5.052,6.638,27.2,0,96.869,0,96.869Z" transform="translate(96.867 55.617)" fill="#a6a6a6"/>
          <path id="Shape-21" data-name="Shape" d="M45.87,93.651a1.488,1.488,0,0,1-.819-1.268.97.97,0,0,0-.448-.821l-.6-.223-.671-.15.671-.149h.745a1.417,1.417,0,0,1,.9,1.269,1.045,1.045,0,0,0,.447.894l.522.149.671.149-.671.149ZM71.6,92.979a.9.9,0,0,0-.97-.3l-.522.3-.522.373a2.664,2.664,0,0,1,.373-.6,1.047,1.047,0,0,1,.522-.447,1.342,1.342,0,0,1,1.492.223.894.894,0,0,0,.97.3.824.824,0,0,0,.522-.223l.521-.373a1.343,1.343,0,0,1-.372.522,1.2,1.2,0,0,1-.522.522,1.343,1.343,0,0,1-1.492-.3Zm-47.362,0a.9.9,0,0,0-.97-.3l-.448.3-.6.373.373-.6a1.417,1.417,0,0,1,2.013-.224,1.044,1.044,0,0,0,.97.3.669.669,0,0,0,.522-.223l.6-.373-.373.522a2.036,2.036,0,0,1-.6.522,1.419,1.419,0,0,1-1.492-.3ZM1.119,92.085a1.343,1.343,0,0,1-.894-1.268A.747.747,0,0,0,0,90.146v-.522a1.418,1.418,0,0,1,.821,1.194,1.045,1.045,0,0,0,.447.894l.522.224.671.074-.671.149a.738.738,0,0,1-.262.048A.749.749,0,0,1,1.119,92.085Zm56.239-3.878a.9.9,0,0,1,.074-.747,1.345,1.345,0,0,1,1.194-.821,1.115,1.115,0,0,0,.894-.521,1.053,1.053,0,0,0,.15-.522c.074-.224.074-.9.149-.671s.074.447.149.671a1.267,1.267,0,0,1-.075.745,1.342,1.342,0,0,1-1.194.821,1.045,1.045,0,0,0-.894.522c-.149.149-.149.3-.224.522a2.134,2.134,0,0,1-.149.671C57.431,88.654,57.357,88.43,57.357,88.207ZM11.784,86.49a1.191,1.191,0,0,0-.97-.223.668.668,0,0,0-.521.223l-.6.373.373-.522.6-.521a1.416,1.416,0,0,1,1.492.3,1.123,1.123,0,0,0,.97.3l.522-.3.522-.373a2.622,2.622,0,0,1-.373.6,1.317,1.317,0,0,1-2.014.149Zm62.579-2.909a1.193,1.193,0,0,1-.821-1.193,1.045,1.045,0,0,0-.522-.9,1.124,1.124,0,0,0-.6-.149l-.6-.074.6-.15a1.419,1.419,0,0,1,1.641,1.269.969.969,0,0,0,.447.894c.149.149.373.149.6.224l.6.149h-.6a.9.9,0,0,1-.292.049A.889.889,0,0,1,74.363,83.582ZM36.7,83.061a1.044,1.044,0,0,0-.97-.224l-.522.3-.6.373a2.645,2.645,0,0,0,.373-.6,1.8,1.8,0,0,1,.6-.447,1.342,1.342,0,0,1,1.492.224.894.894,0,0,0,.97.3l.522-.224.521-.372-.372.521a1.2,1.2,0,0,1-.522.522,1.416,1.416,0,0,1-1.492-.372Zm-15.141-.15c-.074-.223-.074-.447-.149-.67a2.059,2.059,0,0,1,.075-.671,1.416,1.416,0,0,1,1.268-.9,1.041,1.041,0,0,0,.894-.447c.075-.149.075-.373.149-.6a2.169,2.169,0,0,1,.15-.671c0,.223.074.447.074.671a1.261,1.261,0,0,1,0,.745,1.419,1.419,0,0,1-1.268.9,1.043,1.043,0,0,0-.9.447,1.057,1.057,0,0,0-.149.522c-.064.192-.072.715-.122.715C21.575,82.955,21.566,82.942,21.555,82.91Zm27.821-3.878a1.192,1.192,0,0,1-.821-1.268,1.044,1.044,0,0,0-.522-.821l-.6-.149-.671-.074.671-.15a.9.9,0,0,1,.745.075,1.269,1.269,0,0,1,.9,1.194,1.042,1.042,0,0,0,.447.894l.522.224h.671l-.671.149a.745.745,0,0,1-.671-.075ZM9.324,76.049A1.342,1.342,0,0,1,8.5,74.78a.967.967,0,0,0-.448-.819l-.6-.15-.671-.074.671-.149A1.417,1.417,0,0,1,9.1,74.855a.9.9,0,0,0,.447.9c.149.149.3.149.522.223h.671l-.671.149a.894.894,0,0,1-.745-.074ZM63.771,75.6a1.043,1.043,0,0,0-.97-.223c-.223,0-.3.149-.522.223l-.521.373.372-.522a1.715,1.715,0,0,1,.522-.521,1.416,1.416,0,0,1,1.492.3,1.122,1.122,0,0,0,.97.3l.522-.3.522-.373a2.664,2.664,0,0,1-.373.6,1.049,1.049,0,0,1-.522.448,1.343,1.343,0,0,1-1.492-.3Zm-30.729-3.43a1.49,1.49,0,0,1-.821-1.269.97.97,0,0,0-.448-.821l-.6-.223-.671-.149.671-.149h.745a1.416,1.416,0,0,1,.9,1.268,1.043,1.043,0,0,0,.447.894l.522.149.671.149-.671.15ZM19.02,68.217a1.116,1.116,0,0,0-.97-.3l-.447.3-.6.373.373-.522a1.189,1.189,0,0,1,.522-.522,1.268,1.268,0,0,1,1.492.3,1.264,1.264,0,0,0,.97.3l.521-.3.6-.372a2.556,2.556,0,0,0-.373.6,1.784,1.784,0,0,1-.6.447,1.416,1.416,0,0,1-1.492-.3Zm56.537-1.865a.9.9,0,0,0-.97-.3l-.522.3-.522.373a2.581,2.581,0,0,1,.373-.6,1.037,1.037,0,0,1,.522-.447,1.34,1.34,0,0,1,1.491.223l.448.3.149.522h-.014A1.409,1.409,0,0,1,75.557,66.352Zm-27.9-.6a1.046,1.046,0,0,0-.97-.224l-.521.224-.522.373.373-.522.521-.522a1.418,1.418,0,0,1,1.492.3,1.12,1.12,0,0,0,.97.3l.522-.3.522-.372a2.622,2.622,0,0,1-.373.6,1.042,1.042,0,0,1-.522.447,1.342,1.342,0,0,1-1.492-.3Zm14.619-.074a1.494,1.494,0,0,1-.821-1.269.969.969,0,0,0-.521-.894l-.522-.149-.671-.149.671-.149h.745a1.341,1.341,0,0,1,.821,1.268,1.119,1.119,0,0,0,.522.894l.522.149.671.149-.671.15ZM8.652,60.759a.9.9,0,0,1,.074-.747,1.345,1.345,0,0,1,1.268-.821,1.041,1.041,0,0,0,.821-.521.6.6,0,0,0,.149-.522c.075-.224.075-.9.15-.671s.074.447.149.671a.9.9,0,0,1-.075.745,1.342,1.342,0,0,1-1.194.821,1.121,1.121,0,0,0-.894.522l-.224.522c0,.223-.074.447-.074.671A2.134,2.134,0,0,1,8.652,60.759Zm21.48-.747c-.074-.223-.074-.447-.149-.67a2.807,2.807,0,0,1,.075-.747,1.491,1.491,0,0,1,1.268-.821,1.043,1.043,0,0,0,.9-.447,1.812,1.812,0,0,0,.149-.6c.074-.224.074-.9.149-.671s.074.447.149.671a2.532,2.532,0,0,1-.075.745,1.269,1.269,0,0,1-1.268.9.966.966,0,0,0-1.044.97c-.065.192-.074.715-.123.715C30.152,60.057,30.143,60.043,30.133,60.012Zm13.874-5.818a1.341,1.341,0,0,1-.821-1.268,1.044,1.044,0,0,0-.522-.821c-.149-.149-.3-.149-.522-.223l-.67-.075.67-.149a.748.748,0,0,1,.671.074,1.269,1.269,0,0,1,.9,1.194,1.043,1.043,0,0,0,.447.9l.6.149.671.149-.671.149a.9.9,0,0,1-.292.049A.889.889,0,0,1,44.006,54.195ZM19.84,53.672A1.415,1.415,0,0,1,19.02,52.4a.9.9,0,0,0-.522-.821c-.149-.149-.3-.149-.522-.223l-.671-.075.671-.149a1.265,1.265,0,0,1,.747,0,1.493,1.493,0,0,1,.821,1.268,1.118,1.118,0,0,0,.521.9l.522.149.671.149-.671.149a1.257,1.257,0,0,1-.745-.075Zm49.6-.447c-.074-.223-.074-.447-.149-.671a2.532,2.532,0,0,1,.075-.745,1.491,1.491,0,0,1,1.268-.821.967.967,0,0,0,.894-.522,1.431,1.431,0,0,1,.15.522,1.193,1.193,0,0,1-1.045.6.894.894,0,0,0-.894.448,1.045,1.045,0,0,0-.15.521c-.064.193-.072.717-.122.717C69.459,53.27,69.45,53.256,69.44,53.225ZM58.476,52.032a.971.971,0,0,0-.97-.3.674.674,0,0,0-.522.224l-.6.373.372-.522a2.038,2.038,0,0,1,.6-.522,1.419,1.419,0,0,1,1.492.3.9.9,0,0,0,.97.3l.521-.3.522-.372a2.581,2.581,0,0,1-.373.6,1.039,1.039,0,0,1-.521.447,1.342,1.342,0,0,1-1.492-.223ZM9.771,44.946a1.044,1.044,0,0,0-.97-.223l-.522.223-.522.373L8.13,44.8a1.719,1.719,0,0,1,.522-.522,1.417,1.417,0,0,1,1.492.3,1.121,1.121,0,0,0,.97.3l.521-.3.522-.373a2.581,2.581,0,0,1-.373.6,1.039,1.039,0,0,1-.521.447,1.341,1.341,0,0,1-1.492-.3ZM31.1,44.423a.9.9,0,0,0-.97-.3l-.447.3-.6.373.373-.6a1.417,1.417,0,0,1,2.013-.224,1.044,1.044,0,0,0,.97.3.669.669,0,0,0,.522-.223l.6-.373-.372.522a1.351,1.351,0,0,1-.6.522,1.417,1.417,0,0,1-1.492-.3Zm18.722-.745c-.074-.224-.074-.447-.149-.671a2.532,2.532,0,0,1,.075-.745,1.491,1.491,0,0,1,1.268-.821.967.967,0,0,0,.894-.522,4.66,4.66,0,0,0,.149-.522,2.2,2.2,0,0,1,.149-.671c0,.224.075.448.075.671a1.265,1.265,0,0,1,0,.747,1.493,1.493,0,0,1-1.268.821,1.118,1.118,0,0,0-.9.521,1.064,1.064,0,0,0-.149.522c-.064.193-.072.717-.122.717C49.843,43.723,49.834,43.709,49.824,43.678Zm-30.581-4.7c-.074-.224-.074-.447-.149-.671a2.532,2.532,0,0,1,.075-.745,1.49,1.49,0,0,1,1.268-.821.894.894,0,0,0,.821-.522c.149-.149.149-.3.224-.522a2.134,2.134,0,0,1,.149-.671c0,.224.074.448.074.671a1.265,1.265,0,0,1,0,.747,1.491,1.491,0,0,1-1.268.821,1.115,1.115,0,0,0-.894.521,1.039,1.039,0,0,0-.149.522c-.065.193-.074.717-.123.717C19.262,39.024,19.253,39.011,19.243,38.979Zm45.275-1.194a1.489,1.489,0,0,1-.821-1.268,1.047,1.047,0,0,0-.522-.821c-.149-.149-.3-.149-.522-.223l-.671-.3h.671a1.284,1.284,0,0,1,.747,0,1.494,1.494,0,0,1,.821,1.269,1.116,1.116,0,0,0,.521.894l.522.149.671.149-.671.149ZM37.144,35.324a1.268,1.268,0,0,1-.821-1.268,1.044,1.044,0,0,0-.521-.821l-.522-.149-.671-.074.671-.149a1.318,1.318,0,0,1,1.566,1.268,1.043,1.043,0,0,0,.522.894c.149.149.3.149.522.224h.671l-.671.149a.892.892,0,0,1-.747-.075ZM49,28.239a.97.97,0,0,0-.97-.223.67.67,0,0,0-.522.223l-.6.373.373-.522a2.019,2.019,0,0,1,.6-.522,1.419,1.419,0,0,1,1.492.3,1.119,1.119,0,0,0,.97.3l.522-.3.522-.372a2.664,2.664,0,0,1-.373.6,1.273,1.273,0,0,1-.6.447,1.265,1.265,0,0,1-1.417-.3Zm-26.18-1.864a.97.97,0,0,0-.97-.3.673.673,0,0,0-.521.224l-.6.373.373-.522a2.019,2.019,0,0,1,.6-.522,1.419,1.419,0,0,1,1.492.3.9.9,0,0,0,.97.3l.522-.3.522-.372a2.622,2.622,0,0,1-.373.6,1.042,1.042,0,0,1-.522.447,1.342,1.342,0,0,1-1.492-.223ZM58.55,25.181c-.074-.224-.074-.447-.149-.671a2.092,2.092,0,0,1,.075-.671,1.416,1.416,0,0,1,1.268-.894h.149l.224.6h-.373a.972.972,0,0,0-.821.447.675.675,0,0,0-.224.522c-.064.193-.072.717-.122.717C58.57,25.226,58.561,25.212,58.55,25.181Zm-46.094-1.79a2.091,2.091,0,0,1-.074.671.675.675,0,0,1-.3.447Zm22.824-2.76a.893.893,0,0,1,.074-.745,1.194,1.194,0,0,1,1.268-.821,1.045,1.045,0,0,0,.821-.522,1.113,1.113,0,0,0,.149-.6c.075-.224.075-.747.15-.6s.074.373.149.6a1.417,1.417,0,0,1-1.269,1.64,1.046,1.046,0,0,0-.894.448.846.846,0,0,0-.224.6c0,.224-.074.373-.074.6A1.776,1.776,0,0,1,35.28,20.631Zm-9.547-5.072a1.191,1.191,0,0,1-.821-1.193,1.123,1.123,0,0,0-.522-.9l-.522-.149H23.2l.671-.149h.671a1.266,1.266,0,0,1,.894,1.194.97.97,0,0,0,.448.894c.149.149.372.149.6.224l.671.149h-.671a.9.9,0,0,1-.292.049A.888.888,0,0,1,25.733,15.559ZM49.6,15.111a1.342,1.342,0,0,1-.821-1.268,1.123,1.123,0,0,0-.522-.9l-.522-.149-.671-.3h1.417a1.416,1.416,0,0,1,.821,1.268,1.123,1.123,0,0,0,.522.9l.522.149.671.149-.671.149ZM36.174,4.222a1.121,1.121,0,0,0-.97-.3l-.447.3-.6.373.372-.6a1.344,1.344,0,0,1,2.014-.149.968.968,0,0,0,.97.224.671.671,0,0,0,.522-.224l.6-.372L38.263,4a1.405,1.405,0,0,1-.6.522,1.416,1.416,0,0,1-1.492-.3ZM22.525,3.327a.9.9,0,0,1,.075-.747,1.417,1.417,0,0,1,1.268-.821.969.969,0,0,0,.821-.447,1.783,1.783,0,0,0,.149-.6c.075-.224.075-.9.149-.671s.075.447.149.671a1.417,1.417,0,0,1-1.268,1.641,1.041,1.041,0,0,0-.894.447.674.674,0,0,0-.224.522c0,.223-.075.447-.075.67A2.187,2.187,0,0,1,22.525,3.327Z" transform="translate(97.389 57.939)" fill="#dbdbdb"/>
          <path id="Path-76" data-name="Path" d="M10.218.081C9.4,2.841,8.727,5.6,7.981,8.36c.075-1.193.224-2.387.373-3.58s-.075-.075-.075,0a30.506,30.506,0,0,0-.522,4.475c-.82,3.356-1.641,6.713-2.387,10.069-1.417,6.414-2.685,12.9-3.729,19.393C1.044,42.372.6,46.1,0,49.756H.075c.6-3.207,1.343-6.489,2.014-9.7s1.417-6.414,2.088-9.622c1.343-6.414,2.76-12.9,4.1-19.318C9.025,7.465,9.7,3.811,10.442.156,10.517.007,10.218-.068,10.218.081Z" transform="translate(99.851 79.831)" fill="#263238"/>
          <path id="Path-77" data-name="Path" d="M49.5,6.033C62.848,20.279,94.622,74.056,84.329,83.9S16.828,80.471.792,72.863c-4.774-2.312,13.351-32.072,19.02-32.818S48.379,50.412,49.05,49.07s-4.624-11.561-10.368-32.3C32.044-7.169,43.6-.307,49.5,6.033Z" transform="translate(100.177 59.036)" fill="#ad6359"/>
          <path id="Path-78" data-name="Path" d="M32.848,9.086C21.287,7.52,18.005,8.862,8.98,2.3,3.013-2.027-2.357-.088,1.074,6.774,6.668,18.037,21.213,23.258,26.732,23.631Z" transform="translate(63.348 80.373)" fill="#ad6359"/>
          <path id="Path-79" data-name="Path" d="M74.645,11.542S61.592,4.307,49.36,1.4C40.932-.69,22.061-3.077,4.011,15.57-.24,19.971-3.223,29.294,6.4,24.6c6.787-3.282,10.144-7.459,14.47-8.652,0,0-2.387,12.307,2.238,16.409a110.464,110.464,0,0,0,12.754,9.92,26.031,26.031,0,0,0,2.088-2.238s4.624,3.431,13.351,2.611Z" transform="translate(52.43 89.105)" fill="#ad6359"/>
          <path id="Path-80" data-name="Path" d="M30.807,0C26.779,2.088,18.276,6.713,12.682,12.9S-3.8,34.608,1.345,39.233c3.729,3.282,8.13-2.014,8.13-2.014s-2.909,7.011,1.119,9.323,6.862-2.312,6.862-2.312-1.044,4.624,2.909,5.892,6.116-8.2,12.307-10.74C34.089,38.785,30.807,0,30.807,0Z" transform="translate(62.629 89.832)" fill="#ad6359"/>
          <path id="Path-81" data-name="Path" d="M11.636,0C8.13,2.611,1.79,10.517,0,18.721c0,.224.075.373.149.149A89.131,89.131,0,0,1,11.71.075Z" transform="translate(72.03 108.106)" fill="#263238"/>
          <path id="Path-82" data-name="Path" d="M10.442,0C7.682,2.536,1.492,11.039,0,19.393c0,.224.075.373.149.149A95.919,95.919,0,0,1,10.517.075C10.591,0,10.517,0,10.442,0Z" transform="translate(79.936 114.595)" fill="#263238"/>
          <path id="Path-83" data-name="Path" d="M21.186,0c-3.8,1.119-6.265,2.983-9.473,5.146A41.321,41.321,0,0,1,6.866,8.279c-1.566.82-3.8,2.088-5.445.746S.526,7.011.675,5.967A9.995,9.995,0,0,1,2.092,2.685H2.017A10.517,10.517,0,0,0,.451,5.519,4.848,4.848,0,0,0,.078,8.428c.6,2.088,3.058,2.387,4.774,1.79A15.589,15.589,0,0,0,7.835,8.8L10.52,7.086l5.3-3.729A49.078,49.078,0,0,1,21.261.224C21.335.075,21.261,0,21.186,0Z" transform="translate(52.111 104.974)" fill="#263238"/>
          <path id="Path-84" data-name="Path" d="M3.209,13.307A117.293,117.293,0,0,1,11.19.105c.075-.075,0-.149-.075-.075-2.983,2.834-7.682,10.218-8.8,12.605S0,18.006,0,20.617c-.075,3.953,2.611,4.7,3.58,4.923a4.848,4.848,0,0,0,3.356-.6A11.039,11.039,0,0,0,10,22.109c0-.075-.075-.149-.075-.075C8.5,23.6,6.267,25.092,4.1,24.868a3.879,3.879,0,0,1-2.461-1.343,4.326,4.326,0,0,1-.6-3.207,19.616,19.616,0,0,1,2.163-7.011Z" transform="translate(62.183 104.943)" fill="#263238"/>
          <path id="Path-85" data-name="Path" d="M9.1,6.937C8.582,7.459,7.388,9.1,5.6,9.4a3.8,3.8,0,0,1-3.655-.82A4.923,4.923,0,0,1,.452,5a33.788,33.788,0,0,1,.9-5H1.2A19.884,19.884,0,0,0,0,5.37,5.072,5.072,0,0,0,1.571,9.249a3.953,3.953,0,0,0,4.1.9,8.539,8.539,0,0,0,3.58-3.133Z" transform="translate(70.832 127.051)" fill="#263238"/>
          <path id="Path-86" data-name="Path" d="M15.092.247a7.459,7.459,0,0,0-1.641,1.417c-.6.522-1.119,1.119-1.641,1.641a26.777,26.777,0,0,0-2.76,3.729,10.827,10.827,0,0,1-2.834,3.8,3.729,3.729,0,0,1-4.326.075A3.58,3.58,0,0,1,.548,8.974a6.937,6.937,0,0,1-.224-2.76c0-.075-.149-.075-.149,0A9.1,9.1,0,0,0,.026,8.675a4.177,4.177,0,0,0,.746,2.088A3.953,3.953,0,0,0,4.8,12.256,6.2,6.2,0,0,0,8.6,9.347C9.5,8,10.393,6.289,11.438,4.871l1.715-2.312C13.824,1.813,14.57,1.142,15.167.4S15.167.172,15.092.247Z" transform="translate(79.835 128.221)" fill="#263238"/>
          <path id="Path-87" data-name="Path" d="M6.489,1.283A34.832,34.832,0,0,1,.149.015C.075-.059,0,.164,0,.164A15.29,15.29,0,0,0,3.133,1.209a12.754,12.754,0,0,0,3.356.224C6.564,1.432,6.564,1.283,6.489,1.283Z" transform="translate(93.063 130.542)" fill="#263238"/>
          <path id="Path-88" data-name="Path" d="M28.324,12.232A81.673,81.673,0,0,0,17.808,6.191,96.366,96.366,0,0,0,6.62,1.865L.056,0c-.075,0-.075.075,0,.149A102.109,102.109,0,0,1,11.319,4.326l10.89,5,6.042,3.058C28.324,12.381,28.4,12.307,28.324,12.232Z" transform="translate(142.533 106.316)" fill="#263238"/>
          <path id="Path-89" data-name="Path" d="M41.093,40.012,8.648,38.968S2.606,22.931.294,8.685s9.4-9.92,21.556,5.37S41.093,40.012,41.093,40.012Z" transform="translate(135.955 58.771)" fill="#a6a6a6"/>
          <path id="Shape-22" data-name="Shape" d="M17.6,33.639a1.342,1.342,0,0,1-.821-1.268.894.894,0,0,0-.522-.821c-.149-.149-.3-.149-.522-.224l-.671-.149h.671a1.261,1.261,0,0,1,.745,0,1.488,1.488,0,0,1,.821,1.268,1.123,1.123,0,0,0,.522.9l.522.149h.671l-.671.149Zm7.234-6.564a1.122,1.122,0,0,0-.97-.3l-.522.3-.522.373a2.664,2.664,0,0,1,.373-.6,1.341,1.341,0,0,1,2.014-.149,1.343,1.343,0,0,0,.671.3l.3.447a1.342,1.342,0,0,1-1.343-.373ZM2.088,24.166a.97.97,0,0,0-.97-.223.67.67,0,0,0-.522.223l-.6.373.373-.522a2.019,2.019,0,0,1,.6-.522,1.419,1.419,0,0,1,1.492.3,1.118,1.118,0,0,0,.97.3l.522-.3.521-.372a2.617,2.617,0,0,1-.372.6,1.266,1.266,0,0,1-.6.447,1.265,1.265,0,0,1-1.417-.3Zm9.547-3.058c-.074-.224-.074-.447-.149-.671a2.092,2.092,0,0,1,.075-.671,1.416,1.416,0,0,1,1.268-.894.9.9,0,0,0,.894-.447,1.428,1.428,0,0,0,.15-.6c.074-.223.074-.894.149-.671s.074.448.149.671a2.54,2.54,0,0,1-.075.747,1.268,1.268,0,0,1-1.268.894.972.972,0,0,0-.821.447.675.675,0,0,0-.224.522c-.064.193-.072.717-.122.717C11.655,21.153,11.646,21.139,11.635,21.108ZM2.685,10.964A1.341,1.341,0,0,1,1.865,9.7,1.121,1.121,0,0,0,1.343,8.8L.821,8.652.149,8.5H1.566a1.341,1.341,0,0,1,.821,1.268,1.119,1.119,0,0,0,.522.894l.522.149H4.1l-.671.149ZM2.909.894C2.835.671,2.835.447,2.76.224V0l.3.224C2.994.416,2.985.94,2.936.94,2.928.94,2.919.926,2.909.894Z" transform="translate(144.304 62.012)" fill="#dbdbdb"/>
          <path id="Path-90" data-name="Path" d="M7.16,17.614l-1.343-.149c-.075-.448-1.939-7.16-2.387-8.577C2.461,5.9,1.268,3,.149.086.075-.063,0,.012,0,.086.746,2.622,1.417,5.158,2.163,7.619L1.492,6.575A22.451,22.451,0,0,1,.3,4.263H.149A10.964,10.964,0,0,0,1.566,7.246a6.787,6.787,0,0,0,.82,1.193l.224.6c.448,1.492,2.834,8.727,2.983,8.727H7.16C7.235,17.838,7.235,17.614,7.16,17.614Z" transform="translate(138.785 79.975)" fill="#263238"/>
          <path id="Path-91" data-name="Path" d="M27.108.546C20.1.024,13.011-.051,6,.1L.033.322S-.041.4.033.4C3.539.621,7.044.621,10.55.7H27.034C27.183.7,27.183.546,27.108.546Z" transform="translate(144.719 91.971)" fill="#263238"/>
          <path id="Path-92" data-name="Path" d="M3.4,4.057C1.31,5.847-.853,12.56.341,17.035s3.506,7.31,7.533,6.937S19.733,20.54,24.805,11.441,14.065-4.819,3.4,4.057Z" transform="translate(115.993 54.449)" fill="#dbdbdb"/>
          <path id="Path-93" data-name="Path" d="M4.251,31.691c4.774,1.417,13.5-5.519,17.08-11.337.3-.448-.522-17.006-.373-20.288C20.959-.6,0,4.02,0,4.02A52.085,52.085,0,0,1,1.268,16.774C1.268,17.222-.373,30.349,4.251,31.691Z" transform="translate(118.124 41.732)" fill="#ad6359"/>
          <path id="Path-94" data-name="Path" d="M21.332,16.1C10.293,17.745,4.326,14.463,1.193,11.256.746,7.3,0,3.946,0,3.946S20.959-.6,20.959.068C20.81,2.38,21.183,10.883,21.332,16.1Z" transform="translate(118.124 41.731)" fill="#263238"/>
          <path id="Path-95" data-name="Path" d="M1.618,9.961C-1.44,16.973-.022,38.528,4.676,43.824c6.713,7.682,18.945,9.7,25.807,1.343s4.251-36.175-1.044-41.1C21.608-3.166,6.168-.481,1.618,9.961Z" transform="translate(111.359 5.284)" fill="#ad6359"/>
          <path id="Path-96" data-name="Path" d="M1.343.02c0-.075-.075.075-.075.149C1.417,1.587,1.268,3.3,0,3.824H0C1.641,3.6,1.715,1.363,1.343.02Z" transform="translate(131.102 30.366)" fill="#263238"/>
          <path id="Path-97" data-name="Path" d="M1.744,0C-.643-.074-.494,4.625,1.669,4.7S3.683,0,1.744,0Z" transform="translate(129.359 28.969)" fill="#263238"/>
          <path id="Path-98" data-name="Path" d="M.073,0A.224.224,0,0,1,.147.149c0,1.492.224,3.133,1.566,3.58.075,0,.075.075,0,.075C.073,3.655-.151,1.417.073,0Z" transform="translate(140.427 30.387)" fill="#263238"/>
          <path id="Path-99" data-name="Path" d="M1.325.008c2.312-.224,2.611,4.4.448,4.624S-.614.157,1.325.008Z" transform="translate(140.443 28.887)" fill="#263238"/>
          <path id="Path-100" data-name="Path" d="M1.364,3.394l1.79-.746A2.76,2.76,0,0,0,4.87,1.6,1.044,1.044,0,0,0,4.721.41,2.552,2.552,0,0,0,2.185.261,3.506,3.506,0,0,0,.171,1.827,1.044,1.044,0,0,0,1.364,3.394Z" transform="translate(127.799 23.488)" fill="#263238"/>
          <path id="Path-101" data-name="Path" d="M3.869,3.135,2,2.688a3.953,3.953,0,0,1-1.79-.82A1.044,1.044,0,0,1,.214.6,2.461,2.461,0,0,1,2.676.152,3.282,3.282,0,0,1,4.913,1.42,1.119,1.119,0,0,1,3.869,3.135Z" transform="translate(139.615 23.373)" fill="#263238"/>
          <path id="Path-102" data-name="Path" d="M.231.231C.6.6.977,1.052,1.5,1.052A4.028,4.028,0,0,0,3.065.679s.075,0,0,.075a2.014,2.014,0,0,1-1.79.82C.6,1.5.306.9.082.306S.156.157.231.231Z" transform="translate(130.797 43.656)" fill="#263238"/>
          <path id="Path-103" data-name="Path" d="M0,15.67a5.146,5.146,0,0,0,3.356,2.163,7.16,7.16,0,0,0,1.79,0h.671c.149,0,.224-.149.3-.3h0a.224.224,0,0,0-.075-.149h0c0-1.119-.149-2.834-.149-2.834S8.428,15.6,8.428,15C7.981,10.225,7.533,4.855,6.116.081c0-.149-.224-.075-.224.075C6.042,4.78,7.086,9.4,7.384,14.1A7.682,7.682,0,0,0,5,13.432c-.149.075.373,3.282.3,3.8h0c-1.865.3-3.282-.224-5.146-1.417A.105.105,0,1,0,0,15.67Z" transform="translate(132.445 23.816)" fill="#263238"/>
          <path id="Path-104" data-name="Path" d="M5.023,1.641A6.042,6.042,0,0,1,2.71,3.506a2.312,2.312,0,0,1-1.566.149C-.049,3.356-.124,2.312.1,1.417A7.682,7.682,0,0,1,.547,0,7.682,7.682,0,0,0,5.023,1.641Z" transform="translate(131.898 39.486)" fill="#263238"/>
          <path id="Path-105" data-name="Path" d="M2.71,2.088a2.312,2.312,0,0,1-1.566.149C-.049,1.939-.124.9.1,0A2.685,2.685,0,0,1,2.71,2.088Z" transform="translate(131.898 40.904)" fill="#ff99ba"/>
          <path id="Path-106" data-name="Path" d="M5.623,31.179c5.445.224,7.011-9.7,7.011-9.7s9.473-1.119,11.188-8.13c0,0,8.652,6.116,15.812,3.879S45.676,7.013,45,5.3s-4.774,1.268-4.774,1.268-.224-4.55-1.417-5.072S36.2,3.657,36.2,3.657,27.328.151,19.048,0,6.369,7.983,6.369,7.983,1.968,8.729.4,11.712,2.117,31.03,5.623,31.179Z" transform="translate(106.684 0.774)" fill="#263238"/>
          <path id="Path-107" data-name="Path" d="M12.083,0a11.486,11.486,0,0,1-1.044,4.177,7.309,7.309,0,0,1-2.76,3.058A10.442,10.442,0,0,1,4.326,8.652l-2.163.224H0l2.163.3H4.4A9.473,9.473,0,0,0,8.652,7.832,7.608,7.608,0,0,0,11.561,4.4,8.95,8.95,0,0,0,12.083,0Z" transform="translate(118.348 12.784)" fill="#263238"/>
          <path id="Path-108" data-name="Path" d="M0,9.875A14.022,14.022,0,0,1,3.506,3.834,10.666,10.666,0,0,1,9.622.925L11.412.7h1.715c1.193.075,2.312.373,3.506.522a13.471,13.471,0,0,1,3.356,1.044l3.356,1.193L20.138,1.895,16.782.7A19.691,19.691,0,0,0,9.547.1,11.113,11.113,0,0,0,3.133,3.386,11.859,11.859,0,0,0,0,9.875Z" transform="translate(112.978 0)" fill="#263238"/>
          <path id="Shape-23" data-name="Shape" d="M5.584,12.409a6.221,6.221,0,1,1,6.788-7.087,6.267,6.267,0,0,1-5.221,7.087,5.563,5.563,0,0,1-1.567,0Z" transform="translate(123.653 24.765)" fill="#ffc727"/>
          <path id="Shape-24" data-name="Shape" d="M4.266,12.39C1.953,12.167.014,9.556.014,6.274A6.861,6.861,0,0,1,1.207,1.949,3.879,3.879,0,0,1,7.846,1.8,7.689,7.689,0,0,1,9.263,6.125c0,3.431-2.014,6.265-4.55,6.34Z" transform="translate(139.218 24.485)" fill="#ffc727"/>
          <path id="Path-109" data-name="Path" d="M.522,1.78,0,1.109C.97.288,3.133-.756,4.624.81l-.6.6C2.685-.01.671,1.705.522,1.78Z" transform="translate(135.279 29.054)" fill="#ffc727"/>
          <path id="Path-110" data-name="Path" d="M.746,4.187,0,3.814C.224,3.516,1.79.458,3.58.085s12.9.6,13.426.671v.82C13.8,1.278,5.146.682,3.8.906S1.193,3.367.746,4.187Z" transform="translate(107.384 28.586)" fill="#ffc727"/>
          <path id="Path-111" data-name="Path" d="M8.87,6.075S4.768-1.235,1.486.182.889,11.892,4.4,13.533a3.729,3.729,0,0,0,5.146-1.492Z" transform="translate(106.644 26.848)" fill="#ad6359"/>
          <path id="Path-112" data-name="Path" d="M.056,0c-.075,0-.075.075,0,.149,2.461,1.268,3.58,3.729,4.251,6.265-.671-.97-1.641-1.641-2.983-.82-.075,0,0,.149.075.149A2.238,2.238,0,0,1,3.785,6.787,10.964,10.964,0,0,1,4.829,8.876c.075.3.522.149.448-.075h0C5.65,5.445,3.562.671.056,0Z" transform="translate(108.894 29.939)" fill="#263238"/>
        </g>
        <g id="Desk" transform="translate(10.22 274.575)">
          <path id="Path-113" data-name="Path" d="M0,.373,59.52.149,119.04.075,238.081,0l119.04.075,59.52.075,59.52.224-59.52.149L357.121.6,238.081.746,119.04.6,59.52.522,0,.373Z" transform="translate(0 0)" fill="#263238"/>
        </g>
        <g id="Device_2" transform="translate(348.545 221.842)">
          <rect id="Rectangle-8" data-name="Rectangle" width="82.94" height="3.722" transform="translate(0 51.167)" fill="#455a64"/>
          <rect id="Rectangle-9" data-name="Rectangle" width="41.769" height="3.722" transform="translate(0 51.167)" fill="#263238"/>
          <path id="Path-114" data-name="Path" d="M0,54.9H80.777L92.189,0H11.412L0,54.9Z" transform="translate(40.799 0)" fill="#37474f"/>
          <path id="Path-115" data-name="Path" d="M.038,5.447a4.774,4.774,0,0,0,4.848,5.37,6.042,6.042,0,0,0,5.892-5.37A4.7,4.7,0,0,0,6,0,6.191,6.191,0,0,0,.038,5.447Z" transform="translate(80.591 23.269)" fill="#fff"/>
        </g>
        <g id="Device_1" transform="translate(15.59 194.842)">
          <rect id="Rectangle-10" data-name="Rectangle" width="4.55" height="2.991" transform="translate(123.814 79.509) rotate(180)" fill="#455a64"/>
          <rect id="Rectangle-11" data-name="Rectangle" width="4.55" height="2.991" transform="translate(117.922 79.211) rotate(180)" fill="#455a64"/>
          <rect id="Rectangle-12" data-name="Rectangle" width="4.55" height="2.991" transform="translate(111.955 79.062) rotate(180)" fill="#455a64"/>
          <rect id="Rectangle-13" data-name="Rectangle" width="4.55" height="2.991" transform="translate(105.988 78.913) rotate(180)" fill="#455a64"/>
          <rect id="Rectangle-14" data-name="Rectangle" width="4.55" height="2.991" transform="translate(100.095 78.689) rotate(180)" fill="#455a64"/>
          <rect id="Rectangle-15" data-name="Rectangle" width="4.55" height="2.991" transform="translate(94.128 78.465) rotate(180)" fill="#455a64"/>
          <rect id="Rectangle-16" data-name="Rectangle" width="4.55" height="2.991" transform="translate(88.236 78.316) rotate(180)" fill="#455a64"/>
          <rect id="Rectangle-17" data-name="Rectangle" width="4.55" height="2.991" transform="translate(82.269 78.092) rotate(180)" fill="#455a64"/>
          <rect id="Rectangle-18" data-name="Rectangle" width="4.55" height="2.991" transform="translate(76.302 77.869) rotate(180)" fill="#455a64"/>
          <path id="Path-116" data-name="Path" d="M0,5.146H54.3V1.566L0,0V5.146Z" transform="translate(70.634 76.004)" fill="#37474f"/>
          <path id="Path-117" data-name="Path" d="M14.321,66.83h89.653L89.728,0H0L14.321,66.83Z" transform="translate(3.282 0)" fill="#455a64"/>
          <path id="Path-118" data-name="Path" d="M14.246,66.83h89.728L89.728,0H0L14.246,66.83Z" transform="translate(0 0)" fill="#37474f"/>
          <path id="Path-119" data-name="Path" d="M.105,5.523A6.787,6.787,0,0,0,6.52,11.117a4.7,4.7,0,0,0,4.7-5.594A6.787,6.787,0,0,0,4.73,0,4.55,4.55,0,0,0,.105,5.523Z" transform="translate(44.125 24.013)" fill="#263238"/>
          <path id="Path-120" data-name="Path" d="M0,4.848H44.155V1.417L0,0V4.848Z" transform="translate(39.606 79.435)" fill="#455a64"/>
          <path id="Path-121" data-name="Path" d="M0,37.443H23.719L37.965,0H14.321L0,37.443Z" transform="translate(27.597 46.84)" fill="#455a64"/>
          <path id="Path-122" data-name="Path" d="M0,37.443H23.719L37.965,0H14.246L0,37.443Z" transform="translate(23.719 46.84)" fill="#263238"/>
          <path id="Path-123" data-name="Path" d="M.641,16.024h45.5c3.879,0-1.715-11.039-15.887-15.29S-3.834,11.922.641,16.024Z" transform="translate(126.007 69.154)" fill="#37474f"/>
          <path id="Path-124" data-name="Path" d="M7.757,12.083A27.448,27.448,0,0,0,6.638,8.577,19.243,19.243,0,0,0,5,5.3,16.334,16.334,0,0,0,2.834,2.387l-.671-.671-.671-.6A11.113,11.113,0,0,0,0,0,9.995,9.995,0,0,1,3.207,1.939,13.426,13.426,0,0,1,5.669,4.923a14.246,14.246,0,0,1,2.088,7.16Z" transform="translate(136.717 73.095)" fill="#263238"/>
          <path id="Path-125" data-name="Path" d="M12.456,0,8.8,2.088,5.3,4.326A27.821,27.821,0,0,0,2.088,7.011,8.5,8.5,0,0,0,0,10.517,6.489,6.489,0,0,1,1.641,6.638,19.542,19.542,0,0,1,4.848,3.729,26.7,26.7,0,0,1,12.456,0Z" transform="translate(126.648 74.661)" fill="#263238"/>
        </g>
        <g id="Drink" transform="translate(195.344 242.279)">
          <path id="Path-126" data-name="Path" d="M29.163,0,25.882,41.172H3.282L0,0Z" transform="translate(2.163 10.442)" fill="#ffc727"/>
          <rect id="Rectangle-19" data-name="Rectangle" width="33.34" height="6.004" transform="translate(0 6.713)" fill="#455a64"/>
          <path id="Path-127" data-name="Path" d="M28.716,6.713H0L1.641,0H27l1.715,6.713Z" transform="translate(2.312)" fill="#37474f"/>
          <path id="Path-128" data-name="Path" d="M15.738,9.7c0,5.37-3.506,9.7-7.906,9.7S0,15.067,0,9.7,3.506,0,7.832,0,15.738,4.326,15.738,9.7Z" transform="translate(8.876 21.705)" fill="#fff"/>
        </g>
        <g id="Speech_Bubble" transform="translate(212.947 124.38)">
          <path id="Path-129" data-name="Path" d="M2.983,23.793A13.127,13.127,0,0,1,.746,16.558C.746,7.459,10.815,0,23.2,0S45.573,7.459,45.573,16.558,35.578,33.117,23.2,33.117a27.075,27.075,0,0,1-15.514-4.55L0,30.506Z" transform="translate(0.149 0.276)" fill="#fff"/>
          <path id="Shape-25" data-name="Shape" d="M21.481,33.616A26.179,26.179,0,0,1,7.8,28.944L.233,30.762l-.009.02H0v-.224l3.133-6.489A13.939,13.939,0,0,1,.821,17.207,13.137,13.137,0,0,1,2.611,10.2a18.743,18.743,0,0,1,4.923-5.37,24.151,24.151,0,0,1,6.489-3.281A29.693,29.693,0,0,1,21.257.052a34.551,34.551,0,0,1,7.31.373,26.309,26.309,0,0,1,7.011,2.162A23.664,23.664,0,0,1,41.62,6.764,16.126,16.126,0,0,1,45.5,13.03a12.451,12.451,0,0,1,.074,7.383,15.446,15.446,0,0,1-3.8,6.266A20.815,20.815,0,0,1,35.8,30.932a28.948,28.948,0,0,1-12.321,2.754Q22.482,33.685,21.481,33.616Z" transform="translate(0 0)" fill="#263238"/>
          <path id="Path-130" data-name="Path" d="M0,2.312A2.312,2.312,0,1,0,.677.677,2.312,2.312,0,0,0,0,2.312Z" transform="translate(31.401 14.522)" fill="#263238"/>
          <path id="Path-131" data-name="Path" d="M0,2.313A2.387,2.387,0,1,0,2.388,0,2.312,2.312,0,0,0,0,2.313Z" transform="translate(20.958 14.521)" fill="#263238"/>
          <path id="Path-132" data-name="Path" d="M0,2.313A2.387,2.387,0,1,0,2.313,0,2.312,2.312,0,0,0,0,2.313Z" transform="translate(10.59 14.521)" fill="#263238"/>
        </g>
      </g>
    </g>
    <g id="Group_49584" data-name="Group 49584" transform="translate(0 61)">
      <g id="Group_49582" data-name="Group 49582" transform="translate(0 -140)">
        <g id="Group_49586" data-name="Group 49586">
          <rect id="Rectangle_Copy_2" data-name="Rectangle Copy 2" width="24" height="10" rx="4" transform="translate(380 818)" fill="#fff"/>
          <rect id="Rectangle_Copy" data-name="Rectangle Copy" width="10" height="10" rx="5" transform="translate(362 818)" fill="#fff" opacity="0.5"/>
          <rect id="Rectangle-20" data-name="Rectangle" width="10" height="10" rx="5" transform="translate(344 818)" fill="#fff" opacity="0.501"/>
        </g>
      </g>
      <g id="Bars_Navigation_Bar" data-name="Bars / Navigation Bar" transform="translate(280 671)">
        <g id="Icons_72_back" data-name="Icons/72/back">
          <path id="Path-133" data-name="Path" d="M0,0H24V24H0Z" fill="none"/>
          <path id="Path-134" data-name="Path" d="M16,8a1,1,0,0,0-1-1H3.83L8.712,2.118A1,1,0,0,0,8.71.7l0,0A1,1,0,0,0,7.3.7L.707,7.293a1,1,0,0,0,0,1.414L7.3,15.3a1,1,0,0,0,1.41,0h0a1,1,0,0,0,0-1.411L3.83,9H15A1,1,0,0,0,16,8Z" transform="translate(4 4)" fill="#fff"/>
        </g>
      </g>
      <g id="Bars_Navigation_Bar-2" data-name="Bars / Navigation Bar" transform="translate(444 671)" opacity="0.203">
        <g id="Icons_72_back-2" data-name="Icons/72/back">
          <path id="Path-135" data-name="Path" d="M24,0H0V24H24Z" fill="none"/>
          <path id="Path-136" data-name="Path" d="M.414,8a1,1,0,0,1,1-1h11.17L7.7,2.118A1,1,0,0,1,7.7.7l0,0A1,1,0,0,1,9.119.7l6.588,6.588a1,1,0,0,1,0,1.414L9.119,15.3a1,1,0,0,1-1.41,0h0a1,1,0,0,1,0-1.411L12.584,9H1.414A1,1,0,0,1,.414,8Z" transform="translate(3.586 4)" fill="#fff"/>
        </g>
      </g>
    </g>
  </g>
</svg>
