<svg xmlns="http://www.w3.org/2000/svg" xmlns:xlink="http://www.w3.org/1999/xlink" width="542" height="590" viewBox="0 0 542 590">
  <defs>
    <clipPath id="clip-path">
      <rect id="Rectangle_27898" data-name="Rectangle 27898" width="542" height="542" transform="translate(233 201.682)" fill="#fff"/>
    </clipPath>
  </defs>
  <g id="Group_49585" data-name="Group 49585" transform="translate(-103 -166)">
    <g id="Mask_Group_130" data-name="Mask Group 130" transform="translate(-130 -35.682)" clip-path="url(#clip-path)">
      <g id="_4590503_Mesa_de_trabajo_1" data-name="4590503_Mesa de trabajo 1" transform="translate(283.662 265.412)">
        <g id="Background_Complete" transform="translate(4.416 0.202)" opacity="0.5">
          <rect id="Rectangle" width="28.453" height="12.015" transform="translate(15.891 270.25)" fill="#ebebeb"/>
          <rect id="Rectangle-2" data-name="Rectangle" width="28.453" height="12.015" transform="translate(164.491 176.516)" fill="#ebebeb"/>
          <rect id="Rectangle-3" data-name="Rectangle" width="28.453" height="12.015" transform="translate(0 285.39)" fill="#ebebeb"/>
          <rect id="Rectangle-4" data-name="Rectangle" width="28.453" height="12.015" transform="translate(398.236 285.39)" fill="#ebebeb"/>
          <rect id="Rectangle-5" data-name="Rectangle" width="28.453" height="12.015" transform="translate(382.345)" fill="#ebebeb"/>
          <rect id="Rectangle-6" data-name="Rectangle" width="28.453" height="12.015" transform="translate(398.236 15.139)" fill="#ebebeb"/>
          <rect id="Rectangle-7" data-name="Rectangle" width="28.453" height="12.015" transform="translate(15.891)" fill="#ebebeb"/>
          <rect id="Rectangle-8" data-name="Rectangle" width="206.365" height="8.858" transform="translate(220.216 91.05)" fill="#ebebeb"/>
          <path id="Path" d="M11.274,34.9H3.221L0,0H11.274V34.9Z" transform="translate(239.006 99.854)" fill="#ebebeb"/>
          <path id="Path-2" data-name="Path" d="M0,34.9H8.053L11.274,0H0V34.9Z" transform="translate(396.625 99.854)" fill="#ebebeb"/>
          <path id="Path-3" data-name="Path" d="M0,0H11.274V12.025H1.074L0,0Z" transform="translate(239.006 99.854)" fill="#dbdbdb"/>
          <path id="Path-4" data-name="Path" d="M11.274,0,10.2,12.025H0V0Z" transform="translate(396.625 99.854)" fill="#dbdbdb"/>
          <path id="Path-5" data-name="Path" d="M21.045.141C11.918,12.6,2.362,26.984,0,42.552c0,.215.429.322.429.107A93.949,93.949,0,0,1,4.51,30.2c6.013-1.718,11.918-3.006,15.139-9.019S22.44,7.013,21.8.356C21.8-.074,21.259-.074,21.045.141Z" transform="translate(273.901 37.653)" fill="#ebebeb"/>
          <path id="Path-6" data-name="Path" d="M.029,26.091C4.109,16.857,9.37,7.516,16.134,0h.107A109.517,109.517,0,0,0,5.182,17.287c3.006-3.006,6.335-5.8,9.234-9.126h.107c-2.9,3.436-6.013,7.194-9.663,9.663L1.854,23.407l.752-.429h0l-.859.429-1.4,2.577C.136,26.413-.079,26.2.029,26.091Z" transform="translate(278.489 41.66)" fill="#a6a6a6"/>
          <path id="Path-7" data-name="Path" d="M.044,4.724A81.279,81.279,0,0,0,7.131,0h.107A38.761,38.761,0,0,1,.152,4.724C.044,4.939-.063,4.724.044,4.724Z" transform="translate(281.48 59.805)" fill="#a6a6a6"/>
          <path id="Path-8" data-name="Path" d="M.632,63.9c0,.107.322.107.322-.107.107-5.046,0-10.2.107-15.354,1.288-2.684,4.08-4.08,6.12-6.227a29.742,29.742,0,0,0,3.651-5.154,37.472,37.472,0,0,0,4.187-14.065c.537-5.476-1.5-23.621-3.865-22.977S6.107,9.358,5.141,12.257A82.89,82.89,0,0,0,1.491,27.289C-.442,39.314-.227,51.769.632,63.9Z" transform="translate(272.303 16.196)" fill="#ebebeb"/>
          <path id="Path-9" data-name="Path" d="M.107,38.59h0A115.1,115.1,0,0,1,3.221,19.264C4.724,12.5,6.442,6.057,9.878.044c.107-.107.215,0,.215.107a70.972,70.972,0,0,0-5.369,14.71l.752-1.074c.107-.107.322,0,.215.215a12.992,12.992,0,0,1-1.074,1.5H4.51c-1.181,4.832-2.04,9.771-2.792,14.71.107,0,.107-.107.215-.215H2.04l-.322.537c-.429,2.47-.752,4.939-1.074,7.409A34.144,34.144,0,0,0,11.059,24.1h0A28.238,28.238,0,0,1,.537,38.483c-.107.644-.107,1.288-.215,2.04S0,40.63,0,40.416.107,39.235.107,38.7,0,38.59.107,38.59Z" transform="translate(272.827 19.39)" fill="#a6a6a6"/>
          <path id="Path-10" data-name="Path" d="M0,15.676A94.808,94.808,0,0,0,9.126,0h.107A50.249,50.249,0,0,1,.215,15.783.215.215,0,0,1,0,15.676Z" transform="translate(274.975 32.855)" fill="#a6a6a6"/>
          <path id="Path-11" data-name="Path" d="M.029,7.56c1.4-2.577,2.9-4.939,4.187-7.516,0-.107.107,0,.107.107A39.083,39.083,0,0,1,.244,7.668C.137,7.775-.078,7.668.029,7.56Z" transform="translate(279.562 24.114)" fill="#a6a6a6"/>
          <path id="Path-12" data-name="Path" d="M14.3,41.223a51.86,51.86,0,0,1-1.181,10.093c0,.429.107.752.107,1.181a51.43,51.43,0,0,0,1.825-11.274c0-.107.107-.215,0-.322h0a79.669,79.669,0,0,0-1.074-15.247C12.363,16.206,8.819,7.187,2.27.1a.429.429,0,0,0-.644.107c-2.684,6.764-1.718,14.817.537,21.581a38.009,38.009,0,0,0,5.154,10.2C9.571,35.1,12.47,37.788,14.3,41.223Z" transform="translate(256.17 25.668)" fill="#ebebeb"/>
          <path id="Path-13" data-name="Path" d="M.344.042C6.571,10.135,10.866,22.16,11.4,34.078a.221.221,0,0,1-.429.107c-.107-1.074-.322-2.147-.429-3.221h0A39.512,39.512,0,0,1,3.457,22.8c0-.107,0-.107.107-.107a90.405,90.405,0,0,0,6.872,7.516c-.537-2.684-.966-5.261-1.611-7.838l-.537-.537c-.107-.107.107-.322.215-.215s.107.107.107.215A89.654,89.654,0,0,0,5.39,11.423a27.057,27.057,0,0,1-4.51-5.8H.988a45.31,45.31,0,0,0,2.9,3.865l1.288,1.4A69.254,69.254,0,0,0,.022.257C-.086.042.236-.065.344.042Z" transform="translate(258.955 28.84)" fill="#a6a6a6"/>
          <path id="Path-14" data-name="Path" d="M.107.014C2.147,2.806,4.4,5.383,6.335,8.175H6.227A38.224,38.224,0,0,1,0,.014a.107.107,0,0,1,.107,0Z" transform="translate(260.372 41.323)" fill="#a6a6a6"/>
          <path id="Path-15" data-name="Path" d="M.321.319H.429C.536.426.429.534.321.426h0C.214.319.321.212.321.319Z" transform="translate(266.601 49.823)" fill="#a6a6a6"/>
          <path id="Path-16" data-name="Path" d="M.057.648a30.171,30.171,0,0,0,6.55,15.461A17.287,17.287,0,0,0,11.975,20.3c2.255,1.074,4.724,2.362,7.086,3.328a49.712,49.712,0,0,1,2.47,8.912,2.04,2.04,0,0,0,.215-.752C20.243,18.686,11.76,7.412.809.218A.433.433,0,1,0,.057.648Z" transform="translate(248.505 45.092)" fill="#ebebeb"/>
          <path id="Path-17" data-name="Path" d="M.044.215C-.063.107.044,0,.152,0A44.129,44.129,0,0,1,14,17.179a.12.12,0,0,1-.215.107L12.177,14.71h0A16,16,0,0,1,5.52,10.844c-.107-.107,0-.107.107-.107a16.535,16.535,0,0,0,3.114,2.255l3.114,1.181a48.961,48.961,0,0,0-2.9-4.187A31.459,31.459,0,0,1,1.548,5.8c-.107-.107,0-.215,0-.107A72.475,72.475,0,0,0,8.527,9.341,60.342,60.342,0,0,0,3.588,3.651l-2.47-1.4c-.107,0,0-.107.107-.107a8.16,8.16,0,0,1,1.933.966Z" transform="translate(252.275 49.498)" fill="#a6a6a6"/>
          <path id="Path-18" data-name="Path" d="M.275.241.7.563S.7.67.6.563L.168.348S.168.134.275.241Z" transform="translate(252.259 53.981)" fill="#a6a6a6"/>
          <path id="Path-19" data-name="Path" d="M22.44,19.541H0L1.074,4.832,1.5,0H20.722l.429,4.832,1.288,14.71Z" transform="translate(261.231 71.508)" fill="#dbdbdb"/>
          <path id="Path-20" data-name="Path" d="M20.078,4.832H0L.429,0H19.649l.429,4.832Z" transform="translate(262.305 71.508)" fill="#c7c7c7"/>
          <rect id="Rectangle-9" data-name="Rectangle" width="22.226" height="4.918" transform="translate(261.231 67.536)" fill="#dbdbdb"/>
          <rect id="Rectangle-10" data-name="Rectangle" width="53.363" height="13.443" transform="translate(338.216 37.58) rotate(90)" fill="#c7c7c7"/>
          <rect id="Rectangle-11" data-name="Rectangle" width="5.905" height="13.443" transform="translate(338.216 34.788) rotate(90)" fill="#dbdbdb"/>
          <rect id="Rectangle-12" data-name="Rectangle" width="2.147" height="13.443" transform="translate(338.108 48.209) rotate(90)" fill="#dbdbdb"/>
          <rect id="Rectangle-13" data-name="Rectangle" width="5.905" height="13.443" transform="translate(338.216 78.165) rotate(90)" fill="#dbdbdb"/>
          <rect id="Rectangle-14" data-name="Rectangle" width="62.275" height="9.395" transform="translate(347.557 28.668) rotate(90)" fill="#dbdbdb"/>
          <rect id="Rectangle-15" data-name="Rectangle" width="23.944" height="5.637" transform="translate(345.624 34.573) rotate(90)" fill="#ebebeb"/>
          <rect id="Rectangle-16" data-name="Rectangle" width="62.275" height="9.395" transform="matrix(0.711, 0.703, -0.703, 0.711, 369.907, 40.616)" fill="#c7c7c7"/>
          <rect id="Rectangle-17" data-name="Rectangle" width="23.944" height="5.637" transform="matrix(0.711, 0.703, -0.703, 0.711, 385.529, 58.591)" fill="#dbdbdb"/>
          <rect id="Rectangle-18" data-name="Rectangle" width="47.243" height="15.944" transform="translate(363.448 43.7) rotate(90)" fill="#a6a6a6"/>
          <rect id="Rectangle-19" data-name="Rectangle" width="4.402" height="15.944" transform="translate(363.448 81.601) rotate(90)" fill="#c7c7c7"/>
          <rect id="Rectangle-20" data-name="Rectangle" width="1.718" height="15.944" transform="translate(363.448 76.984) rotate(90)" fill="#c7c7c7"/>
          <rect id="Rectangle-21" data-name="Rectangle" width="44.451" height="11.016" transform="translate(324.936 50.302) rotate(113.2)" fill="#a6a6a6"/>
          <rect id="Rectangle-22" data-name="Rectangle" width="4.187" height="11.016" transform="translate(310.985 82.986) rotate(113.2)" fill="#c7c7c7"/>
          <rect id="Rectangle-23" data-name="Rectangle" width="4.187" height="11.016" transform="translate(321.348 58.741) rotate(113.2)" fill="#c7c7c7"/>
          <rect id="Rectangle-24" data-name="Rectangle" width="1.611" height="11.016" transform="translate(318.611 65.121) rotate(113.2)" fill="#c7c7c7"/>
          <path id="Path-21" data-name="Path" d="M83,79.776,20.937,95.989,0,16.213,46.169,4.187,62.167,0,66.14,15.247,83,79.776Z" transform="translate(265.526 133.783)" fill="#ebebeb"/>
          <rect id="Rectangle-25" data-name="Rectangle" width="52.378" height="2.119" transform="translate(326.083 149.141) rotate(165.548)" fill="#dbdbdb"/>
          <rect id="Rectangle-26" data-name="Rectangle" width="52.289" height="2.115" transform="translate(327.441 156.219) rotate(165.3)" fill="#dbdbdb"/>
          <rect id="Rectangle-27" data-name="Rectangle" width="52.289" height="2.115" transform="translate(328.832 161.228) rotate(165.3)" fill="#dbdbdb"/>
          <rect id="Rectangle-28" data-name="Rectangle" width="52.289" height="2.115" transform="translate(330.147 166.475) rotate(165.3)" fill="#dbdbdb"/>
          <rect id="Rectangle-29" data-name="Rectangle" width="52.289" height="2.115" transform="translate(331.566 171.588) rotate(165.3)" fill="#dbdbdb"/>
          <rect id="Rectangle-30" data-name="Rectangle" width="52.289" height="2.115" transform="translate(332.881 176.835) rotate(165.3)" fill="#dbdbdb"/>
          <rect id="Rectangle-31" data-name="Rectangle" width="52.289" height="2.115" transform="translate(334.299 181.947) rotate(165.3)" fill="#dbdbdb"/>
          <rect id="Rectangle-32" data-name="Rectangle" width="52.289" height="2.115" transform="translate(335.614 187.195) rotate(165.3)" fill="#dbdbdb"/>
          <rect id="Rectangle-33" data-name="Rectangle" width="52.289" height="2.115" transform="translate(336.929 192.334) rotate(165.3)" fill="#dbdbdb"/>
          <rect id="Rectangle-34" data-name="Rectangle" width="52.378" height="2.119" transform="translate(338.376 195.425) rotate(165.548)" fill="#dbdbdb"/>
          <rect id="Rectangle-35" data-name="Rectangle" width="52.378" height="2.119" transform="translate(339.695 200.61) rotate(165.548)" fill="#dbdbdb"/>
          <rect id="Rectangle-36" data-name="Rectangle" width="52.289" height="2.115" transform="translate(341.053 207.81) rotate(165.3)" fill="#dbdbdb"/>
          <path id="Path-22" data-name="Path" d="M68.717,81.387l-64.1,3.651L0,2.684,47.565,0,64.959,14.817l3.758,66.569Z" transform="translate(296.341 155.15)" fill="#ebebeb"/>
          <path id="Path-23" data-name="Path" d="M0,0,17.394,14.817.859,15.676,0,0Z" transform="translate(343.906 155.15)" fill="#dbdbdb"/>
          <rect id="Rectangle-37" data-name="Rectangle" width="35.754" height="2.115" transform="translate(339.041 171.444) rotate(176.8)" fill="#dbdbdb"/>
          <rect id="Rectangle-38" data-name="Rectangle" width="35.754" height="2.115" transform="translate(339.493 176.725) rotate(176.8)" fill="#dbdbdb"/>
          <rect id="Rectangle-39" data-name="Rectangle" width="35.754" height="2.115" transform="translate(339.737 182.12) rotate(176.8)" fill="#dbdbdb"/>
          <rect id="Rectangle-40" data-name="Rectangle" width="52.289" height="2.115" transform="translate(356.534 186.44) rotate(176.8)" fill="#dbdbdb"/>
          <rect id="Rectangle-41" data-name="Rectangle" width="52.289" height="2.115" transform="translate(356.885 191.835) rotate(176.8)" fill="#dbdbdb"/>
          <rect id="Rectangle-42" data-name="Rectangle" width="52.289" height="2.115" transform="translate(357.23 197.116) rotate(176.8)" fill="#dbdbdb"/>
          <rect id="Rectangle-43" data-name="Rectangle" width="52.289" height="2.115" transform="translate(357.467 202.404) rotate(176.8)" fill="#dbdbdb"/>
          <rect id="Rectangle-44" data-name="Rectangle" width="52.289" height="2.115" transform="translate(357.812 207.799) rotate(176.8)" fill="#dbdbdb"/>
          <rect id="Rectangle-45" data-name="Rectangle" width="52.289" height="2.115" transform="translate(358.056 213.193) rotate(176.8)" fill="#dbdbdb"/>
          <rect id="Rectangle-46" data-name="Rectangle" width="52.289" height="2.115" transform="translate(358.401 218.475) rotate(176.8)" fill="#dbdbdb"/>
          <rect id="Rectangle-47" data-name="Rectangle" width="52.289" height="2.115" transform="translate(358.746 223.762) rotate(176.8)" fill="#dbdbdb"/>
          <rect id="Rectangle-48" data-name="Rectangle" width="52.289" height="2.115" transform="translate(358.99 229.157) rotate(176.8)" fill="#dbdbdb"/>
        </g>
        <g id="Table" transform="translate(0.336 386.734)">
          <path id="Path-24" data-name="Path" d="M0,.537,54.437.215,108.766.107,217.424,0,326.083.107l54.329.107,54.437.322L380.412.752,326.083.859l-108.659.215L108.766.859,54.437.752,0,.537Z" transform="translate(0 0)" fill="#263238"/>
        </g>
        <g id="Character" transform="translate(17.529 119.875)">
          <path id="Path-25" data-name="Path" d="M101.548,21.71C94.891,6.786,80.5-2.878,66.76.773,37.125,8.718,41.1,53.384,19.839,82.374c-25.661,34.9-25.984,64.315-3.543,68.609,25.017,4.724,48.424-22.118,45.74-78.38-1.718-35.11,5.691-47.565,15.247-50.249C84.261,20.314,92.1,28.8,92.1,28.8Z" transform="translate(2.802 2.17)" fill="#263238"/>
          <path id="Path-26" data-name="Path" d="M52.5,0c-.107,5.583.322,11.166.644,16.75s.752,11.059.859,16.642a143.449,143.449,0,0,1-.215,16.642,77.092,77.092,0,0,1-2.577,16.32,41.982,41.982,0,0,1-6.872,14.71A46.6,46.6,0,0,1,32.1,92.124,36.506,36.506,0,0,1,16.428,97.6a31.245,31.245,0,0,1-8.375-.107,29.42,29.42,0,0,1-4.187-.966A13.422,13.422,0,0,1,0,94.915a20.078,20.078,0,0,0,7.945,3.221,32.856,32.856,0,0,0,8.59.752,35.217,35.217,0,0,0,8.7-1.5,40.693,40.693,0,0,0,7.945-3.543A49.39,49.39,0,0,0,40.264,88.8l1.718-1.5,1.5-1.5a21.474,21.474,0,0,0,2.9-3.328A44.773,44.773,0,0,0,53.792,67c2.9-11.166,3.006-22.548,2.255-33.714-.322-5.583-.966-11.166-1.611-16.642S52.933,5.583,52.5,0Z" transform="translate(11.904 55.447)" fill="#263238"/>
          <path id="Path-27" data-name="Path" d="M97.8,15.291a45.847,45.847,0,0,0-8.053-8.375A27.272,27.272,0,0,0,79.44,2.191a26.628,26.628,0,0,0-11.274.322A34.036,34.036,0,0,0,62.9,4.339,29.956,29.956,0,0,0,58.073,7.13a32.426,32.426,0,0,0-7.623,8.16,59.591,59.591,0,0,0-4.939,10.2c-2.792,7.194-4.724,14.71-6.979,22.226a151.607,151.607,0,0,1-8.053,22.118A148.6,148.6,0,0,1,18.239,90.02c-4.4,6.335-9.019,12.67-12.455,19.541A44.022,44.022,0,0,0,1.489,120.3L.952,123.09a26.628,26.628,0,0,0-.322,2.9l-.215,1.5v4.295C-.873,124.056.952,116,4.281,108.917S12.011,95.281,16.2,88.732s8.375-13.1,11.489-20.078a154.935,154.935,0,0,0,7.838-21.8c2.255-7.409,4.187-15.032,7.086-22.44a71.186,71.186,0,0,1,5.476-10.63A33.929,33.929,0,0,1,56.57,5.2a25.554,25.554,0,0,1,5.368-2.792,36.291,36.291,0,0,1,5.8-1.825A26.306,26.306,0,0,1,79.655.8,26.95,26.95,0,0,1,90.069,6.271,40.908,40.908,0,0,1,97.8,15.291Z" transform="translate(0 0)" fill="#263238"/>
          <path id="Path-28" data-name="Path" d="M20.419,6.893c0-2.9-2.147-6.442-3.973-6.872S1.2,5.712.126,9.148,5.173,15.59,5.173,15.59Z" transform="translate(89.621 19.779)" fill="#ffc727"/>
          <path id="Path-29" data-name="Path" d="M.916,20.346c7.838,46.491,19.434,83.641,31.782,93.3,9.878,7.731,24.158,13.743,39.083,18.36a392.869,392.869,0,0,0,48.531,11.059l12.24,1.825c7.409,1.074,23.514-46.921,18.79-53.363-1.181-1.4-5.905-2.9-12.777-4.295-22.87-4.832-70.757-8.59-73.226-11.381S39.677,39.136,21.1,13.045C8.11-5.315-3.379-5.53.916,20.346Z" transform="translate(95.81 117.776)" fill="#f7a9a0"/>
          <path id="Path-30" data-name="Path" d="M0,51.7c.859.537,13.529,7.3,21.367,9.985,5.905,1.933,22.977,7.194,25.876.966,1.933-4.295-7.731-8.59-14.495-11.7-3.651-1.718-7.945-5.691-6.764-8.053s11.274.537,17.287,4.4C54.866,54.7,70.113,67.911,77.736,62.22c2.792-2.147-.215-6.442-4.724-10.737,7.409,5.046,15.354,9.341,18.575,6.979s2.04-3.114,1.181-5.369c2.255.859,4.4.859,5.905-.644s1.5-6.335-.966-10.308a2.9,2.9,0,0,0,2.255-1.4C105.545,33.016,80.42,8.965,71.508,6.5,45.2-1.021,16.75.053,16.75.053,6.013,7.891,0,51.7,0,51.7Z" transform="translate(213.867 204.853)" fill="#f7a9a0"/>
          <path id="Path-31" data-name="Path" d="M.048,0a45.632,45.632,0,0,1,17.5,7.623c6.013,4.51,10.63,10.63,16.106,15.676.215.107,0,.322-.215.215-2.577-2.577-5.369-4.939-8.053-7.516S20.126,11.059,17.334,8.8A41.874,41.874,0,0,0,.048.107C-.06.107.048,0,.048,0Z" transform="translate(253.976 233.467)" fill="#263238"/>
          <path id="Path-32" data-name="Path" d="M.081,0C6.952,2.255,14.039,4.51,20.373,8.053s12.24,10.093,17.5,16C40.989,27.594,43.995,31.245,47,35c.107.107-.107.322-.215.215C41.525,29.1,36.049,23.085,30.359,17.394A55.618,55.618,0,0,0,12.106,4.617C8.133,2.9,4.053,1.5.081.107-.027.107-.027,0,.081,0Z" transform="translate(259.419 222.407)" fill="#263238"/>
          <path id="Path-33" data-name="Path" d="M.081.048c6.657,1.611,12.562,3.114,18.36,6.979,7.838,5.154,15.139,13.636,17.716,16.642s5.476,6.764,8.16,10.2a.12.12,0,0,1-.215.107A232.778,232.778,0,0,0,24.346,12.61,46.062,46.062,0,0,0,13.072,4.557,80.957,80.957,0,0,0,.081.048C-.027.048-.027-.06.081.048Z" transform="translate(267.364 212.911)" fill="#263238"/>
          <path id="Path-34" data-name="Path" d="M10.446,70.849,50.924,46.906S33.637,18.99,18.928,5.89-1.795,2.991.46,22.211,10.446,70.849,10.446,70.849Z" transform="translate(93.689 116.019)" fill="#ffc727"/>
          <path id="Shape" d="M18.575,53.793a13.742,13.742,0,0,1,2.578-4.081,17.859,17.859,0,0,1-1.5,4.617l-.322.752-1.611.965A19.378,19.378,0,0,1,18.575,53.793ZM4.081,29.526A19.08,19.08,0,0,1,0,26.842a19.467,19.467,0,0,1,4.617,1.5A16.954,16.954,0,0,1,8.8,30.923,17.144,17.144,0,0,1,4.081,29.526Zm29.1-4.617a16.51,16.51,0,0,1,3.973-.965c0,.106.108.214.108.429a16.16,16.16,0,0,1-3.651,1.719,13.883,13.883,0,0,1-4.725,1.073A23.646,23.646,0,0,1,33.177,24.909ZM18.575,4.725A16.964,16.964,0,0,1,17.394,0a16.72,16.72,0,0,1,2.362,4.295A17.706,17.706,0,0,1,20.83,9.018,13.739,13.739,0,0,1,18.575,4.725Z" transform="translate(96.297 125.023)" fill="#fff"/>
          <path id="Path-35" data-name="Path" d="M34.251.017C27.7,3.346,10.415,12.9,0,20.632c0,0,.107.322.215.215C9.878,15.8,28.346,4.312,34.466.447,34.573.339,34.358-.09,34.251.017Z" transform="translate(104.028 156.895)" fill="#263238"/>
          <path id="Path-36" data-name="Path" d="M47.626,48.853l-37.15,21.9S2.746,41.23.491,22.118C-1.012,9.771.92,1.074,6.5,0Z" transform="translate(93.658 116.111)" fill="#263238"/>
          <path id="Path-37" data-name="Path" d="M133.783,154.636H0S29.1,42.434,55.94,10.76l1.825-2.04.429-.322a26.091,26.091,0,0,1,7.194-5.583l1.4-.752c10.415-4.724,21.367-.752,29.2,6.013,2.47,2.147,30.923,38.975,33.392,53.041,2.147,12.455-6.227,25.769-6.227,25.769Z" transform="translate(9.434 112.652)" fill="#ffc727"/>
          <path id="Shape-2" data-name="Shape" d="M101.894,135.715a17.339,17.339,0,0,1-4.187-2.684,22.134,22.134,0,0,1,4.724,1.5,18.611,18.611,0,0,1,4.081,2.578A16.431,16.431,0,0,1,101.894,135.715Zm-65.066-7.3a14.615,14.615,0,0,1,2.578-4.079,17.6,17.6,0,0,1-1.4,4.617,20.013,20.013,0,0,1-2.576,4.079A17.651,17.651,0,0,1,36.827,128.414ZM.214,131.422l2.147-.86a17.714,17.714,0,0,1,4.725-1.073,16.408,16.408,0,0,1-4.295,2.254L0,132.6A4.644,4.644,0,0,0,.214,131.422Zm74.3-9.664a14.249,14.249,0,0,1,2.576-4.187,17.319,17.319,0,0,1-1.5,4.724,15.2,15.2,0,0,1-2.576,4.081A16.638,16.638,0,0,1,74.515,121.757Zm47.565-.429a16.835,16.835,0,0,1-1.073-4.725,18.583,18.583,0,0,1,3.328,9.126A18.968,18.968,0,0,1,122.08,121.329ZM16.321,108.873a18.639,18.639,0,0,1-1.182-4.831,18.793,18.793,0,0,1,2.363,4.295,18.621,18.621,0,0,1,1.073,4.831A15,15,0,0,1,16.321,108.873Zm81.922-3.757a17.716,17.716,0,0,1,4.725-1.074,13.761,13.761,0,0,1-4.295,2.255,16.964,16.964,0,0,1-4.725,1.181A16.767,16.767,0,0,1,98.243,105.116Zm-45.309,0a18.552,18.552,0,0,1,4.831-1.074,15.059,15.059,0,0,1-4.295,2.255,18.709,18.709,0,0,1-4.831,1.181A21.371,21.371,0,0,1,52.934,105.116Zm72.474-13.851.322,2.147a9.358,9.358,0,0,1-1.717,2.47A15.461,15.461,0,0,1,125.408,91.264ZM73.978,86.325A16.867,16.867,0,0,1,72.9,81.6,18.331,18.331,0,0,1,75.159,85.9a17.691,17.691,0,0,1,1.073,4.724A16.428,16.428,0,0,1,73.978,86.325Zm-36.829.322a21,21,0,0,1-4.187-2.576,17.165,17.165,0,0,1,4.725,1.4,23.607,23.607,0,0,1,4.079,2.578A17.654,17.654,0,0,1,37.15,86.647Zm61.524-9.234a20.909,20.909,0,0,1-4.188-2.576,17.215,17.215,0,0,1,4.725,1.4,23.618,23.618,0,0,1,4.081,2.578A17.567,17.567,0,0,1,98.673,77.413Zm-45.311-14.6a16.311,16.311,0,0,1,2.578-4.079,17.573,17.573,0,0,1-1.4,4.616,20.909,20.909,0,0,1-2.576,4.188A17.215,17.215,0,0,1,53.363,62.811Zm-32.21,1.074a20.039,20.039,0,0,1,4.4-.967,13.76,13.76,0,0,1-4.295,2.255l-.644.214A12.887,12.887,0,0,1,21.152,63.886Zm103.5-4.617a10.7,10.7,0,0,1,1.181,1.825c-.214.429-.322.967-.536,1.4A17.057,17.057,0,0,1,124.657,59.268Zm-20.4-10.845a13.764,13.764,0,0,1,2.578-4.079,17.84,17.84,0,0,1-1.5,4.617,13.736,13.736,0,0,1-2.578,4.079A17.894,17.894,0,0,1,104.256,48.423ZM74.945,45.417a17.691,17.691,0,0,1,4.724-1.073A20.42,20.42,0,0,1,75.374,46.6a17.706,17.706,0,0,1-4.724,1.074A13.73,13.73,0,0,1,74.945,45.417ZM52.718,31.245a16.886,16.886,0,0,1-1.073-4.725A15,15,0,0,1,53.9,30.815a17.628,17.628,0,0,1,1.074,4.831A24.435,24.435,0,0,1,52.718,31.245Zm37.043-7.087a19.17,19.17,0,0,1-4.081-2.684,19.381,19.381,0,0,1,4.617,1.5,16.948,16.948,0,0,1,4.187,2.576A17.22,17.22,0,0,1,89.761,24.158ZM116.818,20.4l.644.967a13.619,13.619,0,0,1-2.9.43ZM70.864,4.081A19.08,19.08,0,0,1,73.548,0a19.467,19.467,0,0,1-1.5,4.617A16.953,16.953,0,0,1,69.468,8.8,17.144,17.144,0,0,1,70.864,4.081Z" transform="translate(10.616 130.391)" fill="#fff"/>
          <path id="Path-38" data-name="Path" d="M33.58.014a110.591,110.591,0,0,0-16.857,2.9l-8.16,2.47L4.483,6.671a19.971,19.971,0,0,1-4.4.859c-.107,0-.107.215,0,.215H4.375l3.973-.752,8.375-2.362c5.583-1.5,11.166-3.006,16.964-4.08C33.9.444,33.795-.093,33.58.014Z" transform="translate(78.93 194.799)" fill="#263238"/>
          <path id="Path-39" data-name="Path" d="M28.4.671A104.364,104.364,0,0,0,14.227.027L7.14.564,3.812.993a36.828,36.828,0,0,0-3.651.644c-.215,0-.215.215,0,.215H7.14l7.086-.215L28.4,1.208a.268.268,0,1,0,0-.537Z" transform="translate(98.283 199.081)" fill="#263238"/>
          <path id="Path-40" data-name="Path" d="M55.749,7.9C34.489,30.665-12.968,112.374,3.352,128.05s118.966,16,137.219,16c8.375,0-8.7-54.759-17.609-55.832s-61.416-2.684-62.6-4.832S66.271,60.944,72.5,27.337C79.155-8.739,65.09-2.083,55.749,7.9Z" transform="translate(6.297 117.442)" fill="#f7a9a0"/>
          <path id="Path-41" data-name="Path" d="M0,14.41c18.468-2.577,23.514-.322,38.009-10.844C47.458-3.2,55.832-.085,50.464,10.759c-8.8,17.823-31.889,26.091-40.8,26.628Z" transform="translate(158.894 179.974)" fill="#f7a9a0"/>
          <path id="Path-42" data-name="Path" d="M0,18.676S20.722,7.188,40.156,2.463C53.578-.758,84.93-5.912,112.2,25.011c8.59,9.663,9.019,23.407-4.187,15.247-10.2-6.335-15.676-12.777-22.548-14.71,0,0,3.758,19.541-3.543,26.091A179.094,179.094,0,0,1,61.63,67.422s-1.5-1.5-3.221-3.543c0,0-7.409,5.476-21.367,4.08Z" transform="translate(109.825 193.531)" fill="#f7a9a0"/>
          <path id="Path-43" data-name="Path" d="M3.53,0C9.972,3.328,23.393,10.63,32.3,20.508S58.4,55.081,50.343,62.275c-6.013,5.368-12.992-3.114-12.992-3.114s4.617,11.166-1.825,14.817-10.844-3.651-10.844-3.651,1.718,7.3-4.617,9.341S10.4,66.569.523,62.489C-1.624,61.63,3.53,0,3.53,0Z" transform="translate(159.766 194.921)" fill="#f7a9a0"/>
          <path id="Path-44" data-name="Path" d="M.152,0c5.476,4.08,15.569,16.75,18.36,29.742.107.322-.107.537-.215.322A140.547,140.547,0,0,0,.044.107C-.063,0,.044,0,.152,0Z" transform="translate(178.39 224.125)" fill="#263238"/>
          <path id="Path-45" data-name="Path" d="M.152.044c4.4,4.08,14.173,17.5,16.642,30.815,0,.322-.215.537-.322.215A151.392,151.392,0,0,0,.044.152C-.063.044.044-.063.152.044Z" transform="translate(167.976 234.281)" fill="#263238"/>
          <path id="Path-46" data-name="Path" d="M18.038,82.3a64.96,64.96,0,0,0,6.55-.429,26.413,26.413,0,0,0,6.335-1.718h.107A46.921,46.921,0,0,1,36.721,86.6a42.518,42.518,0,0,1,2.362,3.651,11.166,11.166,0,0,0,2.47,3.436A6.227,6.227,0,0,0,45.31,95.3a5.046,5.046,0,0,0,3.758-1.5A7.086,7.086,0,0,0,51,90.143a13.529,13.529,0,0,0,.322-4.187V85.1l.537.752a12.777,12.777,0,0,0,5.583,3.973,6.227,6.227,0,0,0,3.436,0,6.12,6.12,0,0,0,2.9-1.718c1.5-1.718,1.718-4.187,1.611-6.55a31.567,31.567,0,0,0-1.5-6.872l-.644-1.825,1.288,1.5a13.1,13.1,0,0,0,5.583,4.295,7.194,7.194,0,0,0,3.328.537A8.482,8.482,0,0,0,76.662,77.9a7.3,7.3,0,0,0,1.933-2.792,9.985,9.985,0,0,0,.322-3.543,19.864,19.864,0,0,0-1.5-6.979A61.094,61.094,0,0,0,70.757,51.7,113.813,113.813,0,0,0,62.06,40l-.966-1.181,1.5.429A28.131,28.131,0,0,1,67.428,41.5l4.4,2.684c2.792,2.04,5.476,4.295,8.16,6.335a48.1,48.1,0,0,0,8.7,5.261c1.5.644,3.221,1.074,4.51.322s1.718-2.47,1.611-4.08a15.139,15.139,0,0,0-1.181-4.832,25.554,25.554,0,0,0-2.47-4.4A50.572,50.572,0,0,0,84.5,35.062,91.693,91.693,0,0,0,76.77,28.3a55.726,55.726,0,0,0-8.482-5.691l-.537-.322.429-.429a39.834,39.834,0,0,0,7.838-10.2,13.851,13.851,0,0,0,1.718-6.12,7.409,7.409,0,0,0-.859-3.006A3.973,3.973,0,0,0,74.515.811,9.234,9.234,0,0,0,68.5,1.992c-1.933.966-3.865,2.147-5.691,3.221-3.651,2.362-7.194,5.154-11.489,6.442a32.64,32.64,0,0,1-6.442,1.288l-6.55.859c-4.295.537-8.7,1.074-12.992,1.825A122.187,122.187,0,0,0,0,22.177a122.939,122.939,0,0,1,25.339-6.872c4.295-.752,8.59-1.4,12.992-1.933l6.442-.966a45.632,45.632,0,0,0,6.442-1.288C55.3,9.83,58.839,7.146,62.489,4.783A61.629,61.629,0,0,1,68.18,1.348C70.113.489,72.367-.37,74.73.167a4.939,4.939,0,0,1,2.792,2.04,5.905,5.905,0,0,1,.859,3.328,13.314,13.314,0,0,1-1.611,6.442A42.841,42.841,0,0,1,68.717,22.5v-.644a75.266,75.266,0,0,1,8.59,5.8,76.877,76.877,0,0,1,7.838,6.764,53.685,53.685,0,0,1,6.872,7.838,30.707,30.707,0,0,1,2.577,4.51,22.655,22.655,0,0,1,1.288,5.154,12.348,12.348,0,0,1-.322,2.792,4.617,4.617,0,0,1-1.825,2.255,4.4,4.4,0,0,1-2.792.537,9.019,9.019,0,0,1-2.577-.752,37.472,37.472,0,0,1-8.912-5.476c-2.792-2.04-5.476-4.295-8.267-6.227a41.577,41.577,0,0,0-4.295-2.792,24.266,24.266,0,0,0-4.51-2.04l.429-.859a116.5,116.5,0,0,1,8.7,11.918,63.026,63.026,0,0,1,6.764,13.1,26.843,26.843,0,0,1,1.5,7.194,10.952,10.952,0,0,1-.537,3.758,5.691,5.691,0,0,1-2.147,3.114,8.7,8.7,0,0,1-3.543,1.5,8.912,8.912,0,0,1-3.758-.537,15.569,15.569,0,0,1-5.905-4.617l.644-.322a30.815,30.815,0,0,1,1.5,7.086,20.829,20.829,0,0,1-.215,3.651,6.872,6.872,0,0,1-1.611,3.328,7.086,7.086,0,0,1-6.872,1.825A11.811,11.811,0,0,1,51.43,86.17l.537-.215a15.247,15.247,0,0,1-.322,4.4A7.3,7.3,0,0,1,49.5,94.223a5.691,5.691,0,0,1-4.08,1.5A6.227,6.227,0,0,1,41.445,93.9a12.026,12.026,0,0,1-2.577-3.543,33.607,33.607,0,0,0-2.255-3.651,46.169,46.169,0,0,0-5.691-6.442h.107A18.36,18.36,0,0,1,24.7,81.875,43.807,43.807,0,0,1,18.038,82.3Z" transform="translate(132.91 179.4)" fill="#263238"/>
          <path id="Path-47" data-name="Path" d="M0,49.533,44.236,65.423S54.651,34.286,55.4,14.53,44.344-3.186,31.03,10.772,0,49.533,0,49.533Z" transform="translate(28.761 115.646)" fill="#ffc727"/>
          <path id="Shape-3" data-name="Shape" d="M0,37.257a13.738,13.738,0,0,1,2.47-3.973A14.305,14.305,0,0,1,1.181,37.58Zm27.809-6.012a16.888,16.888,0,0,1-1.074-4.725,15,15,0,0,1,2.255,4.295,17.628,17.628,0,0,1,1.074,4.831A24.343,24.343,0,0,1,27.809,31.245Zm-16-20.83L14.6,9.126a16.824,16.824,0,0,1,4.725-1.073,15.054,15.054,0,0,1-4.295,2.254,24.053,24.053,0,0,1-3.973,1.074ZM45.954,4.081A19.14,19.14,0,0,1,48.639,0a19.467,19.467,0,0,1-1.5,4.617A17,17,0,0,1,44.559,8.8,17.19,17.19,0,0,1,45.954,4.081Z" transform="translate(35.525 130.391)" fill="#fff"/>
          <path id="Path-48" data-name="Path" d="M37.794,13.207C31.137,10.415,12.777,3.114.215,0,.107,0,0,.322,0,.322,10.093,4.51,30.708,11.381,37.687,13.636,37.794,13.743,38.009,13.314,37.794,13.207Z" transform="translate(35.74 159.059)" fill="#263238"/>
          <path id="Path-49" data-name="Path" d="M12.9,5.8s-.107-.107-.107,0-1.5,3.114-2.147,4.617C11.4,6.979,12.042,3.543,12.686,0h-.215c-2.9,10.2-6.12,20.293-8.912,30.6a18.575,18.575,0,0,1-3.436-.322c-.107,0-.215.322,0,.322l3.651,1.074c.215.107.644.107.752-.215A170.289,170.289,0,0,0,9.895,13.636l1.288-2.792A39.834,39.834,0,0,0,12.9,5.8Z" transform="translate(69.223 149.718)" fill="#263238"/>
          <path id="Path-50" data-name="Path" d="M.006,39.19c.215,2.362,9.126,19,19.756,19.971,3.436.322,6.12-18.468,6.12-18.468l.429-1.4,7.194-18.9L12.675,2.47,9.669,0,6.126,11.918l-.322.966-.322,1.074c-.322.966-.644,2.04-.859,3.006l-.644,2.362-.644,2.362C1.294,29.742-.1,38.116.006,39.19Z" transform="translate(84.588 78.102)" fill="#f7a9a0"/>
          <path id="Path-51" data-name="Path" d="M0,11.918A40.264,40.264,0,0,0,20.186,39.3l7.194-18.9L6.55,2.47,3.543,0Z" transform="translate(90.714 78.102)" fill="#263238"/>
          <path id="Path-52" data-name="Path" d="M63.269,45.74C61.444,81.064,40.077,83.963,32.454,83.534S1.961,81.064.135,45.74,15.275,0,31.165,0,65.094,10.308,63.269,45.74Z" transform="translate(85.854 25.491)" fill="#f7a9a0"/>
          <path id="Path-53" data-name="Path" d="M4.809,4.017,2.447,3.372A4.617,4.617,0,0,1,.192,2.191,1.288,1.288,0,0,1,.3.688C1.159-.171,2.34-.063,3.521.151A4.724,4.724,0,0,1,6.205,1.977C6.957,2.943,5.883,4.231,4.809,4.017Z" transform="translate(139.589 60.772)" fill="#263238"/>
          <path id="Path-54" data-name="Path" d="M1.407,3.638l2.362-.322a3.973,3.973,0,0,0,2.47-.752A1.718,1.718,0,0,0,6.346.954,3.114,3.114,0,0,0,3.339.1a4.4,4.4,0,0,0-3.006,1.4A1.288,1.288,0,0,0,1.407,3.638Z" transform="translate(120.444 59.647)" fill="#263238"/>
          <path id="Path-55" data-name="Path" d="M2.98,0,2.765.215c0,2.362-.429,5.154-2.684,5.8-.107,0-.107.215,0,.215C2.765,5.905,3.3,2.255,2.98,0Z" transform="translate(122.415 72.089)" fill="#263238"/>
          <path id="Path-56" data-name="Path" d="M3.294.017c-3.865-.429-4.51,7.3-.966,7.731S6.515.447,3.294.017Z" transform="translate(120.06 69.388)" fill="#263238"/>
          <path id="Path-57" data-name="Path" d="M4.713,1.022C3.961,1.344,3.21,2.1,2.458,2.1S.847,1.237.311.378.1.378.1.485.418,3.6,1.921,3.921s2.684-.859,3.114-2.362S4.927.807,4.713,1.022Z" transform="translate(117.138 68.705)" fill="#263238"/>
          <path id="Path-58" data-name="Path" d="M.41,0V.215C.088,2.577.195,5.369,2.235,6.442c.107,0,.107.107,0,.107C-.235,5.905-.342,2.255.41,0Z" transform="translate(138.191 72.734)" fill="#263238"/>
          <path id="Path-59" data-name="Path" d="M2.694,0C6.56,0,6.13,7.839,2.48,7.732S-.527-.106,2.694,0Z" transform="translate(138.269 70.478)" fill="#263238"/>
          <path id="Path-60" data-name="Path" d="M.488.438c.537.429,1.181,1.288,1.825,1.4S3.924,1.082,4.461.33s.107,0,.107.107-.644,3.006-2.04,3.221S.273,2.478.059.974.273.33.488.438Z" transform="translate(142.085 70.578)" fill="#263238"/>
          <path id="Path-61" data-name="Path" d="M.215,0c.537.644.966,1.5,1.825,1.718A7.409,7.409,0,0,0,4.725,1.5c.107-.107.107,0,.107.107a3.221,3.221,0,0,1-3.221.859A2.47,2.47,0,0,1,0,.107Z" transform="translate(123.354 90.557)" fill="#263238"/>
          <path id="Path-62" data-name="Path" d="M8.618,23.449s.215,3.651.107,5.369c0,.107-6.335.966-8.7-3.436-.107-.215.107-.322.322-.215a11.6,11.6,0,0,0,7.086,2.684c.215-.429-.537-6.227-.215-6.227A15.032,15.032,0,0,1,10.98,22.8C10.766,15.289,9.262,7.773,9.155.257c0-.322.429-.322.429-.107,2.147,7.731,2.577,16.428,3.006,24.266C12.7,25.382,9.262,23.878,8.618,23.449Z" transform="translate(125.258 60.344)" fill="#263238"/>
          <path id="Path-63" data-name="Path" d="M4.088,49.716a14.388,14.388,0,0,0,10.63-9.449C45,39.516,55.089,20.726,55.089,20.726,60.887,36.51,66.041,39.3,66.9,41.663c0,0,2.577-13.743-2.04-24.266A28.883,28.883,0,0,0,34.044.326C24.7,1.507,16.865,9.56,16.865,9.56S6.88,10.633,2.8,18.794C-4.179,32.322,4.088,49.716,4.088,49.716Z" transform="translate(82.223 20.763)" fill="#263238"/>
          <path id="Path-64" data-name="Path" d="M40.049,0a23.729,23.729,0,0,1-6.013,10.415A31.782,31.782,0,0,1,23.944,17.5l-2.792,1.074-3.006.752A37.043,37.043,0,0,1,12.133,20.4c-2.04.215-4.08.107-6.12.215L0,20.078H6.013a54.437,54.437,0,0,0,6.013-.537,46.6,46.6,0,0,0,11.489-3.114,33.714,33.714,0,0,0,9.878-6.55A28.238,28.238,0,0,0,40.049,0Z" transform="translate(97.693 40.308)" fill="#263238"/>
          <path id="Shape-4" data-name="Shape" d="M8.679,22.234A11.274,11.274,0,0,1,10.612.009a11.228,11.228,0,1,1,.859,22.44q-.389.038-.78.038A8.174,8.174,0,0,1,8.679,22.234Z" transform="translate(108.77 61.451)" fill="#455a64"/>
          <path id="Shape-5" data-name="Shape" d="M7.366,22.352l-.752-.108c-4.187-.859-7.087-6.012-6.55-11.81A12.888,12.888,0,0,1,3.178,2.811,7.2,7.2,0,0,1,9.406.019,7.621,7.621,0,0,1,15.1,3.885a13.518,13.518,0,0,1,1.611,8.052C16.194,17.9,12.24,22.38,7.95,22.38Q7.659,22.38,7.366,22.352Z" transform="translate(136.603 63.695)" fill="#455a64"/>
          <path id="Path-65" data-name="Path" d="M.859,2.7,0,1.518C1.825.23,6.013-1.273,8.482,1.84l-1.288.966C5.046-.092,1.074,2.592.859,2.7Z" transform="translate(129.689 70.786)" fill="#455a64"/>
          <path id="Path-66" data-name="Path" d="M1.288,6.881,0,6.022C.429,5.485,3.865.224,7.194.009S30.278,3.552,31.137,3.767l-.322,1.5C25.125,4.089,9.771,1.4,7.3,1.512S2.255,5.377,1.288,6.881Z" transform="translate(79.118 64.887)" fill="#455a64"/>
          <path id="Path-67" data-name="Path" d="M14.145,10.218S8.025-1.807,2.657.233.831,19.023,6.415,21.922a5.905,5.905,0,0,0,8.375-2.04Z" transform="translate(77.535 61.334)" fill="#f7a9a0"/>
          <path id="Path-68" data-name="Path" d="M.107.03C0-.077,0,.137,0,.137,3.865,2.392,5.476,6.472,6.442,10.552c-.966-1.611-2.47-2.684-4.724-1.5-.107,0,0,.215.107.215a3.543,3.543,0,0,1,3.758,1.825,14.6,14.6,0,0,1,1.5,3.543c.107.322.859.215.752-.215h0C8.7,9.157,5.583,1.319.107.03Z" transform="translate(81.265 66.369)" fill="#263238"/>
        </g>
        <g id="Lines" transform="translate(230.108 353.342)">
          <path id="Path-69" data-name="Path" d="M20.508,4.295c-3.436-.322-6.872-.966-10.308-1.611A83.856,83.856,0,0,1,0,0C3.543.322,6.979.966,10.415,1.611A82.245,82.245,0,0,1,20.508,4.295Z" transform="translate(0 29.634)" fill="#263238"/>
          <path id="Path-70" data-name="Path" d="M.542,24.7A117.463,117.463,0,0,1,0,12.348,120.04,120.04,0,0,1,.542,0c.429,4.187.429,8.267.537,12.348A95.034,95.034,0,0,1,.542,24.7Z" transform="translate(49.922 0)" fill="#263238"/>
          <path id="Path-71" data-name="Path" d="M12.133,19.971c-2.362-3.114-4.51-6.442-6.55-9.663A104.979,104.979,0,0,1,0,0,117.892,117.892,0,0,1,12.133,19.971Z" transform="translate(27.809 4.939)" fill="#263238"/>
          <path id="Path-72" data-name="Path" d="M0,0,6.979,5.691,13.743,11.6l6.657,6.12,3.221,3.114,3.114,3.114L23.3,21.152l-3.543-2.9-6.764-5.905L6.335,6.335Z" transform="translate(2.362 5.905)" fill="#263238"/>
          <path id="Path-73" data-name="Path" d="M0,4.187C3.328,3.114,6.764,2.255,10.2,1.5A85.144,85.144,0,0,1,20.508,0,81.816,81.816,0,0,1,10.415,2.577,84.071,84.071,0,0,1,0,4.187Z" transform="translate(69.898 27.809)" fill="#263238"/>
          <path id="Path-74" data-name="Path" d="M26.843,0C24.8,2.255,22.548,4.295,20.4,6.335l-6.657,6.12c-2.147,1.933-4.4,3.973-6.764,5.905l-3.436,2.9L0,24.051,3.221,20.83l3.221-3.114L13.1,11.6l6.764-5.905Z" transform="translate(59.59 3.758)" fill="#263238"/>
        </g>
        <g id="Lamp" transform="translate(315.574 200.769)">
          <path id="Path-75" data-name="Path" d="M39.942,169.537l3.114-.429L38.116,49.927,2.684,0,0,2.147,35.217,51.86l4.724,117.678Z" transform="translate(58.624 6.55)" fill="#263238"/>
          <path id="Path-76" data-name="Path" d="M8.8,4.4A4.4,4.4,0,1,1,4.4,0,4.295,4.295,0,0,1,8.8,4.4Z" transform="translate(90.835 53.039)" fill="#ffc727"/>
          <path id="Path-77" data-name="Path" d="M8.59,4.295A4.295,4.295,0,1,1,4.295,0,4.295,4.295,0,0,1,8.59,4.295Z" transform="translate(56.047 3.758)" fill="#ffc727"/>
          <path id="Path-78" data-name="Path" d="M0,9.771,16.642,35.217,27.7,25.232l6.764-6.12L21.9,0,13.636,3.651,0,9.771Z" transform="translate(30.923 0)" fill="#ffc727"/>
          <path id="Path-79" data-name="Path" d="M0,6.12,16.642,31.567,27.7,21.581,13.636,0,0,6.12Z" transform="translate(30.923 3.651)" opacity="0.1"/>
          <path id="Path-80" data-name="Path" d="M0,15.032,29.2,59.483l27.809-26.2L35.217,0,0,15.032Z" transform="translate(0 1.396)" fill="#ffc727"/>
          <path id="Path-81" data-name="Path" d="M0,16.535H52.5L49.283,0H3.221L0,16.535Z" transform="translate(72.26 169.967)" fill="#ffc727"/>
        </g>
        <g id="Speech_Bubbles" transform="translate(144.856 69.336)">
          <path id="Path-82" data-name="Path" d="M70.542,37.484A32.318,32.318,0,0,1,34.9,66.367,31.889,31.889,0,0,1,16.32,57.992L0,60.354,8.16,46.4A32.1,32.1,0,0,1,5.905,30.72a32.533,32.533,0,1,1,64.637,6.764Z" transform="translate(1.074 0)" fill="#fff"/>
          <path id="Shape-6" data-name="Shape" d="M37.58,65.727a32.309,32.309,0,0,1-4.509-.536,32.751,32.751,0,0,1-15.748-7.72L1.181,59.929H0l.537-.967L8.571,45.115a33.172,33.172,0,0,1,2.166-28.67,32.724,32.724,0,0,1,60.878,19.97,31.88,31.88,0,0,1-6.549,16.427,44.328,44.328,0,0,1-2.9,3.436,44.627,44.627,0,0,1-3.435,2.9,31.906,31.906,0,0,1-16.643,6.442q-1.5.142-3,.142Q38.333,65.763,37.58,65.727Z" transform="translate(0 1.069)" fill="#263238"/>
          <path id="Path-83" data-name="Path" d="M7.892,3.322A3.973,3.973,0,1,1,3.973,0,3.973,3.973,0,0,1,7.892,3.322Z" transform="translate(49.551 31.693)" fill="#263238"/>
          <path id="Path-84" data-name="Path" d="M7.944,3.865A3.973,3.973,0,1,1,3.971,0,3.973,3.973,0,0,1,7.944,3.865Z" transform="translate(35.433 31.149)" fill="#263238"/>
          <path id="Path-85" data-name="Path" d="M7.944,3.867A3.973,3.973,0,1,1,4.079,0,3.865,3.865,0,0,1,7.944,3.867Z" transform="translate(21.261 31.148)" fill="#263238"/>
          <rect id="Rectangle-49" data-name="Rectangle" width="87.507" height="48.284" transform="translate(38.761 81.184)" fill="#455a64"/>
          <path id="Path-86" data-name="Path" d="M0,0H16.964V12.133L0,0Z" transform="translate(109.41 129.5)" fill="#455a64"/>
          <rect id="Rectangle-50" data-name="Rectangle" width="39.727" height="1.084" transform="translate(49.39 90.095)" fill="#fff"/>
          <rect id="Rectangle-51" data-name="Rectangle" width="66.677" height="1.084" transform="translate(49.39 96.001)" fill="#fff"/>
          <rect id="Rectangle-52" data-name="Rectangle" width="66.677" height="1.084" transform="translate(49.39 101.799)" fill="#fff"/>
          <rect id="Rectangle-53" data-name="Rectangle" width="53.9" height="1.084" transform="translate(49.39 107.704)" fill="#fff"/>
          <rect id="Rectangle-54" data-name="Rectangle" width="66.677" height="1.084" transform="translate(49.39 113.609)" fill="#fff"/>
          <rect id="Rectangle-55" data-name="Rectangle" width="24.48" height="1.084" transform="translate(49.39 119.515)" fill="#fff"/>
          <rect id="Rectangle-56" data-name="Rectangle" width="86.97" height="35.819" transform="translate(68.609 147.001)" fill="#ffc727"/>
          <path id="Path-87" data-name="Path" d="M17.394,11.489V0H0L17.394,11.489Z" transform="translate(138.185 182.863)" fill="#ffc727"/>
          <rect id="Rectangle-57" data-name="Rectangle" width="65.925" height="1.084" transform="translate(79.239 155.913)" fill="#fff"/>
          <rect id="Rectangle-58" data-name="Rectangle" width="37.58" height="1.084" transform="translate(79.239 161.819)" fill="#fff"/>
          <rect id="Rectangle-59" data-name="Rectangle" width="50.893" height="1.084" transform="translate(79.239 167.724)" fill="#fff"/>
          <rect id="Rectangle-60" data-name="Rectangle" width="17.716" height="1.084" transform="translate(79.239 173.522)" fill="#fff"/>
        </g>
        <g id="Device" transform="translate(142.721 268.841)">
          <rect id="Rectangle-61" data-name="Rectangle" width="8.697" height="5.701" transform="translate(86.743 122.509)" fill="#ebebeb"/>
          <rect id="Rectangle-62" data-name="Rectangle" width="8.697" height="5.701" transform="translate(98.017 122.08)" fill="#ebebeb"/>
          <rect id="Rectangle-63" data-name="Rectangle" width="8.697" height="5.701" transform="translate(109.291 121.758)" fill="#ebebeb"/>
          <rect id="Rectangle-64" data-name="Rectangle" width="8.697" height="5.701" transform="translate(120.672 121.328)" fill="#ebebeb"/>
          <rect id="Rectangle-65" data-name="Rectangle" width="8.697" height="5.701" transform="translate(131.946 121.006)" fill="#ebebeb"/>
          <rect id="Rectangle-66" data-name="Rectangle" width="8.697" height="5.701" transform="translate(143.327 120.577)" fill="#ebebeb"/>
          <rect id="Rectangle-67" data-name="Rectangle" width="8.697" height="5.701" transform="translate(154.601 120.254)" fill="#ebebeb"/>
          <rect id="Rectangle-68" data-name="Rectangle" width="8.697" height="5.701" transform="translate(165.982 119.825)" fill="#ebebeb"/>
          <rect id="Rectangle-69" data-name="Rectangle" width="8.697" height="5.701" transform="translate(177.256 119.503)" fill="#ebebeb"/>
          <path id="Path-88" data-name="Path" d="M103.5,9.771H0V2.9L103.5,0V9.771Z" transform="translate(84.596 121.65)" fill="#dbdbdb"/>
          <path id="Path-89" data-name="Path" d="M144.305,107.477H0L22.87,0H167.175l-22.87,107.477Z" transform="translate(121.101 0)" fill="#ebebeb"/>
          <path id="Path-90" data-name="Path" d="M144.305,107.477H0L22.977,0H167.283L144.305,107.477Z" transform="translate(126.363 0)" fill="#dbdbdb"/>
          <ellipse id="Oval" cx="9.663" cy="8.267" rx="9.663" ry="8.267" transform="translate(200.776 48.307) rotate(-42.7)" fill="#fff"/>
          <path id="Path-91" data-name="Path" d="M70.972,7.838H0V2.362L70.972,0V7.838Z" transform="translate(158.896 127.663)" fill="#ebebeb"/>
          <path id="Path-92" data-name="Path" d="M61.094,60.235H22.977L0,0H38.116L61.094,60.235Z" transform="translate(188.1 75.266)" fill="#ebebeb"/>
          <path id="Path-93" data-name="Path" d="M60.986,60.235H22.977L0,0H38.116l22.87,60.235Z" transform="translate(194.435 75.266)" fill="#a6a6a6"/>
          <path id="Path-94" data-name="Path" d="M75.04,25.887H1.921c-6.227,0,2.792-17.823,25.554-24.7S82.234,19.122,75.04,25.887Z" transform="translate(0 111.118)" fill="#dbdbdb"/>
          <path id="Path-95" data-name="Path" d="M0,19.541a22.655,22.655,0,0,1,.966-6.013,32.64,32.64,0,0,1,2.47-5.583A23.3,23.3,0,0,1,7.3,3.221,19.756,19.756,0,0,1,12.455,0c-.752.644-1.611,1.074-2.362,1.825l-1.181.966L7.945,3.865A21.152,21.152,0,0,0,4.4,8.482a26.52,26.52,0,0,0-2.577,5.261A36.291,36.291,0,0,0,0,19.541Z" transform="translate(46.372 117.463)" fill="#263238"/>
          <path id="Path-96" data-name="Path" d="M0,0A46.062,46.062,0,0,1,6.335,2.577a39.19,39.19,0,0,1,5.8,3.436,26.95,26.95,0,0,1,5.154,4.724,10.2,10.2,0,0,1,1.825,2.9,6.979,6.979,0,0,1,.859,3.328,7.945,7.945,0,0,0-1.288-3.114,12.025,12.025,0,0,0-2.04-2.577A32.318,32.318,0,0,0,11.6,6.979,63.885,63.885,0,0,0,5.905,3.328l-2.9-1.718Z" transform="translate(55.069 120.04)" fill="#263238"/>
        </g>
        <g id="Mug" transform="translate(36.181 282.692)">
          <path id="Path-97" data-name="Path" d="M16.32,87.184S42.411,75.159,42.411,59.054,8.59,32.533,8.59,19.971,23.3,0,23.3,0,0,7.945,0,23.836,22.333,50.571,24.48,60.771C27.379,74.837,16.32,87.184,16.32,87.184Z" transform="translate(29.544 0)" fill="#dbdbdb" opacity="0.6"/>
          <path id="Path-98" data-name="Path" d="M26.091,68.609S0,59.161,0,46.491s33.822-20.83,33.822-30.708S19.112,0,19.112,0s23.3,6.335,23.3,18.79S16.75,39.942,14.924,50.142,26.091,68.609,26.091,68.609Z" transform="translate(21.062 18.575)" fill="#dbdbdb" opacity="0.6"/>
          <rect id="Rectangle-70" data-name="Rectangle" width="24.802" height="3.876" transform="translate(33.731 127.77)" fill="#455a64"/>
          <rect id="Rectangle-71" data-name="Rectangle" width="24.802" height="2.555" transform="translate(33.731 127.77)" fill="#263238"/>
          <path id="Path-99" data-name="Path" d="M4.2,29.26A14.28,14.28,0,0,0,18.27,35.166a8.053,8.053,0,0,0,2.47-.752,13.958,13.958,0,0,0,3.543-1.825l-3.221-4.617-1.825,1.074c-5.905,2.684-9.663-2.04-10.415-3.114C5.493,21.208,4.2,10.256,7.64,6.068c.322-.322,1.288-.859,5.261,0l2.577.644,2.255.537v-2.9l.215-2.792-1.181-.322A50.034,50.034,0,0,0,11.183.056c-3.006-.215-6.12.107-7.945,2.47C-2.238,9.29.017,23.248,4.2,29.26Z" transform="translate(0 88.095)" fill="#455a64"/>
          <path id="Path-100" data-name="Path" d="M1.825,0,0,1.074,1.5,6.442A13.958,13.958,0,0,0,5.046,4.617Z" transform="translate(19.236 116.067)" fill="#263238"/>
          <path id="Path-101" data-name="Path" d="M0,0,1.611,6.013l2.577.644,2.255.537v-2.9L6.657,1.5,5.476,1.181A50.034,50.034,0,0,0,0,0Z" transform="translate(11.291 88.151)" fill="#263238"/>
          <path id="Path-102" data-name="Path" d="M66.033,0s-3.006,25.339-8.16,35.969S45.632,47.78,41.123,47.78H24.91c-4.51,0-11.6-1.181-16.75-11.811S0,0,0,0Z" transform="translate(13.116 80.85)" fill="#455a64"/>
          <path id="Shape-7" data-name="Shape" d="M25.876,39.727a2.9,2.9,0,1,1,2.9,2.9A2.9,2.9,0,0,1,25.876,39.727ZM36.721,32.21a3.005,3.005,0,0,1,3.006-2.9,2.9,2.9,0,0,1,2.9,2.9,3.007,3.007,0,0,1-2.9,3.008A3.114,3.114,0,0,1,36.721,32.21ZM14.6,31.782a2.9,2.9,0,1,1,2.9,2.9A2.9,2.9,0,0,1,14.6,31.782Zm32.534-8.7a2.9,2.9,0,1,1,2.9,2.9A2.9,2.9,0,0,1,47.136,23.084Zm-43.808,0a2.9,2.9,0,1,1,2.9,2.9A2.9,2.9,0,0,1,3.328,23.084Zm22.225-.429a2.9,2.9,0,1,1,2.9,2.9A2.9,2.9,0,0,1,25.554,22.655ZM37.58,13.313a2.9,2.9,0,1,1,5.8,0,2.9,2.9,0,1,1-5.8,0Zm-24.481,0a3.114,3.114,0,0,1,3.006-3.006A3.008,3.008,0,0,1,19,13.313a2.9,2.9,0,0,1-2.9,2.9A3.006,3.006,0,0,1,13.1,13.313ZM0,3.543a2.9,2.9,0,1,1,2.9,2.9A2.9,2.9,0,0,1,0,3.543ZM48.961,2.9a2.9,2.9,0,1,1,2.9,2.9A2.9,2.9,0,0,1,48.961,2.9Zm-23.085,0a2.9,2.9,0,1,1,2.9,2.9A2.9,2.9,0,0,1,25.876,2.9Z" transform="translate(18.055 84.608)" fill="#37474f"/>
        </g>
      </g>
    </g>
    <g id="Group_49584" data-name="Group 49584" transform="translate(0 61)">
      <g id="Group_49582" data-name="Group 49582" transform="translate(0 -140)">
        <g id="Group_49587" data-name="Group 49587">
          <rect id="Rectangle_Copy_2" data-name="Rectangle Copy 2" width="10" height="10" rx="5" transform="translate(394 818)" fill="#fff" opacity="0.5"/>
          <rect id="Rectangle_Copy" data-name="Rectangle Copy" width="24" height="10" rx="4" transform="translate(362 818)" fill="#fff"/>
          <rect id="Rectangle-72" data-name="Rectangle" width="10" height="10" rx="5" transform="translate(344 818)" fill="#fff" opacity="0.499"/>
        </g>
      </g>
      <g id="Bars_Navigation_Bar" data-name="Bars / Navigation Bar" transform="translate(280 671)">
        <g id="Icons_72_back" data-name="Icons/72/back">
          <path id="Path-103" data-name="Path" d="M0,0H24V24H0Z" fill="none"/>
          <path id="Path-104" data-name="Path" d="M16,8a1,1,0,0,0-1-1H3.83L8.712,2.118A1,1,0,0,0,8.71.7l0,0A1,1,0,0,0,7.3.7L.707,7.293a1,1,0,0,0,0,1.414L7.3,15.3a1,1,0,0,0,1.41,0h0a1,1,0,0,0,0-1.411L3.83,9H15A1,1,0,0,0,16,8Z" transform="translate(4 4)" fill="#fff"/>
        </g>
      </g>
      <g id="Bars_Navigation_Bar-2" data-name="Bars / Navigation Bar" transform="translate(444 671)">
        <g id="Icons_72_back-2" data-name="Icons/72/back">
          <path id="Path-105" data-name="Path" d="M24,0H0V24H24Z" fill="none"/>
          <path id="Path-106" data-name="Path" d="M.414,8a1,1,0,0,1,1-1h11.17L7.7,2.118A1,1,0,0,1,7.7.7l0,0A1,1,0,0,1,9.119.7l6.588,6.588a1,1,0,0,1,0,1.414L9.119,15.3a1,1,0,0,1-1.41,0h0a1,1,0,0,1,0-1.411L12.584,9H1.414A1,1,0,0,1,.414,8Z" transform="translate(3.586 4)" fill="#fff"/>
        </g>
      </g>
    </g>
  </g>
</svg>
